%TF.GenerationSoftware,KiCad,Pcbnew,9.0.6*%
%TF.CreationDate,2026-02-26T15:04:37-08:00*%
%TF.ProjectId,photogate v1,70686f74-6f67-4617-9465-2076312e6b69,rev?*%
%TF.SameCoordinates,Original*%
%TF.FileFunction,Profile,NP*%
%FSLAX46Y46*%
G04 Gerber Fmt 4.6, Leading zero omitted, Abs format (unit mm)*
G04 Created by KiCad (PCBNEW 9.0.6) date 2026-02-26 15:04:37*
%MOMM*%
%LPD*%
G01*
G04 APERTURE LIST*
%TA.AperFunction,Profile*%
%ADD10C,0.050000*%
%TD*%
%TA.AperFunction,Profile*%
%ADD11C,0.120000*%
%TD*%
G04 APERTURE END LIST*
D10*
X102800000Y-80016600D02*
X93979999Y-80012669D01*
X91440000Y-82550000D02*
X91440000Y-162560000D01*
X167640000Y-82550000D02*
X167640000Y-162560000D01*
X167640000Y-82550000D02*
X165100000Y-80010541D01*
X115800000Y-80016600D02*
X118595000Y-80016600D01*
X93980000Y-165100000D02*
X165100000Y-165100000D01*
X131595000Y-80016600D02*
X165100000Y-80010541D01*
X93979999Y-80012669D02*
X91440000Y-82550000D01*
X93980000Y-165100000D02*
X91440000Y-162560000D01*
X167640000Y-162560000D02*
X165100000Y-165100000D01*
D11*
%TO.C,J2*%
X107100000Y-80016600D02*
X102800000Y-80016600D01*
X107100000Y-81016600D02*
X107100000Y-80016600D01*
X107500000Y-81416600D02*
X111100000Y-81416600D01*
X111500000Y-80016600D02*
X115800000Y-80016600D01*
X111500000Y-81016600D02*
X111500000Y-80016600D01*
X107500000Y-81416600D02*
G75*
G02*
X107100000Y-81016600I0J400000D01*
G01*
X111500000Y-81016600D02*
G75*
G02*
X111100000Y-81416600I-400002J2D01*
G01*
%TO.C,J3*%
X122895000Y-80016600D02*
X118595000Y-80016600D01*
X122895000Y-81016600D02*
X122895000Y-80016600D01*
X123295000Y-81416600D02*
X126895000Y-81416600D01*
X127295000Y-80016600D02*
X131595000Y-80016600D01*
X127295000Y-81016600D02*
X127295000Y-80016600D01*
X123295000Y-81416600D02*
G75*
G02*
X122895000Y-81016600I0J400000D01*
G01*
X127295000Y-81016600D02*
G75*
G02*
X126895000Y-81416600I-400002J2D01*
G01*
%TD*%
M02*
