%TF.GenerationSoftware,KiCad,Pcbnew,9.0.6*%
%TF.CreationDate,2026-02-26T15:04:39-08:00*%
%TF.ProjectId,photogate v1,70686f74-6f67-4617-9465-2076312e6b69,rev?*%
%TF.SameCoordinates,Original*%
%TF.FileFunction,Drillmap*%
%TF.FilePolarity,Positive*%
%FSLAX45Y45*%
G04 Gerber Fmt 4.5, Leading zero omitted, Abs format (unit mm)*
G04 Created by KiCad (PCBNEW 9.0.6) date 2026-02-26 15:04:39*
%MOMM*%
%LPD*%
G01*
G04 APERTURE LIST*
%ADD10C,0.050000*%
%ADD11C,0.120000*%
%ADD12C,0.200000*%
%ADD13C,0.320000*%
%ADD14C,0.350000*%
G04 APERTURE END LIST*
D10*
X10280000Y-8001660D02*
X9398000Y-8001267D01*
X9144000Y-8255000D02*
X9144000Y-16256000D01*
X16764000Y-8255000D02*
X16764000Y-16256000D01*
X16764000Y-8255000D02*
X16510000Y-8001054D01*
X11580000Y-8001660D02*
X11859500Y-8001660D01*
X9398000Y-16510000D02*
X16510000Y-16510000D01*
X13159500Y-8001660D02*
X16510000Y-8001054D01*
X9398000Y-8001267D02*
X9144000Y-8255000D01*
X9398000Y-16510000D02*
X9144000Y-16256000D01*
X16764000Y-16256000D02*
X16510000Y-16510000D01*
D11*
X10710000Y-8001660D02*
X10280000Y-8001660D01*
X10710000Y-8101660D02*
X10710000Y-8001660D01*
X10750000Y-8141660D02*
X11110000Y-8141660D01*
X11150000Y-8001660D02*
X11580000Y-8001660D01*
X11150000Y-8101660D02*
X11150000Y-8001660D01*
X10750000Y-8141660D02*
G75*
G02*
X10710000Y-8101660I0J40000D01*
G01*
X11150000Y-8101660D02*
G75*
G02*
X11110000Y-8141660I-40000J0D01*
G01*
X12289500Y-8001660D02*
X11859500Y-8001660D01*
X12289500Y-8101660D02*
X12289500Y-8001660D01*
X12329500Y-8141660D02*
X12689500Y-8141660D01*
X12729500Y-8001660D02*
X13159500Y-8001660D01*
X12729500Y-8101660D02*
X12729500Y-8001660D01*
X12329500Y-8141660D02*
G75*
G02*
X12289500Y-8101660I0J40000D01*
G01*
X12729500Y-8101660D02*
G75*
G02*
X12689500Y-8141660I-40000J0D01*
G01*
D12*
D11*
X10370000Y-8141660D02*
X10490000Y-8261660D01*
X10490000Y-8141660D02*
X10370000Y-8261660D01*
X10370000Y-8391660D02*
X10490000Y-8511660D01*
X10490000Y-8391660D02*
X10370000Y-8511660D01*
X10870000Y-8891660D02*
X10990000Y-9011660D01*
X10990000Y-8891660D02*
X10870000Y-9011660D01*
X11370000Y-8141660D02*
X11490000Y-8261660D01*
X11490000Y-8141660D02*
X11370000Y-8261660D01*
X11370000Y-8391660D02*
X11490000Y-8511660D01*
X11490000Y-8391660D02*
X11370000Y-8511660D01*
X11949500Y-8141660D02*
X12069500Y-8261660D01*
X12069500Y-8141660D02*
X11949500Y-8261660D01*
X11949500Y-8391660D02*
X12069500Y-8511660D01*
X12069500Y-8391660D02*
X11949500Y-8511660D01*
X12449500Y-8891660D02*
X12569500Y-9011660D01*
X12569500Y-8891660D02*
X12449500Y-9011660D01*
X12949500Y-8141660D02*
X13069500Y-8261660D01*
X13069500Y-8141660D02*
X12949500Y-8261660D01*
X12949500Y-8391660D02*
X13069500Y-8511660D01*
X13069500Y-8391660D02*
X12949500Y-8511660D01*
D13*
X9748500Y-15755200D02*
G75*
G02*
X9428500Y-15755200I-160000J0D01*
G01*
X9428500Y-15755200D02*
G75*
G02*
X9748500Y-15755200I160000J0D01*
G01*
X9939000Y-9779000D02*
G75*
G02*
X9619000Y-9779000I-160000J0D01*
G01*
X9619000Y-9779000D02*
G75*
G02*
X9939000Y-9779000I160000J0D01*
G01*
X12529800Y-13779500D02*
G75*
G02*
X12209800Y-13779500I-160000J0D01*
G01*
X12209800Y-13779500D02*
G75*
G02*
X12529800Y-13779500I160000J0D01*
G01*
X16225500Y-8636000D02*
G75*
G02*
X15905500Y-8636000I-160000J0D01*
G01*
X15905500Y-8636000D02*
G75*
G02*
X16225500Y-8636000I160000J0D01*
G01*
X16479500Y-15780600D02*
G75*
G02*
X16159500Y-15780600I-160000J0D01*
G01*
X16159500Y-15780600D02*
G75*
G02*
X16479500Y-15780600I160000J0D01*
G01*
D14*
X14884400Y-11234800D02*
X14884400Y-11584800D01*
X14709400Y-11409800D02*
X15059400Y-11409800D01*
D12*
X9402277Y-16823984D02*
X9402277Y-16623984D01*
X9402277Y-16623984D02*
X9449896Y-16623984D01*
X9449896Y-16623984D02*
X9478467Y-16633508D01*
X9478467Y-16633508D02*
X9497515Y-16652555D01*
X9497515Y-16652555D02*
X9507039Y-16671603D01*
X9507039Y-16671603D02*
X9516563Y-16709698D01*
X9516563Y-16709698D02*
X9516563Y-16738269D01*
X9516563Y-16738269D02*
X9507039Y-16776365D01*
X9507039Y-16776365D02*
X9497515Y-16795412D01*
X9497515Y-16795412D02*
X9478467Y-16814460D01*
X9478467Y-16814460D02*
X9449896Y-16823984D01*
X9449896Y-16823984D02*
X9402277Y-16823984D01*
X9602277Y-16823984D02*
X9602277Y-16690650D01*
X9602277Y-16728746D02*
X9611801Y-16709698D01*
X9611801Y-16709698D02*
X9621324Y-16700174D01*
X9621324Y-16700174D02*
X9640372Y-16690650D01*
X9640372Y-16690650D02*
X9659420Y-16690650D01*
X9726086Y-16823984D02*
X9726086Y-16690650D01*
X9726086Y-16623984D02*
X9716563Y-16633508D01*
X9716563Y-16633508D02*
X9726086Y-16643031D01*
X9726086Y-16643031D02*
X9735610Y-16633508D01*
X9735610Y-16633508D02*
X9726086Y-16623984D01*
X9726086Y-16623984D02*
X9726086Y-16643031D01*
X9849896Y-16823984D02*
X9830848Y-16814460D01*
X9830848Y-16814460D02*
X9821324Y-16795412D01*
X9821324Y-16795412D02*
X9821324Y-16623984D01*
X9954658Y-16823984D02*
X9935610Y-16814460D01*
X9935610Y-16814460D02*
X9926086Y-16795412D01*
X9926086Y-16795412D02*
X9926086Y-16623984D01*
X10183229Y-16823984D02*
X10183229Y-16623984D01*
X10183229Y-16623984D02*
X10249896Y-16766841D01*
X10249896Y-16766841D02*
X10316563Y-16623984D01*
X10316563Y-16623984D02*
X10316563Y-16823984D01*
X10497515Y-16823984D02*
X10497515Y-16719222D01*
X10497515Y-16719222D02*
X10487991Y-16700174D01*
X10487991Y-16700174D02*
X10468944Y-16690650D01*
X10468944Y-16690650D02*
X10430848Y-16690650D01*
X10430848Y-16690650D02*
X10411801Y-16700174D01*
X10497515Y-16814460D02*
X10478467Y-16823984D01*
X10478467Y-16823984D02*
X10430848Y-16823984D01*
X10430848Y-16823984D02*
X10411801Y-16814460D01*
X10411801Y-16814460D02*
X10402277Y-16795412D01*
X10402277Y-16795412D02*
X10402277Y-16776365D01*
X10402277Y-16776365D02*
X10411801Y-16757317D01*
X10411801Y-16757317D02*
X10430848Y-16747793D01*
X10430848Y-16747793D02*
X10478467Y-16747793D01*
X10478467Y-16747793D02*
X10497515Y-16738269D01*
X10592753Y-16690650D02*
X10592753Y-16890650D01*
X10592753Y-16700174D02*
X10611801Y-16690650D01*
X10611801Y-16690650D02*
X10649896Y-16690650D01*
X10649896Y-16690650D02*
X10668944Y-16700174D01*
X10668944Y-16700174D02*
X10678467Y-16709698D01*
X10678467Y-16709698D02*
X10687991Y-16728746D01*
X10687991Y-16728746D02*
X10687991Y-16785889D01*
X10687991Y-16785889D02*
X10678467Y-16804936D01*
X10678467Y-16804936D02*
X10668944Y-16814460D01*
X10668944Y-16814460D02*
X10649896Y-16823984D01*
X10649896Y-16823984D02*
X10611801Y-16823984D01*
X10611801Y-16823984D02*
X10592753Y-16814460D01*
X10773705Y-16804936D02*
X10783229Y-16814460D01*
X10783229Y-16814460D02*
X10773705Y-16823984D01*
X10773705Y-16823984D02*
X10764182Y-16814460D01*
X10764182Y-16814460D02*
X10773705Y-16804936D01*
X10773705Y-16804936D02*
X10773705Y-16823984D01*
X10773705Y-16700174D02*
X10783229Y-16709698D01*
X10783229Y-16709698D02*
X10773705Y-16719222D01*
X10773705Y-16719222D02*
X10764182Y-16709698D01*
X10764182Y-16709698D02*
X10773705Y-16700174D01*
X10773705Y-16700174D02*
X10773705Y-16719222D01*
D11*
X9021500Y-17092500D02*
X9141500Y-17212500D01*
X9141500Y-17092500D02*
X9021500Y-17212500D01*
D12*
X9507039Y-17243984D02*
X9392753Y-17243984D01*
X9449896Y-17243984D02*
X9449896Y-17043984D01*
X9449896Y-17043984D02*
X9430848Y-17072555D01*
X9430848Y-17072555D02*
X9411801Y-17091603D01*
X9411801Y-17091603D02*
X9392753Y-17101127D01*
X9592753Y-17224936D02*
X9602277Y-17234460D01*
X9602277Y-17234460D02*
X9592753Y-17243984D01*
X9592753Y-17243984D02*
X9583229Y-17234460D01*
X9583229Y-17234460D02*
X9592753Y-17224936D01*
X9592753Y-17224936D02*
X9592753Y-17243984D01*
X9678467Y-17063031D02*
X9687991Y-17053508D01*
X9687991Y-17053508D02*
X9707039Y-17043984D01*
X9707039Y-17043984D02*
X9754658Y-17043984D01*
X9754658Y-17043984D02*
X9773705Y-17053508D01*
X9773705Y-17053508D02*
X9783229Y-17063031D01*
X9783229Y-17063031D02*
X9792753Y-17082079D01*
X9792753Y-17082079D02*
X9792753Y-17101127D01*
X9792753Y-17101127D02*
X9783229Y-17129698D01*
X9783229Y-17129698D02*
X9668944Y-17243984D01*
X9668944Y-17243984D02*
X9792753Y-17243984D01*
X9916563Y-17043984D02*
X9935610Y-17043984D01*
X9935610Y-17043984D02*
X9954658Y-17053508D01*
X9954658Y-17053508D02*
X9964182Y-17063031D01*
X9964182Y-17063031D02*
X9973705Y-17082079D01*
X9973705Y-17082079D02*
X9983229Y-17120174D01*
X9983229Y-17120174D02*
X9983229Y-17167793D01*
X9983229Y-17167793D02*
X9973705Y-17205889D01*
X9973705Y-17205889D02*
X9964182Y-17224936D01*
X9964182Y-17224936D02*
X9954658Y-17234460D01*
X9954658Y-17234460D02*
X9935610Y-17243984D01*
X9935610Y-17243984D02*
X9916563Y-17243984D01*
X9916563Y-17243984D02*
X9897515Y-17234460D01*
X9897515Y-17234460D02*
X9887991Y-17224936D01*
X9887991Y-17224936D02*
X9878467Y-17205889D01*
X9878467Y-17205889D02*
X9868944Y-17167793D01*
X9868944Y-17167793D02*
X9868944Y-17120174D01*
X9868944Y-17120174D02*
X9878467Y-17082079D01*
X9878467Y-17082079D02*
X9887991Y-17063031D01*
X9887991Y-17063031D02*
X9897515Y-17053508D01*
X9897515Y-17053508D02*
X9916563Y-17043984D01*
X10107039Y-17043984D02*
X10126086Y-17043984D01*
X10126086Y-17043984D02*
X10145134Y-17053508D01*
X10145134Y-17053508D02*
X10154658Y-17063031D01*
X10154658Y-17063031D02*
X10164182Y-17082079D01*
X10164182Y-17082079D02*
X10173705Y-17120174D01*
X10173705Y-17120174D02*
X10173705Y-17167793D01*
X10173705Y-17167793D02*
X10164182Y-17205889D01*
X10164182Y-17205889D02*
X10154658Y-17224936D01*
X10154658Y-17224936D02*
X10145134Y-17234460D01*
X10145134Y-17234460D02*
X10126086Y-17243984D01*
X10126086Y-17243984D02*
X10107039Y-17243984D01*
X10107039Y-17243984D02*
X10087991Y-17234460D01*
X10087991Y-17234460D02*
X10078467Y-17224936D01*
X10078467Y-17224936D02*
X10068944Y-17205889D01*
X10068944Y-17205889D02*
X10059420Y-17167793D01*
X10059420Y-17167793D02*
X10059420Y-17120174D01*
X10059420Y-17120174D02*
X10068944Y-17082079D01*
X10068944Y-17082079D02*
X10078467Y-17063031D01*
X10078467Y-17063031D02*
X10087991Y-17053508D01*
X10087991Y-17053508D02*
X10107039Y-17043984D01*
X10259420Y-17243984D02*
X10259420Y-17110650D01*
X10259420Y-17129698D02*
X10268944Y-17120174D01*
X10268944Y-17120174D02*
X10287991Y-17110650D01*
X10287991Y-17110650D02*
X10316563Y-17110650D01*
X10316563Y-17110650D02*
X10335610Y-17120174D01*
X10335610Y-17120174D02*
X10345134Y-17139222D01*
X10345134Y-17139222D02*
X10345134Y-17243984D01*
X10345134Y-17139222D02*
X10354658Y-17120174D01*
X10354658Y-17120174D02*
X10373705Y-17110650D01*
X10373705Y-17110650D02*
X10402277Y-17110650D01*
X10402277Y-17110650D02*
X10421325Y-17120174D01*
X10421325Y-17120174D02*
X10430848Y-17139222D01*
X10430848Y-17139222D02*
X10430848Y-17243984D01*
X10526086Y-17243984D02*
X10526086Y-17110650D01*
X10526086Y-17129698D02*
X10535610Y-17120174D01*
X10535610Y-17120174D02*
X10554658Y-17110650D01*
X10554658Y-17110650D02*
X10583229Y-17110650D01*
X10583229Y-17110650D02*
X10602277Y-17120174D01*
X10602277Y-17120174D02*
X10611801Y-17139222D01*
X10611801Y-17139222D02*
X10611801Y-17243984D01*
X10611801Y-17139222D02*
X10621325Y-17120174D01*
X10621325Y-17120174D02*
X10640372Y-17110650D01*
X10640372Y-17110650D02*
X10668944Y-17110650D01*
X10668944Y-17110650D02*
X10687991Y-17120174D01*
X10687991Y-17120174D02*
X10697515Y-17139222D01*
X10697515Y-17139222D02*
X10697515Y-17243984D01*
X11087991Y-17034460D02*
X10916563Y-17291603D01*
X11345134Y-17043984D02*
X11364182Y-17043984D01*
X11364182Y-17043984D02*
X11383229Y-17053508D01*
X11383229Y-17053508D02*
X11392753Y-17063031D01*
X11392753Y-17063031D02*
X11402277Y-17082079D01*
X11402277Y-17082079D02*
X11411801Y-17120174D01*
X11411801Y-17120174D02*
X11411801Y-17167793D01*
X11411801Y-17167793D02*
X11402277Y-17205889D01*
X11402277Y-17205889D02*
X11392753Y-17224936D01*
X11392753Y-17224936D02*
X11383229Y-17234460D01*
X11383229Y-17234460D02*
X11364182Y-17243984D01*
X11364182Y-17243984D02*
X11345134Y-17243984D01*
X11345134Y-17243984D02*
X11326086Y-17234460D01*
X11326086Y-17234460D02*
X11316563Y-17224936D01*
X11316563Y-17224936D02*
X11307039Y-17205889D01*
X11307039Y-17205889D02*
X11297515Y-17167793D01*
X11297515Y-17167793D02*
X11297515Y-17120174D01*
X11297515Y-17120174D02*
X11307039Y-17082079D01*
X11307039Y-17082079D02*
X11316563Y-17063031D01*
X11316563Y-17063031D02*
X11326086Y-17053508D01*
X11326086Y-17053508D02*
X11345134Y-17043984D01*
X11497515Y-17224936D02*
X11507039Y-17234460D01*
X11507039Y-17234460D02*
X11497515Y-17243984D01*
X11497515Y-17243984D02*
X11487991Y-17234460D01*
X11487991Y-17234460D02*
X11497515Y-17224936D01*
X11497515Y-17224936D02*
X11497515Y-17243984D01*
X11630848Y-17043984D02*
X11649896Y-17043984D01*
X11649896Y-17043984D02*
X11668944Y-17053508D01*
X11668944Y-17053508D02*
X11678467Y-17063031D01*
X11678467Y-17063031D02*
X11687991Y-17082079D01*
X11687991Y-17082079D02*
X11697515Y-17120174D01*
X11697515Y-17120174D02*
X11697515Y-17167793D01*
X11697515Y-17167793D02*
X11687991Y-17205889D01*
X11687991Y-17205889D02*
X11678467Y-17224936D01*
X11678467Y-17224936D02*
X11668944Y-17234460D01*
X11668944Y-17234460D02*
X11649896Y-17243984D01*
X11649896Y-17243984D02*
X11630848Y-17243984D01*
X11630848Y-17243984D02*
X11611801Y-17234460D01*
X11611801Y-17234460D02*
X11602277Y-17224936D01*
X11602277Y-17224936D02*
X11592753Y-17205889D01*
X11592753Y-17205889D02*
X11583229Y-17167793D01*
X11583229Y-17167793D02*
X11583229Y-17120174D01*
X11583229Y-17120174D02*
X11592753Y-17082079D01*
X11592753Y-17082079D02*
X11602277Y-17063031D01*
X11602277Y-17063031D02*
X11611801Y-17053508D01*
X11611801Y-17053508D02*
X11630848Y-17043984D01*
X11868944Y-17110650D02*
X11868944Y-17243984D01*
X11821325Y-17034460D02*
X11773706Y-17177317D01*
X11773706Y-17177317D02*
X11897515Y-17177317D01*
X11954658Y-17043984D02*
X12087991Y-17043984D01*
X12087991Y-17043984D02*
X12002277Y-17243984D01*
X12154658Y-17063031D02*
X12164182Y-17053508D01*
X12164182Y-17053508D02*
X12183229Y-17043984D01*
X12183229Y-17043984D02*
X12230848Y-17043984D01*
X12230848Y-17043984D02*
X12249896Y-17053508D01*
X12249896Y-17053508D02*
X12259420Y-17063031D01*
X12259420Y-17063031D02*
X12268944Y-17082079D01*
X12268944Y-17082079D02*
X12268944Y-17101127D01*
X12268944Y-17101127D02*
X12259420Y-17129698D01*
X12259420Y-17129698D02*
X12145134Y-17243984D01*
X12145134Y-17243984D02*
X12268944Y-17243984D01*
X12345134Y-17043984D02*
X12345134Y-17082079D01*
X12421325Y-17043984D02*
X12421325Y-17082079D01*
X12716563Y-17320174D02*
X12707039Y-17310650D01*
X12707039Y-17310650D02*
X12687991Y-17282079D01*
X12687991Y-17282079D02*
X12678468Y-17263031D01*
X12678468Y-17263031D02*
X12668944Y-17234460D01*
X12668944Y-17234460D02*
X12659420Y-17186841D01*
X12659420Y-17186841D02*
X12659420Y-17148746D01*
X12659420Y-17148746D02*
X12668944Y-17101127D01*
X12668944Y-17101127D02*
X12678468Y-17072555D01*
X12678468Y-17072555D02*
X12687991Y-17053508D01*
X12687991Y-17053508D02*
X12707039Y-17024936D01*
X12707039Y-17024936D02*
X12716563Y-17015412D01*
X12897515Y-17243984D02*
X12783229Y-17243984D01*
X12840372Y-17243984D02*
X12840372Y-17043984D01*
X12840372Y-17043984D02*
X12821325Y-17072555D01*
X12821325Y-17072555D02*
X12802277Y-17091603D01*
X12802277Y-17091603D02*
X12783229Y-17101127D01*
X13021325Y-17043984D02*
X13040372Y-17043984D01*
X13040372Y-17043984D02*
X13059420Y-17053508D01*
X13059420Y-17053508D02*
X13068944Y-17063031D01*
X13068944Y-17063031D02*
X13078468Y-17082079D01*
X13078468Y-17082079D02*
X13087991Y-17120174D01*
X13087991Y-17120174D02*
X13087991Y-17167793D01*
X13087991Y-17167793D02*
X13078468Y-17205889D01*
X13078468Y-17205889D02*
X13068944Y-17224936D01*
X13068944Y-17224936D02*
X13059420Y-17234460D01*
X13059420Y-17234460D02*
X13040372Y-17243984D01*
X13040372Y-17243984D02*
X13021325Y-17243984D01*
X13021325Y-17243984D02*
X13002277Y-17234460D01*
X13002277Y-17234460D02*
X12992753Y-17224936D01*
X12992753Y-17224936D02*
X12983229Y-17205889D01*
X12983229Y-17205889D02*
X12973706Y-17167793D01*
X12973706Y-17167793D02*
X12973706Y-17120174D01*
X12973706Y-17120174D02*
X12983229Y-17082079D01*
X12983229Y-17082079D02*
X12992753Y-17063031D01*
X12992753Y-17063031D02*
X13002277Y-17053508D01*
X13002277Y-17053508D02*
X13021325Y-17043984D01*
X13326087Y-17243984D02*
X13326087Y-17043984D01*
X13411801Y-17243984D02*
X13411801Y-17139222D01*
X13411801Y-17139222D02*
X13402277Y-17120174D01*
X13402277Y-17120174D02*
X13383230Y-17110650D01*
X13383230Y-17110650D02*
X13354658Y-17110650D01*
X13354658Y-17110650D02*
X13335610Y-17120174D01*
X13335610Y-17120174D02*
X13326087Y-17129698D01*
X13535610Y-17243984D02*
X13516563Y-17234460D01*
X13516563Y-17234460D02*
X13507039Y-17224936D01*
X13507039Y-17224936D02*
X13497515Y-17205889D01*
X13497515Y-17205889D02*
X13497515Y-17148746D01*
X13497515Y-17148746D02*
X13507039Y-17129698D01*
X13507039Y-17129698D02*
X13516563Y-17120174D01*
X13516563Y-17120174D02*
X13535610Y-17110650D01*
X13535610Y-17110650D02*
X13564182Y-17110650D01*
X13564182Y-17110650D02*
X13583230Y-17120174D01*
X13583230Y-17120174D02*
X13592753Y-17129698D01*
X13592753Y-17129698D02*
X13602277Y-17148746D01*
X13602277Y-17148746D02*
X13602277Y-17205889D01*
X13602277Y-17205889D02*
X13592753Y-17224936D01*
X13592753Y-17224936D02*
X13583230Y-17234460D01*
X13583230Y-17234460D02*
X13564182Y-17243984D01*
X13564182Y-17243984D02*
X13535610Y-17243984D01*
X13716563Y-17243984D02*
X13697515Y-17234460D01*
X13697515Y-17234460D02*
X13687991Y-17215412D01*
X13687991Y-17215412D02*
X13687991Y-17043984D01*
X13868944Y-17234460D02*
X13849896Y-17243984D01*
X13849896Y-17243984D02*
X13811801Y-17243984D01*
X13811801Y-17243984D02*
X13792753Y-17234460D01*
X13792753Y-17234460D02*
X13783230Y-17215412D01*
X13783230Y-17215412D02*
X13783230Y-17139222D01*
X13783230Y-17139222D02*
X13792753Y-17120174D01*
X13792753Y-17120174D02*
X13811801Y-17110650D01*
X13811801Y-17110650D02*
X13849896Y-17110650D01*
X13849896Y-17110650D02*
X13868944Y-17120174D01*
X13868944Y-17120174D02*
X13878468Y-17139222D01*
X13878468Y-17139222D02*
X13878468Y-17158270D01*
X13878468Y-17158270D02*
X13783230Y-17177317D01*
X13954658Y-17234460D02*
X13973706Y-17243984D01*
X13973706Y-17243984D02*
X14011801Y-17243984D01*
X14011801Y-17243984D02*
X14030849Y-17234460D01*
X14030849Y-17234460D02*
X14040372Y-17215412D01*
X14040372Y-17215412D02*
X14040372Y-17205889D01*
X14040372Y-17205889D02*
X14030849Y-17186841D01*
X14030849Y-17186841D02*
X14011801Y-17177317D01*
X14011801Y-17177317D02*
X13983230Y-17177317D01*
X13983230Y-17177317D02*
X13964182Y-17167793D01*
X13964182Y-17167793D02*
X13954658Y-17148746D01*
X13954658Y-17148746D02*
X13954658Y-17139222D01*
X13954658Y-17139222D02*
X13964182Y-17120174D01*
X13964182Y-17120174D02*
X13983230Y-17110650D01*
X13983230Y-17110650D02*
X14011801Y-17110650D01*
X14011801Y-17110650D02*
X14030849Y-17120174D01*
X14107039Y-17320174D02*
X14116563Y-17310650D01*
X14116563Y-17310650D02*
X14135611Y-17282079D01*
X14135611Y-17282079D02*
X14145134Y-17263031D01*
X14145134Y-17263031D02*
X14154658Y-17234460D01*
X14154658Y-17234460D02*
X14164182Y-17186841D01*
X14164182Y-17186841D02*
X14164182Y-17148746D01*
X14164182Y-17148746D02*
X14154658Y-17101127D01*
X14154658Y-17101127D02*
X14145134Y-17072555D01*
X14145134Y-17072555D02*
X14135611Y-17053508D01*
X14135611Y-17053508D02*
X14116563Y-17024936D01*
X14116563Y-17024936D02*
X14107039Y-17015412D01*
X14468944Y-17320174D02*
X14459420Y-17310650D01*
X14459420Y-17310650D02*
X14440372Y-17282079D01*
X14440372Y-17282079D02*
X14430849Y-17263031D01*
X14430849Y-17263031D02*
X14421325Y-17234460D01*
X14421325Y-17234460D02*
X14411801Y-17186841D01*
X14411801Y-17186841D02*
X14411801Y-17148746D01*
X14411801Y-17148746D02*
X14421325Y-17101127D01*
X14421325Y-17101127D02*
X14430849Y-17072555D01*
X14430849Y-17072555D02*
X14440372Y-17053508D01*
X14440372Y-17053508D02*
X14459420Y-17024936D01*
X14459420Y-17024936D02*
X14468944Y-17015412D01*
X14545134Y-17110650D02*
X14545134Y-17243984D01*
X14545134Y-17129698D02*
X14554658Y-17120174D01*
X14554658Y-17120174D02*
X14573706Y-17110650D01*
X14573706Y-17110650D02*
X14602277Y-17110650D01*
X14602277Y-17110650D02*
X14621325Y-17120174D01*
X14621325Y-17120174D02*
X14630849Y-17139222D01*
X14630849Y-17139222D02*
X14630849Y-17243984D01*
X14754658Y-17243984D02*
X14735611Y-17234460D01*
X14735611Y-17234460D02*
X14726087Y-17224936D01*
X14726087Y-17224936D02*
X14716563Y-17205889D01*
X14716563Y-17205889D02*
X14716563Y-17148746D01*
X14716563Y-17148746D02*
X14726087Y-17129698D01*
X14726087Y-17129698D02*
X14735611Y-17120174D01*
X14735611Y-17120174D02*
X14754658Y-17110650D01*
X14754658Y-17110650D02*
X14783230Y-17110650D01*
X14783230Y-17110650D02*
X14802277Y-17120174D01*
X14802277Y-17120174D02*
X14811801Y-17129698D01*
X14811801Y-17129698D02*
X14821325Y-17148746D01*
X14821325Y-17148746D02*
X14821325Y-17205889D01*
X14821325Y-17205889D02*
X14811801Y-17224936D01*
X14811801Y-17224936D02*
X14802277Y-17234460D01*
X14802277Y-17234460D02*
X14783230Y-17243984D01*
X14783230Y-17243984D02*
X14754658Y-17243984D01*
X14878468Y-17110650D02*
X14954658Y-17110650D01*
X14907039Y-17043984D02*
X14907039Y-17215412D01*
X14907039Y-17215412D02*
X14916563Y-17234460D01*
X14916563Y-17234460D02*
X14935611Y-17243984D01*
X14935611Y-17243984D02*
X14954658Y-17243984D01*
X15173706Y-17110650D02*
X15173706Y-17310650D01*
X15173706Y-17120174D02*
X15192753Y-17110650D01*
X15192753Y-17110650D02*
X15230849Y-17110650D01*
X15230849Y-17110650D02*
X15249896Y-17120174D01*
X15249896Y-17120174D02*
X15259420Y-17129698D01*
X15259420Y-17129698D02*
X15268944Y-17148746D01*
X15268944Y-17148746D02*
X15268944Y-17205889D01*
X15268944Y-17205889D02*
X15259420Y-17224936D01*
X15259420Y-17224936D02*
X15249896Y-17234460D01*
X15249896Y-17234460D02*
X15230849Y-17243984D01*
X15230849Y-17243984D02*
X15192753Y-17243984D01*
X15192753Y-17243984D02*
X15173706Y-17234460D01*
X15383230Y-17243984D02*
X15364182Y-17234460D01*
X15364182Y-17234460D02*
X15354658Y-17215412D01*
X15354658Y-17215412D02*
X15354658Y-17043984D01*
X15545134Y-17243984D02*
X15545134Y-17139222D01*
X15545134Y-17139222D02*
X15535611Y-17120174D01*
X15535611Y-17120174D02*
X15516563Y-17110650D01*
X15516563Y-17110650D02*
X15478468Y-17110650D01*
X15478468Y-17110650D02*
X15459420Y-17120174D01*
X15545134Y-17234460D02*
X15526087Y-17243984D01*
X15526087Y-17243984D02*
X15478468Y-17243984D01*
X15478468Y-17243984D02*
X15459420Y-17234460D01*
X15459420Y-17234460D02*
X15449896Y-17215412D01*
X15449896Y-17215412D02*
X15449896Y-17196365D01*
X15449896Y-17196365D02*
X15459420Y-17177317D01*
X15459420Y-17177317D02*
X15478468Y-17167793D01*
X15478468Y-17167793D02*
X15526087Y-17167793D01*
X15526087Y-17167793D02*
X15545134Y-17158270D01*
X15611801Y-17110650D02*
X15687992Y-17110650D01*
X15640373Y-17043984D02*
X15640373Y-17215412D01*
X15640373Y-17215412D02*
X15649896Y-17234460D01*
X15649896Y-17234460D02*
X15668944Y-17243984D01*
X15668944Y-17243984D02*
X15687992Y-17243984D01*
X15830849Y-17234460D02*
X15811801Y-17243984D01*
X15811801Y-17243984D02*
X15773706Y-17243984D01*
X15773706Y-17243984D02*
X15754658Y-17234460D01*
X15754658Y-17234460D02*
X15745134Y-17215412D01*
X15745134Y-17215412D02*
X15745134Y-17139222D01*
X15745134Y-17139222D02*
X15754658Y-17120174D01*
X15754658Y-17120174D02*
X15773706Y-17110650D01*
X15773706Y-17110650D02*
X15811801Y-17110650D01*
X15811801Y-17110650D02*
X15830849Y-17120174D01*
X15830849Y-17120174D02*
X15840373Y-17139222D01*
X15840373Y-17139222D02*
X15840373Y-17158270D01*
X15840373Y-17158270D02*
X15745134Y-17177317D01*
X16011801Y-17243984D02*
X16011801Y-17043984D01*
X16011801Y-17234460D02*
X15992754Y-17243984D01*
X15992754Y-17243984D02*
X15954658Y-17243984D01*
X15954658Y-17243984D02*
X15935611Y-17234460D01*
X15935611Y-17234460D02*
X15926087Y-17224936D01*
X15926087Y-17224936D02*
X15916563Y-17205889D01*
X15916563Y-17205889D02*
X15916563Y-17148746D01*
X15916563Y-17148746D02*
X15926087Y-17129698D01*
X15926087Y-17129698D02*
X15935611Y-17120174D01*
X15935611Y-17120174D02*
X15954658Y-17110650D01*
X15954658Y-17110650D02*
X15992754Y-17110650D01*
X15992754Y-17110650D02*
X16011801Y-17120174D01*
X16087992Y-17320174D02*
X16097515Y-17310650D01*
X16097515Y-17310650D02*
X16116563Y-17282079D01*
X16116563Y-17282079D02*
X16126087Y-17263031D01*
X16126087Y-17263031D02*
X16135611Y-17234460D01*
X16135611Y-17234460D02*
X16145134Y-17186841D01*
X16145134Y-17186841D02*
X16145134Y-17148746D01*
X16145134Y-17148746D02*
X16135611Y-17101127D01*
X16135611Y-17101127D02*
X16126087Y-17072555D01*
X16126087Y-17072555D02*
X16116563Y-17053508D01*
X16116563Y-17053508D02*
X16097515Y-17024936D01*
X16097515Y-17024936D02*
X16087992Y-17015412D01*
X9141500Y-17416500D02*
G75*
G02*
X8941500Y-17416500I-100000J0D01*
G01*
X8941500Y-17416500D02*
G75*
G02*
X9141500Y-17416500I100000J0D01*
G01*
X9383229Y-17307984D02*
X9507039Y-17307984D01*
X9507039Y-17307984D02*
X9440372Y-17384174D01*
X9440372Y-17384174D02*
X9468944Y-17384174D01*
X9468944Y-17384174D02*
X9487991Y-17393698D01*
X9487991Y-17393698D02*
X9497515Y-17403222D01*
X9497515Y-17403222D02*
X9507039Y-17422270D01*
X9507039Y-17422270D02*
X9507039Y-17469889D01*
X9507039Y-17469889D02*
X9497515Y-17488936D01*
X9497515Y-17488936D02*
X9487991Y-17498460D01*
X9487991Y-17498460D02*
X9468944Y-17507984D01*
X9468944Y-17507984D02*
X9411801Y-17507984D01*
X9411801Y-17507984D02*
X9392753Y-17498460D01*
X9392753Y-17498460D02*
X9383229Y-17488936D01*
X9592753Y-17488936D02*
X9602277Y-17498460D01*
X9602277Y-17498460D02*
X9592753Y-17507984D01*
X9592753Y-17507984D02*
X9583229Y-17498460D01*
X9583229Y-17498460D02*
X9592753Y-17488936D01*
X9592753Y-17488936D02*
X9592753Y-17507984D01*
X9678467Y-17327031D02*
X9687991Y-17317508D01*
X9687991Y-17317508D02*
X9707039Y-17307984D01*
X9707039Y-17307984D02*
X9754658Y-17307984D01*
X9754658Y-17307984D02*
X9773705Y-17317508D01*
X9773705Y-17317508D02*
X9783229Y-17327031D01*
X9783229Y-17327031D02*
X9792753Y-17346079D01*
X9792753Y-17346079D02*
X9792753Y-17365127D01*
X9792753Y-17365127D02*
X9783229Y-17393698D01*
X9783229Y-17393698D02*
X9668944Y-17507984D01*
X9668944Y-17507984D02*
X9792753Y-17507984D01*
X9916563Y-17307984D02*
X9935610Y-17307984D01*
X9935610Y-17307984D02*
X9954658Y-17317508D01*
X9954658Y-17317508D02*
X9964182Y-17327031D01*
X9964182Y-17327031D02*
X9973705Y-17346079D01*
X9973705Y-17346079D02*
X9983229Y-17384174D01*
X9983229Y-17384174D02*
X9983229Y-17431793D01*
X9983229Y-17431793D02*
X9973705Y-17469889D01*
X9973705Y-17469889D02*
X9964182Y-17488936D01*
X9964182Y-17488936D02*
X9954658Y-17498460D01*
X9954658Y-17498460D02*
X9935610Y-17507984D01*
X9935610Y-17507984D02*
X9916563Y-17507984D01*
X9916563Y-17507984D02*
X9897515Y-17498460D01*
X9897515Y-17498460D02*
X9887991Y-17488936D01*
X9887991Y-17488936D02*
X9878467Y-17469889D01*
X9878467Y-17469889D02*
X9868944Y-17431793D01*
X9868944Y-17431793D02*
X9868944Y-17384174D01*
X9868944Y-17384174D02*
X9878467Y-17346079D01*
X9878467Y-17346079D02*
X9887991Y-17327031D01*
X9887991Y-17327031D02*
X9897515Y-17317508D01*
X9897515Y-17317508D02*
X9916563Y-17307984D01*
X10107039Y-17307984D02*
X10126086Y-17307984D01*
X10126086Y-17307984D02*
X10145134Y-17317508D01*
X10145134Y-17317508D02*
X10154658Y-17327031D01*
X10154658Y-17327031D02*
X10164182Y-17346079D01*
X10164182Y-17346079D02*
X10173705Y-17384174D01*
X10173705Y-17384174D02*
X10173705Y-17431793D01*
X10173705Y-17431793D02*
X10164182Y-17469889D01*
X10164182Y-17469889D02*
X10154658Y-17488936D01*
X10154658Y-17488936D02*
X10145134Y-17498460D01*
X10145134Y-17498460D02*
X10126086Y-17507984D01*
X10126086Y-17507984D02*
X10107039Y-17507984D01*
X10107039Y-17507984D02*
X10087991Y-17498460D01*
X10087991Y-17498460D02*
X10078467Y-17488936D01*
X10078467Y-17488936D02*
X10068944Y-17469889D01*
X10068944Y-17469889D02*
X10059420Y-17431793D01*
X10059420Y-17431793D02*
X10059420Y-17384174D01*
X10059420Y-17384174D02*
X10068944Y-17346079D01*
X10068944Y-17346079D02*
X10078467Y-17327031D01*
X10078467Y-17327031D02*
X10087991Y-17317508D01*
X10087991Y-17317508D02*
X10107039Y-17307984D01*
X10259420Y-17507984D02*
X10259420Y-17374650D01*
X10259420Y-17393698D02*
X10268944Y-17384174D01*
X10268944Y-17384174D02*
X10287991Y-17374650D01*
X10287991Y-17374650D02*
X10316563Y-17374650D01*
X10316563Y-17374650D02*
X10335610Y-17384174D01*
X10335610Y-17384174D02*
X10345134Y-17403222D01*
X10345134Y-17403222D02*
X10345134Y-17507984D01*
X10345134Y-17403222D02*
X10354658Y-17384174D01*
X10354658Y-17384174D02*
X10373705Y-17374650D01*
X10373705Y-17374650D02*
X10402277Y-17374650D01*
X10402277Y-17374650D02*
X10421325Y-17384174D01*
X10421325Y-17384174D02*
X10430848Y-17403222D01*
X10430848Y-17403222D02*
X10430848Y-17507984D01*
X10526086Y-17507984D02*
X10526086Y-17374650D01*
X10526086Y-17393698D02*
X10535610Y-17384174D01*
X10535610Y-17384174D02*
X10554658Y-17374650D01*
X10554658Y-17374650D02*
X10583229Y-17374650D01*
X10583229Y-17374650D02*
X10602277Y-17384174D01*
X10602277Y-17384174D02*
X10611801Y-17403222D01*
X10611801Y-17403222D02*
X10611801Y-17507984D01*
X10611801Y-17403222D02*
X10621325Y-17384174D01*
X10621325Y-17384174D02*
X10640372Y-17374650D01*
X10640372Y-17374650D02*
X10668944Y-17374650D01*
X10668944Y-17374650D02*
X10687991Y-17384174D01*
X10687991Y-17384174D02*
X10697515Y-17403222D01*
X10697515Y-17403222D02*
X10697515Y-17507984D01*
X11087991Y-17298460D02*
X10916563Y-17555603D01*
X11345134Y-17307984D02*
X11364182Y-17307984D01*
X11364182Y-17307984D02*
X11383229Y-17317508D01*
X11383229Y-17317508D02*
X11392753Y-17327031D01*
X11392753Y-17327031D02*
X11402277Y-17346079D01*
X11402277Y-17346079D02*
X11411801Y-17384174D01*
X11411801Y-17384174D02*
X11411801Y-17431793D01*
X11411801Y-17431793D02*
X11402277Y-17469889D01*
X11402277Y-17469889D02*
X11392753Y-17488936D01*
X11392753Y-17488936D02*
X11383229Y-17498460D01*
X11383229Y-17498460D02*
X11364182Y-17507984D01*
X11364182Y-17507984D02*
X11345134Y-17507984D01*
X11345134Y-17507984D02*
X11326086Y-17498460D01*
X11326086Y-17498460D02*
X11316563Y-17488936D01*
X11316563Y-17488936D02*
X11307039Y-17469889D01*
X11307039Y-17469889D02*
X11297515Y-17431793D01*
X11297515Y-17431793D02*
X11297515Y-17384174D01*
X11297515Y-17384174D02*
X11307039Y-17346079D01*
X11307039Y-17346079D02*
X11316563Y-17327031D01*
X11316563Y-17327031D02*
X11326086Y-17317508D01*
X11326086Y-17317508D02*
X11345134Y-17307984D01*
X11497515Y-17488936D02*
X11507039Y-17498460D01*
X11507039Y-17498460D02*
X11497515Y-17507984D01*
X11497515Y-17507984D02*
X11487991Y-17498460D01*
X11487991Y-17498460D02*
X11497515Y-17488936D01*
X11497515Y-17488936D02*
X11497515Y-17507984D01*
X11697515Y-17507984D02*
X11583229Y-17507984D01*
X11640372Y-17507984D02*
X11640372Y-17307984D01*
X11640372Y-17307984D02*
X11621325Y-17336555D01*
X11621325Y-17336555D02*
X11602277Y-17355603D01*
X11602277Y-17355603D02*
X11583229Y-17365127D01*
X11773706Y-17327031D02*
X11783229Y-17317508D01*
X11783229Y-17317508D02*
X11802277Y-17307984D01*
X11802277Y-17307984D02*
X11849896Y-17307984D01*
X11849896Y-17307984D02*
X11868944Y-17317508D01*
X11868944Y-17317508D02*
X11878467Y-17327031D01*
X11878467Y-17327031D02*
X11887991Y-17346079D01*
X11887991Y-17346079D02*
X11887991Y-17365127D01*
X11887991Y-17365127D02*
X11878467Y-17393698D01*
X11878467Y-17393698D02*
X11764182Y-17507984D01*
X11764182Y-17507984D02*
X11887991Y-17507984D01*
X12059420Y-17307984D02*
X12021325Y-17307984D01*
X12021325Y-17307984D02*
X12002277Y-17317508D01*
X12002277Y-17317508D02*
X11992753Y-17327031D01*
X11992753Y-17327031D02*
X11973706Y-17355603D01*
X11973706Y-17355603D02*
X11964182Y-17393698D01*
X11964182Y-17393698D02*
X11964182Y-17469889D01*
X11964182Y-17469889D02*
X11973706Y-17488936D01*
X11973706Y-17488936D02*
X11983229Y-17498460D01*
X11983229Y-17498460D02*
X12002277Y-17507984D01*
X12002277Y-17507984D02*
X12040372Y-17507984D01*
X12040372Y-17507984D02*
X12059420Y-17498460D01*
X12059420Y-17498460D02*
X12068944Y-17488936D01*
X12068944Y-17488936D02*
X12078467Y-17469889D01*
X12078467Y-17469889D02*
X12078467Y-17422270D01*
X12078467Y-17422270D02*
X12068944Y-17403222D01*
X12068944Y-17403222D02*
X12059420Y-17393698D01*
X12059420Y-17393698D02*
X12040372Y-17384174D01*
X12040372Y-17384174D02*
X12002277Y-17384174D01*
X12002277Y-17384174D02*
X11983229Y-17393698D01*
X11983229Y-17393698D02*
X11973706Y-17403222D01*
X11973706Y-17403222D02*
X11964182Y-17422270D01*
X12202277Y-17307984D02*
X12221325Y-17307984D01*
X12221325Y-17307984D02*
X12240372Y-17317508D01*
X12240372Y-17317508D02*
X12249896Y-17327031D01*
X12249896Y-17327031D02*
X12259420Y-17346079D01*
X12259420Y-17346079D02*
X12268944Y-17384174D01*
X12268944Y-17384174D02*
X12268944Y-17431793D01*
X12268944Y-17431793D02*
X12259420Y-17469889D01*
X12259420Y-17469889D02*
X12249896Y-17488936D01*
X12249896Y-17488936D02*
X12240372Y-17498460D01*
X12240372Y-17498460D02*
X12221325Y-17507984D01*
X12221325Y-17507984D02*
X12202277Y-17507984D01*
X12202277Y-17507984D02*
X12183229Y-17498460D01*
X12183229Y-17498460D02*
X12173706Y-17488936D01*
X12173706Y-17488936D02*
X12164182Y-17469889D01*
X12164182Y-17469889D02*
X12154658Y-17431793D01*
X12154658Y-17431793D02*
X12154658Y-17384174D01*
X12154658Y-17384174D02*
X12164182Y-17346079D01*
X12164182Y-17346079D02*
X12173706Y-17327031D01*
X12173706Y-17327031D02*
X12183229Y-17317508D01*
X12183229Y-17317508D02*
X12202277Y-17307984D01*
X12345134Y-17307984D02*
X12345134Y-17346079D01*
X12421325Y-17307984D02*
X12421325Y-17346079D01*
X12716563Y-17584174D02*
X12707039Y-17574650D01*
X12707039Y-17574650D02*
X12687991Y-17546079D01*
X12687991Y-17546079D02*
X12678468Y-17527031D01*
X12678468Y-17527031D02*
X12668944Y-17498460D01*
X12668944Y-17498460D02*
X12659420Y-17450841D01*
X12659420Y-17450841D02*
X12659420Y-17412746D01*
X12659420Y-17412746D02*
X12668944Y-17365127D01*
X12668944Y-17365127D02*
X12678468Y-17336555D01*
X12678468Y-17336555D02*
X12687991Y-17317508D01*
X12687991Y-17317508D02*
X12707039Y-17288936D01*
X12707039Y-17288936D02*
X12716563Y-17279412D01*
X12887991Y-17307984D02*
X12792753Y-17307984D01*
X12792753Y-17307984D02*
X12783229Y-17403222D01*
X12783229Y-17403222D02*
X12792753Y-17393698D01*
X12792753Y-17393698D02*
X12811801Y-17384174D01*
X12811801Y-17384174D02*
X12859420Y-17384174D01*
X12859420Y-17384174D02*
X12878468Y-17393698D01*
X12878468Y-17393698D02*
X12887991Y-17403222D01*
X12887991Y-17403222D02*
X12897515Y-17422270D01*
X12897515Y-17422270D02*
X12897515Y-17469889D01*
X12897515Y-17469889D02*
X12887991Y-17488936D01*
X12887991Y-17488936D02*
X12878468Y-17498460D01*
X12878468Y-17498460D02*
X12859420Y-17507984D01*
X12859420Y-17507984D02*
X12811801Y-17507984D01*
X12811801Y-17507984D02*
X12792753Y-17498460D01*
X12792753Y-17498460D02*
X12783229Y-17488936D01*
X13135610Y-17507984D02*
X13135610Y-17307984D01*
X13221325Y-17507984D02*
X13221325Y-17403222D01*
X13221325Y-17403222D02*
X13211801Y-17384174D01*
X13211801Y-17384174D02*
X13192753Y-17374650D01*
X13192753Y-17374650D02*
X13164182Y-17374650D01*
X13164182Y-17374650D02*
X13145134Y-17384174D01*
X13145134Y-17384174D02*
X13135610Y-17393698D01*
X13345134Y-17507984D02*
X13326087Y-17498460D01*
X13326087Y-17498460D02*
X13316563Y-17488936D01*
X13316563Y-17488936D02*
X13307039Y-17469889D01*
X13307039Y-17469889D02*
X13307039Y-17412746D01*
X13307039Y-17412746D02*
X13316563Y-17393698D01*
X13316563Y-17393698D02*
X13326087Y-17384174D01*
X13326087Y-17384174D02*
X13345134Y-17374650D01*
X13345134Y-17374650D02*
X13373706Y-17374650D01*
X13373706Y-17374650D02*
X13392753Y-17384174D01*
X13392753Y-17384174D02*
X13402277Y-17393698D01*
X13402277Y-17393698D02*
X13411801Y-17412746D01*
X13411801Y-17412746D02*
X13411801Y-17469889D01*
X13411801Y-17469889D02*
X13402277Y-17488936D01*
X13402277Y-17488936D02*
X13392753Y-17498460D01*
X13392753Y-17498460D02*
X13373706Y-17507984D01*
X13373706Y-17507984D02*
X13345134Y-17507984D01*
X13526087Y-17507984D02*
X13507039Y-17498460D01*
X13507039Y-17498460D02*
X13497515Y-17479412D01*
X13497515Y-17479412D02*
X13497515Y-17307984D01*
X13678468Y-17498460D02*
X13659420Y-17507984D01*
X13659420Y-17507984D02*
X13621325Y-17507984D01*
X13621325Y-17507984D02*
X13602277Y-17498460D01*
X13602277Y-17498460D02*
X13592753Y-17479412D01*
X13592753Y-17479412D02*
X13592753Y-17403222D01*
X13592753Y-17403222D02*
X13602277Y-17384174D01*
X13602277Y-17384174D02*
X13621325Y-17374650D01*
X13621325Y-17374650D02*
X13659420Y-17374650D01*
X13659420Y-17374650D02*
X13678468Y-17384174D01*
X13678468Y-17384174D02*
X13687991Y-17403222D01*
X13687991Y-17403222D02*
X13687991Y-17422270D01*
X13687991Y-17422270D02*
X13592753Y-17441317D01*
X13764182Y-17498460D02*
X13783230Y-17507984D01*
X13783230Y-17507984D02*
X13821325Y-17507984D01*
X13821325Y-17507984D02*
X13840372Y-17498460D01*
X13840372Y-17498460D02*
X13849896Y-17479412D01*
X13849896Y-17479412D02*
X13849896Y-17469889D01*
X13849896Y-17469889D02*
X13840372Y-17450841D01*
X13840372Y-17450841D02*
X13821325Y-17441317D01*
X13821325Y-17441317D02*
X13792753Y-17441317D01*
X13792753Y-17441317D02*
X13773706Y-17431793D01*
X13773706Y-17431793D02*
X13764182Y-17412746D01*
X13764182Y-17412746D02*
X13764182Y-17403222D01*
X13764182Y-17403222D02*
X13773706Y-17384174D01*
X13773706Y-17384174D02*
X13792753Y-17374650D01*
X13792753Y-17374650D02*
X13821325Y-17374650D01*
X13821325Y-17374650D02*
X13840372Y-17384174D01*
X13916563Y-17584174D02*
X13926087Y-17574650D01*
X13926087Y-17574650D02*
X13945134Y-17546079D01*
X13945134Y-17546079D02*
X13954658Y-17527031D01*
X13954658Y-17527031D02*
X13964182Y-17498460D01*
X13964182Y-17498460D02*
X13973706Y-17450841D01*
X13973706Y-17450841D02*
X13973706Y-17412746D01*
X13973706Y-17412746D02*
X13964182Y-17365127D01*
X13964182Y-17365127D02*
X13954658Y-17336555D01*
X13954658Y-17336555D02*
X13945134Y-17317508D01*
X13945134Y-17317508D02*
X13926087Y-17288936D01*
X13926087Y-17288936D02*
X13916563Y-17279412D01*
X14278468Y-17584174D02*
X14268944Y-17574650D01*
X14268944Y-17574650D02*
X14249896Y-17546079D01*
X14249896Y-17546079D02*
X14240372Y-17527031D01*
X14240372Y-17527031D02*
X14230849Y-17498460D01*
X14230849Y-17498460D02*
X14221325Y-17450841D01*
X14221325Y-17450841D02*
X14221325Y-17412746D01*
X14221325Y-17412746D02*
X14230849Y-17365127D01*
X14230849Y-17365127D02*
X14240372Y-17336555D01*
X14240372Y-17336555D02*
X14249896Y-17317508D01*
X14249896Y-17317508D02*
X14268944Y-17288936D01*
X14268944Y-17288936D02*
X14278468Y-17279412D01*
X14354658Y-17374650D02*
X14354658Y-17507984D01*
X14354658Y-17393698D02*
X14364182Y-17384174D01*
X14364182Y-17384174D02*
X14383230Y-17374650D01*
X14383230Y-17374650D02*
X14411801Y-17374650D01*
X14411801Y-17374650D02*
X14430849Y-17384174D01*
X14430849Y-17384174D02*
X14440372Y-17403222D01*
X14440372Y-17403222D02*
X14440372Y-17507984D01*
X14564182Y-17507984D02*
X14545134Y-17498460D01*
X14545134Y-17498460D02*
X14535611Y-17488936D01*
X14535611Y-17488936D02*
X14526087Y-17469889D01*
X14526087Y-17469889D02*
X14526087Y-17412746D01*
X14526087Y-17412746D02*
X14535611Y-17393698D01*
X14535611Y-17393698D02*
X14545134Y-17384174D01*
X14545134Y-17384174D02*
X14564182Y-17374650D01*
X14564182Y-17374650D02*
X14592753Y-17374650D01*
X14592753Y-17374650D02*
X14611801Y-17384174D01*
X14611801Y-17384174D02*
X14621325Y-17393698D01*
X14621325Y-17393698D02*
X14630849Y-17412746D01*
X14630849Y-17412746D02*
X14630849Y-17469889D01*
X14630849Y-17469889D02*
X14621325Y-17488936D01*
X14621325Y-17488936D02*
X14611801Y-17498460D01*
X14611801Y-17498460D02*
X14592753Y-17507984D01*
X14592753Y-17507984D02*
X14564182Y-17507984D01*
X14687992Y-17374650D02*
X14764182Y-17374650D01*
X14716563Y-17307984D02*
X14716563Y-17479412D01*
X14716563Y-17479412D02*
X14726087Y-17498460D01*
X14726087Y-17498460D02*
X14745134Y-17507984D01*
X14745134Y-17507984D02*
X14764182Y-17507984D01*
X14983230Y-17374650D02*
X14983230Y-17574650D01*
X14983230Y-17384174D02*
X15002277Y-17374650D01*
X15002277Y-17374650D02*
X15040373Y-17374650D01*
X15040373Y-17374650D02*
X15059420Y-17384174D01*
X15059420Y-17384174D02*
X15068944Y-17393698D01*
X15068944Y-17393698D02*
X15078468Y-17412746D01*
X15078468Y-17412746D02*
X15078468Y-17469889D01*
X15078468Y-17469889D02*
X15068944Y-17488936D01*
X15068944Y-17488936D02*
X15059420Y-17498460D01*
X15059420Y-17498460D02*
X15040373Y-17507984D01*
X15040373Y-17507984D02*
X15002277Y-17507984D01*
X15002277Y-17507984D02*
X14983230Y-17498460D01*
X15192753Y-17507984D02*
X15173706Y-17498460D01*
X15173706Y-17498460D02*
X15164182Y-17479412D01*
X15164182Y-17479412D02*
X15164182Y-17307984D01*
X15354658Y-17507984D02*
X15354658Y-17403222D01*
X15354658Y-17403222D02*
X15345134Y-17384174D01*
X15345134Y-17384174D02*
X15326087Y-17374650D01*
X15326087Y-17374650D02*
X15287992Y-17374650D01*
X15287992Y-17374650D02*
X15268944Y-17384174D01*
X15354658Y-17498460D02*
X15335611Y-17507984D01*
X15335611Y-17507984D02*
X15287992Y-17507984D01*
X15287992Y-17507984D02*
X15268944Y-17498460D01*
X15268944Y-17498460D02*
X15259420Y-17479412D01*
X15259420Y-17479412D02*
X15259420Y-17460365D01*
X15259420Y-17460365D02*
X15268944Y-17441317D01*
X15268944Y-17441317D02*
X15287992Y-17431793D01*
X15287992Y-17431793D02*
X15335611Y-17431793D01*
X15335611Y-17431793D02*
X15354658Y-17422270D01*
X15421325Y-17374650D02*
X15497515Y-17374650D01*
X15449896Y-17307984D02*
X15449896Y-17479412D01*
X15449896Y-17479412D02*
X15459420Y-17498460D01*
X15459420Y-17498460D02*
X15478468Y-17507984D01*
X15478468Y-17507984D02*
X15497515Y-17507984D01*
X15640373Y-17498460D02*
X15621325Y-17507984D01*
X15621325Y-17507984D02*
X15583230Y-17507984D01*
X15583230Y-17507984D02*
X15564182Y-17498460D01*
X15564182Y-17498460D02*
X15554658Y-17479412D01*
X15554658Y-17479412D02*
X15554658Y-17403222D01*
X15554658Y-17403222D02*
X15564182Y-17384174D01*
X15564182Y-17384174D02*
X15583230Y-17374650D01*
X15583230Y-17374650D02*
X15621325Y-17374650D01*
X15621325Y-17374650D02*
X15640373Y-17384174D01*
X15640373Y-17384174D02*
X15649896Y-17403222D01*
X15649896Y-17403222D02*
X15649896Y-17422270D01*
X15649896Y-17422270D02*
X15554658Y-17441317D01*
X15821325Y-17507984D02*
X15821325Y-17307984D01*
X15821325Y-17498460D02*
X15802277Y-17507984D01*
X15802277Y-17507984D02*
X15764182Y-17507984D01*
X15764182Y-17507984D02*
X15745134Y-17498460D01*
X15745134Y-17498460D02*
X15735611Y-17488936D01*
X15735611Y-17488936D02*
X15726087Y-17469889D01*
X15726087Y-17469889D02*
X15726087Y-17412746D01*
X15726087Y-17412746D02*
X15735611Y-17393698D01*
X15735611Y-17393698D02*
X15745134Y-17384174D01*
X15745134Y-17384174D02*
X15764182Y-17374650D01*
X15764182Y-17374650D02*
X15802277Y-17374650D01*
X15802277Y-17374650D02*
X15821325Y-17384174D01*
X15897515Y-17584174D02*
X15907039Y-17574650D01*
X15907039Y-17574650D02*
X15926087Y-17546079D01*
X15926087Y-17546079D02*
X15935611Y-17527031D01*
X15935611Y-17527031D02*
X15945134Y-17498460D01*
X15945134Y-17498460D02*
X15954658Y-17450841D01*
X15954658Y-17450841D02*
X15954658Y-17412746D01*
X15954658Y-17412746D02*
X15945134Y-17365127D01*
X15945134Y-17365127D02*
X15935611Y-17336555D01*
X15935611Y-17336555D02*
X15926087Y-17317508D01*
X15926087Y-17317508D02*
X15907039Y-17288936D01*
X15907039Y-17288936D02*
X15897515Y-17279412D01*
X9041500Y-17636500D02*
X9041500Y-17836500D01*
X8941500Y-17736500D02*
X9141500Y-17736500D01*
X9383229Y-17627984D02*
X9507039Y-17627984D01*
X9507039Y-17627984D02*
X9440372Y-17704174D01*
X9440372Y-17704174D02*
X9468944Y-17704174D01*
X9468944Y-17704174D02*
X9487991Y-17713698D01*
X9487991Y-17713698D02*
X9497515Y-17723222D01*
X9497515Y-17723222D02*
X9507039Y-17742270D01*
X9507039Y-17742270D02*
X9507039Y-17789889D01*
X9507039Y-17789889D02*
X9497515Y-17808936D01*
X9497515Y-17808936D02*
X9487991Y-17818460D01*
X9487991Y-17818460D02*
X9468944Y-17827984D01*
X9468944Y-17827984D02*
X9411801Y-17827984D01*
X9411801Y-17827984D02*
X9392753Y-17818460D01*
X9392753Y-17818460D02*
X9383229Y-17808936D01*
X9592753Y-17808936D02*
X9602277Y-17818460D01*
X9602277Y-17818460D02*
X9592753Y-17827984D01*
X9592753Y-17827984D02*
X9583229Y-17818460D01*
X9583229Y-17818460D02*
X9592753Y-17808936D01*
X9592753Y-17808936D02*
X9592753Y-17827984D01*
X9783229Y-17627984D02*
X9687991Y-17627984D01*
X9687991Y-17627984D02*
X9678467Y-17723222D01*
X9678467Y-17723222D02*
X9687991Y-17713698D01*
X9687991Y-17713698D02*
X9707039Y-17704174D01*
X9707039Y-17704174D02*
X9754658Y-17704174D01*
X9754658Y-17704174D02*
X9773705Y-17713698D01*
X9773705Y-17713698D02*
X9783229Y-17723222D01*
X9783229Y-17723222D02*
X9792753Y-17742270D01*
X9792753Y-17742270D02*
X9792753Y-17789889D01*
X9792753Y-17789889D02*
X9783229Y-17808936D01*
X9783229Y-17808936D02*
X9773705Y-17818460D01*
X9773705Y-17818460D02*
X9754658Y-17827984D01*
X9754658Y-17827984D02*
X9707039Y-17827984D01*
X9707039Y-17827984D02*
X9687991Y-17818460D01*
X9687991Y-17818460D02*
X9678467Y-17808936D01*
X9916563Y-17627984D02*
X9935610Y-17627984D01*
X9935610Y-17627984D02*
X9954658Y-17637508D01*
X9954658Y-17637508D02*
X9964182Y-17647031D01*
X9964182Y-17647031D02*
X9973705Y-17666079D01*
X9973705Y-17666079D02*
X9983229Y-17704174D01*
X9983229Y-17704174D02*
X9983229Y-17751793D01*
X9983229Y-17751793D02*
X9973705Y-17789889D01*
X9973705Y-17789889D02*
X9964182Y-17808936D01*
X9964182Y-17808936D02*
X9954658Y-17818460D01*
X9954658Y-17818460D02*
X9935610Y-17827984D01*
X9935610Y-17827984D02*
X9916563Y-17827984D01*
X9916563Y-17827984D02*
X9897515Y-17818460D01*
X9897515Y-17818460D02*
X9887991Y-17808936D01*
X9887991Y-17808936D02*
X9878467Y-17789889D01*
X9878467Y-17789889D02*
X9868944Y-17751793D01*
X9868944Y-17751793D02*
X9868944Y-17704174D01*
X9868944Y-17704174D02*
X9878467Y-17666079D01*
X9878467Y-17666079D02*
X9887991Y-17647031D01*
X9887991Y-17647031D02*
X9897515Y-17637508D01*
X9897515Y-17637508D02*
X9916563Y-17627984D01*
X10107039Y-17627984D02*
X10126086Y-17627984D01*
X10126086Y-17627984D02*
X10145134Y-17637508D01*
X10145134Y-17637508D02*
X10154658Y-17647031D01*
X10154658Y-17647031D02*
X10164182Y-17666079D01*
X10164182Y-17666079D02*
X10173705Y-17704174D01*
X10173705Y-17704174D02*
X10173705Y-17751793D01*
X10173705Y-17751793D02*
X10164182Y-17789889D01*
X10164182Y-17789889D02*
X10154658Y-17808936D01*
X10154658Y-17808936D02*
X10145134Y-17818460D01*
X10145134Y-17818460D02*
X10126086Y-17827984D01*
X10126086Y-17827984D02*
X10107039Y-17827984D01*
X10107039Y-17827984D02*
X10087991Y-17818460D01*
X10087991Y-17818460D02*
X10078467Y-17808936D01*
X10078467Y-17808936D02*
X10068944Y-17789889D01*
X10068944Y-17789889D02*
X10059420Y-17751793D01*
X10059420Y-17751793D02*
X10059420Y-17704174D01*
X10059420Y-17704174D02*
X10068944Y-17666079D01*
X10068944Y-17666079D02*
X10078467Y-17647031D01*
X10078467Y-17647031D02*
X10087991Y-17637508D01*
X10087991Y-17637508D02*
X10107039Y-17627984D01*
X10259420Y-17827984D02*
X10259420Y-17694650D01*
X10259420Y-17713698D02*
X10268944Y-17704174D01*
X10268944Y-17704174D02*
X10287991Y-17694650D01*
X10287991Y-17694650D02*
X10316563Y-17694650D01*
X10316563Y-17694650D02*
X10335610Y-17704174D01*
X10335610Y-17704174D02*
X10345134Y-17723222D01*
X10345134Y-17723222D02*
X10345134Y-17827984D01*
X10345134Y-17723222D02*
X10354658Y-17704174D01*
X10354658Y-17704174D02*
X10373705Y-17694650D01*
X10373705Y-17694650D02*
X10402277Y-17694650D01*
X10402277Y-17694650D02*
X10421325Y-17704174D01*
X10421325Y-17704174D02*
X10430848Y-17723222D01*
X10430848Y-17723222D02*
X10430848Y-17827984D01*
X10526086Y-17827984D02*
X10526086Y-17694650D01*
X10526086Y-17713698D02*
X10535610Y-17704174D01*
X10535610Y-17704174D02*
X10554658Y-17694650D01*
X10554658Y-17694650D02*
X10583229Y-17694650D01*
X10583229Y-17694650D02*
X10602277Y-17704174D01*
X10602277Y-17704174D02*
X10611801Y-17723222D01*
X10611801Y-17723222D02*
X10611801Y-17827984D01*
X10611801Y-17723222D02*
X10621325Y-17704174D01*
X10621325Y-17704174D02*
X10640372Y-17694650D01*
X10640372Y-17694650D02*
X10668944Y-17694650D01*
X10668944Y-17694650D02*
X10687991Y-17704174D01*
X10687991Y-17704174D02*
X10697515Y-17723222D01*
X10697515Y-17723222D02*
X10697515Y-17827984D01*
X11087991Y-17618460D02*
X10916563Y-17875603D01*
X11345134Y-17627984D02*
X11364182Y-17627984D01*
X11364182Y-17627984D02*
X11383229Y-17637508D01*
X11383229Y-17637508D02*
X11392753Y-17647031D01*
X11392753Y-17647031D02*
X11402277Y-17666079D01*
X11402277Y-17666079D02*
X11411801Y-17704174D01*
X11411801Y-17704174D02*
X11411801Y-17751793D01*
X11411801Y-17751793D02*
X11402277Y-17789889D01*
X11402277Y-17789889D02*
X11392753Y-17808936D01*
X11392753Y-17808936D02*
X11383229Y-17818460D01*
X11383229Y-17818460D02*
X11364182Y-17827984D01*
X11364182Y-17827984D02*
X11345134Y-17827984D01*
X11345134Y-17827984D02*
X11326086Y-17818460D01*
X11326086Y-17818460D02*
X11316563Y-17808936D01*
X11316563Y-17808936D02*
X11307039Y-17789889D01*
X11307039Y-17789889D02*
X11297515Y-17751793D01*
X11297515Y-17751793D02*
X11297515Y-17704174D01*
X11297515Y-17704174D02*
X11307039Y-17666079D01*
X11307039Y-17666079D02*
X11316563Y-17647031D01*
X11316563Y-17647031D02*
X11326086Y-17637508D01*
X11326086Y-17637508D02*
X11345134Y-17627984D01*
X11497515Y-17808936D02*
X11507039Y-17818460D01*
X11507039Y-17818460D02*
X11497515Y-17827984D01*
X11497515Y-17827984D02*
X11487991Y-17818460D01*
X11487991Y-17818460D02*
X11497515Y-17808936D01*
X11497515Y-17808936D02*
X11497515Y-17827984D01*
X11697515Y-17827984D02*
X11583229Y-17827984D01*
X11640372Y-17827984D02*
X11640372Y-17627984D01*
X11640372Y-17627984D02*
X11621325Y-17656555D01*
X11621325Y-17656555D02*
X11602277Y-17675603D01*
X11602277Y-17675603D02*
X11583229Y-17685127D01*
X11764182Y-17627984D02*
X11887991Y-17627984D01*
X11887991Y-17627984D02*
X11821325Y-17704174D01*
X11821325Y-17704174D02*
X11849896Y-17704174D01*
X11849896Y-17704174D02*
X11868944Y-17713698D01*
X11868944Y-17713698D02*
X11878467Y-17723222D01*
X11878467Y-17723222D02*
X11887991Y-17742270D01*
X11887991Y-17742270D02*
X11887991Y-17789889D01*
X11887991Y-17789889D02*
X11878467Y-17808936D01*
X11878467Y-17808936D02*
X11868944Y-17818460D01*
X11868944Y-17818460D02*
X11849896Y-17827984D01*
X11849896Y-17827984D02*
X11792753Y-17827984D01*
X11792753Y-17827984D02*
X11773706Y-17818460D01*
X11773706Y-17818460D02*
X11764182Y-17808936D01*
X11954658Y-17627984D02*
X12087991Y-17627984D01*
X12087991Y-17627984D02*
X12002277Y-17827984D01*
X12192753Y-17713698D02*
X12173706Y-17704174D01*
X12173706Y-17704174D02*
X12164182Y-17694650D01*
X12164182Y-17694650D02*
X12154658Y-17675603D01*
X12154658Y-17675603D02*
X12154658Y-17666079D01*
X12154658Y-17666079D02*
X12164182Y-17647031D01*
X12164182Y-17647031D02*
X12173706Y-17637508D01*
X12173706Y-17637508D02*
X12192753Y-17627984D01*
X12192753Y-17627984D02*
X12230848Y-17627984D01*
X12230848Y-17627984D02*
X12249896Y-17637508D01*
X12249896Y-17637508D02*
X12259420Y-17647031D01*
X12259420Y-17647031D02*
X12268944Y-17666079D01*
X12268944Y-17666079D02*
X12268944Y-17675603D01*
X12268944Y-17675603D02*
X12259420Y-17694650D01*
X12259420Y-17694650D02*
X12249896Y-17704174D01*
X12249896Y-17704174D02*
X12230848Y-17713698D01*
X12230848Y-17713698D02*
X12192753Y-17713698D01*
X12192753Y-17713698D02*
X12173706Y-17723222D01*
X12173706Y-17723222D02*
X12164182Y-17732746D01*
X12164182Y-17732746D02*
X12154658Y-17751793D01*
X12154658Y-17751793D02*
X12154658Y-17789889D01*
X12154658Y-17789889D02*
X12164182Y-17808936D01*
X12164182Y-17808936D02*
X12173706Y-17818460D01*
X12173706Y-17818460D02*
X12192753Y-17827984D01*
X12192753Y-17827984D02*
X12230848Y-17827984D01*
X12230848Y-17827984D02*
X12249896Y-17818460D01*
X12249896Y-17818460D02*
X12259420Y-17808936D01*
X12259420Y-17808936D02*
X12268944Y-17789889D01*
X12268944Y-17789889D02*
X12268944Y-17751793D01*
X12268944Y-17751793D02*
X12259420Y-17732746D01*
X12259420Y-17732746D02*
X12249896Y-17723222D01*
X12249896Y-17723222D02*
X12230848Y-17713698D01*
X12345134Y-17627984D02*
X12345134Y-17666079D01*
X12421325Y-17627984D02*
X12421325Y-17666079D01*
X12716563Y-17904174D02*
X12707039Y-17894650D01*
X12707039Y-17894650D02*
X12687991Y-17866079D01*
X12687991Y-17866079D02*
X12678468Y-17847031D01*
X12678468Y-17847031D02*
X12668944Y-17818460D01*
X12668944Y-17818460D02*
X12659420Y-17770841D01*
X12659420Y-17770841D02*
X12659420Y-17732746D01*
X12659420Y-17732746D02*
X12668944Y-17685127D01*
X12668944Y-17685127D02*
X12678468Y-17656555D01*
X12678468Y-17656555D02*
X12687991Y-17637508D01*
X12687991Y-17637508D02*
X12707039Y-17608936D01*
X12707039Y-17608936D02*
X12716563Y-17599412D01*
X12897515Y-17827984D02*
X12783229Y-17827984D01*
X12840372Y-17827984D02*
X12840372Y-17627984D01*
X12840372Y-17627984D02*
X12821325Y-17656555D01*
X12821325Y-17656555D02*
X12802277Y-17675603D01*
X12802277Y-17675603D02*
X12783229Y-17685127D01*
X13135610Y-17827984D02*
X13135610Y-17627984D01*
X13221325Y-17827984D02*
X13221325Y-17723222D01*
X13221325Y-17723222D02*
X13211801Y-17704174D01*
X13211801Y-17704174D02*
X13192753Y-17694650D01*
X13192753Y-17694650D02*
X13164182Y-17694650D01*
X13164182Y-17694650D02*
X13145134Y-17704174D01*
X13145134Y-17704174D02*
X13135610Y-17713698D01*
X13345134Y-17827984D02*
X13326087Y-17818460D01*
X13326087Y-17818460D02*
X13316563Y-17808936D01*
X13316563Y-17808936D02*
X13307039Y-17789889D01*
X13307039Y-17789889D02*
X13307039Y-17732746D01*
X13307039Y-17732746D02*
X13316563Y-17713698D01*
X13316563Y-17713698D02*
X13326087Y-17704174D01*
X13326087Y-17704174D02*
X13345134Y-17694650D01*
X13345134Y-17694650D02*
X13373706Y-17694650D01*
X13373706Y-17694650D02*
X13392753Y-17704174D01*
X13392753Y-17704174D02*
X13402277Y-17713698D01*
X13402277Y-17713698D02*
X13411801Y-17732746D01*
X13411801Y-17732746D02*
X13411801Y-17789889D01*
X13411801Y-17789889D02*
X13402277Y-17808936D01*
X13402277Y-17808936D02*
X13392753Y-17818460D01*
X13392753Y-17818460D02*
X13373706Y-17827984D01*
X13373706Y-17827984D02*
X13345134Y-17827984D01*
X13526087Y-17827984D02*
X13507039Y-17818460D01*
X13507039Y-17818460D02*
X13497515Y-17799412D01*
X13497515Y-17799412D02*
X13497515Y-17627984D01*
X13678468Y-17818460D02*
X13659420Y-17827984D01*
X13659420Y-17827984D02*
X13621325Y-17827984D01*
X13621325Y-17827984D02*
X13602277Y-17818460D01*
X13602277Y-17818460D02*
X13592753Y-17799412D01*
X13592753Y-17799412D02*
X13592753Y-17723222D01*
X13592753Y-17723222D02*
X13602277Y-17704174D01*
X13602277Y-17704174D02*
X13621325Y-17694650D01*
X13621325Y-17694650D02*
X13659420Y-17694650D01*
X13659420Y-17694650D02*
X13678468Y-17704174D01*
X13678468Y-17704174D02*
X13687991Y-17723222D01*
X13687991Y-17723222D02*
X13687991Y-17742270D01*
X13687991Y-17742270D02*
X13592753Y-17761317D01*
X13754658Y-17904174D02*
X13764182Y-17894650D01*
X13764182Y-17894650D02*
X13783230Y-17866079D01*
X13783230Y-17866079D02*
X13792753Y-17847031D01*
X13792753Y-17847031D02*
X13802277Y-17818460D01*
X13802277Y-17818460D02*
X13811801Y-17770841D01*
X13811801Y-17770841D02*
X13811801Y-17732746D01*
X13811801Y-17732746D02*
X13802277Y-17685127D01*
X13802277Y-17685127D02*
X13792753Y-17656555D01*
X13792753Y-17656555D02*
X13783230Y-17637508D01*
X13783230Y-17637508D02*
X13764182Y-17608936D01*
X13764182Y-17608936D02*
X13754658Y-17599412D01*
X14116563Y-17904174D02*
X14107039Y-17894650D01*
X14107039Y-17894650D02*
X14087991Y-17866079D01*
X14087991Y-17866079D02*
X14078468Y-17847031D01*
X14078468Y-17847031D02*
X14068944Y-17818460D01*
X14068944Y-17818460D02*
X14059420Y-17770841D01*
X14059420Y-17770841D02*
X14059420Y-17732746D01*
X14059420Y-17732746D02*
X14068944Y-17685127D01*
X14068944Y-17685127D02*
X14078468Y-17656555D01*
X14078468Y-17656555D02*
X14087991Y-17637508D01*
X14087991Y-17637508D02*
X14107039Y-17608936D01*
X14107039Y-17608936D02*
X14116563Y-17599412D01*
X14192753Y-17694650D02*
X14192753Y-17827984D01*
X14192753Y-17713698D02*
X14202277Y-17704174D01*
X14202277Y-17704174D02*
X14221325Y-17694650D01*
X14221325Y-17694650D02*
X14249896Y-17694650D01*
X14249896Y-17694650D02*
X14268944Y-17704174D01*
X14268944Y-17704174D02*
X14278468Y-17723222D01*
X14278468Y-17723222D02*
X14278468Y-17827984D01*
X14402277Y-17827984D02*
X14383230Y-17818460D01*
X14383230Y-17818460D02*
X14373706Y-17808936D01*
X14373706Y-17808936D02*
X14364182Y-17789889D01*
X14364182Y-17789889D02*
X14364182Y-17732746D01*
X14364182Y-17732746D02*
X14373706Y-17713698D01*
X14373706Y-17713698D02*
X14383230Y-17704174D01*
X14383230Y-17704174D02*
X14402277Y-17694650D01*
X14402277Y-17694650D02*
X14430849Y-17694650D01*
X14430849Y-17694650D02*
X14449896Y-17704174D01*
X14449896Y-17704174D02*
X14459420Y-17713698D01*
X14459420Y-17713698D02*
X14468944Y-17732746D01*
X14468944Y-17732746D02*
X14468944Y-17789889D01*
X14468944Y-17789889D02*
X14459420Y-17808936D01*
X14459420Y-17808936D02*
X14449896Y-17818460D01*
X14449896Y-17818460D02*
X14430849Y-17827984D01*
X14430849Y-17827984D02*
X14402277Y-17827984D01*
X14526087Y-17694650D02*
X14602277Y-17694650D01*
X14554658Y-17627984D02*
X14554658Y-17799412D01*
X14554658Y-17799412D02*
X14564182Y-17818460D01*
X14564182Y-17818460D02*
X14583230Y-17827984D01*
X14583230Y-17827984D02*
X14602277Y-17827984D01*
X14821325Y-17694650D02*
X14821325Y-17894650D01*
X14821325Y-17704174D02*
X14840372Y-17694650D01*
X14840372Y-17694650D02*
X14878468Y-17694650D01*
X14878468Y-17694650D02*
X14897515Y-17704174D01*
X14897515Y-17704174D02*
X14907039Y-17713698D01*
X14907039Y-17713698D02*
X14916563Y-17732746D01*
X14916563Y-17732746D02*
X14916563Y-17789889D01*
X14916563Y-17789889D02*
X14907039Y-17808936D01*
X14907039Y-17808936D02*
X14897515Y-17818460D01*
X14897515Y-17818460D02*
X14878468Y-17827984D01*
X14878468Y-17827984D02*
X14840372Y-17827984D01*
X14840372Y-17827984D02*
X14821325Y-17818460D01*
X15030849Y-17827984D02*
X15011801Y-17818460D01*
X15011801Y-17818460D02*
X15002277Y-17799412D01*
X15002277Y-17799412D02*
X15002277Y-17627984D01*
X15192753Y-17827984D02*
X15192753Y-17723222D01*
X15192753Y-17723222D02*
X15183230Y-17704174D01*
X15183230Y-17704174D02*
X15164182Y-17694650D01*
X15164182Y-17694650D02*
X15126087Y-17694650D01*
X15126087Y-17694650D02*
X15107039Y-17704174D01*
X15192753Y-17818460D02*
X15173706Y-17827984D01*
X15173706Y-17827984D02*
X15126087Y-17827984D01*
X15126087Y-17827984D02*
X15107039Y-17818460D01*
X15107039Y-17818460D02*
X15097515Y-17799412D01*
X15097515Y-17799412D02*
X15097515Y-17780365D01*
X15097515Y-17780365D02*
X15107039Y-17761317D01*
X15107039Y-17761317D02*
X15126087Y-17751793D01*
X15126087Y-17751793D02*
X15173706Y-17751793D01*
X15173706Y-17751793D02*
X15192753Y-17742270D01*
X15259420Y-17694650D02*
X15335611Y-17694650D01*
X15287992Y-17627984D02*
X15287992Y-17799412D01*
X15287992Y-17799412D02*
X15297515Y-17818460D01*
X15297515Y-17818460D02*
X15316563Y-17827984D01*
X15316563Y-17827984D02*
X15335611Y-17827984D01*
X15478468Y-17818460D02*
X15459420Y-17827984D01*
X15459420Y-17827984D02*
X15421325Y-17827984D01*
X15421325Y-17827984D02*
X15402277Y-17818460D01*
X15402277Y-17818460D02*
X15392753Y-17799412D01*
X15392753Y-17799412D02*
X15392753Y-17723222D01*
X15392753Y-17723222D02*
X15402277Y-17704174D01*
X15402277Y-17704174D02*
X15421325Y-17694650D01*
X15421325Y-17694650D02*
X15459420Y-17694650D01*
X15459420Y-17694650D02*
X15478468Y-17704174D01*
X15478468Y-17704174D02*
X15487992Y-17723222D01*
X15487992Y-17723222D02*
X15487992Y-17742270D01*
X15487992Y-17742270D02*
X15392753Y-17761317D01*
X15659420Y-17827984D02*
X15659420Y-17627984D01*
X15659420Y-17818460D02*
X15640373Y-17827984D01*
X15640373Y-17827984D02*
X15602277Y-17827984D01*
X15602277Y-17827984D02*
X15583230Y-17818460D01*
X15583230Y-17818460D02*
X15573706Y-17808936D01*
X15573706Y-17808936D02*
X15564182Y-17789889D01*
X15564182Y-17789889D02*
X15564182Y-17732746D01*
X15564182Y-17732746D02*
X15573706Y-17713698D01*
X15573706Y-17713698D02*
X15583230Y-17704174D01*
X15583230Y-17704174D02*
X15602277Y-17694650D01*
X15602277Y-17694650D02*
X15640373Y-17694650D01*
X15640373Y-17694650D02*
X15659420Y-17704174D01*
X15735611Y-17904174D02*
X15745134Y-17894650D01*
X15745134Y-17894650D02*
X15764182Y-17866079D01*
X15764182Y-17866079D02*
X15773706Y-17847031D01*
X15773706Y-17847031D02*
X15783230Y-17818460D01*
X15783230Y-17818460D02*
X15792753Y-17770841D01*
X15792753Y-17770841D02*
X15792753Y-17732746D01*
X15792753Y-17732746D02*
X15783230Y-17685127D01*
X15783230Y-17685127D02*
X15773706Y-17656555D01*
X15773706Y-17656555D02*
X15764182Y-17637508D01*
X15764182Y-17637508D02*
X15745134Y-17608936D01*
X15745134Y-17608936D02*
X15735611Y-17599412D01*
M02*
