%TF.GenerationSoftware,KiCad,Pcbnew,9.0.6*%
%TF.CreationDate,2026-02-26T15:04:37-08:00*%
%TF.ProjectId,photogate v1,70686f74-6f67-4617-9465-2076312e6b69,rev?*%
%TF.SameCoordinates,Original*%
%TF.FileFunction,Copper,L1,Top*%
%TF.FilePolarity,Positive*%
%FSLAX46Y46*%
G04 Gerber Fmt 4.6, Leading zero omitted, Abs format (unit mm)*
G04 Created by KiCad (PCBNEW 9.0.6) date 2026-02-26 15:04:37*
%MOMM*%
%LPD*%
G01*
G04 APERTURE LIST*
G04 Aperture macros list*
%AMOutline5P*
0 Free polygon, 5 corners , with rotation*
0 The origin of the aperture is its center*
0 number of corners: always 5*
0 $1 to $10 corner X, Y*
0 $11 Rotation angle, in degrees counterclockwise*
0 create outline with 5 corners*
4,1,5,$1,$2,$3,$4,$5,$6,$7,$8,$9,$10,$1,$2,$11*%
%AMOutline6P*
0 Free polygon, 6 corners , with rotation*
0 The origin of the aperture is its center*
0 number of corners: always 6*
0 $1 to $12 corner X, Y*
0 $13 Rotation angle, in degrees counterclockwise*
0 create outline with 6 corners*
4,1,6,$1,$2,$3,$4,$5,$6,$7,$8,$9,$10,$11,$12,$1,$2,$13*%
%AMOutline7P*
0 Free polygon, 7 corners , with rotation*
0 The origin of the aperture is its center*
0 number of corners: always 7*
0 $1 to $14 corner X, Y*
0 $15 Rotation angle, in degrees counterclockwise*
0 create outline with 7 corners*
4,1,7,$1,$2,$3,$4,$5,$6,$7,$8,$9,$10,$11,$12,$13,$14,$1,$2,$15*%
%AMOutline8P*
0 Free polygon, 8 corners , with rotation*
0 The origin of the aperture is its center*
0 number of corners: always 8*
0 $1 to $16 corner X, Y*
0 $17 Rotation angle, in degrees counterclockwise*
0 create outline with 8 corners*
4,1,8,$1,$2,$3,$4,$5,$6,$7,$8,$9,$10,$11,$12,$13,$14,$15,$16,$1,$2,$17*%
G04 Aperture macros list end*
%TA.AperFunction,ComponentPad*%
%ADD10C,1.727200*%
%TD*%
%TA.AperFunction,ComponentPad*%
%ADD11R,1.727200X1.727200*%
%TD*%
%TA.AperFunction,ComponentPad*%
%ADD12C,2.540000*%
%TD*%
%TA.AperFunction,ComponentPad*%
%ADD13R,4.600000X2.000000*%
%TD*%
%TA.AperFunction,ComponentPad*%
%ADD14O,4.200000X2.000000*%
%TD*%
%TA.AperFunction,ComponentPad*%
%ADD15O,2.000000X4.200000*%
%TD*%
%TA.AperFunction,ComponentPad*%
%ADD16C,1.778000*%
%TD*%
%TA.AperFunction,ComponentPad*%
%ADD17O,3.302000X1.828800*%
%TD*%
%TA.AperFunction,ComponentPad*%
%ADD18R,1.800000X1.800000*%
%TD*%
%TA.AperFunction,ComponentPad*%
%ADD19O,1.800000X1.800000*%
%TD*%
%TA.AperFunction,ComponentPad*%
%ADD20R,1.700000X1.700000*%
%TD*%
%TA.AperFunction,ComponentPad*%
%ADD21C,1.700000*%
%TD*%
%TA.AperFunction,ComponentPad*%
%ADD22O,1.727200X2.540000*%
%TD*%
%TA.AperFunction,ComponentPad*%
%ADD23O,2.540000X1.727200*%
%TD*%
%TA.AperFunction,ComponentPad*%
%ADD24R,1.905000X2.000000*%
%TD*%
%TA.AperFunction,ComponentPad*%
%ADD25O,1.905000X2.000000*%
%TD*%
%TA.AperFunction,ComponentPad*%
%ADD26Outline5P,-1.016000X0.203200X-0.203200X1.016000X1.016000X1.016000X1.016000X-1.016000X-1.016000X-1.016000X270.000000*%
%TD*%
%TA.AperFunction,ComponentPad*%
%ADD27O,2.032000X2.032000*%
%TD*%
%TA.AperFunction,ComponentPad*%
%ADD28O,1.524000X2.032000*%
%TD*%
%TA.AperFunction,ComponentPad*%
%ADD29R,1.800000X2.286000*%
%TD*%
%TA.AperFunction,Conductor*%
%ADD30C,0.812800*%
%TD*%
G04 APERTURE END LIST*
D10*
%TO.P,C2,2*%
%TO.N,GND*%
X132080000Y-100370000D03*
%TO.P,C2,1*%
%TO.N,+5V*%
X132080000Y-102870000D03*
%TD*%
%TO.P,R2,1*%
%TO.N,Net-(D5-GA)*%
X100965000Y-130175000D03*
%TO.P,R2,2*%
%TO.N,A1*%
X108585000Y-130175000D03*
%TD*%
D11*
%TO.P,Q1,1,S*%
%TO.N,GND*%
X125212000Y-95446000D03*
D10*
%TO.P,Q1,2,G*%
%TO.N,Net-(Q1-G)*%
X127752000Y-95446000D03*
%TO.P,Q1,3,D*%
%TO.N,Net-(D3-A)*%
X130292000Y-95446000D03*
%TD*%
%TO.P,R6,1*%
%TO.N,GND*%
X101092000Y-83820000D03*
%TO.P,R6,2*%
%TO.N,Net-(J2-PadRN)*%
X101092000Y-91440000D03*
%TD*%
D12*
%TO.P,SW2,1,1*%
%TO.N,GND*%
X146178000Y-155520000D03*
X157758000Y-155520000D03*
%TO.P,SW2,2,2*%
%TO.N,Net-(R4-Pad2)*%
X146178000Y-160020000D03*
X157758000Y-160020000D03*
%TD*%
D10*
%TO.P,R1,1*%
%TO.N,Net-(D5-RA)*%
X112395000Y-130175000D03*
%TO.P,R1,2*%
%TO.N,A2*%
X120015000Y-130175000D03*
%TD*%
D13*
%TO.P,J1,1*%
%TO.N,Net-(D1-A)*%
X146050000Y-92075000D03*
D14*
%TO.P,J1,2*%
%TO.N,GND*%
X146050000Y-85775000D03*
D15*
%TO.P,J1,3*%
X141250000Y-89175000D03*
%TD*%
D10*
%TO.P,R4,1*%
%TO.N,D2*%
X150876000Y-127000000D03*
%TO.P,R4,2*%
%TO.N,Net-(R4-Pad2)*%
X150876000Y-134620000D03*
%TD*%
D16*
%TO.P,SW4,1,A*%
%TO.N,Net-(D2-K)*%
X163322000Y-103004000D03*
%TO.P,SW4,2,B*%
%TO.N,Net-(D1-K)*%
X163322000Y-100083000D03*
%TO.P,SW4,3,C*%
%TO.N,unconnected-(SW4-C-Pad3)*%
X163322000Y-97162000D03*
D17*
%TO.P,SW4,5*%
%TO.N,N/C*%
X163322000Y-106560000D03*
X163322000Y-93606000D03*
%TD*%
D18*
%TO.P,D3,1,K*%
%TO.N,+5V*%
X134065000Y-83312000D03*
D19*
%TO.P,D3,2,A*%
%TO.N,Net-(D3-A)*%
X134065000Y-90932000D03*
%TD*%
D20*
%TO.P,OLED1,1,Pin_1*%
%TO.N,GND*%
X146435000Y-133985000D03*
D21*
%TO.P,OLED1,2,Pin_2*%
%TO.N,+5V*%
X146435000Y-136525000D03*
%TO.P,OLED1,3,Pin_3*%
%TO.N,Net-(A1-SCL{slash}A5)*%
X146435000Y-139065000D03*
%TO.P,OLED1,4,Pin_4*%
%TO.N,Net-(A1-SDA{slash}A4)*%
X146435000Y-141605000D03*
%TD*%
D10*
%TO.P,C1,1*%
%TO.N,Net-(D2-K)*%
X161330000Y-112395000D03*
%TO.P,C1,2*%
%TO.N,GND*%
X163830000Y-112395000D03*
%TD*%
D22*
%TO.P,J2,R*%
%TO.N,D3*%
X114300000Y-89516600D03*
%TO.P,J2,RN*%
%TO.N,Net-(J2-PadRN)*%
X111800000Y-89516600D03*
D23*
%TO.P,J2,S*%
%TO.N,GND*%
X109300000Y-84516600D03*
D22*
%TO.P,J2,T*%
%TO.N,+5V*%
X104300000Y-89516600D03*
%TO.P,J2,TN*%
X106800000Y-89516600D03*
%TD*%
D24*
%TO.P,U1,1,IN*%
%TO.N,Net-(D2-K)*%
X151384000Y-98298000D03*
D25*
%TO.P,U1,2,GND*%
%TO.N,GND*%
X148844000Y-98298000D03*
%TO.P,U1,3,OUT*%
%TO.N,+5V*%
X146304000Y-98298000D03*
%TD*%
D18*
%TO.P,D2,1,K*%
%TO.N,Net-(D2-K)*%
X141478000Y-104648000D03*
D19*
%TO.P,D2,2,A*%
%TO.N,+5V*%
X141478000Y-97028000D03*
%TD*%
D12*
%TO.P,SW3,1,1*%
%TO.N,GND*%
X123699000Y-155520000D03*
X135279000Y-155520000D03*
%TO.P,SW3,2,2*%
%TO.N,D10*%
X123699000Y-160020000D03*
X135279000Y-160020000D03*
%TD*%
D10*
%TO.P,R7,1*%
%TO.N,Net-(Q1-G)*%
X121666000Y-94742000D03*
%TO.P,R7,2*%
%TO.N,D5*%
X114046000Y-94742000D03*
%TD*%
%TO.P,R3,1*%
%TO.N,Net-(D5-BA)*%
X97790000Y-135890000D03*
%TO.P,R3,2*%
%TO.N,A0*%
X97790000Y-128270000D03*
%TD*%
D26*
%TO.P,A1,1,D1/TX*%
%TO.N,unconnected-(A1-D1{slash}TX-Pad1)*%
X138684000Y-108468000D03*
D27*
%TO.P,A1,2,D0/RX*%
%TO.N,unconnected-(A1-D0{slash}RX-Pad2)*%
X136144000Y-108468000D03*
%TO.P,A1,3,~{RESET}*%
%TO.N,unconnected-(A1-~{RESET}-Pad3)*%
X133604000Y-108468000D03*
%TO.P,A1,4,GND*%
%TO.N,GND*%
X131064000Y-108468000D03*
%TO.P,A1,5,D2*%
%TO.N,D2*%
X128524000Y-108468000D03*
D16*
%TO.P,A1,6,D3*%
%TO.N,D3*%
X125984000Y-108468000D03*
D27*
%TO.P,A1,7,D4*%
%TO.N,unconnected-(A1-D4-Pad7)*%
X123444000Y-108468000D03*
%TO.P,A1,8,D5*%
%TO.N,D5*%
X120904000Y-108468000D03*
%TO.P,A1,9,D6*%
%TO.N,unconnected-(A1-D6-Pad9)*%
X118364000Y-108468000D03*
%TO.P,A1,10,D7*%
%TO.N,unconnected-(A1-D7-Pad10)*%
X115824000Y-108468000D03*
%TO.P,A1,11,D8*%
%TO.N,unconnected-(A1-D8-Pad11)*%
X113284000Y-108468000D03*
%TO.P,A1,12,D9*%
%TO.N,D9*%
X110744000Y-108468000D03*
%TO.P,A1,13,D10/CS*%
%TO.N,D10*%
X108204000Y-108468000D03*
%TO.P,A1,14,D11/COPI*%
%TO.N,unconnected-(A1-D11{slash}COPI-Pad14)*%
X105664000Y-108468000D03*
%TO.P,A1,15,D12/CIPO*%
%TO.N,unconnected-(A1-D12{slash}CIPO-Pad15)*%
X103124000Y-108468000D03*
%TO.P,A1,16,D13/SCK*%
%TO.N,unconnected-(A1-D13{slash}SCK-Pad16)*%
X103124000Y-123708000D03*
%TO.P,A1,17,3V3*%
%TO.N,unconnected-(A1-3V3-Pad17)*%
X105664000Y-123708000D03*
%TO.P,A1,18,B0*%
%TO.N,unconnected-(A1-B0-Pad18)*%
X108204000Y-123708000D03*
%TO.P,A1,19,A0*%
%TO.N,A0*%
X110744000Y-123708000D03*
%TO.P,A1,20,A1*%
%TO.N,A1*%
X113284000Y-123708000D03*
%TO.P,A1,21,A2*%
%TO.N,A2*%
X115824000Y-123708000D03*
%TO.P,A1,22,A3*%
%TO.N,unconnected-(A1-A3-Pad22)*%
X118364000Y-123708000D03*
%TO.P,A1,23,SDA/A4*%
%TO.N,Net-(A1-SDA{slash}A4)*%
X120904000Y-123708000D03*
%TO.P,A1,24,SCL/A5*%
%TO.N,Net-(A1-SCL{slash}A5)*%
X123444000Y-123708000D03*
%TO.P,A1,25,A6*%
%TO.N,unconnected-(A1-A6-Pad25)*%
X125984000Y-123708000D03*
%TO.P,A1,26,A7*%
%TO.N,unconnected-(A1-A7-Pad26)*%
X128524000Y-123708000D03*
%TO.P,A1,27,VUSB/5V*%
%TO.N,+5V*%
X131064000Y-123708000D03*
%TO.P,A1,28,B1*%
%TO.N,unconnected-(A1-B1-Pad28)*%
X133604000Y-123708000D03*
%TO.P,A1,29,GND*%
%TO.N,GND*%
X136144000Y-123708000D03*
%TO.P,A1,30,VIN*%
%TO.N,unconnected-(A1-VIN-Pad30)*%
X138684000Y-123708000D03*
%TD*%
D10*
%TO.P,C3,1*%
%TO.N,D2*%
X154305000Y-120944000D03*
%TO.P,C3,2*%
%TO.N,GND*%
X156805000Y-120944000D03*
%TD*%
D28*
%TO.P,D5,1,RA*%
%TO.N,Net-(D5-RA)*%
X107315000Y-137795000D03*
%TO.P,D5,2,BA*%
%TO.N,Net-(D5-BA)*%
X100838000Y-137795000D03*
%TO.P,D5,3,GA*%
%TO.N,Net-(D5-GA)*%
X102997000Y-137795000D03*
D29*
%TO.P,D5,4,K*%
%TO.N,GND*%
X105156000Y-137795000D03*
%TD*%
D10*
%TO.P,R5,1*%
%TO.N,+5V*%
X145288000Y-126492000D03*
%TO.P,R5,2*%
%TO.N,D2*%
X145288000Y-118872000D03*
%TD*%
D22*
%TO.P,J3,R*%
%TO.N,Net-(D3-A)*%
X130095000Y-89516600D03*
%TO.P,J3,RN*%
%TO.N,unconnected-(J3-PadRN)*%
X127595000Y-89516600D03*
D23*
%TO.P,J3,S*%
%TO.N,+5V*%
X125095000Y-84516600D03*
D22*
%TO.P,J3,T*%
%TO.N,unconnected-(J3-PadT)*%
X120095000Y-89516600D03*
%TO.P,J3,TN*%
%TO.N,unconnected-(J3-PadTN)*%
X122595000Y-89516600D03*
%TD*%
D12*
%TO.P,SW1,1,1*%
%TO.N,GND*%
X101220000Y-155520000D03*
X112800000Y-155520000D03*
%TO.P,SW1,2,2*%
%TO.N,D9*%
X101220000Y-160020000D03*
X112800000Y-160020000D03*
%TD*%
D18*
%TO.P,D1,1,K*%
%TO.N,Net-(D1-K)*%
X152908000Y-86614000D03*
D19*
%TO.P,D1,2,A*%
%TO.N,Net-(D1-A)*%
X152908000Y-94234000D03*
%TD*%
D30*
%TO.N,D10*%
X118745000Y-139065000D02*
X113030000Y-133350000D01*
X98425000Y-133350000D02*
X95250000Y-130175000D01*
X95250000Y-124460000D02*
X108204000Y-111506000D01*
X118745000Y-155066000D02*
X118745000Y-139065000D01*
X108204000Y-111506000D02*
X108204000Y-108468000D01*
X95250000Y-130175000D02*
X95250000Y-124460000D01*
X113030000Y-133350000D02*
X98425000Y-133350000D01*
X123699000Y-160020000D02*
X118745000Y-155066000D01*
%TO.N,D5*%
X120904000Y-101600000D02*
X120904000Y-108468000D01*
X114046000Y-94742000D02*
X120904000Y-101600000D01*
%TO.N,D3*%
X114300000Y-89516600D02*
X114300000Y-92115798D01*
X125984000Y-103799798D02*
X125984000Y-108468000D01*
X114300000Y-92115798D02*
X125984000Y-103799798D01*
%TO.N,GND*%
X123699000Y-155520000D02*
X135279000Y-155520000D01*
X146178000Y-155520000D02*
X157758000Y-155520000D01*
X101220000Y-155520000D02*
X112800000Y-155520000D01*
%TD*%
%TA.AperFunction,Conductor*%
%TO.N,+5V*%
G36*
X165115468Y-80030722D02*
G01*
X165136117Y-80047357D01*
X167603172Y-82513887D01*
X167636663Y-82575206D01*
X167639500Y-82601577D01*
X167639500Y-162508431D01*
X167619815Y-162575470D01*
X167603181Y-162596112D01*
X165136112Y-165063181D01*
X165074789Y-165096666D01*
X165048431Y-165099500D01*
X94031569Y-165099500D01*
X93964530Y-165079815D01*
X93943888Y-165063181D01*
X91476819Y-162596112D01*
X91443334Y-162534789D01*
X91440500Y-162508431D01*
X91440500Y-159903947D01*
X99449500Y-159903947D01*
X99449500Y-160136052D01*
X99479794Y-160366148D01*
X99539862Y-160590328D01*
X99628677Y-160804745D01*
X99628685Y-160804762D01*
X99744720Y-161005743D01*
X99744721Y-161005745D01*
X99886009Y-161189875D01*
X99886015Y-161189882D01*
X100050117Y-161353984D01*
X100050124Y-161353990D01*
X100234254Y-161495278D01*
X100234256Y-161495279D01*
X100435237Y-161611314D01*
X100435240Y-161611315D01*
X100435248Y-161611320D01*
X100649670Y-161700137D01*
X100873851Y-161760206D01*
X101103955Y-161790500D01*
X101103962Y-161790500D01*
X101336038Y-161790500D01*
X101336045Y-161790500D01*
X101566149Y-161760206D01*
X101790330Y-161700137D01*
X102004752Y-161611320D01*
X102205748Y-161495276D01*
X102389877Y-161353989D01*
X102553989Y-161189877D01*
X102695276Y-161005748D01*
X102811320Y-160804752D01*
X102900137Y-160590330D01*
X102960206Y-160366149D01*
X102990500Y-160136045D01*
X102990500Y-159903955D01*
X102990499Y-159903947D01*
X111029500Y-159903947D01*
X111029500Y-160136052D01*
X111059794Y-160366148D01*
X111119862Y-160590328D01*
X111208677Y-160804745D01*
X111208685Y-160804762D01*
X111324720Y-161005743D01*
X111324721Y-161005745D01*
X111466009Y-161189875D01*
X111466015Y-161189882D01*
X111630117Y-161353984D01*
X111630124Y-161353990D01*
X111814254Y-161495278D01*
X111814256Y-161495279D01*
X112015237Y-161611314D01*
X112015240Y-161611315D01*
X112015248Y-161611320D01*
X112229670Y-161700137D01*
X112453851Y-161760206D01*
X112683955Y-161790500D01*
X112683962Y-161790500D01*
X112916038Y-161790500D01*
X112916045Y-161790500D01*
X113146149Y-161760206D01*
X113370330Y-161700137D01*
X113584752Y-161611320D01*
X113785748Y-161495276D01*
X113969877Y-161353989D01*
X114133989Y-161189877D01*
X114275276Y-161005748D01*
X114391320Y-160804752D01*
X114480137Y-160590330D01*
X114540206Y-160366149D01*
X114570500Y-160136045D01*
X114570500Y-159903955D01*
X114540206Y-159673851D01*
X114480137Y-159449670D01*
X114391320Y-159235248D01*
X114391314Y-159235237D01*
X114275279Y-159034256D01*
X114275278Y-159034254D01*
X114133990Y-158850124D01*
X114133984Y-158850117D01*
X113969882Y-158686015D01*
X113969875Y-158686009D01*
X113785745Y-158544721D01*
X113785743Y-158544720D01*
X113584762Y-158428685D01*
X113584754Y-158428681D01*
X113584752Y-158428680D01*
X113584745Y-158428677D01*
X113370328Y-158339862D01*
X113228203Y-158301780D01*
X113146149Y-158279794D01*
X113117386Y-158276007D01*
X112916052Y-158249500D01*
X112916045Y-158249500D01*
X112683955Y-158249500D01*
X112683947Y-158249500D01*
X112453851Y-158279794D01*
X112229671Y-158339862D01*
X112015254Y-158428677D01*
X112015237Y-158428685D01*
X111814256Y-158544720D01*
X111814254Y-158544721D01*
X111630124Y-158686009D01*
X111630117Y-158686015D01*
X111466015Y-158850117D01*
X111466009Y-158850124D01*
X111324721Y-159034254D01*
X111324720Y-159034256D01*
X111208685Y-159235237D01*
X111208677Y-159235254D01*
X111119862Y-159449671D01*
X111059794Y-159673851D01*
X111029500Y-159903947D01*
X102990499Y-159903947D01*
X102960206Y-159673851D01*
X102900137Y-159449670D01*
X102811320Y-159235248D01*
X102811314Y-159235237D01*
X102695279Y-159034256D01*
X102695278Y-159034254D01*
X102553990Y-158850124D01*
X102553984Y-158850117D01*
X102389882Y-158686015D01*
X102389875Y-158686009D01*
X102205745Y-158544721D01*
X102205743Y-158544720D01*
X102004762Y-158428685D01*
X102004754Y-158428681D01*
X102004752Y-158428680D01*
X102004745Y-158428677D01*
X101790328Y-158339862D01*
X101648203Y-158301780D01*
X101566149Y-158279794D01*
X101537386Y-158276007D01*
X101336052Y-158249500D01*
X101336045Y-158249500D01*
X101103955Y-158249500D01*
X101103947Y-158249500D01*
X100873851Y-158279794D01*
X100649671Y-158339862D01*
X100435254Y-158428677D01*
X100435237Y-158428685D01*
X100234256Y-158544720D01*
X100234254Y-158544721D01*
X100050124Y-158686009D01*
X100050117Y-158686015D01*
X99886015Y-158850117D01*
X99886009Y-158850124D01*
X99744721Y-159034254D01*
X99744720Y-159034256D01*
X99628685Y-159235237D01*
X99628677Y-159235254D01*
X99539862Y-159449671D01*
X99479794Y-159673851D01*
X99449500Y-159903947D01*
X91440500Y-159903947D01*
X91440500Y-157430711D01*
X94034500Y-157430711D01*
X94034500Y-157673288D01*
X94066161Y-157913785D01*
X94128947Y-158148104D01*
X94221773Y-158372205D01*
X94221776Y-158372212D01*
X94343064Y-158582289D01*
X94343066Y-158582292D01*
X94343067Y-158582293D01*
X94490733Y-158774736D01*
X94490739Y-158774743D01*
X94662256Y-158946260D01*
X94662262Y-158946265D01*
X94854711Y-159093936D01*
X95064788Y-159215224D01*
X95288900Y-159308054D01*
X95523211Y-159370838D01*
X95703586Y-159394584D01*
X95763711Y-159402500D01*
X95763712Y-159402500D01*
X96006289Y-159402500D01*
X96054388Y-159396167D01*
X96246789Y-159370838D01*
X96481100Y-159308054D01*
X96705212Y-159215224D01*
X96915289Y-159093936D01*
X97107738Y-158946265D01*
X97279265Y-158774738D01*
X97426936Y-158582289D01*
X97548224Y-158372212D01*
X97641054Y-158148100D01*
X97703838Y-157913789D01*
X97735500Y-157673288D01*
X97735500Y-157430712D01*
X97703838Y-157190211D01*
X97641054Y-156955900D01*
X97548224Y-156731788D01*
X97426936Y-156521711D01*
X97279265Y-156329262D01*
X97279260Y-156329256D01*
X97107743Y-156157739D01*
X97107736Y-156157733D01*
X96915293Y-156010067D01*
X96915292Y-156010066D01*
X96915289Y-156010064D01*
X96705212Y-155888776D01*
X96705205Y-155888773D01*
X96481104Y-155795947D01*
X96246785Y-155733161D01*
X96006289Y-155701500D01*
X96006288Y-155701500D01*
X95763712Y-155701500D01*
X95763711Y-155701500D01*
X95523214Y-155733161D01*
X95288895Y-155795947D01*
X95064794Y-155888773D01*
X95064785Y-155888777D01*
X94854706Y-156010067D01*
X94662263Y-156157733D01*
X94662256Y-156157739D01*
X94490739Y-156329256D01*
X94490733Y-156329263D01*
X94343067Y-156521706D01*
X94221777Y-156731785D01*
X94221773Y-156731794D01*
X94128947Y-156955895D01*
X94066161Y-157190214D01*
X94034500Y-157430711D01*
X91440500Y-157430711D01*
X91440500Y-155403947D01*
X99449500Y-155403947D01*
X99449500Y-155636052D01*
X99479794Y-155866148D01*
X99539862Y-156090328D01*
X99628677Y-156304745D01*
X99628685Y-156304762D01*
X99744720Y-156505743D01*
X99744721Y-156505745D01*
X99886009Y-156689875D01*
X99886015Y-156689882D01*
X100050117Y-156853984D01*
X100050124Y-156853990D01*
X100234254Y-156995278D01*
X100234256Y-156995279D01*
X100435237Y-157111314D01*
X100435240Y-157111315D01*
X100435248Y-157111320D01*
X100649670Y-157200137D01*
X100873851Y-157260206D01*
X101103955Y-157290500D01*
X101103962Y-157290500D01*
X101336038Y-157290500D01*
X101336045Y-157290500D01*
X101566149Y-157260206D01*
X101790330Y-157200137D01*
X102004752Y-157111320D01*
X102205748Y-156995276D01*
X102389877Y-156853989D01*
X102553989Y-156689877D01*
X102695276Y-156505748D01*
X102705002Y-156488902D01*
X102755568Y-156440686D01*
X102812390Y-156426900D01*
X111207610Y-156426900D01*
X111274649Y-156446585D01*
X111314998Y-156488902D01*
X111324722Y-156505746D01*
X111466009Y-156689875D01*
X111466015Y-156689882D01*
X111630117Y-156853984D01*
X111630124Y-156853990D01*
X111814254Y-156995278D01*
X111814256Y-156995279D01*
X112015237Y-157111314D01*
X112015240Y-157111315D01*
X112015248Y-157111320D01*
X112229670Y-157200137D01*
X112453851Y-157260206D01*
X112683955Y-157290500D01*
X112683962Y-157290500D01*
X112916038Y-157290500D01*
X112916045Y-157290500D01*
X113146149Y-157260206D01*
X113370330Y-157200137D01*
X113584752Y-157111320D01*
X113785748Y-156995276D01*
X113969877Y-156853989D01*
X114133989Y-156689877D01*
X114275276Y-156505748D01*
X114391320Y-156304752D01*
X114480137Y-156090330D01*
X114540206Y-155866149D01*
X114570500Y-155636045D01*
X114570500Y-155403955D01*
X114540206Y-155173851D01*
X114480137Y-154949670D01*
X114391320Y-154735248D01*
X114386367Y-154726669D01*
X114275279Y-154534256D01*
X114275278Y-154534254D01*
X114133990Y-154350124D01*
X114133984Y-154350117D01*
X113969882Y-154186015D01*
X113969875Y-154186009D01*
X113785745Y-154044721D01*
X113785743Y-154044720D01*
X113584762Y-153928685D01*
X113584754Y-153928681D01*
X113584752Y-153928680D01*
X113370330Y-153839863D01*
X113370331Y-153839863D01*
X113370328Y-153839862D01*
X113228203Y-153801780D01*
X113146149Y-153779794D01*
X113117386Y-153776007D01*
X112916052Y-153749500D01*
X112916045Y-153749500D01*
X112683955Y-153749500D01*
X112683947Y-153749500D01*
X112453851Y-153779794D01*
X112229671Y-153839862D01*
X112015254Y-153928677D01*
X112015237Y-153928685D01*
X111814256Y-154044720D01*
X111814254Y-154044721D01*
X111630124Y-154186009D01*
X111630117Y-154186015D01*
X111466015Y-154350117D01*
X111466009Y-154350124D01*
X111324722Y-154534253D01*
X111314998Y-154551098D01*
X111264432Y-154599314D01*
X111207610Y-154613100D01*
X102812390Y-154613100D01*
X102745351Y-154593415D01*
X102705002Y-154551098D01*
X102695277Y-154534253D01*
X102553990Y-154350124D01*
X102553984Y-154350117D01*
X102389882Y-154186015D01*
X102389875Y-154186009D01*
X102205745Y-154044721D01*
X102205743Y-154044720D01*
X102004762Y-153928685D01*
X102004754Y-153928681D01*
X102004752Y-153928680D01*
X101790330Y-153839863D01*
X101790331Y-153839863D01*
X101790328Y-153839862D01*
X101648203Y-153801780D01*
X101566149Y-153779794D01*
X101537386Y-153776007D01*
X101336052Y-153749500D01*
X101336045Y-153749500D01*
X101103955Y-153749500D01*
X101103947Y-153749500D01*
X100873851Y-153779794D01*
X100649671Y-153839862D01*
X100435254Y-153928677D01*
X100435237Y-153928685D01*
X100234256Y-154044720D01*
X100234254Y-154044721D01*
X100050124Y-154186009D01*
X100050117Y-154186015D01*
X99886015Y-154350117D01*
X99886009Y-154350124D01*
X99744721Y-154534254D01*
X99744720Y-154534256D01*
X99628685Y-154735237D01*
X99628677Y-154735254D01*
X99539862Y-154949671D01*
X99479794Y-155173851D01*
X99449500Y-155403947D01*
X91440500Y-155403947D01*
X91440500Y-137441639D01*
X99575500Y-137441639D01*
X99575500Y-138148360D01*
X99606587Y-138344637D01*
X99667993Y-138533629D01*
X99667994Y-138533632D01*
X99719860Y-138635423D01*
X99758213Y-138710694D01*
X99875019Y-138871464D01*
X100015536Y-139011981D01*
X100176306Y-139128787D01*
X100259715Y-139171286D01*
X100353367Y-139219005D01*
X100353370Y-139219006D01*
X100447866Y-139249709D01*
X100542364Y-139280413D01*
X100738639Y-139311500D01*
X100738640Y-139311500D01*
X100937360Y-139311500D01*
X100937361Y-139311500D01*
X101133636Y-139280413D01*
X101322632Y-139219005D01*
X101499694Y-139128787D01*
X101660464Y-139011981D01*
X101800981Y-138871464D01*
X101817182Y-138849164D01*
X101872511Y-138806499D01*
X101942125Y-138800520D01*
X102003920Y-138833125D01*
X102017817Y-138849164D01*
X102034019Y-138871464D01*
X102174536Y-139011981D01*
X102335306Y-139128787D01*
X102418715Y-139171286D01*
X102512367Y-139219005D01*
X102512370Y-139219006D01*
X102606866Y-139249709D01*
X102701364Y-139280413D01*
X102897639Y-139311500D01*
X102897640Y-139311500D01*
X103096360Y-139311500D01*
X103096361Y-139311500D01*
X103292636Y-139280413D01*
X103481632Y-139219005D01*
X103481632Y-139219004D01*
X103481637Y-139219003D01*
X103575285Y-139171286D01*
X103649397Y-139133523D01*
X103718065Y-139120627D01*
X103782806Y-139146903D01*
X103805711Y-139174111D01*
X103806888Y-139173231D01*
X103898452Y-139295544D01*
X103898455Y-139295547D01*
X104013664Y-139381793D01*
X104013671Y-139381797D01*
X104148517Y-139432091D01*
X104148516Y-139432091D01*
X104155444Y-139432835D01*
X104208127Y-139438500D01*
X106103872Y-139438499D01*
X106163483Y-139432091D01*
X106298331Y-139381796D01*
X106413546Y-139295546D01*
X106470845Y-139219005D01*
X106505112Y-139173231D01*
X106507238Y-139174822D01*
X106546863Y-139135185D01*
X106615134Y-139120323D01*
X106662599Y-139133522D01*
X106736715Y-139171286D01*
X106830367Y-139219005D01*
X106830370Y-139219006D01*
X106924866Y-139249709D01*
X107019364Y-139280413D01*
X107215639Y-139311500D01*
X107215640Y-139311500D01*
X107414360Y-139311500D01*
X107414361Y-139311500D01*
X107610636Y-139280413D01*
X107799632Y-139219005D01*
X107976694Y-139128787D01*
X108137464Y-139011981D01*
X108277981Y-138871464D01*
X108394787Y-138710694D01*
X108485005Y-138533632D01*
X108546413Y-138344636D01*
X108577500Y-138148361D01*
X108577500Y-137441639D01*
X108546413Y-137245364D01*
X108515709Y-137150866D01*
X108485006Y-137056370D01*
X108485005Y-137056367D01*
X108420860Y-136930477D01*
X108394787Y-136879306D01*
X108277981Y-136718536D01*
X108137464Y-136578019D01*
X107976694Y-136461213D01*
X107941138Y-136443096D01*
X107799632Y-136370994D01*
X107799629Y-136370993D01*
X107610637Y-136309587D01*
X107512498Y-136294043D01*
X107414361Y-136278500D01*
X107215639Y-136278500D01*
X107150214Y-136288862D01*
X107019362Y-136309587D01*
X106830370Y-136370993D01*
X106830367Y-136370994D01*
X106662602Y-136456476D01*
X106593933Y-136469372D01*
X106529192Y-136443096D01*
X106506289Y-136415887D01*
X106505112Y-136416769D01*
X106413547Y-136294455D01*
X106413544Y-136294452D01*
X106298335Y-136208206D01*
X106298328Y-136208202D01*
X106163482Y-136157908D01*
X106163483Y-136157908D01*
X106103883Y-136151501D01*
X106103881Y-136151500D01*
X106103873Y-136151500D01*
X106103864Y-136151500D01*
X104208129Y-136151500D01*
X104208123Y-136151501D01*
X104148516Y-136157908D01*
X104013671Y-136208202D01*
X104013664Y-136208206D01*
X103898455Y-136294452D01*
X103898452Y-136294455D01*
X103806888Y-136416769D01*
X103804766Y-136415180D01*
X103765099Y-136454834D01*
X103696823Y-136469673D01*
X103649397Y-136456476D01*
X103646174Y-136454834D01*
X103623138Y-136443096D01*
X103481632Y-136370994D01*
X103481629Y-136370993D01*
X103292637Y-136309587D01*
X103194498Y-136294043D01*
X103096361Y-136278500D01*
X102897639Y-136278500D01*
X102832214Y-136288862D01*
X102701362Y-136309587D01*
X102512370Y-136370993D01*
X102512367Y-136370994D01*
X102335305Y-136461213D01*
X102174533Y-136578021D01*
X102034018Y-136718536D01*
X102017817Y-136740836D01*
X101962487Y-136783501D01*
X101892873Y-136789479D01*
X101831079Y-136756872D01*
X101817183Y-136740836D01*
X101800981Y-136718536D01*
X101660466Y-136578021D01*
X101660464Y-136578019D01*
X101499694Y-136461213D01*
X101464138Y-136443096D01*
X101322632Y-136370994D01*
X101322629Y-136370993D01*
X101133637Y-136309587D01*
X101035498Y-136294043D01*
X100937361Y-136278500D01*
X100738639Y-136278500D01*
X100673214Y-136288862D01*
X100542362Y-136309587D01*
X100353370Y-136370993D01*
X100353367Y-136370994D01*
X100176305Y-136461213D01*
X100015533Y-136578021D01*
X99875021Y-136718533D01*
X99758213Y-136879305D01*
X99667994Y-137056367D01*
X99667993Y-137056370D01*
X99606587Y-137245362D01*
X99575500Y-137441639D01*
X91440500Y-137441639D01*
X91440500Y-135782643D01*
X96425900Y-135782643D01*
X96425900Y-135997356D01*
X96459489Y-136209428D01*
X96525837Y-136413630D01*
X96525838Y-136413633D01*
X96623317Y-136604944D01*
X96749523Y-136778651D01*
X96901349Y-136930477D01*
X97075056Y-137056683D01*
X97168888Y-137104492D01*
X97266366Y-137154161D01*
X97266369Y-137154162D01*
X97368470Y-137187336D01*
X97470573Y-137220511D01*
X97682643Y-137254100D01*
X97682644Y-137254100D01*
X97897356Y-137254100D01*
X97897357Y-137254100D01*
X98109427Y-137220511D01*
X98313633Y-137154161D01*
X98504944Y-137056683D01*
X98678651Y-136930477D01*
X98830477Y-136778651D01*
X98956683Y-136604944D01*
X99054161Y-136413633D01*
X99120511Y-136209427D01*
X99154100Y-135997357D01*
X99154100Y-135782643D01*
X99120511Y-135570573D01*
X99054161Y-135366367D01*
X99054161Y-135366366D01*
X98965595Y-135192547D01*
X98956683Y-135175056D01*
X98830477Y-135001349D01*
X98678651Y-134849523D01*
X98504944Y-134723317D01*
X98313633Y-134625838D01*
X98313630Y-134625837D01*
X98109428Y-134559489D01*
X98003392Y-134542694D01*
X97897357Y-134525900D01*
X97682643Y-134525900D01*
X97611953Y-134537096D01*
X97470571Y-134559489D01*
X97266369Y-134625837D01*
X97266366Y-134625838D01*
X97075055Y-134723317D01*
X96975949Y-134795322D01*
X96901349Y-134849523D01*
X96901347Y-134849525D01*
X96901346Y-134849525D01*
X96749525Y-135001346D01*
X96749525Y-135001347D01*
X96749523Y-135001349D01*
X96695322Y-135075949D01*
X96623317Y-135175055D01*
X96525838Y-135366366D01*
X96525837Y-135366369D01*
X96459489Y-135570571D01*
X96425900Y-135782643D01*
X91440500Y-135782643D01*
X91440500Y-130264324D01*
X94343099Y-130264324D01*
X94377950Y-130439527D01*
X94377952Y-130439533D01*
X94446314Y-130604575D01*
X94446319Y-130604584D01*
X94545564Y-130753114D01*
X94545567Y-130753118D01*
X97720565Y-133928115D01*
X97846885Y-134054435D01*
X97846886Y-134054436D01*
X97995415Y-134153680D01*
X97995421Y-134153683D01*
X97995422Y-134153684D01*
X98160467Y-134222048D01*
X98160471Y-134222048D01*
X98160472Y-134222049D01*
X98335675Y-134256900D01*
X98335678Y-134256900D01*
X112602988Y-134256900D01*
X112670027Y-134276585D01*
X112690669Y-134293219D01*
X117801781Y-139404331D01*
X117835266Y-139465654D01*
X117838100Y-139492012D01*
X117838100Y-154976678D01*
X117838100Y-155155322D01*
X117838100Y-155155324D01*
X117838099Y-155155324D01*
X117872950Y-155330527D01*
X117872952Y-155330533D01*
X117941314Y-155495575D01*
X117941319Y-155495584D01*
X118040564Y-155644114D01*
X118040567Y-155644118D01*
X121931735Y-159535285D01*
X121965220Y-159596608D01*
X121963830Y-159655055D01*
X121958795Y-159673845D01*
X121958793Y-159673859D01*
X121928500Y-159903947D01*
X121928500Y-160136052D01*
X121958794Y-160366148D01*
X122018862Y-160590328D01*
X122107677Y-160804745D01*
X122107685Y-160804762D01*
X122223720Y-161005743D01*
X122223721Y-161005745D01*
X122365009Y-161189875D01*
X122365015Y-161189882D01*
X122529117Y-161353984D01*
X122529124Y-161353990D01*
X122713254Y-161495278D01*
X122713256Y-161495279D01*
X122914237Y-161611314D01*
X122914240Y-161611315D01*
X122914248Y-161611320D01*
X123128670Y-161700137D01*
X123352851Y-161760206D01*
X123582955Y-161790500D01*
X123582962Y-161790500D01*
X123815038Y-161790500D01*
X123815045Y-161790500D01*
X124045149Y-161760206D01*
X124269330Y-161700137D01*
X124483752Y-161611320D01*
X124684748Y-161495276D01*
X124868877Y-161353989D01*
X125032989Y-161189877D01*
X125174276Y-161005748D01*
X125290320Y-160804752D01*
X125379137Y-160590330D01*
X125439206Y-160366149D01*
X125469500Y-160136045D01*
X125469500Y-159903955D01*
X125469499Y-159903947D01*
X133508500Y-159903947D01*
X133508500Y-160136052D01*
X133538794Y-160366148D01*
X133598862Y-160590328D01*
X133687677Y-160804745D01*
X133687685Y-160804762D01*
X133803720Y-161005743D01*
X133803721Y-161005745D01*
X133945009Y-161189875D01*
X133945015Y-161189882D01*
X134109117Y-161353984D01*
X134109124Y-161353990D01*
X134293254Y-161495278D01*
X134293256Y-161495279D01*
X134494237Y-161611314D01*
X134494240Y-161611315D01*
X134494248Y-161611320D01*
X134708670Y-161700137D01*
X134932851Y-161760206D01*
X135162955Y-161790500D01*
X135162962Y-161790500D01*
X135395038Y-161790500D01*
X135395045Y-161790500D01*
X135625149Y-161760206D01*
X135849330Y-161700137D01*
X136063752Y-161611320D01*
X136264748Y-161495276D01*
X136448877Y-161353989D01*
X136612989Y-161189877D01*
X136754276Y-161005748D01*
X136870320Y-160804752D01*
X136959137Y-160590330D01*
X137019206Y-160366149D01*
X137049500Y-160136045D01*
X137049500Y-159903955D01*
X137049499Y-159903947D01*
X144407500Y-159903947D01*
X144407500Y-160136052D01*
X144437794Y-160366148D01*
X144497862Y-160590328D01*
X144586677Y-160804745D01*
X144586685Y-160804762D01*
X144702720Y-161005743D01*
X144702721Y-161005745D01*
X144844009Y-161189875D01*
X144844015Y-161189882D01*
X145008117Y-161353984D01*
X145008124Y-161353990D01*
X145192254Y-161495278D01*
X145192256Y-161495279D01*
X145393237Y-161611314D01*
X145393240Y-161611315D01*
X145393248Y-161611320D01*
X145607670Y-161700137D01*
X145831851Y-161760206D01*
X146061955Y-161790500D01*
X146061962Y-161790500D01*
X146294038Y-161790500D01*
X146294045Y-161790500D01*
X146524149Y-161760206D01*
X146748330Y-161700137D01*
X146962752Y-161611320D01*
X147163748Y-161495276D01*
X147347877Y-161353989D01*
X147511989Y-161189877D01*
X147653276Y-161005748D01*
X147769320Y-160804752D01*
X147858137Y-160590330D01*
X147918206Y-160366149D01*
X147948500Y-160136045D01*
X147948500Y-159903955D01*
X147948499Y-159903947D01*
X155987500Y-159903947D01*
X155987500Y-160136052D01*
X156017794Y-160366148D01*
X156077862Y-160590328D01*
X156166677Y-160804745D01*
X156166685Y-160804762D01*
X156282720Y-161005743D01*
X156282721Y-161005745D01*
X156424009Y-161189875D01*
X156424015Y-161189882D01*
X156588117Y-161353984D01*
X156588124Y-161353990D01*
X156772254Y-161495278D01*
X156772256Y-161495279D01*
X156973237Y-161611314D01*
X156973240Y-161611315D01*
X156973248Y-161611320D01*
X157187670Y-161700137D01*
X157411851Y-161760206D01*
X157641955Y-161790500D01*
X157641962Y-161790500D01*
X157874038Y-161790500D01*
X157874045Y-161790500D01*
X158104149Y-161760206D01*
X158328330Y-161700137D01*
X158542752Y-161611320D01*
X158743748Y-161495276D01*
X158927877Y-161353989D01*
X159091989Y-161189877D01*
X159233276Y-161005748D01*
X159349320Y-160804752D01*
X159438137Y-160590330D01*
X159498206Y-160366149D01*
X159528500Y-160136045D01*
X159528500Y-159903955D01*
X159498206Y-159673851D01*
X159438137Y-159449670D01*
X159349320Y-159235248D01*
X159349314Y-159235237D01*
X159233279Y-159034256D01*
X159233278Y-159034254D01*
X159091990Y-158850124D01*
X159091984Y-158850117D01*
X158927882Y-158686015D01*
X158927875Y-158686009D01*
X158743745Y-158544721D01*
X158743743Y-158544720D01*
X158542762Y-158428685D01*
X158542754Y-158428681D01*
X158542752Y-158428680D01*
X158542745Y-158428677D01*
X158328328Y-158339862D01*
X158186203Y-158301780D01*
X158104149Y-158279794D01*
X158075386Y-158276007D01*
X157874052Y-158249500D01*
X157874045Y-158249500D01*
X157641955Y-158249500D01*
X157641947Y-158249500D01*
X157411851Y-158279794D01*
X157187671Y-158339862D01*
X156973254Y-158428677D01*
X156973237Y-158428685D01*
X156772256Y-158544720D01*
X156772254Y-158544721D01*
X156588124Y-158686009D01*
X156588117Y-158686015D01*
X156424015Y-158850117D01*
X156424009Y-158850124D01*
X156282721Y-159034254D01*
X156282720Y-159034256D01*
X156166685Y-159235237D01*
X156166677Y-159235254D01*
X156077862Y-159449671D01*
X156017794Y-159673851D01*
X155987500Y-159903947D01*
X147948499Y-159903947D01*
X147918206Y-159673851D01*
X147858137Y-159449670D01*
X147769320Y-159235248D01*
X147769314Y-159235237D01*
X147653279Y-159034256D01*
X147653278Y-159034254D01*
X147511990Y-158850124D01*
X147511984Y-158850117D01*
X147347882Y-158686015D01*
X147347875Y-158686009D01*
X147163745Y-158544721D01*
X147163743Y-158544720D01*
X146962762Y-158428685D01*
X146962754Y-158428681D01*
X146962752Y-158428680D01*
X146962745Y-158428677D01*
X146748328Y-158339862D01*
X146606203Y-158301780D01*
X146524149Y-158279794D01*
X146495386Y-158276007D01*
X146294052Y-158249500D01*
X146294045Y-158249500D01*
X146061955Y-158249500D01*
X146061947Y-158249500D01*
X145831851Y-158279794D01*
X145607671Y-158339862D01*
X145393254Y-158428677D01*
X145393237Y-158428685D01*
X145192256Y-158544720D01*
X145192254Y-158544721D01*
X145008124Y-158686009D01*
X145008117Y-158686015D01*
X144844015Y-158850117D01*
X144844009Y-158850124D01*
X144702721Y-159034254D01*
X144702720Y-159034256D01*
X144586685Y-159235237D01*
X144586677Y-159235254D01*
X144497862Y-159449671D01*
X144437794Y-159673851D01*
X144407500Y-159903947D01*
X137049499Y-159903947D01*
X137019206Y-159673851D01*
X136959137Y-159449670D01*
X136870320Y-159235248D01*
X136870314Y-159235237D01*
X136754279Y-159034256D01*
X136754278Y-159034254D01*
X136612990Y-158850124D01*
X136612984Y-158850117D01*
X136448882Y-158686015D01*
X136448875Y-158686009D01*
X136264745Y-158544721D01*
X136264743Y-158544720D01*
X136063762Y-158428685D01*
X136063754Y-158428681D01*
X136063752Y-158428680D01*
X136063745Y-158428677D01*
X135849328Y-158339862D01*
X135707203Y-158301780D01*
X135625149Y-158279794D01*
X135596386Y-158276007D01*
X135395052Y-158249500D01*
X135395045Y-158249500D01*
X135162955Y-158249500D01*
X135162947Y-158249500D01*
X134932851Y-158279794D01*
X134708671Y-158339862D01*
X134494254Y-158428677D01*
X134494237Y-158428685D01*
X134293256Y-158544720D01*
X134293254Y-158544721D01*
X134109124Y-158686009D01*
X134109117Y-158686015D01*
X133945015Y-158850117D01*
X133945009Y-158850124D01*
X133803721Y-159034254D01*
X133803720Y-159034256D01*
X133687685Y-159235237D01*
X133687677Y-159235254D01*
X133598862Y-159449671D01*
X133538794Y-159673851D01*
X133508500Y-159903947D01*
X125469499Y-159903947D01*
X125439206Y-159673851D01*
X125379137Y-159449670D01*
X125290320Y-159235248D01*
X125290314Y-159235237D01*
X125174279Y-159034256D01*
X125174278Y-159034254D01*
X125032990Y-158850124D01*
X125032984Y-158850117D01*
X124868882Y-158686015D01*
X124868875Y-158686009D01*
X124684745Y-158544721D01*
X124684743Y-158544720D01*
X124483762Y-158428685D01*
X124483754Y-158428681D01*
X124483752Y-158428680D01*
X124483745Y-158428677D01*
X124269328Y-158339862D01*
X124127203Y-158301780D01*
X124045149Y-158279794D01*
X124016386Y-158276007D01*
X123815052Y-158249500D01*
X123815045Y-158249500D01*
X123582955Y-158249500D01*
X123582947Y-158249500D01*
X123363927Y-158278335D01*
X123352851Y-158279794D01*
X123352849Y-158279794D01*
X123352845Y-158279795D01*
X123334055Y-158284830D01*
X123264205Y-158283165D01*
X123214285Y-158252735D01*
X122646261Y-157684711D01*
X161344500Y-157684711D01*
X161344500Y-157927288D01*
X161376161Y-158167785D01*
X161438947Y-158402104D01*
X161513584Y-158582293D01*
X161531776Y-158626212D01*
X161653064Y-158836289D01*
X161653066Y-158836292D01*
X161653067Y-158836293D01*
X161800733Y-159028736D01*
X161800739Y-159028743D01*
X161972256Y-159200260D01*
X161972263Y-159200266D01*
X162085321Y-159287018D01*
X162164711Y-159347936D01*
X162374788Y-159469224D01*
X162598900Y-159562054D01*
X162833211Y-159624838D01*
X163013586Y-159648584D01*
X163073711Y-159656500D01*
X163073712Y-159656500D01*
X163316289Y-159656500D01*
X163364388Y-159650167D01*
X163556789Y-159624838D01*
X163791100Y-159562054D01*
X164015212Y-159469224D01*
X164225289Y-159347936D01*
X164417738Y-159200265D01*
X164589265Y-159028738D01*
X164736936Y-158836289D01*
X164858224Y-158626212D01*
X164951054Y-158402100D01*
X165013838Y-158167789D01*
X165045500Y-157927288D01*
X165045500Y-157684712D01*
X165013838Y-157444211D01*
X164951054Y-157209900D01*
X164858224Y-156985788D01*
X164736936Y-156775711D01*
X164589265Y-156583262D01*
X164589260Y-156583256D01*
X164417743Y-156411739D01*
X164417736Y-156411733D01*
X164225293Y-156264067D01*
X164225292Y-156264066D01*
X164225289Y-156264064D01*
X164015212Y-156142776D01*
X164015205Y-156142773D01*
X163791104Y-156049947D01*
X163556785Y-155987161D01*
X163316289Y-155955500D01*
X163316288Y-155955500D01*
X163073712Y-155955500D01*
X163073711Y-155955500D01*
X162833214Y-155987161D01*
X162598895Y-156049947D01*
X162374794Y-156142773D01*
X162374785Y-156142777D01*
X162164706Y-156264067D01*
X161972263Y-156411733D01*
X161972256Y-156411739D01*
X161800739Y-156583256D01*
X161800733Y-156583263D01*
X161653067Y-156775706D01*
X161531777Y-156985785D01*
X161531773Y-156985794D01*
X161438947Y-157209895D01*
X161376161Y-157444214D01*
X161344500Y-157684711D01*
X122646261Y-157684711D01*
X120365497Y-155403947D01*
X121928500Y-155403947D01*
X121928500Y-155636052D01*
X121958794Y-155866148D01*
X122018862Y-156090328D01*
X122107677Y-156304745D01*
X122107685Y-156304762D01*
X122223720Y-156505743D01*
X122223721Y-156505745D01*
X122365009Y-156689875D01*
X122365015Y-156689882D01*
X122529117Y-156853984D01*
X122529124Y-156853990D01*
X122713254Y-156995278D01*
X122713256Y-156995279D01*
X122914237Y-157111314D01*
X122914240Y-157111315D01*
X122914248Y-157111320D01*
X123128670Y-157200137D01*
X123352851Y-157260206D01*
X123582955Y-157290500D01*
X123582962Y-157290500D01*
X123815038Y-157290500D01*
X123815045Y-157290500D01*
X124045149Y-157260206D01*
X124269330Y-157200137D01*
X124483752Y-157111320D01*
X124684748Y-156995276D01*
X124868877Y-156853989D01*
X125032989Y-156689877D01*
X125174276Y-156505748D01*
X125184002Y-156488902D01*
X125234568Y-156440686D01*
X125291390Y-156426900D01*
X133686610Y-156426900D01*
X133753649Y-156446585D01*
X133793998Y-156488902D01*
X133803722Y-156505746D01*
X133945009Y-156689875D01*
X133945015Y-156689882D01*
X134109117Y-156853984D01*
X134109124Y-156853990D01*
X134293254Y-156995278D01*
X134293256Y-156995279D01*
X134494237Y-157111314D01*
X134494240Y-157111315D01*
X134494248Y-157111320D01*
X134708670Y-157200137D01*
X134932851Y-157260206D01*
X135162955Y-157290500D01*
X135162962Y-157290500D01*
X135395038Y-157290500D01*
X135395045Y-157290500D01*
X135625149Y-157260206D01*
X135849330Y-157200137D01*
X136063752Y-157111320D01*
X136264748Y-156995276D01*
X136448877Y-156853989D01*
X136612989Y-156689877D01*
X136754276Y-156505748D01*
X136870320Y-156304752D01*
X136959137Y-156090330D01*
X137019206Y-155866149D01*
X137049500Y-155636045D01*
X137049500Y-155403955D01*
X137049499Y-155403947D01*
X144407500Y-155403947D01*
X144407500Y-155636052D01*
X144437794Y-155866148D01*
X144497862Y-156090328D01*
X144586677Y-156304745D01*
X144586685Y-156304762D01*
X144702720Y-156505743D01*
X144702721Y-156505745D01*
X144844009Y-156689875D01*
X144844015Y-156689882D01*
X145008117Y-156853984D01*
X145008124Y-156853990D01*
X145192254Y-156995278D01*
X145192256Y-156995279D01*
X145393237Y-157111314D01*
X145393240Y-157111315D01*
X145393248Y-157111320D01*
X145607670Y-157200137D01*
X145831851Y-157260206D01*
X146061955Y-157290500D01*
X146061962Y-157290500D01*
X146294038Y-157290500D01*
X146294045Y-157290500D01*
X146524149Y-157260206D01*
X146748330Y-157200137D01*
X146962752Y-157111320D01*
X147163748Y-156995276D01*
X147347877Y-156853989D01*
X147511989Y-156689877D01*
X147653276Y-156505748D01*
X147663002Y-156488902D01*
X147713568Y-156440686D01*
X147770390Y-156426900D01*
X156165610Y-156426900D01*
X156232649Y-156446585D01*
X156272998Y-156488902D01*
X156282722Y-156505746D01*
X156424009Y-156689875D01*
X156424015Y-156689882D01*
X156588117Y-156853984D01*
X156588124Y-156853990D01*
X156772254Y-156995278D01*
X156772256Y-156995279D01*
X156973237Y-157111314D01*
X156973240Y-157111315D01*
X156973248Y-157111320D01*
X157187670Y-157200137D01*
X157411851Y-157260206D01*
X157641955Y-157290500D01*
X157641962Y-157290500D01*
X157874038Y-157290500D01*
X157874045Y-157290500D01*
X158104149Y-157260206D01*
X158328330Y-157200137D01*
X158542752Y-157111320D01*
X158743748Y-156995276D01*
X158927877Y-156853989D01*
X159091989Y-156689877D01*
X159233276Y-156505748D01*
X159349320Y-156304752D01*
X159438137Y-156090330D01*
X159498206Y-155866149D01*
X159528500Y-155636045D01*
X159528500Y-155403955D01*
X159498206Y-155173851D01*
X159438137Y-154949670D01*
X159349320Y-154735248D01*
X159344367Y-154726669D01*
X159233279Y-154534256D01*
X159233278Y-154534254D01*
X159091990Y-154350124D01*
X159091984Y-154350117D01*
X158927882Y-154186015D01*
X158927875Y-154186009D01*
X158743745Y-154044721D01*
X158743743Y-154044720D01*
X158542762Y-153928685D01*
X158542754Y-153928681D01*
X158542752Y-153928680D01*
X158328330Y-153839863D01*
X158328331Y-153839863D01*
X158328328Y-153839862D01*
X158186203Y-153801780D01*
X158104149Y-153779794D01*
X158075386Y-153776007D01*
X157874052Y-153749500D01*
X157874045Y-153749500D01*
X157641955Y-153749500D01*
X157641947Y-153749500D01*
X157411851Y-153779794D01*
X157187671Y-153839862D01*
X156973254Y-153928677D01*
X156973237Y-153928685D01*
X156772256Y-154044720D01*
X156772254Y-154044721D01*
X156588124Y-154186009D01*
X156588117Y-154186015D01*
X156424015Y-154350117D01*
X156424009Y-154350124D01*
X156282722Y-154534253D01*
X156272998Y-154551098D01*
X156222432Y-154599314D01*
X156165610Y-154613100D01*
X147770390Y-154613100D01*
X147703351Y-154593415D01*
X147663002Y-154551098D01*
X147653277Y-154534253D01*
X147511990Y-154350124D01*
X147511984Y-154350117D01*
X147347882Y-154186015D01*
X147347875Y-154186009D01*
X147163745Y-154044721D01*
X147163743Y-154044720D01*
X146962762Y-153928685D01*
X146962754Y-153928681D01*
X146962752Y-153928680D01*
X146748330Y-153839863D01*
X146748331Y-153839863D01*
X146748328Y-153839862D01*
X146606203Y-153801780D01*
X146524149Y-153779794D01*
X146495386Y-153776007D01*
X146294052Y-153749500D01*
X146294045Y-153749500D01*
X146061955Y-153749500D01*
X146061947Y-153749500D01*
X145831851Y-153779794D01*
X145607671Y-153839862D01*
X145393254Y-153928677D01*
X145393237Y-153928685D01*
X145192256Y-154044720D01*
X145192254Y-154044721D01*
X145008124Y-154186009D01*
X145008117Y-154186015D01*
X144844015Y-154350117D01*
X144844009Y-154350124D01*
X144702721Y-154534254D01*
X144702720Y-154534256D01*
X144586685Y-154735237D01*
X144586677Y-154735254D01*
X144497862Y-154949671D01*
X144437794Y-155173851D01*
X144407500Y-155403947D01*
X137049499Y-155403947D01*
X137019206Y-155173851D01*
X136959137Y-154949670D01*
X136870320Y-154735248D01*
X136865367Y-154726669D01*
X136754279Y-154534256D01*
X136754278Y-154534254D01*
X136612990Y-154350124D01*
X136612984Y-154350117D01*
X136448882Y-154186015D01*
X136448875Y-154186009D01*
X136264745Y-154044721D01*
X136264743Y-154044720D01*
X136063762Y-153928685D01*
X136063754Y-153928681D01*
X136063752Y-153928680D01*
X135849330Y-153839863D01*
X135849331Y-153839863D01*
X135849328Y-153839862D01*
X135707203Y-153801780D01*
X135625149Y-153779794D01*
X135596386Y-153776007D01*
X135395052Y-153749500D01*
X135395045Y-153749500D01*
X135162955Y-153749500D01*
X135162947Y-153749500D01*
X134932851Y-153779794D01*
X134708671Y-153839862D01*
X134494254Y-153928677D01*
X134494237Y-153928685D01*
X134293256Y-154044720D01*
X134293254Y-154044721D01*
X134109124Y-154186009D01*
X134109117Y-154186015D01*
X133945015Y-154350117D01*
X133945009Y-154350124D01*
X133803722Y-154534253D01*
X133793998Y-154551098D01*
X133743432Y-154599314D01*
X133686610Y-154613100D01*
X125291390Y-154613100D01*
X125224351Y-154593415D01*
X125184002Y-154551098D01*
X125174277Y-154534253D01*
X125032990Y-154350124D01*
X125032984Y-154350117D01*
X124868882Y-154186015D01*
X124868875Y-154186009D01*
X124684745Y-154044721D01*
X124684743Y-154044720D01*
X124483762Y-153928685D01*
X124483754Y-153928681D01*
X124483752Y-153928680D01*
X124269330Y-153839863D01*
X124269331Y-153839863D01*
X124269328Y-153839862D01*
X124127203Y-153801780D01*
X124045149Y-153779794D01*
X124016386Y-153776007D01*
X123815052Y-153749500D01*
X123815045Y-153749500D01*
X123582955Y-153749500D01*
X123582947Y-153749500D01*
X123352851Y-153779794D01*
X123128671Y-153839862D01*
X122914254Y-153928677D01*
X122914237Y-153928685D01*
X122713256Y-154044720D01*
X122713254Y-154044721D01*
X122529124Y-154186009D01*
X122529117Y-154186015D01*
X122365015Y-154350117D01*
X122365009Y-154350124D01*
X122223721Y-154534254D01*
X122223720Y-154534256D01*
X122107685Y-154735237D01*
X122107677Y-154735254D01*
X122018862Y-154949671D01*
X121958794Y-155173851D01*
X121928500Y-155403947D01*
X120365497Y-155403947D01*
X119688219Y-154726669D01*
X119654734Y-154665346D01*
X119651900Y-154638988D01*
X119651900Y-138975675D01*
X119617049Y-138800472D01*
X119617048Y-138800471D01*
X119617048Y-138800467D01*
X119548684Y-138635422D01*
X119519060Y-138591086D01*
X119519060Y-138591085D01*
X119449434Y-138486882D01*
X118719886Y-137757334D01*
X118636263Y-137673711D01*
X121847500Y-137673711D01*
X121847500Y-137916288D01*
X121879161Y-138156785D01*
X121941947Y-138391104D01*
X122006350Y-138546585D01*
X122034776Y-138615212D01*
X122156064Y-138825289D01*
X122156066Y-138825292D01*
X122156067Y-138825293D01*
X122303733Y-139017736D01*
X122303739Y-139017743D01*
X122475256Y-139189260D01*
X122475262Y-139189265D01*
X122667711Y-139336936D01*
X122877788Y-139458224D01*
X123101900Y-139551054D01*
X123336211Y-139613838D01*
X123516586Y-139637584D01*
X123576711Y-139645500D01*
X123576712Y-139645500D01*
X123819289Y-139645500D01*
X123867388Y-139639167D01*
X124059789Y-139613838D01*
X124294100Y-139551054D01*
X124518212Y-139458224D01*
X124728289Y-139336936D01*
X124920738Y-139189265D01*
X125092265Y-139017738D01*
X125137556Y-138958713D01*
X145084500Y-138958713D01*
X145084500Y-139171287D01*
X145087348Y-139189266D01*
X145104180Y-139295544D01*
X145117754Y-139381243D01*
X145172929Y-139551054D01*
X145183444Y-139583414D01*
X145279951Y-139772820D01*
X145404890Y-139944786D01*
X145555213Y-140095109D01*
X145727182Y-140220050D01*
X145735946Y-140224516D01*
X145786742Y-140272491D01*
X145803536Y-140340312D01*
X145780998Y-140406447D01*
X145735946Y-140445484D01*
X145727182Y-140449949D01*
X145555213Y-140574890D01*
X145404890Y-140725213D01*
X145279951Y-140897179D01*
X145183444Y-141086585D01*
X145117753Y-141288760D01*
X145084500Y-141498713D01*
X145084500Y-141711286D01*
X145117753Y-141921239D01*
X145183444Y-142123414D01*
X145279951Y-142312820D01*
X145404890Y-142484786D01*
X145555213Y-142635109D01*
X145727179Y-142760048D01*
X145727181Y-142760049D01*
X145727184Y-142760051D01*
X145916588Y-142856557D01*
X146118757Y-142922246D01*
X146328713Y-142955500D01*
X146328714Y-142955500D01*
X146541286Y-142955500D01*
X146541287Y-142955500D01*
X146751243Y-142922246D01*
X146953412Y-142856557D01*
X147142816Y-142760051D01*
X147164789Y-142744086D01*
X147314786Y-142635109D01*
X147314788Y-142635106D01*
X147314792Y-142635104D01*
X147465104Y-142484792D01*
X147465106Y-142484788D01*
X147465109Y-142484786D01*
X147590048Y-142312820D01*
X147590047Y-142312820D01*
X147590051Y-142312816D01*
X147686557Y-142123412D01*
X147752246Y-141921243D01*
X147785500Y-141711287D01*
X147785500Y-141498713D01*
X147752246Y-141288757D01*
X147686557Y-141086588D01*
X147590051Y-140897184D01*
X147590049Y-140897181D01*
X147590048Y-140897179D01*
X147465109Y-140725213D01*
X147314786Y-140574890D01*
X147142820Y-140449951D01*
X147142115Y-140449591D01*
X147134054Y-140445485D01*
X147083259Y-140397512D01*
X147066463Y-140329692D01*
X147088999Y-140263556D01*
X147134054Y-140224515D01*
X147142816Y-140220051D01*
X147164789Y-140204086D01*
X147314786Y-140095109D01*
X147314788Y-140095106D01*
X147314792Y-140095104D01*
X147465104Y-139944792D01*
X147465106Y-139944788D01*
X147465109Y-139944786D01*
X147590048Y-139772820D01*
X147590047Y-139772820D01*
X147590051Y-139772816D01*
X147686557Y-139583412D01*
X147752246Y-139381243D01*
X147785500Y-139171287D01*
X147785500Y-138958713D01*
X147752246Y-138748757D01*
X147686557Y-138546588D01*
X147590051Y-138357184D01*
X147590049Y-138357181D01*
X147590048Y-138357179D01*
X147465109Y-138185213D01*
X147314786Y-138034890D01*
X147142819Y-137909951D01*
X147142818Y-137909950D01*
X147142816Y-137909949D01*
X147077236Y-137876534D01*
X147036176Y-137855613D01*
X146985380Y-137807638D01*
X146980825Y-137789245D01*
X146435001Y-137243420D01*
X146435000Y-137243420D01*
X145892180Y-137786237D01*
X145891045Y-137795023D01*
X145846050Y-137848475D01*
X145833822Y-137855613D01*
X145727182Y-137909949D01*
X145555213Y-138034890D01*
X145404890Y-138185213D01*
X145279951Y-138357179D01*
X145183444Y-138546585D01*
X145117753Y-138748760D01*
X145084500Y-138958713D01*
X125137556Y-138958713D01*
X125239936Y-138825289D01*
X125361224Y-138615212D01*
X125454054Y-138391100D01*
X125516838Y-138156789D01*
X125548500Y-137916288D01*
X125548500Y-137673712D01*
X125516838Y-137433211D01*
X125454054Y-137198900D01*
X125361224Y-136974788D01*
X125239936Y-136764711D01*
X125096684Y-136578021D01*
X125092266Y-136572263D01*
X125092260Y-136572256D01*
X124938757Y-136418753D01*
X145085000Y-136418753D01*
X145085000Y-136631246D01*
X145118242Y-136841127D01*
X145118242Y-136841130D01*
X145183906Y-137043222D01*
X145188783Y-137052794D01*
X145188784Y-137052795D01*
X145716580Y-136525000D01*
X145716580Y-136524999D01*
X145650755Y-136459174D01*
X145935000Y-136459174D01*
X145935000Y-136590826D01*
X145969075Y-136717993D01*
X146034901Y-136832007D01*
X146127993Y-136925099D01*
X146242007Y-136990925D01*
X146369174Y-137025000D01*
X146500826Y-137025000D01*
X146627993Y-136990925D01*
X146742007Y-136925099D01*
X146835099Y-136832007D01*
X146900925Y-136717993D01*
X146935000Y-136590826D01*
X146935000Y-136524999D01*
X147153420Y-136524999D01*
X147153420Y-136525000D01*
X147681214Y-137052794D01*
X147681215Y-137052794D01*
X147686090Y-137043227D01*
X147686093Y-137043221D01*
X147751757Y-136841130D01*
X147751757Y-136841127D01*
X147785000Y-136631246D01*
X147785000Y-136418753D01*
X147751757Y-136208872D01*
X147751757Y-136208869D01*
X147686095Y-136006784D01*
X147686094Y-136006781D01*
X147681214Y-135997203D01*
X147153420Y-136524999D01*
X146935000Y-136524999D01*
X146935000Y-136459174D01*
X146900925Y-136332007D01*
X146835099Y-136217993D01*
X146742007Y-136124901D01*
X146627993Y-136059075D01*
X146500826Y-136025000D01*
X146369174Y-136025000D01*
X146242007Y-136059075D01*
X146127993Y-136124901D01*
X146034901Y-136217993D01*
X145969075Y-136332007D01*
X145935000Y-136459174D01*
X145650755Y-136459174D01*
X145188784Y-135997203D01*
X145183904Y-136006784D01*
X145183901Y-136006791D01*
X145118242Y-136208869D01*
X145118242Y-136208872D01*
X145085000Y-136418753D01*
X124938757Y-136418753D01*
X124920743Y-136400739D01*
X124920736Y-136400733D01*
X124728293Y-136253067D01*
X124728292Y-136253066D01*
X124728289Y-136253064D01*
X124518212Y-136131776D01*
X124518205Y-136131773D01*
X124294104Y-136038947D01*
X124059785Y-135976161D01*
X123819289Y-135944500D01*
X123819288Y-135944500D01*
X123576712Y-135944500D01*
X123576711Y-135944500D01*
X123336214Y-135976161D01*
X123101895Y-136038947D01*
X122877794Y-136131773D01*
X122877785Y-136131777D01*
X122667706Y-136253067D01*
X122475263Y-136400733D01*
X122475256Y-136400739D01*
X122303739Y-136572256D01*
X122303733Y-136572263D01*
X122156067Y-136764706D01*
X122034777Y-136974785D01*
X122034773Y-136974794D01*
X121941947Y-137198895D01*
X121879161Y-137433214D01*
X121847500Y-137673711D01*
X118636263Y-137673711D01*
X114134038Y-133171487D01*
X114049686Y-133087135D01*
X145084500Y-133087135D01*
X145084500Y-134882870D01*
X145084501Y-134882876D01*
X145090908Y-134942483D01*
X145141202Y-135077328D01*
X145141206Y-135077335D01*
X145227452Y-135192544D01*
X145227455Y-135192547D01*
X145342664Y-135278793D01*
X145342671Y-135278797D01*
X145387618Y-135295561D01*
X145477517Y-135329091D01*
X145537127Y-135335500D01*
X145912559Y-135335499D01*
X145979596Y-135355183D01*
X146000238Y-135371818D01*
X146435000Y-135806580D01*
X146435001Y-135806580D01*
X146869761Y-135371818D01*
X146931084Y-135338333D01*
X146957440Y-135335499D01*
X147332872Y-135335499D01*
X147392483Y-135329091D01*
X147527331Y-135278796D01*
X147642546Y-135192546D01*
X147728796Y-135077331D01*
X147779091Y-134942483D01*
X147785500Y-134882873D01*
X147785500Y-134512643D01*
X149511900Y-134512643D01*
X149511900Y-134727356D01*
X149545489Y-134939428D01*
X149611837Y-135143630D01*
X149611838Y-135143633D01*
X149706334Y-135329089D01*
X149709317Y-135334944D01*
X149835523Y-135508651D01*
X149987349Y-135660477D01*
X150161056Y-135786683D01*
X150254888Y-135834492D01*
X150352366Y-135884161D01*
X150352369Y-135884162D01*
X150454470Y-135917336D01*
X150556573Y-135950511D01*
X150768643Y-135984100D01*
X150768644Y-135984100D01*
X150983356Y-135984100D01*
X150983357Y-135984100D01*
X151195427Y-135950511D01*
X151399633Y-135884161D01*
X151590944Y-135786683D01*
X151764651Y-135660477D01*
X151916477Y-135508651D01*
X152042683Y-135334944D01*
X152140161Y-135143633D01*
X152206511Y-134939427D01*
X152240100Y-134727357D01*
X152240100Y-134512643D01*
X152206511Y-134300573D01*
X152140161Y-134096367D01*
X152140161Y-134096366D01*
X152042682Y-133905055D01*
X151916477Y-133731349D01*
X151764651Y-133579523D01*
X151590944Y-133453317D01*
X151399633Y-133355838D01*
X151399630Y-133355837D01*
X151195428Y-133289489D01*
X151089392Y-133272694D01*
X150983357Y-133255900D01*
X150768643Y-133255900D01*
X150697953Y-133267096D01*
X150556571Y-133289489D01*
X150352369Y-133355837D01*
X150352366Y-133355838D01*
X150161055Y-133453317D01*
X150061949Y-133525322D01*
X149987349Y-133579523D01*
X149987347Y-133579525D01*
X149987346Y-133579525D01*
X149835525Y-133731346D01*
X149835525Y-133731347D01*
X149835523Y-133731349D01*
X149781322Y-133805949D01*
X149709317Y-133905055D01*
X149611838Y-134096366D01*
X149611837Y-134096369D01*
X149545489Y-134300571D01*
X149511900Y-134512643D01*
X147785500Y-134512643D01*
X147785499Y-133928115D01*
X147785499Y-133087129D01*
X147785498Y-133087123D01*
X147785497Y-133087116D01*
X147779091Y-133027517D01*
X147728796Y-132892669D01*
X147728795Y-132892668D01*
X147728793Y-132892664D01*
X147642547Y-132777455D01*
X147642544Y-132777452D01*
X147527335Y-132691206D01*
X147527328Y-132691202D01*
X147392482Y-132640908D01*
X147392483Y-132640908D01*
X147332883Y-132634501D01*
X147332881Y-132634500D01*
X147332873Y-132634500D01*
X147332864Y-132634500D01*
X145537129Y-132634500D01*
X145537123Y-132634501D01*
X145477516Y-132640908D01*
X145342671Y-132691202D01*
X145342664Y-132691206D01*
X145227455Y-132777452D01*
X145227452Y-132777455D01*
X145141206Y-132892664D01*
X145141202Y-132892671D01*
X145090908Y-133027517D01*
X145084501Y-133087116D01*
X145084501Y-133087123D01*
X145084500Y-133087135D01*
X114049686Y-133087135D01*
X113608118Y-132645567D01*
X113608114Y-132645564D01*
X113459584Y-132546319D01*
X113459575Y-132546314D01*
X113294533Y-132477952D01*
X113294527Y-132477950D01*
X113119324Y-132443100D01*
X113119322Y-132443100D01*
X98852012Y-132443100D01*
X98784973Y-132423415D01*
X98764331Y-132406781D01*
X96425193Y-130067643D01*
X99600900Y-130067643D01*
X99600900Y-130282356D01*
X99634489Y-130494428D01*
X99700837Y-130698630D01*
X99700838Y-130698633D01*
X99798317Y-130889944D01*
X99924523Y-131063651D01*
X100076349Y-131215477D01*
X100250056Y-131341683D01*
X100343888Y-131389492D01*
X100441366Y-131439161D01*
X100441369Y-131439162D01*
X100543470Y-131472336D01*
X100645573Y-131505511D01*
X100857643Y-131539100D01*
X100857644Y-131539100D01*
X101072356Y-131539100D01*
X101072357Y-131539100D01*
X101284427Y-131505511D01*
X101488633Y-131439161D01*
X101679944Y-131341683D01*
X101853651Y-131215477D01*
X102005477Y-131063651D01*
X102131683Y-130889944D01*
X102229161Y-130698633D01*
X102295511Y-130494427D01*
X102329100Y-130282357D01*
X102329100Y-130067643D01*
X107220900Y-130067643D01*
X107220900Y-130282356D01*
X107254489Y-130494428D01*
X107320837Y-130698630D01*
X107320838Y-130698633D01*
X107418317Y-130889944D01*
X107544523Y-131063651D01*
X107696349Y-131215477D01*
X107870056Y-131341683D01*
X107963888Y-131389492D01*
X108061366Y-131439161D01*
X108061369Y-131439162D01*
X108163470Y-131472336D01*
X108265573Y-131505511D01*
X108477643Y-131539100D01*
X108477644Y-131539100D01*
X108692356Y-131539100D01*
X108692357Y-131539100D01*
X108904427Y-131505511D01*
X109108633Y-131439161D01*
X109299944Y-131341683D01*
X109473651Y-131215477D01*
X109625477Y-131063651D01*
X109751683Y-130889944D01*
X109849161Y-130698633D01*
X109915511Y-130494427D01*
X109949100Y-130282357D01*
X109949100Y-130067643D01*
X111030900Y-130067643D01*
X111030900Y-130282356D01*
X111064489Y-130494428D01*
X111130837Y-130698630D01*
X111130838Y-130698633D01*
X111228317Y-130889944D01*
X111354523Y-131063651D01*
X111506349Y-131215477D01*
X111680056Y-131341683D01*
X111773888Y-131389492D01*
X111871366Y-131439161D01*
X111871369Y-131439162D01*
X111973470Y-131472336D01*
X112075573Y-131505511D01*
X112287643Y-131539100D01*
X112287644Y-131539100D01*
X112502356Y-131539100D01*
X112502357Y-131539100D01*
X112714427Y-131505511D01*
X112918633Y-131439161D01*
X113109944Y-131341683D01*
X113283651Y-131215477D01*
X113435477Y-131063651D01*
X113561683Y-130889944D01*
X113659161Y-130698633D01*
X113725511Y-130494427D01*
X113759100Y-130282357D01*
X113759100Y-130067643D01*
X118650900Y-130067643D01*
X118650900Y-130282356D01*
X118684489Y-130494428D01*
X118750837Y-130698630D01*
X118750838Y-130698633D01*
X118848317Y-130889944D01*
X118974523Y-131063651D01*
X119126349Y-131215477D01*
X119300056Y-131341683D01*
X119393888Y-131389492D01*
X119491366Y-131439161D01*
X119491369Y-131439162D01*
X119593470Y-131472336D01*
X119695573Y-131505511D01*
X119907643Y-131539100D01*
X119907644Y-131539100D01*
X120122356Y-131539100D01*
X120122357Y-131539100D01*
X120334427Y-131505511D01*
X120538633Y-131439161D01*
X120729944Y-131341683D01*
X120903651Y-131215477D01*
X121055477Y-131063651D01*
X121181683Y-130889944D01*
X121279161Y-130698633D01*
X121345511Y-130494427D01*
X121379100Y-130282357D01*
X121379100Y-130067643D01*
X121345511Y-129855573D01*
X121279161Y-129651367D01*
X121279161Y-129651366D01*
X121181682Y-129460055D01*
X121164701Y-129436683D01*
X121055477Y-129286349D01*
X120903651Y-129134523D01*
X120729944Y-129008317D01*
X120684072Y-128984944D01*
X120538633Y-128910838D01*
X120538630Y-128910837D01*
X120334428Y-128844489D01*
X120228392Y-128827694D01*
X120122357Y-128810900D01*
X119907643Y-128810900D01*
X119836953Y-128822096D01*
X119695571Y-128844489D01*
X119491369Y-128910837D01*
X119491366Y-128910838D01*
X119300055Y-129008317D01*
X119200949Y-129080322D01*
X119126349Y-129134523D01*
X119126347Y-129134525D01*
X119126346Y-129134525D01*
X118974525Y-129286346D01*
X118974525Y-129286347D01*
X118974523Y-129286349D01*
X118956995Y-129310474D01*
X118848317Y-129460055D01*
X118750838Y-129651366D01*
X118750837Y-129651369D01*
X118684489Y-129855571D01*
X118650900Y-130067643D01*
X113759100Y-130067643D01*
X113725511Y-129855573D01*
X113659161Y-129651367D01*
X113659161Y-129651366D01*
X113561682Y-129460055D01*
X113544701Y-129436683D01*
X113435477Y-129286349D01*
X113283651Y-129134523D01*
X113109944Y-129008317D01*
X113064072Y-128984944D01*
X112918633Y-128910838D01*
X112918630Y-128910837D01*
X112714428Y-128844489D01*
X112608392Y-128827694D01*
X112502357Y-128810900D01*
X112287643Y-128810900D01*
X112216953Y-128822096D01*
X112075571Y-128844489D01*
X111871369Y-128910837D01*
X111871366Y-128910838D01*
X111680055Y-129008317D01*
X111580949Y-129080322D01*
X111506349Y-129134523D01*
X111506347Y-129134525D01*
X111506346Y-129134525D01*
X111354525Y-129286346D01*
X111354525Y-129286347D01*
X111354523Y-129286349D01*
X111336995Y-129310474D01*
X111228317Y-129460055D01*
X111130838Y-129651366D01*
X111130837Y-129651369D01*
X111064489Y-129855571D01*
X111030900Y-130067643D01*
X109949100Y-130067643D01*
X109915511Y-129855573D01*
X109849161Y-129651367D01*
X109849161Y-129651366D01*
X109751682Y-129460055D01*
X109734701Y-129436683D01*
X109625477Y-129286349D01*
X109473651Y-129134523D01*
X109299944Y-129008317D01*
X109254072Y-128984944D01*
X109108633Y-128910838D01*
X109108630Y-128910837D01*
X108904428Y-128844489D01*
X108798392Y-128827694D01*
X108692357Y-128810900D01*
X108477643Y-128810900D01*
X108406953Y-128822096D01*
X108265571Y-128844489D01*
X108061369Y-128910837D01*
X108061366Y-128910838D01*
X107870055Y-129008317D01*
X107770949Y-129080322D01*
X107696349Y-129134523D01*
X107696347Y-129134525D01*
X107696346Y-129134525D01*
X107544525Y-129286346D01*
X107544525Y-129286347D01*
X107544523Y-129286349D01*
X107526995Y-129310474D01*
X107418317Y-129460055D01*
X107320838Y-129651366D01*
X107320837Y-129651369D01*
X107254489Y-129855571D01*
X107220900Y-130067643D01*
X102329100Y-130067643D01*
X102295511Y-129855573D01*
X102229161Y-129651367D01*
X102229161Y-129651366D01*
X102131682Y-129460055D01*
X102114701Y-129436683D01*
X102005477Y-129286349D01*
X101853651Y-129134523D01*
X101679944Y-129008317D01*
X101634072Y-128984944D01*
X101488633Y-128910838D01*
X101488630Y-128910837D01*
X101284428Y-128844489D01*
X101178392Y-128827694D01*
X101072357Y-128810900D01*
X100857643Y-128810900D01*
X100786953Y-128822096D01*
X100645571Y-128844489D01*
X100441369Y-128910837D01*
X100441366Y-128910838D01*
X100250055Y-129008317D01*
X100150949Y-129080322D01*
X100076349Y-129134523D01*
X100076347Y-129134525D01*
X100076346Y-129134525D01*
X99924525Y-129286346D01*
X99924525Y-129286347D01*
X99924523Y-129286349D01*
X99906995Y-129310474D01*
X99798317Y-129460055D01*
X99700838Y-129651366D01*
X99700837Y-129651369D01*
X99634489Y-129855571D01*
X99600900Y-130067643D01*
X96425193Y-130067643D01*
X96193219Y-129835669D01*
X96159734Y-129774346D01*
X96156900Y-129747988D01*
X96156900Y-128162643D01*
X96425900Y-128162643D01*
X96425900Y-128377356D01*
X96459489Y-128589428D01*
X96525837Y-128793630D01*
X96525838Y-128793633D01*
X96623317Y-128984944D01*
X96749523Y-129158651D01*
X96901349Y-129310477D01*
X97075056Y-129436683D01*
X97168888Y-129484492D01*
X97266366Y-129534161D01*
X97266369Y-129534162D01*
X97368470Y-129567336D01*
X97470573Y-129600511D01*
X97682643Y-129634100D01*
X97682644Y-129634100D01*
X97897356Y-129634100D01*
X97897357Y-129634100D01*
X98109427Y-129600511D01*
X98313633Y-129534161D01*
X98504944Y-129436683D01*
X98678651Y-129310477D01*
X98830477Y-129158651D01*
X98956683Y-128984944D01*
X99054161Y-128793633D01*
X99120511Y-128589427D01*
X99154100Y-128377357D01*
X99154100Y-128162643D01*
X99120511Y-127950573D01*
X99078743Y-127822024D01*
X99054798Y-127748326D01*
X144750092Y-127748326D01*
X144764553Y-127755695D01*
X144764557Y-127755696D01*
X144968688Y-127822024D01*
X145180677Y-127855600D01*
X145395323Y-127855600D01*
X145607311Y-127822024D01*
X145811442Y-127755697D01*
X145825905Y-127748327D01*
X145825905Y-127748326D01*
X145288001Y-127210420D01*
X145288000Y-127210420D01*
X144750092Y-127748326D01*
X99054798Y-127748326D01*
X99054162Y-127746369D01*
X99054161Y-127746366D01*
X98956682Y-127555055D01*
X98830477Y-127381349D01*
X98678651Y-127229523D01*
X98504944Y-127103317D01*
X98313633Y-127005838D01*
X98313630Y-127005837D01*
X98109428Y-126939489D01*
X98003392Y-126922694D01*
X97897357Y-126905900D01*
X97682643Y-126905900D01*
X97611953Y-126917096D01*
X97470571Y-126939489D01*
X97266369Y-127005837D01*
X97266366Y-127005838D01*
X97075055Y-127103317D01*
X96975949Y-127175322D01*
X96901349Y-127229523D01*
X96901347Y-127229525D01*
X96901346Y-127229525D01*
X96749525Y-127381346D01*
X96749525Y-127381347D01*
X96749523Y-127381349D01*
X96695322Y-127455949D01*
X96623317Y-127555055D01*
X96525838Y-127746366D01*
X96525837Y-127746369D01*
X96459489Y-127950571D01*
X96425900Y-128162643D01*
X96156900Y-128162643D01*
X96156900Y-126384676D01*
X143924400Y-126384676D01*
X143924400Y-126599323D01*
X143957976Y-126811312D01*
X143957976Y-126811315D01*
X144024300Y-127015437D01*
X144031672Y-127029906D01*
X144569579Y-126492000D01*
X144516075Y-126438496D01*
X144881600Y-126438496D01*
X144881600Y-126545504D01*
X144909295Y-126648865D01*
X144962799Y-126741536D01*
X145038464Y-126817201D01*
X145131135Y-126870705D01*
X145234496Y-126898400D01*
X145341504Y-126898400D01*
X145444865Y-126870705D01*
X145537536Y-126817201D01*
X145613201Y-126741536D01*
X145666705Y-126648865D01*
X145694400Y-126545504D01*
X145694400Y-126491999D01*
X146006420Y-126491999D01*
X146006420Y-126492000D01*
X146544326Y-127029905D01*
X146544327Y-127029905D01*
X146551698Y-127015440D01*
X146591598Y-126892643D01*
X149511900Y-126892643D01*
X149511900Y-127107356D01*
X149545489Y-127319428D01*
X149611837Y-127523630D01*
X149611838Y-127523633D01*
X149709317Y-127714944D01*
X149835523Y-127888651D01*
X149987349Y-128040477D01*
X150161056Y-128166683D01*
X150254888Y-128214492D01*
X150352366Y-128264161D01*
X150352369Y-128264162D01*
X150454470Y-128297336D01*
X150556573Y-128330511D01*
X150768643Y-128364100D01*
X150768644Y-128364100D01*
X150983356Y-128364100D01*
X150983357Y-128364100D01*
X151195427Y-128330511D01*
X151399633Y-128264161D01*
X151590944Y-128166683D01*
X151764651Y-128040477D01*
X151916477Y-127888651D01*
X152042683Y-127714944D01*
X152140161Y-127523633D01*
X152206511Y-127319427D01*
X152240100Y-127107357D01*
X152240100Y-126892643D01*
X152206511Y-126680573D01*
X152162625Y-126545504D01*
X152140162Y-126476369D01*
X152140161Y-126476366D01*
X152090492Y-126378888D01*
X152042683Y-126285056D01*
X151916477Y-126111349D01*
X151764651Y-125959523D01*
X151590944Y-125833317D01*
X151399633Y-125735838D01*
X151399630Y-125735837D01*
X151195428Y-125669489D01*
X151089392Y-125652694D01*
X150983357Y-125635900D01*
X150768643Y-125635900D01*
X150697953Y-125647096D01*
X150556571Y-125669489D01*
X150352369Y-125735837D01*
X150352366Y-125735838D01*
X150161055Y-125833317D01*
X150061949Y-125905322D01*
X149987349Y-125959523D01*
X149987347Y-125959525D01*
X149987346Y-125959525D01*
X149835525Y-126111346D01*
X149835525Y-126111347D01*
X149835523Y-126111349D01*
X149781322Y-126185949D01*
X149709317Y-126285055D01*
X149611838Y-126476366D01*
X149611837Y-126476369D01*
X149545489Y-126680571D01*
X149511900Y-126892643D01*
X146591598Y-126892643D01*
X146605631Y-126849453D01*
X146605631Y-126849451D01*
X146618024Y-126811309D01*
X146651600Y-126599323D01*
X146651600Y-126384676D01*
X146618024Y-126172688D01*
X146551696Y-125968557D01*
X146551695Y-125968553D01*
X146544326Y-125954092D01*
X146006420Y-126491999D01*
X145694400Y-126491999D01*
X145694400Y-126438496D01*
X145666705Y-126335135D01*
X145613201Y-126242464D01*
X145537536Y-126166799D01*
X145444865Y-126113295D01*
X145341504Y-126085600D01*
X145234496Y-126085600D01*
X145131135Y-126113295D01*
X145038464Y-126166799D01*
X144962799Y-126242464D01*
X144909295Y-126335135D01*
X144881600Y-126438496D01*
X144516075Y-126438496D01*
X144031672Y-125954093D01*
X144024305Y-125968553D01*
X144024299Y-125968566D01*
X143957976Y-126172684D01*
X143957976Y-126172687D01*
X143924400Y-126384676D01*
X96156900Y-126384676D01*
X96156900Y-125235672D01*
X144750093Y-125235672D01*
X145288000Y-125773579D01*
X145288001Y-125773579D01*
X145825906Y-125235672D01*
X145811437Y-125228300D01*
X145607313Y-125161976D01*
X145395323Y-125128400D01*
X145180677Y-125128400D01*
X144968687Y-125161976D01*
X144968684Y-125161976D01*
X144764566Y-125228299D01*
X144764553Y-125228305D01*
X144750093Y-125235672D01*
X96156900Y-125235672D01*
X96156900Y-124887012D01*
X96176585Y-124819973D01*
X96193219Y-124799331D01*
X97403901Y-123588649D01*
X101607500Y-123588649D01*
X101607500Y-123827351D01*
X101616138Y-123881886D01*
X101644841Y-124063111D01*
X101644841Y-124063112D01*
X101644842Y-124063115D01*
X101718605Y-124290134D01*
X101826973Y-124502819D01*
X101967279Y-124695933D01*
X102136067Y-124864721D01*
X102329181Y-125005027D01*
X102541866Y-125113395D01*
X102768885Y-125187158D01*
X103004649Y-125224500D01*
X103004650Y-125224500D01*
X103243350Y-125224500D01*
X103243351Y-125224500D01*
X103479115Y-125187158D01*
X103706134Y-125113395D01*
X103918819Y-125005027D01*
X104111933Y-124864721D01*
X104280721Y-124695933D01*
X104293682Y-124678092D01*
X104349010Y-124635428D01*
X104418623Y-124629447D01*
X104480419Y-124662052D01*
X104494314Y-124678088D01*
X104507279Y-124695933D01*
X104676067Y-124864721D01*
X104869181Y-125005027D01*
X105081866Y-125113395D01*
X105308885Y-125187158D01*
X105544649Y-125224500D01*
X105544650Y-125224500D01*
X105783350Y-125224500D01*
X105783351Y-125224500D01*
X106019115Y-125187158D01*
X106246134Y-125113395D01*
X106458819Y-125005027D01*
X106651933Y-124864721D01*
X106820721Y-124695933D01*
X106833682Y-124678092D01*
X106889010Y-124635428D01*
X106958623Y-124629447D01*
X107020419Y-124662052D01*
X107034314Y-124678088D01*
X107047279Y-124695933D01*
X107216067Y-124864721D01*
X107409181Y-125005027D01*
X107621866Y-125113395D01*
X107848885Y-125187158D01*
X108084649Y-125224500D01*
X108084650Y-125224500D01*
X108323350Y-125224500D01*
X108323351Y-125224500D01*
X108559115Y-125187158D01*
X108786134Y-125113395D01*
X108998819Y-125005027D01*
X109191933Y-124864721D01*
X109360721Y-124695933D01*
X109373682Y-124678092D01*
X109429010Y-124635428D01*
X109498623Y-124629447D01*
X109560419Y-124662052D01*
X109574314Y-124678088D01*
X109587279Y-124695933D01*
X109756067Y-124864721D01*
X109949181Y-125005027D01*
X110161866Y-125113395D01*
X110388885Y-125187158D01*
X110624649Y-125224500D01*
X110624650Y-125224500D01*
X110863350Y-125224500D01*
X110863351Y-125224500D01*
X111099115Y-125187158D01*
X111326134Y-125113395D01*
X111538819Y-125005027D01*
X111731933Y-124864721D01*
X111900721Y-124695933D01*
X111913682Y-124678092D01*
X111969010Y-124635428D01*
X112038623Y-124629447D01*
X112100419Y-124662052D01*
X112114314Y-124678088D01*
X112127279Y-124695933D01*
X112296067Y-124864721D01*
X112489181Y-125005027D01*
X112701866Y-125113395D01*
X112928885Y-125187158D01*
X113164649Y-125224500D01*
X113164650Y-125224500D01*
X113403350Y-125224500D01*
X113403351Y-125224500D01*
X113639115Y-125187158D01*
X113866134Y-125113395D01*
X114078819Y-125005027D01*
X114271933Y-124864721D01*
X114440721Y-124695933D01*
X114453682Y-124678092D01*
X114509010Y-124635428D01*
X114578623Y-124629447D01*
X114640419Y-124662052D01*
X114654314Y-124678088D01*
X114667279Y-124695933D01*
X114836067Y-124864721D01*
X115029181Y-125005027D01*
X115241866Y-125113395D01*
X115468885Y-125187158D01*
X115704649Y-125224500D01*
X115704650Y-125224500D01*
X115943350Y-125224500D01*
X115943351Y-125224500D01*
X116179115Y-125187158D01*
X116406134Y-125113395D01*
X116618819Y-125005027D01*
X116811933Y-124864721D01*
X116980721Y-124695933D01*
X116993682Y-124678092D01*
X117049010Y-124635428D01*
X117118623Y-124629447D01*
X117180419Y-124662052D01*
X117194314Y-124678088D01*
X117207279Y-124695933D01*
X117376067Y-124864721D01*
X117569181Y-125005027D01*
X117781866Y-125113395D01*
X118008885Y-125187158D01*
X118244649Y-125224500D01*
X118244650Y-125224500D01*
X118483350Y-125224500D01*
X118483351Y-125224500D01*
X118719115Y-125187158D01*
X118946134Y-125113395D01*
X119158819Y-125005027D01*
X119351933Y-124864721D01*
X119520721Y-124695933D01*
X119533682Y-124678092D01*
X119589010Y-124635428D01*
X119658623Y-124629447D01*
X119720419Y-124662052D01*
X119734314Y-124678088D01*
X119747279Y-124695933D01*
X119916067Y-124864721D01*
X120109181Y-125005027D01*
X120321866Y-125113395D01*
X120548885Y-125187158D01*
X120784649Y-125224500D01*
X120784650Y-125224500D01*
X121023350Y-125224500D01*
X121023351Y-125224500D01*
X121259115Y-125187158D01*
X121486134Y-125113395D01*
X121698819Y-125005027D01*
X121891933Y-124864721D01*
X122060721Y-124695933D01*
X122073682Y-124678092D01*
X122129010Y-124635428D01*
X122198623Y-124629447D01*
X122260419Y-124662052D01*
X122274314Y-124678088D01*
X122287279Y-124695933D01*
X122456067Y-124864721D01*
X122649181Y-125005027D01*
X122861866Y-125113395D01*
X123088885Y-125187158D01*
X123324649Y-125224500D01*
X123324650Y-125224500D01*
X123563350Y-125224500D01*
X123563351Y-125224500D01*
X123799115Y-125187158D01*
X124026134Y-125113395D01*
X124238819Y-125005027D01*
X124431933Y-124864721D01*
X124600721Y-124695933D01*
X124613682Y-124678092D01*
X124669010Y-124635428D01*
X124738623Y-124629447D01*
X124800419Y-124662052D01*
X124814314Y-124678088D01*
X124827279Y-124695933D01*
X124996067Y-124864721D01*
X125189181Y-125005027D01*
X125401866Y-125113395D01*
X125628885Y-125187158D01*
X125864649Y-125224500D01*
X125864650Y-125224500D01*
X126103350Y-125224500D01*
X126103351Y-125224500D01*
X126339115Y-125187158D01*
X126566134Y-125113395D01*
X126778819Y-125005027D01*
X126971933Y-124864721D01*
X127140721Y-124695933D01*
X127153682Y-124678092D01*
X127209010Y-124635428D01*
X127278623Y-124629447D01*
X127340419Y-124662052D01*
X127354314Y-124678088D01*
X127367279Y-124695933D01*
X127536067Y-124864721D01*
X127729181Y-125005027D01*
X127941866Y-125113395D01*
X128168885Y-125187158D01*
X128404649Y-125224500D01*
X128404650Y-125224500D01*
X128643350Y-125224500D01*
X128643351Y-125224500D01*
X128879115Y-125187158D01*
X129106134Y-125113395D01*
X129271504Y-125029135D01*
X130317598Y-125029135D01*
X130482066Y-125112936D01*
X130709000Y-125186670D01*
X130944689Y-125224000D01*
X131183311Y-125224000D01*
X131418999Y-125186670D01*
X131645941Y-125112932D01*
X131810400Y-125029135D01*
X131064000Y-124282736D01*
X130317598Y-125029135D01*
X129271504Y-125029135D01*
X129318819Y-125005027D01*
X129511933Y-124864721D01*
X129680721Y-124695933D01*
X129821027Y-124502819D01*
X129929395Y-124290134D01*
X129930911Y-124285467D01*
X129961162Y-124236100D01*
X130489264Y-123708000D01*
X130423438Y-123642174D01*
X130564000Y-123642174D01*
X130564000Y-123773826D01*
X130598075Y-123900993D01*
X130663901Y-124015007D01*
X130756993Y-124108099D01*
X130871007Y-124173925D01*
X130998174Y-124208000D01*
X131129826Y-124208000D01*
X131256993Y-124173925D01*
X131371007Y-124108099D01*
X131464099Y-124015007D01*
X131529925Y-123900993D01*
X131564000Y-123773826D01*
X131564000Y-123707999D01*
X131638736Y-123707999D01*
X131638736Y-123708000D01*
X132166837Y-124236101D01*
X132197085Y-124285457D01*
X132198604Y-124290132D01*
X132198606Y-124290137D01*
X132239644Y-124370678D01*
X132306973Y-124502819D01*
X132447279Y-124695933D01*
X132616067Y-124864721D01*
X132809181Y-125005027D01*
X133021866Y-125113395D01*
X133248885Y-125187158D01*
X133484649Y-125224500D01*
X133484650Y-125224500D01*
X133723350Y-125224500D01*
X133723351Y-125224500D01*
X133959115Y-125187158D01*
X134186134Y-125113395D01*
X134398819Y-125005027D01*
X134591933Y-124864721D01*
X134760721Y-124695933D01*
X134773682Y-124678092D01*
X134829010Y-124635428D01*
X134898623Y-124629447D01*
X134960419Y-124662052D01*
X134974314Y-124678088D01*
X134987279Y-124695933D01*
X135156067Y-124864721D01*
X135349181Y-125005027D01*
X135561866Y-125113395D01*
X135788885Y-125187158D01*
X136024649Y-125224500D01*
X136024650Y-125224500D01*
X136263350Y-125224500D01*
X136263351Y-125224500D01*
X136499115Y-125187158D01*
X136726134Y-125113395D01*
X136938819Y-125005027D01*
X137131933Y-124864721D01*
X137300721Y-124695933D01*
X137313682Y-124678092D01*
X137369010Y-124635428D01*
X137438623Y-124629447D01*
X137500419Y-124662052D01*
X137514314Y-124678088D01*
X137527279Y-124695933D01*
X137696067Y-124864721D01*
X137889181Y-125005027D01*
X138101866Y-125113395D01*
X138328885Y-125187158D01*
X138564649Y-125224500D01*
X138564650Y-125224500D01*
X138803350Y-125224500D01*
X138803351Y-125224500D01*
X139039115Y-125187158D01*
X139266134Y-125113395D01*
X139478819Y-125005027D01*
X139671933Y-124864721D01*
X139840721Y-124695933D01*
X139981027Y-124502819D01*
X140089395Y-124290134D01*
X140163158Y-124063115D01*
X140200500Y-123827351D01*
X140200500Y-123588649D01*
X140163158Y-123352885D01*
X140089395Y-123125866D01*
X139981027Y-122913181D01*
X139840721Y-122720067D01*
X139671933Y-122551279D01*
X139478819Y-122410973D01*
X139266134Y-122302605D01*
X139039115Y-122228842D01*
X139039113Y-122228841D01*
X139039111Y-122228841D01*
X138874498Y-122202768D01*
X138803351Y-122191500D01*
X138564649Y-122191500D01*
X138509995Y-122200156D01*
X138328888Y-122228841D01*
X138328887Y-122228841D01*
X138101863Y-122302606D01*
X137889180Y-122410973D01*
X137779002Y-122491022D01*
X137696067Y-122551279D01*
X137696065Y-122551281D01*
X137696064Y-122551281D01*
X137527281Y-122720064D01*
X137527276Y-122720070D01*
X137514316Y-122737908D01*
X137458985Y-122780572D01*
X137389371Y-122786550D01*
X137327577Y-122753942D01*
X137313684Y-122737908D01*
X137300723Y-122720070D01*
X137300718Y-122720064D01*
X137131935Y-122551281D01*
X137131933Y-122551279D01*
X136938819Y-122410973D01*
X136726134Y-122302605D01*
X136499115Y-122228842D01*
X136499113Y-122228841D01*
X136499111Y-122228841D01*
X136334498Y-122202768D01*
X136263351Y-122191500D01*
X136024649Y-122191500D01*
X135969995Y-122200156D01*
X135788888Y-122228841D01*
X135788887Y-122228841D01*
X135561863Y-122302606D01*
X135349180Y-122410973D01*
X135239002Y-122491022D01*
X135156067Y-122551279D01*
X135156065Y-122551281D01*
X135156064Y-122551281D01*
X134987281Y-122720064D01*
X134987276Y-122720070D01*
X134974316Y-122737908D01*
X134918985Y-122780572D01*
X134849371Y-122786550D01*
X134787577Y-122753942D01*
X134773684Y-122737908D01*
X134760723Y-122720070D01*
X134760718Y-122720064D01*
X134591935Y-122551281D01*
X134591933Y-122551279D01*
X134398819Y-122410973D01*
X134186134Y-122302605D01*
X133959115Y-122228842D01*
X133959113Y-122228841D01*
X133959111Y-122228841D01*
X133794498Y-122202768D01*
X133723351Y-122191500D01*
X133484649Y-122191500D01*
X133429995Y-122200156D01*
X133248888Y-122228841D01*
X133248887Y-122228841D01*
X133021863Y-122302606D01*
X132809180Y-122410973D01*
X132699002Y-122491022D01*
X132616067Y-122551279D01*
X132616065Y-122551281D01*
X132616064Y-122551281D01*
X132447281Y-122720064D01*
X132447281Y-122720065D01*
X132447279Y-122720067D01*
X132405126Y-122778085D01*
X132306971Y-122913182D01*
X132198601Y-123125873D01*
X132198600Y-123125875D01*
X132197083Y-123130545D01*
X132166837Y-123179897D01*
X131638736Y-123707999D01*
X131564000Y-123707999D01*
X131564000Y-123642174D01*
X131529925Y-123515007D01*
X131464099Y-123400993D01*
X131371007Y-123307901D01*
X131256993Y-123242075D01*
X131129826Y-123208000D01*
X130998174Y-123208000D01*
X130871007Y-123242075D01*
X130756993Y-123307901D01*
X130663901Y-123400993D01*
X130598075Y-123515007D01*
X130564000Y-123642174D01*
X130423438Y-123642174D01*
X129961162Y-123179898D01*
X129930910Y-123130530D01*
X129929394Y-123125863D01*
X129873184Y-123015546D01*
X129821027Y-122913181D01*
X129680721Y-122720067D01*
X129511933Y-122551279D01*
X129318819Y-122410973D01*
X129271500Y-122386863D01*
X130317599Y-122386863D01*
X131064000Y-123133264D01*
X131064001Y-123133264D01*
X131810400Y-122386863D01*
X131645942Y-122303066D01*
X131645939Y-122303065D01*
X131418999Y-122229329D01*
X131183311Y-122192000D01*
X130944689Y-122192000D01*
X130709000Y-122229329D01*
X130482060Y-122303065D01*
X130482057Y-122303066D01*
X130317599Y-122386863D01*
X129271500Y-122386863D01*
X129106134Y-122302605D01*
X128879115Y-122228842D01*
X128879113Y-122228841D01*
X128879111Y-122228841D01*
X128714498Y-122202768D01*
X128643351Y-122191500D01*
X128404649Y-122191500D01*
X128349995Y-122200156D01*
X128168888Y-122228841D01*
X128168887Y-122228841D01*
X127941863Y-122302606D01*
X127729180Y-122410973D01*
X127619002Y-122491022D01*
X127536067Y-122551279D01*
X127536065Y-122551281D01*
X127536064Y-122551281D01*
X127367281Y-122720064D01*
X127367276Y-122720070D01*
X127354316Y-122737908D01*
X127298985Y-122780572D01*
X127229371Y-122786550D01*
X127167577Y-122753942D01*
X127153684Y-122737908D01*
X127140723Y-122720070D01*
X127140718Y-122720064D01*
X126971935Y-122551281D01*
X126971933Y-122551279D01*
X126778819Y-122410973D01*
X126566134Y-122302605D01*
X126339115Y-122228842D01*
X126339113Y-122228841D01*
X126339111Y-122228841D01*
X126174498Y-122202768D01*
X126103351Y-122191500D01*
X125864649Y-122191500D01*
X125809995Y-122200156D01*
X125628888Y-122228841D01*
X125628887Y-122228841D01*
X125401863Y-122302606D01*
X125189180Y-122410973D01*
X125079002Y-122491022D01*
X124996067Y-122551279D01*
X124996065Y-122551281D01*
X124996064Y-122551281D01*
X124827281Y-122720064D01*
X124827276Y-122720070D01*
X124814316Y-122737908D01*
X124758985Y-122780572D01*
X124689371Y-122786550D01*
X124627577Y-122753942D01*
X124613684Y-122737908D01*
X124600723Y-122720070D01*
X124600718Y-122720064D01*
X124431935Y-122551281D01*
X124431933Y-122551279D01*
X124238819Y-122410973D01*
X124026134Y-122302605D01*
X123799115Y-122228842D01*
X123799113Y-122228841D01*
X123799111Y-122228841D01*
X123634498Y-122202768D01*
X123563351Y-122191500D01*
X123324649Y-122191500D01*
X123269995Y-122200156D01*
X123088888Y-122228841D01*
X123088887Y-122228841D01*
X122861863Y-122302606D01*
X122649180Y-122410973D01*
X122539002Y-122491022D01*
X122456067Y-122551279D01*
X122456065Y-122551281D01*
X122456064Y-122551281D01*
X122287281Y-122720064D01*
X122287276Y-122720070D01*
X122274316Y-122737908D01*
X122218985Y-122780572D01*
X122149371Y-122786550D01*
X122087577Y-122753942D01*
X122073684Y-122737908D01*
X122060723Y-122720070D01*
X122060718Y-122720064D01*
X121891935Y-122551281D01*
X121891933Y-122551279D01*
X121698819Y-122410973D01*
X121486134Y-122302605D01*
X121259115Y-122228842D01*
X121259113Y-122228841D01*
X121259111Y-122228841D01*
X121094498Y-122202768D01*
X121023351Y-122191500D01*
X120784649Y-122191500D01*
X120729995Y-122200156D01*
X120548888Y-122228841D01*
X120548887Y-122228841D01*
X120321863Y-122302606D01*
X120109180Y-122410973D01*
X119999002Y-122491022D01*
X119916067Y-122551279D01*
X119916065Y-122551281D01*
X119916064Y-122551281D01*
X119747281Y-122720064D01*
X119747276Y-122720070D01*
X119734316Y-122737908D01*
X119678985Y-122780572D01*
X119609371Y-122786550D01*
X119547577Y-122753942D01*
X119533684Y-122737908D01*
X119520723Y-122720070D01*
X119520718Y-122720064D01*
X119351935Y-122551281D01*
X119351933Y-122551279D01*
X119158819Y-122410973D01*
X118946134Y-122302605D01*
X118719115Y-122228842D01*
X118719113Y-122228841D01*
X118719111Y-122228841D01*
X118554498Y-122202768D01*
X118483351Y-122191500D01*
X118244649Y-122191500D01*
X118189995Y-122200156D01*
X118008888Y-122228841D01*
X118008887Y-122228841D01*
X117781863Y-122302606D01*
X117569180Y-122410973D01*
X117459002Y-122491022D01*
X117376067Y-122551279D01*
X117376065Y-122551281D01*
X117376064Y-122551281D01*
X117207281Y-122720064D01*
X117207276Y-122720070D01*
X117194316Y-122737908D01*
X117138985Y-122780572D01*
X117069371Y-122786550D01*
X117007577Y-122753942D01*
X116993684Y-122737908D01*
X116980723Y-122720070D01*
X116980718Y-122720064D01*
X116811935Y-122551281D01*
X116811933Y-122551279D01*
X116618819Y-122410973D01*
X116406134Y-122302605D01*
X116179115Y-122228842D01*
X116179113Y-122228841D01*
X116179111Y-122228841D01*
X116014498Y-122202768D01*
X115943351Y-122191500D01*
X115704649Y-122191500D01*
X115649995Y-122200156D01*
X115468888Y-122228841D01*
X115468887Y-122228841D01*
X115241863Y-122302606D01*
X115029180Y-122410973D01*
X114919002Y-122491022D01*
X114836067Y-122551279D01*
X114836065Y-122551281D01*
X114836064Y-122551281D01*
X114667281Y-122720064D01*
X114667276Y-122720070D01*
X114654316Y-122737908D01*
X114598985Y-122780572D01*
X114529371Y-122786550D01*
X114467577Y-122753942D01*
X114453684Y-122737908D01*
X114440723Y-122720070D01*
X114440718Y-122720064D01*
X114271935Y-122551281D01*
X114271933Y-122551279D01*
X114078819Y-122410973D01*
X113866134Y-122302605D01*
X113639115Y-122228842D01*
X113639113Y-122228841D01*
X113639111Y-122228841D01*
X113474498Y-122202768D01*
X113403351Y-122191500D01*
X113164649Y-122191500D01*
X113109995Y-122200156D01*
X112928888Y-122228841D01*
X112928887Y-122228841D01*
X112701863Y-122302606D01*
X112489180Y-122410973D01*
X112379002Y-122491022D01*
X112296067Y-122551279D01*
X112296065Y-122551281D01*
X112296064Y-122551281D01*
X112127281Y-122720064D01*
X112127276Y-122720070D01*
X112114316Y-122737908D01*
X112058985Y-122780572D01*
X111989371Y-122786550D01*
X111927577Y-122753942D01*
X111913684Y-122737908D01*
X111900723Y-122720070D01*
X111900718Y-122720064D01*
X111731935Y-122551281D01*
X111731933Y-122551279D01*
X111538819Y-122410973D01*
X111326134Y-122302605D01*
X111099115Y-122228842D01*
X111099113Y-122228841D01*
X111099111Y-122228841D01*
X110934498Y-122202768D01*
X110863351Y-122191500D01*
X110624649Y-122191500D01*
X110569995Y-122200156D01*
X110388888Y-122228841D01*
X110388887Y-122228841D01*
X110161863Y-122302606D01*
X109949180Y-122410973D01*
X109839002Y-122491022D01*
X109756067Y-122551279D01*
X109756065Y-122551281D01*
X109756064Y-122551281D01*
X109587281Y-122720064D01*
X109587276Y-122720070D01*
X109574316Y-122737908D01*
X109518985Y-122780572D01*
X109449371Y-122786550D01*
X109387577Y-122753942D01*
X109373684Y-122737908D01*
X109360723Y-122720070D01*
X109360718Y-122720064D01*
X109191935Y-122551281D01*
X109191933Y-122551279D01*
X108998819Y-122410973D01*
X108786134Y-122302605D01*
X108559115Y-122228842D01*
X108559113Y-122228841D01*
X108559111Y-122228841D01*
X108394498Y-122202768D01*
X108323351Y-122191500D01*
X108084649Y-122191500D01*
X108029995Y-122200156D01*
X107848888Y-122228841D01*
X107848887Y-122228841D01*
X107621863Y-122302606D01*
X107409180Y-122410973D01*
X107299002Y-122491022D01*
X107216067Y-122551279D01*
X107216065Y-122551281D01*
X107216064Y-122551281D01*
X107047281Y-122720064D01*
X107047276Y-122720070D01*
X107034316Y-122737908D01*
X106978985Y-122780572D01*
X106909371Y-122786550D01*
X106847577Y-122753942D01*
X106833684Y-122737908D01*
X106820723Y-122720070D01*
X106820718Y-122720064D01*
X106651935Y-122551281D01*
X106651933Y-122551279D01*
X106458819Y-122410973D01*
X106246134Y-122302605D01*
X106019115Y-122228842D01*
X106019113Y-122228841D01*
X106019111Y-122228841D01*
X105854498Y-122202768D01*
X105783351Y-122191500D01*
X105544649Y-122191500D01*
X105489995Y-122200156D01*
X105308888Y-122228841D01*
X105308887Y-122228841D01*
X105081863Y-122302606D01*
X104869180Y-122410973D01*
X104759002Y-122491022D01*
X104676067Y-122551279D01*
X104676065Y-122551281D01*
X104676064Y-122551281D01*
X104507281Y-122720064D01*
X104507276Y-122720070D01*
X104494316Y-122737908D01*
X104438985Y-122780572D01*
X104369371Y-122786550D01*
X104307577Y-122753942D01*
X104293684Y-122737908D01*
X104280723Y-122720070D01*
X104280718Y-122720064D01*
X104111935Y-122551281D01*
X104111933Y-122551279D01*
X103918819Y-122410973D01*
X103706134Y-122302605D01*
X103479115Y-122228842D01*
X103479113Y-122228841D01*
X103479111Y-122228841D01*
X103314498Y-122202768D01*
X103243351Y-122191500D01*
X103004649Y-122191500D01*
X102949995Y-122200156D01*
X102768888Y-122228841D01*
X102768887Y-122228841D01*
X102541863Y-122302606D01*
X102329180Y-122410973D01*
X102219002Y-122491022D01*
X102136067Y-122551279D01*
X102136065Y-122551281D01*
X102136064Y-122551281D01*
X101967281Y-122720064D01*
X101967281Y-122720065D01*
X101967279Y-122720067D01*
X101918976Y-122786550D01*
X101826973Y-122913180D01*
X101718606Y-123125863D01*
X101644841Y-123352887D01*
X101644841Y-123352888D01*
X101637222Y-123400993D01*
X101607500Y-123588649D01*
X97403901Y-123588649D01*
X100155907Y-120836643D01*
X152940900Y-120836643D01*
X152940900Y-121051356D01*
X152974489Y-121263428D01*
X153040837Y-121467630D01*
X153040838Y-121467633D01*
X153125454Y-121633699D01*
X153138317Y-121658944D01*
X153264523Y-121832651D01*
X153416349Y-121984477D01*
X153590056Y-122110683D01*
X153683888Y-122158492D01*
X153781366Y-122208161D01*
X153781369Y-122208162D01*
X153845014Y-122228841D01*
X153985573Y-122274511D01*
X154197643Y-122308100D01*
X154197644Y-122308100D01*
X154412356Y-122308100D01*
X154412357Y-122308100D01*
X154624427Y-122274511D01*
X154828633Y-122208161D01*
X155019944Y-122110683D01*
X155193651Y-121984477D01*
X155345477Y-121832651D01*
X155454683Y-121682342D01*
X155510012Y-121639678D01*
X155579625Y-121633699D01*
X155641420Y-121666305D01*
X155655314Y-121682338D01*
X155764523Y-121832651D01*
X155916349Y-121984477D01*
X156090056Y-122110683D01*
X156183888Y-122158492D01*
X156281366Y-122208161D01*
X156281369Y-122208162D01*
X156345014Y-122228841D01*
X156485573Y-122274511D01*
X156697643Y-122308100D01*
X156697644Y-122308100D01*
X156912356Y-122308100D01*
X156912357Y-122308100D01*
X157124427Y-122274511D01*
X157328633Y-122208161D01*
X157519944Y-122110683D01*
X157693651Y-121984477D01*
X157845477Y-121832651D01*
X157971683Y-121658944D01*
X158069161Y-121467633D01*
X158135511Y-121263427D01*
X158169100Y-121051357D01*
X158169100Y-120836643D01*
X158135511Y-120624573D01*
X158069161Y-120420367D01*
X158069161Y-120420366D01*
X157971682Y-120229055D01*
X157966334Y-120221694D01*
X157845477Y-120055349D01*
X157693651Y-119903523D01*
X157519944Y-119777317D01*
X157487237Y-119760652D01*
X157328633Y-119679838D01*
X157328630Y-119679837D01*
X157124428Y-119613489D01*
X157018392Y-119596694D01*
X156912357Y-119579900D01*
X156697643Y-119579900D01*
X156626953Y-119591096D01*
X156485571Y-119613489D01*
X156281369Y-119679837D01*
X156281366Y-119679838D01*
X156090055Y-119777317D01*
X155990949Y-119849322D01*
X155916349Y-119903523D01*
X155916347Y-119903525D01*
X155916346Y-119903525D01*
X155764525Y-120055346D01*
X155764525Y-120055347D01*
X155764523Y-120055349D01*
X155705809Y-120136162D01*
X155655318Y-120205656D01*
X155599988Y-120248321D01*
X155530374Y-120254300D01*
X155468579Y-120221694D01*
X155454682Y-120205656D01*
X155404191Y-120136162D01*
X155345477Y-120055349D01*
X155193651Y-119903523D01*
X155019944Y-119777317D01*
X154987237Y-119760652D01*
X154828633Y-119679838D01*
X154828630Y-119679837D01*
X154624428Y-119613489D01*
X154518392Y-119596694D01*
X154412357Y-119579900D01*
X154197643Y-119579900D01*
X154126953Y-119591096D01*
X153985571Y-119613489D01*
X153781369Y-119679837D01*
X153781366Y-119679838D01*
X153590055Y-119777317D01*
X153490949Y-119849322D01*
X153416349Y-119903523D01*
X153416347Y-119903525D01*
X153416346Y-119903525D01*
X153264525Y-120055346D01*
X153264525Y-120055347D01*
X153264523Y-120055349D01*
X153210322Y-120129949D01*
X153138317Y-120229055D01*
X153040838Y-120420366D01*
X153040837Y-120420369D01*
X152974489Y-120624571D01*
X152940900Y-120836643D01*
X100155907Y-120836643D01*
X102227907Y-118764643D01*
X143923900Y-118764643D01*
X143923900Y-118979356D01*
X143957489Y-119191428D01*
X144023837Y-119395630D01*
X144023838Y-119395633D01*
X144117728Y-119579900D01*
X144121317Y-119586944D01*
X144247523Y-119760651D01*
X144399349Y-119912477D01*
X144573056Y-120038683D01*
X144605765Y-120055349D01*
X144764366Y-120136161D01*
X144764369Y-120136162D01*
X144866470Y-120169336D01*
X144968573Y-120202511D01*
X145180643Y-120236100D01*
X145180644Y-120236100D01*
X145395356Y-120236100D01*
X145395357Y-120236100D01*
X145607427Y-120202511D01*
X145811633Y-120136161D01*
X146002944Y-120038683D01*
X146176651Y-119912477D01*
X146328477Y-119760651D01*
X146454683Y-119586944D01*
X146552161Y-119395633D01*
X146618511Y-119191427D01*
X146652100Y-118979357D01*
X146652100Y-118764643D01*
X146618511Y-118552573D01*
X146552161Y-118348367D01*
X146552161Y-118348366D01*
X146454682Y-118157055D01*
X146328477Y-117983349D01*
X146176651Y-117831523D01*
X146002944Y-117705317D01*
X145811633Y-117607838D01*
X145811630Y-117607837D01*
X145607428Y-117541489D01*
X145501392Y-117524694D01*
X145395357Y-117507900D01*
X145180643Y-117507900D01*
X145109953Y-117519096D01*
X144968571Y-117541489D01*
X144764369Y-117607837D01*
X144764366Y-117607838D01*
X144573055Y-117705317D01*
X144473949Y-117777322D01*
X144399349Y-117831523D01*
X144399347Y-117831525D01*
X144399346Y-117831525D01*
X144247525Y-117983346D01*
X144247525Y-117983347D01*
X144247523Y-117983349D01*
X144193322Y-118057949D01*
X144121317Y-118157055D01*
X144023838Y-118348366D01*
X144023837Y-118348369D01*
X143957489Y-118552571D01*
X143923900Y-118764643D01*
X102227907Y-118764643D01*
X102320460Y-118672090D01*
X107025679Y-113966872D01*
X146843500Y-113966872D01*
X146843500Y-114229127D01*
X146870123Y-114431339D01*
X146877730Y-114489116D01*
X146945602Y-114742418D01*
X146945605Y-114742428D01*
X147045953Y-114984690D01*
X147045958Y-114984700D01*
X147177075Y-115211803D01*
X147336718Y-115419851D01*
X147336726Y-115419860D01*
X147522140Y-115605274D01*
X147522148Y-115605281D01*
X147730196Y-115764924D01*
X147957299Y-115896041D01*
X147957309Y-115896046D01*
X148199571Y-115996394D01*
X148199581Y-115996398D01*
X148452884Y-116064270D01*
X148712880Y-116098500D01*
X148712887Y-116098500D01*
X148975113Y-116098500D01*
X148975120Y-116098500D01*
X149235116Y-116064270D01*
X149488419Y-115996398D01*
X149730697Y-115896043D01*
X149957803Y-115764924D01*
X150165851Y-115605282D01*
X150165855Y-115605277D01*
X150165860Y-115605274D01*
X150351274Y-115419860D01*
X150351277Y-115419855D01*
X150351282Y-115419851D01*
X150510924Y-115211803D01*
X150642043Y-114984697D01*
X150742398Y-114742419D01*
X150810270Y-114489116D01*
X150844500Y-114229120D01*
X150844500Y-113966880D01*
X150810270Y-113706884D01*
X150742398Y-113453581D01*
X150734898Y-113435474D01*
X150642046Y-113211309D01*
X150642041Y-113211299D01*
X150510924Y-112984196D01*
X150351281Y-112776148D01*
X150351274Y-112776140D01*
X150165860Y-112590726D01*
X150165851Y-112590718D01*
X149957803Y-112431075D01*
X149886931Y-112390158D01*
X149730700Y-112299958D01*
X149730690Y-112299953D01*
X149700971Y-112287643D01*
X159965900Y-112287643D01*
X159965900Y-112502356D01*
X159999489Y-112714428D01*
X160065837Y-112918630D01*
X160065838Y-112918633D01*
X160150454Y-113084699D01*
X160163317Y-113109944D01*
X160289523Y-113283651D01*
X160441349Y-113435477D01*
X160615056Y-113561683D01*
X160708888Y-113609492D01*
X160806366Y-113659161D01*
X160806369Y-113659162D01*
X160908470Y-113692336D01*
X161010573Y-113725511D01*
X161222643Y-113759100D01*
X161222644Y-113759100D01*
X161437356Y-113759100D01*
X161437357Y-113759100D01*
X161649427Y-113725511D01*
X161853633Y-113659161D01*
X162044944Y-113561683D01*
X162218651Y-113435477D01*
X162370477Y-113283651D01*
X162479683Y-113133342D01*
X162535012Y-113090678D01*
X162604625Y-113084699D01*
X162666420Y-113117305D01*
X162680314Y-113133338D01*
X162789523Y-113283651D01*
X162941349Y-113435477D01*
X163115056Y-113561683D01*
X163208888Y-113609492D01*
X163306366Y-113659161D01*
X163306369Y-113659162D01*
X163408470Y-113692336D01*
X163510573Y-113725511D01*
X163722643Y-113759100D01*
X163722644Y-113759100D01*
X163937356Y-113759100D01*
X163937357Y-113759100D01*
X164149427Y-113725511D01*
X164353633Y-113659161D01*
X164544944Y-113561683D01*
X164718651Y-113435477D01*
X164870477Y-113283651D01*
X164996683Y-113109944D01*
X165094161Y-112918633D01*
X165160511Y-112714427D01*
X165194100Y-112502357D01*
X165194100Y-112287643D01*
X165160511Y-112075573D01*
X165094161Y-111871367D01*
X165094161Y-111871366D01*
X164996682Y-111680055D01*
X164991334Y-111672694D01*
X164870477Y-111506349D01*
X164718651Y-111354523D01*
X164544944Y-111228317D01*
X164353633Y-111130838D01*
X164353630Y-111130837D01*
X164149428Y-111064489D01*
X164043392Y-111047694D01*
X163937357Y-111030900D01*
X163722643Y-111030900D01*
X163651953Y-111042096D01*
X163510571Y-111064489D01*
X163306369Y-111130837D01*
X163306366Y-111130838D01*
X163115055Y-111228317D01*
X163015949Y-111300322D01*
X162941349Y-111354523D01*
X162941347Y-111354525D01*
X162941346Y-111354525D01*
X162789525Y-111506346D01*
X162789525Y-111506347D01*
X162789523Y-111506349D01*
X162724880Y-111595322D01*
X162680318Y-111656656D01*
X162624988Y-111699321D01*
X162555374Y-111705300D01*
X162493579Y-111672694D01*
X162479682Y-111656656D01*
X162435121Y-111595324D01*
X162370477Y-111506349D01*
X162218651Y-111354523D01*
X162044944Y-111228317D01*
X161853633Y-111130838D01*
X161853630Y-111130837D01*
X161649428Y-111064489D01*
X161543392Y-111047694D01*
X161437357Y-111030900D01*
X161222643Y-111030900D01*
X161151953Y-111042096D01*
X161010571Y-111064489D01*
X160806369Y-111130837D01*
X160806366Y-111130838D01*
X160615055Y-111228317D01*
X160515949Y-111300322D01*
X160441349Y-111354523D01*
X160441347Y-111354525D01*
X160441346Y-111354525D01*
X160289525Y-111506346D01*
X160289525Y-111506347D01*
X160289523Y-111506349D01*
X160235322Y-111580949D01*
X160163317Y-111680055D01*
X160065838Y-111871366D01*
X160065837Y-111871369D01*
X159999489Y-112075571D01*
X159965900Y-112287643D01*
X149700971Y-112287643D01*
X149488428Y-112199605D01*
X149488421Y-112199603D01*
X149488419Y-112199602D01*
X149235116Y-112131730D01*
X149177339Y-112124123D01*
X148975127Y-112097500D01*
X148975120Y-112097500D01*
X148712880Y-112097500D01*
X148712872Y-112097500D01*
X148481772Y-112127926D01*
X148452884Y-112131730D01*
X148199581Y-112199602D01*
X148199571Y-112199605D01*
X147957309Y-112299953D01*
X147957299Y-112299958D01*
X147730196Y-112431075D01*
X147522148Y-112590718D01*
X147336718Y-112776148D01*
X147177075Y-112984196D01*
X147045958Y-113211299D01*
X147045953Y-113211309D01*
X146945605Y-113453571D01*
X146945602Y-113453581D01*
X146877730Y-113706885D01*
X146843500Y-113966872D01*
X107025679Y-113966872D01*
X107117411Y-113875140D01*
X108908432Y-112084118D01*
X108908435Y-112084115D01*
X109007684Y-111935578D01*
X109076048Y-111770533D01*
X109110900Y-111595322D01*
X109110900Y-109746775D01*
X109130585Y-109679736D01*
X109162012Y-109646459D01*
X109191933Y-109624721D01*
X109360721Y-109455933D01*
X109373682Y-109438092D01*
X109429010Y-109395428D01*
X109498623Y-109389447D01*
X109560419Y-109422052D01*
X109574314Y-109438088D01*
X109587279Y-109455933D01*
X109756067Y-109624721D01*
X109949181Y-109765027D01*
X110161866Y-109873395D01*
X110388885Y-109947158D01*
X110624649Y-109984500D01*
X110624650Y-109984500D01*
X110863350Y-109984500D01*
X110863351Y-109984500D01*
X111099115Y-109947158D01*
X111326134Y-109873395D01*
X111538819Y-109765027D01*
X111731933Y-109624721D01*
X111900721Y-109455933D01*
X111913682Y-109438092D01*
X111969010Y-109395428D01*
X112038623Y-109389447D01*
X112100419Y-109422052D01*
X112114314Y-109438088D01*
X112127279Y-109455933D01*
X112296067Y-109624721D01*
X112489181Y-109765027D01*
X112701866Y-109873395D01*
X112928885Y-109947158D01*
X113164649Y-109984500D01*
X113164650Y-109984500D01*
X113403350Y-109984500D01*
X113403351Y-109984500D01*
X113639115Y-109947158D01*
X113866134Y-109873395D01*
X114078819Y-109765027D01*
X114271933Y-109624721D01*
X114440721Y-109455933D01*
X114453682Y-109438092D01*
X114509010Y-109395428D01*
X114578623Y-109389447D01*
X114640419Y-109422052D01*
X114654314Y-109438088D01*
X114667279Y-109455933D01*
X114836067Y-109624721D01*
X115029181Y-109765027D01*
X115241866Y-109873395D01*
X115468885Y-109947158D01*
X115704649Y-109984500D01*
X115704650Y-109984500D01*
X115943350Y-109984500D01*
X115943351Y-109984500D01*
X116179115Y-109947158D01*
X116406134Y-109873395D01*
X116618819Y-109765027D01*
X116811933Y-109624721D01*
X116980721Y-109455933D01*
X116993682Y-109438092D01*
X117049010Y-109395428D01*
X117118623Y-109389447D01*
X117180419Y-109422052D01*
X117194314Y-109438088D01*
X117207279Y-109455933D01*
X117376067Y-109624721D01*
X117569181Y-109765027D01*
X117781866Y-109873395D01*
X118008885Y-109947158D01*
X118244649Y-109984500D01*
X118244650Y-109984500D01*
X118483350Y-109984500D01*
X118483351Y-109984500D01*
X118719115Y-109947158D01*
X118946134Y-109873395D01*
X119158819Y-109765027D01*
X119351933Y-109624721D01*
X119520721Y-109455933D01*
X119533682Y-109438092D01*
X119589010Y-109395428D01*
X119658623Y-109389447D01*
X119720419Y-109422052D01*
X119734314Y-109438088D01*
X119747279Y-109455933D01*
X119916067Y-109624721D01*
X120109181Y-109765027D01*
X120321866Y-109873395D01*
X120548885Y-109947158D01*
X120784649Y-109984500D01*
X120784650Y-109984500D01*
X121023350Y-109984500D01*
X121023351Y-109984500D01*
X121259115Y-109947158D01*
X121486134Y-109873395D01*
X121698819Y-109765027D01*
X121891933Y-109624721D01*
X122060721Y-109455933D01*
X122073682Y-109438092D01*
X122129010Y-109395428D01*
X122198623Y-109389447D01*
X122260419Y-109422052D01*
X122274314Y-109438088D01*
X122287279Y-109455933D01*
X122456067Y-109624721D01*
X122649181Y-109765027D01*
X122861866Y-109873395D01*
X123088885Y-109947158D01*
X123324649Y-109984500D01*
X123324650Y-109984500D01*
X123563350Y-109984500D01*
X123563351Y-109984500D01*
X123799115Y-109947158D01*
X124026134Y-109873395D01*
X124238819Y-109765027D01*
X124431933Y-109624721D01*
X124600721Y-109455933D01*
X124692171Y-109330062D01*
X124747501Y-109287397D01*
X124817114Y-109281418D01*
X124878909Y-109314024D01*
X124892807Y-109330063D01*
X124924142Y-109373192D01*
X124924146Y-109373197D01*
X125078806Y-109527857D01*
X125242047Y-109646456D01*
X125255743Y-109656407D01*
X125344802Y-109701785D01*
X125450616Y-109755701D01*
X125450619Y-109755702D01*
X125554621Y-109789493D01*
X125658625Y-109823286D01*
X125758672Y-109839132D01*
X125874639Y-109857500D01*
X125874644Y-109857500D01*
X126093361Y-109857500D01*
X126198082Y-109840912D01*
X126309375Y-109823286D01*
X126517383Y-109755701D01*
X126712257Y-109656407D01*
X126812478Y-109583593D01*
X126889193Y-109527857D01*
X126889195Y-109527854D01*
X126889199Y-109527852D01*
X127043852Y-109373199D01*
X127075191Y-109330063D01*
X127130520Y-109287398D01*
X127200133Y-109281417D01*
X127261929Y-109314022D01*
X127275828Y-109330062D01*
X127280045Y-109335866D01*
X127367279Y-109455933D01*
X127536067Y-109624721D01*
X127729181Y-109765027D01*
X127941866Y-109873395D01*
X128168885Y-109947158D01*
X128404649Y-109984500D01*
X128404650Y-109984500D01*
X128643350Y-109984500D01*
X128643351Y-109984500D01*
X128879115Y-109947158D01*
X129106134Y-109873395D01*
X129318819Y-109765027D01*
X129511933Y-109624721D01*
X129680721Y-109455933D01*
X129693682Y-109438092D01*
X129749010Y-109395428D01*
X129818623Y-109389447D01*
X129880419Y-109422052D01*
X129894314Y-109438088D01*
X129907279Y-109455933D01*
X130076067Y-109624721D01*
X130269181Y-109765027D01*
X130481866Y-109873395D01*
X130708885Y-109947158D01*
X130944649Y-109984500D01*
X130944650Y-109984500D01*
X131183350Y-109984500D01*
X131183351Y-109984500D01*
X131419115Y-109947158D01*
X131646134Y-109873395D01*
X131858819Y-109765027D01*
X132051933Y-109624721D01*
X132220721Y-109455933D01*
X132233682Y-109438092D01*
X132289010Y-109395428D01*
X132358623Y-109389447D01*
X132420419Y-109422052D01*
X132434314Y-109438088D01*
X132447279Y-109455933D01*
X132616067Y-109624721D01*
X132809181Y-109765027D01*
X133021866Y-109873395D01*
X133248885Y-109947158D01*
X133484649Y-109984500D01*
X133484650Y-109984500D01*
X133723350Y-109984500D01*
X133723351Y-109984500D01*
X133959115Y-109947158D01*
X134186134Y-109873395D01*
X134398819Y-109765027D01*
X134591933Y-109624721D01*
X134760721Y-109455933D01*
X134773682Y-109438092D01*
X134829010Y-109395428D01*
X134898623Y-109389447D01*
X134960419Y-109422052D01*
X134974314Y-109438088D01*
X134987279Y-109455933D01*
X135156067Y-109624721D01*
X135349181Y-109765027D01*
X135561866Y-109873395D01*
X135788885Y-109947158D01*
X136024649Y-109984500D01*
X136024650Y-109984500D01*
X136263350Y-109984500D01*
X136263351Y-109984500D01*
X136499115Y-109947158D01*
X136726134Y-109873395D01*
X136938819Y-109765027D01*
X137044155Y-109688495D01*
X137109960Y-109665015D01*
X137178014Y-109680840D01*
X137217145Y-109720535D01*
X137218888Y-109719231D01*
X137310452Y-109841544D01*
X137310455Y-109841547D01*
X137425664Y-109927793D01*
X137425671Y-109927797D01*
X137560517Y-109978091D01*
X137560516Y-109978091D01*
X137567444Y-109978835D01*
X137620127Y-109984500D01*
X139747872Y-109984499D01*
X139807483Y-109978091D01*
X139942331Y-109927796D01*
X140057546Y-109841546D01*
X140143796Y-109726331D01*
X140194091Y-109591483D01*
X140200500Y-109531873D01*
X140200499Y-108223825D01*
X140189940Y-108139750D01*
X140134863Y-108006784D01*
X140082879Y-107939865D01*
X139212131Y-107069116D01*
X139200304Y-107059928D01*
X139145217Y-107017135D01*
X139012253Y-106962061D01*
X139012251Y-106962060D01*
X139012250Y-106962060D01*
X139012249Y-106962059D01*
X139012246Y-106962059D01*
X138928177Y-106951500D01*
X137620129Y-106951500D01*
X137620123Y-106951501D01*
X137560516Y-106957908D01*
X137425671Y-107008202D01*
X137425664Y-107008206D01*
X137310455Y-107094452D01*
X137310452Y-107094455D01*
X137218888Y-107216769D01*
X137217074Y-107215411D01*
X137176461Y-107256021D01*
X137108188Y-107270870D01*
X137044155Y-107247504D01*
X136938819Y-107170973D01*
X136788641Y-107094454D01*
X136726136Y-107062606D01*
X136726135Y-107062605D01*
X136726134Y-107062605D01*
X136499115Y-106988842D01*
X136499113Y-106988841D01*
X136499111Y-106988841D01*
X136303815Y-106957909D01*
X136263351Y-106951500D01*
X136024649Y-106951500D01*
X135984191Y-106957908D01*
X135788888Y-106988841D01*
X135788887Y-106988841D01*
X135561863Y-107062606D01*
X135349180Y-107170973D01*
X135286148Y-107216769D01*
X135156067Y-107311279D01*
X135156065Y-107311281D01*
X135156064Y-107311281D01*
X134987281Y-107480064D01*
X134987276Y-107480070D01*
X134974316Y-107497908D01*
X134918985Y-107540572D01*
X134849371Y-107546550D01*
X134787577Y-107513942D01*
X134773684Y-107497908D01*
X134763503Y-107483897D01*
X134760721Y-107480067D01*
X134591933Y-107311279D01*
X134398819Y-107170973D01*
X134248641Y-107094454D01*
X134186136Y-107062606D01*
X134186135Y-107062605D01*
X134186134Y-107062605D01*
X133959115Y-106988842D01*
X133959113Y-106988841D01*
X133959111Y-106988841D01*
X133763815Y-106957909D01*
X133723351Y-106951500D01*
X133484649Y-106951500D01*
X133444191Y-106957908D01*
X133248888Y-106988841D01*
X133248887Y-106988841D01*
X133021863Y-107062606D01*
X132809180Y-107170973D01*
X132746148Y-107216769D01*
X132616067Y-107311279D01*
X132616065Y-107311281D01*
X132616064Y-107311281D01*
X132447281Y-107480064D01*
X132447276Y-107480070D01*
X132434316Y-107497908D01*
X132378985Y-107540572D01*
X132309371Y-107546550D01*
X132247577Y-107513942D01*
X132233684Y-107497908D01*
X132223503Y-107483897D01*
X132220721Y-107480067D01*
X132051933Y-107311279D01*
X131858819Y-107170973D01*
X131708641Y-107094454D01*
X131646136Y-107062606D01*
X131646135Y-107062605D01*
X131646134Y-107062605D01*
X131419115Y-106988842D01*
X131419113Y-106988841D01*
X131419111Y-106988841D01*
X131223815Y-106957909D01*
X131183351Y-106951500D01*
X130944649Y-106951500D01*
X130904191Y-106957908D01*
X130708888Y-106988841D01*
X130708887Y-106988841D01*
X130481863Y-107062606D01*
X130269180Y-107170973D01*
X130206148Y-107216769D01*
X130076067Y-107311279D01*
X130076065Y-107311281D01*
X130076064Y-107311281D01*
X129907281Y-107480064D01*
X129907276Y-107480070D01*
X129894316Y-107497908D01*
X129838985Y-107540572D01*
X129769371Y-107546550D01*
X129707577Y-107513942D01*
X129693684Y-107497908D01*
X129683503Y-107483897D01*
X129680721Y-107480067D01*
X129511933Y-107311279D01*
X129318819Y-107170973D01*
X129168641Y-107094454D01*
X129106136Y-107062606D01*
X129106135Y-107062605D01*
X129106134Y-107062605D01*
X128879115Y-106988842D01*
X128879113Y-106988841D01*
X128879111Y-106988841D01*
X128683815Y-106957909D01*
X128643351Y-106951500D01*
X128404649Y-106951500D01*
X128364191Y-106957908D01*
X128168888Y-106988841D01*
X128168887Y-106988841D01*
X127941863Y-107062606D01*
X127729180Y-107170973D01*
X127666148Y-107216769D01*
X127536067Y-107311279D01*
X127536065Y-107311281D01*
X127536064Y-107311281D01*
X127367281Y-107480064D01*
X127367274Y-107480073D01*
X127275827Y-107605937D01*
X127259032Y-107618887D01*
X127245627Y-107635323D01*
X127231917Y-107639796D01*
X127220497Y-107648603D01*
X127199365Y-107650417D01*
X127179204Y-107656996D01*
X127165252Y-107653347D01*
X127150884Y-107654581D01*
X127132125Y-107644683D01*
X127111608Y-107639317D01*
X127097571Y-107626450D01*
X127089089Y-107621975D01*
X127084257Y-107617009D01*
X127079403Y-107611733D01*
X127043852Y-107562801D01*
X126925385Y-107444334D01*
X126923647Y-107442445D01*
X126909284Y-107413322D01*
X126893734Y-107384845D01*
X126893314Y-107380942D01*
X126892742Y-107379782D01*
X126892971Y-107377756D01*
X126890900Y-107358487D01*
X126890900Y-106448645D01*
X161170500Y-106448645D01*
X161170500Y-106671354D01*
X161205340Y-106891324D01*
X161205340Y-106891327D01*
X161274159Y-107103130D01*
X161350218Y-107252404D01*
X161375269Y-107301569D01*
X161506175Y-107481745D01*
X161663655Y-107639225D01*
X161843831Y-107770131D01*
X162042267Y-107871239D01*
X162042269Y-107871240D01*
X162254073Y-107940059D01*
X162254074Y-107940059D01*
X162254077Y-107940060D01*
X162474045Y-107974900D01*
X162474046Y-107974900D01*
X164169954Y-107974900D01*
X164169955Y-107974900D01*
X164389923Y-107940060D01*
X164389926Y-107940059D01*
X164389927Y-107940059D01*
X164601730Y-107871240D01*
X164601730Y-107871239D01*
X164601733Y-107871239D01*
X164800169Y-107770131D01*
X164980345Y-107639225D01*
X165137825Y-107481745D01*
X165268731Y-107301569D01*
X165369839Y-107103133D01*
X165417025Y-106957909D01*
X165438659Y-106891327D01*
X165438659Y-106891326D01*
X165438660Y-106891323D01*
X165473500Y-106671355D01*
X165473500Y-106448645D01*
X165438660Y-106228677D01*
X165438659Y-106228673D01*
X165438659Y-106228672D01*
X165369840Y-106016869D01*
X165357063Y-105991793D01*
X165268731Y-105818431D01*
X165137825Y-105638255D01*
X164980345Y-105480775D01*
X164800169Y-105349869D01*
X164601730Y-105248759D01*
X164389926Y-105179940D01*
X164224947Y-105153810D01*
X164169955Y-105145100D01*
X162474045Y-105145100D01*
X162400722Y-105156713D01*
X162254075Y-105179940D01*
X162254072Y-105179940D01*
X162042269Y-105248759D01*
X161843830Y-105349869D01*
X161741033Y-105424556D01*
X161663655Y-105480775D01*
X161663653Y-105480777D01*
X161663652Y-105480777D01*
X161506177Y-105638252D01*
X161506177Y-105638253D01*
X161506175Y-105638255D01*
X161449956Y-105715633D01*
X161375269Y-105818430D01*
X161274159Y-106016869D01*
X161205340Y-106228672D01*
X161205340Y-106228675D01*
X161170500Y-106448645D01*
X126890900Y-106448645D01*
X126890900Y-104126326D01*
X131542092Y-104126326D01*
X131556553Y-104133695D01*
X131556557Y-104133696D01*
X131760688Y-104200024D01*
X131972677Y-104233600D01*
X132187323Y-104233600D01*
X132399311Y-104200024D01*
X132603442Y-104133697D01*
X132617905Y-104126327D01*
X132617905Y-104126326D01*
X132276067Y-103784487D01*
X132191715Y-103700135D01*
X140077500Y-103700135D01*
X140077500Y-105595870D01*
X140077501Y-105595876D01*
X140083908Y-105655483D01*
X140134202Y-105790328D01*
X140134206Y-105790335D01*
X140220452Y-105905544D01*
X140220455Y-105905547D01*
X140335664Y-105991793D01*
X140335671Y-105991797D01*
X140470517Y-106042091D01*
X140470516Y-106042091D01*
X140477444Y-106042835D01*
X140530127Y-106048500D01*
X142425872Y-106048499D01*
X142485483Y-106042091D01*
X142620331Y-105991796D01*
X142735546Y-105905546D01*
X142821796Y-105790331D01*
X142872091Y-105655483D01*
X142878500Y-105595873D01*
X142878499Y-103700128D01*
X142872091Y-103640517D01*
X142833623Y-103537380D01*
X142821797Y-103505671D01*
X142821793Y-103505664D01*
X142735547Y-103390455D01*
X142735544Y-103390452D01*
X142620335Y-103304206D01*
X142620328Y-103304202D01*
X142485482Y-103253908D01*
X142485483Y-103253908D01*
X142425883Y-103247501D01*
X142425881Y-103247500D01*
X142425873Y-103247500D01*
X142425864Y-103247500D01*
X140530129Y-103247500D01*
X140530123Y-103247501D01*
X140470516Y-103253908D01*
X140335671Y-103304202D01*
X140335664Y-103304206D01*
X140220455Y-103390452D01*
X140220452Y-103390455D01*
X140134206Y-103505664D01*
X140134202Y-103505671D01*
X140083908Y-103640517D01*
X140077501Y-103700116D01*
X140077501Y-103700123D01*
X140077500Y-103700135D01*
X132191715Y-103700135D01*
X132080001Y-103588420D01*
X132080000Y-103588420D01*
X131542092Y-104126326D01*
X126890900Y-104126326D01*
X126890900Y-103710473D01*
X126856049Y-103535270D01*
X126856048Y-103535269D01*
X126856048Y-103535265D01*
X126787684Y-103370220D01*
X126787683Y-103370219D01*
X126787680Y-103370213D01*
X126688436Y-103221684D01*
X126656063Y-103189311D01*
X126562115Y-103095363D01*
X126229428Y-102762676D01*
X130716400Y-102762676D01*
X130716400Y-102977323D01*
X130749976Y-103189312D01*
X130749976Y-103189315D01*
X130816300Y-103393437D01*
X130823672Y-103407906D01*
X131361579Y-102870000D01*
X131308075Y-102816496D01*
X131673600Y-102816496D01*
X131673600Y-102923504D01*
X131701295Y-103026865D01*
X131754799Y-103119536D01*
X131830464Y-103195201D01*
X131923135Y-103248705D01*
X132026496Y-103276400D01*
X132133504Y-103276400D01*
X132236865Y-103248705D01*
X132329536Y-103195201D01*
X132405201Y-103119536D01*
X132458705Y-103026865D01*
X132486400Y-102923504D01*
X132486400Y-102869999D01*
X132798420Y-102869999D01*
X132798420Y-102870000D01*
X133336326Y-103407905D01*
X133336327Y-103407905D01*
X133343697Y-103393442D01*
X133410024Y-103189311D01*
X133443600Y-102977323D01*
X133443600Y-102762676D01*
X133410024Y-102550688D01*
X133343696Y-102346557D01*
X133343695Y-102346553D01*
X133336326Y-102332092D01*
X132798420Y-102869999D01*
X132486400Y-102869999D01*
X132486400Y-102816496D01*
X132458705Y-102713135D01*
X132405201Y-102620464D01*
X132329536Y-102544799D01*
X132236865Y-102491295D01*
X132133504Y-102463600D01*
X132026496Y-102463600D01*
X131923135Y-102491295D01*
X131830464Y-102544799D01*
X131754799Y-102620464D01*
X131701295Y-102713135D01*
X131673600Y-102816496D01*
X131308075Y-102816496D01*
X130823672Y-102332093D01*
X130816305Y-102346553D01*
X130816299Y-102346566D01*
X130749976Y-102550684D01*
X130749976Y-102550687D01*
X130716400Y-102762676D01*
X126229428Y-102762676D01*
X123729395Y-100262643D01*
X130715900Y-100262643D01*
X130715900Y-100477356D01*
X130749489Y-100689428D01*
X130815837Y-100893630D01*
X130815838Y-100893633D01*
X130913317Y-101084944D01*
X131039523Y-101258651D01*
X131191349Y-101410477D01*
X131365056Y-101536683D01*
X131551542Y-101631702D01*
X131582926Y-101654505D01*
X132080000Y-102151579D01*
X132080001Y-102151579D01*
X132577072Y-101654505D01*
X132608454Y-101631704D01*
X132794944Y-101536683D01*
X132968651Y-101410477D01*
X133120477Y-101258651D01*
X133246683Y-101084944D01*
X133344161Y-100893633D01*
X133410511Y-100689427D01*
X133444100Y-100477357D01*
X133444100Y-100262643D01*
X133410511Y-100050573D01*
X133344161Y-99846367D01*
X133344161Y-99846366D01*
X133246933Y-99655547D01*
X133246683Y-99655056D01*
X133120477Y-99481349D01*
X132968651Y-99329523D01*
X132794944Y-99203317D01*
X132770959Y-99191096D01*
X132603633Y-99105838D01*
X132603630Y-99105837D01*
X132399428Y-99039489D01*
X132230561Y-99012743D01*
X132187357Y-99005900D01*
X131972643Y-99005900D01*
X131929483Y-99012736D01*
X131760571Y-99039489D01*
X131556369Y-99105837D01*
X131556366Y-99105838D01*
X131365055Y-99203317D01*
X131265949Y-99275322D01*
X131191349Y-99329523D01*
X131191347Y-99329525D01*
X131191346Y-99329525D01*
X131039525Y-99481346D01*
X131039525Y-99481347D01*
X131039523Y-99481349D01*
X131027481Y-99497924D01*
X130913317Y-99655055D01*
X130815838Y-99846366D01*
X130815837Y-99846369D01*
X130749489Y-100050571D01*
X130715900Y-100262643D01*
X123729395Y-100262643D01*
X122272752Y-98806000D01*
X144926377Y-98806000D01*
X144957917Y-98903070D01*
X145061711Y-99106776D01*
X145196097Y-99291742D01*
X145357757Y-99453402D01*
X145542723Y-99587788D01*
X145746434Y-99691583D01*
X145746432Y-99691583D01*
X145796000Y-99707687D01*
X145796000Y-98806000D01*
X144926377Y-98806000D01*
X122272752Y-98806000D01*
X121002752Y-97536000D01*
X140171013Y-97536000D01*
X140180570Y-97565417D01*
X140280613Y-97761760D01*
X140410142Y-97940041D01*
X140565958Y-98095857D01*
X140744239Y-98225386D01*
X140940586Y-98325430D01*
X140970000Y-98334986D01*
X141986000Y-98334986D01*
X142015413Y-98325430D01*
X142211760Y-98225386D01*
X142220537Y-98219009D01*
X145704000Y-98219009D01*
X145704000Y-98376991D01*
X145744889Y-98529591D01*
X145823881Y-98666408D01*
X145935592Y-98778119D01*
X146072409Y-98857111D01*
X146225009Y-98898000D01*
X146382991Y-98898000D01*
X146535591Y-98857111D01*
X146672408Y-98778119D01*
X146784119Y-98666408D01*
X146812000Y-98618117D01*
X146812000Y-99707687D01*
X146861566Y-99691583D01*
X147065276Y-99587788D01*
X147250242Y-99453402D01*
X147411905Y-99291739D01*
X147473371Y-99207137D01*
X147528701Y-99164470D01*
X147598314Y-99158491D01*
X147660109Y-99191096D01*
X147674007Y-99207134D01*
X147735714Y-99292066D01*
X147897434Y-99453786D01*
X148082462Y-99588217D01*
X148213639Y-99655055D01*
X148286244Y-99692049D01*
X148503751Y-99762721D01*
X148503752Y-99762721D01*
X148503755Y-99762722D01*
X148729646Y-99798500D01*
X148729647Y-99798500D01*
X148958353Y-99798500D01*
X148958354Y-99798500D01*
X149184245Y-99762722D01*
X149184248Y-99762721D01*
X149184249Y-99762721D01*
X149401755Y-99692049D01*
X149401755Y-99692048D01*
X149401758Y-99692048D01*
X149605538Y-99588217D01*
X149788245Y-99455472D01*
X149854046Y-99431994D01*
X149922100Y-99447819D01*
X149970795Y-99497924D01*
X149977308Y-99512459D01*
X149987702Y-99540328D01*
X149987706Y-99540335D01*
X150073952Y-99655544D01*
X150073955Y-99655547D01*
X150189164Y-99741793D01*
X150189171Y-99741797D01*
X150324017Y-99792091D01*
X150324016Y-99792091D01*
X150330944Y-99792835D01*
X150383627Y-99798500D01*
X152384372Y-99798499D01*
X152443983Y-99792091D01*
X152578831Y-99741796D01*
X152694046Y-99655546D01*
X152780296Y-99540331D01*
X152830591Y-99405483D01*
X152837000Y-99345873D01*
X152836999Y-97250128D01*
X152830591Y-97190517D01*
X152811945Y-97140525D01*
X152793513Y-97091105D01*
X152780297Y-97055671D01*
X152780293Y-97055664D01*
X152778028Y-97052638D01*
X161932500Y-97052638D01*
X161932500Y-97271361D01*
X161966714Y-97487376D01*
X162034297Y-97695380D01*
X162034298Y-97695383D01*
X162133595Y-97890260D01*
X162262142Y-98067193D01*
X162416806Y-98221857D01*
X162559365Y-98325430D01*
X162593743Y-98350407D01*
X162721132Y-98415315D01*
X162788616Y-98449701D01*
X162788619Y-98449702D01*
X162957484Y-98504569D01*
X163015159Y-98544006D01*
X163042358Y-98608365D01*
X163030444Y-98677211D01*
X162983200Y-98728687D01*
X162957484Y-98740431D01*
X162788619Y-98795297D01*
X162788616Y-98795298D01*
X162593739Y-98894595D01*
X162416806Y-99023142D01*
X162262142Y-99177806D01*
X162133595Y-99354739D01*
X162034298Y-99549616D01*
X162034297Y-99549619D01*
X161966714Y-99757623D01*
X161932500Y-99973638D01*
X161932500Y-100192361D01*
X161966714Y-100408376D01*
X162034297Y-100616380D01*
X162034298Y-100616383D01*
X162133595Y-100811260D01*
X162262142Y-100988193D01*
X162416806Y-101142857D01*
X162582374Y-101263147D01*
X162593743Y-101271407D01*
X162719465Y-101335466D01*
X162788616Y-101370701D01*
X162788619Y-101370702D01*
X162957484Y-101425569D01*
X163015159Y-101465006D01*
X163042358Y-101529365D01*
X163030444Y-101598211D01*
X162983200Y-101649687D01*
X162957484Y-101661431D01*
X162788619Y-101716297D01*
X162788616Y-101716298D01*
X162593739Y-101815595D01*
X162416806Y-101944142D01*
X162262142Y-102098806D01*
X162133595Y-102275739D01*
X162034298Y-102470616D01*
X162034297Y-102470619D01*
X161966714Y-102678623D01*
X161932500Y-102894638D01*
X161932500Y-103113361D01*
X161966714Y-103329376D01*
X162034297Y-103537380D01*
X162034298Y-103537383D01*
X162086848Y-103640516D01*
X162122493Y-103710473D01*
X162133595Y-103732260D01*
X162262142Y-103909193D01*
X162416806Y-104063857D01*
X162570401Y-104175448D01*
X162593743Y-104192407D01*
X162721132Y-104257315D01*
X162788616Y-104291701D01*
X162788619Y-104291702D01*
X162892621Y-104325493D01*
X162996625Y-104359286D01*
X163096672Y-104375132D01*
X163212639Y-104393500D01*
X163212644Y-104393500D01*
X163431361Y-104393500D01*
X163536082Y-104376912D01*
X163647375Y-104359286D01*
X163855383Y-104291701D01*
X164050257Y-104192407D01*
X164149601Y-104120229D01*
X164227193Y-104063857D01*
X164227195Y-104063854D01*
X164227199Y-104063852D01*
X164381852Y-103909199D01*
X164381854Y-103909195D01*
X164381857Y-103909193D01*
X164472460Y-103784487D01*
X164510407Y-103732257D01*
X164609701Y-103537383D01*
X164610390Y-103535264D01*
X164651770Y-103407905D01*
X164677286Y-103329375D01*
X164698537Y-103195201D01*
X164711500Y-103113361D01*
X164711500Y-102894638D01*
X164690598Y-102762676D01*
X164677286Y-102678625D01*
X164609701Y-102470617D01*
X164609701Y-102470616D01*
X164546493Y-102346566D01*
X164510407Y-102275743D01*
X164502147Y-102264374D01*
X164381857Y-102098806D01*
X164227193Y-101944142D01*
X164050260Y-101815595D01*
X164050259Y-101815594D01*
X164050257Y-101815593D01*
X163987825Y-101783782D01*
X163855383Y-101716298D01*
X163855380Y-101716297D01*
X163686515Y-101661431D01*
X163628840Y-101621994D01*
X163601641Y-101557636D01*
X163613555Y-101488789D01*
X163660799Y-101437313D01*
X163686515Y-101425569D01*
X163855380Y-101370702D01*
X163855383Y-101370701D01*
X164050257Y-101271407D01*
X164189256Y-101170419D01*
X164227193Y-101142857D01*
X164227195Y-101142854D01*
X164227199Y-101142852D01*
X164381852Y-100988199D01*
X164381854Y-100988195D01*
X164381857Y-100988193D01*
X164450560Y-100893630D01*
X164510407Y-100811257D01*
X164609701Y-100616383D01*
X164677286Y-100408375D01*
X164700368Y-100262643D01*
X164711500Y-100192361D01*
X164711500Y-99973638D01*
X164683760Y-99798500D01*
X164677286Y-99757625D01*
X164622243Y-99588217D01*
X164609702Y-99549619D01*
X164609701Y-99549616D01*
X164560871Y-99453783D01*
X164510407Y-99354743D01*
X164480334Y-99313351D01*
X164381857Y-99177806D01*
X164227193Y-99023142D01*
X164050260Y-98894595D01*
X164050259Y-98894594D01*
X164050257Y-98894593D01*
X163976695Y-98857111D01*
X163855383Y-98795298D01*
X163855380Y-98795297D01*
X163686515Y-98740431D01*
X163628840Y-98700994D01*
X163601641Y-98636636D01*
X163613555Y-98567789D01*
X163660799Y-98516313D01*
X163686515Y-98504569D01*
X163855380Y-98449702D01*
X163855383Y-98449701D01*
X164050257Y-98350407D01*
X164149601Y-98278229D01*
X164227193Y-98221857D01*
X164227195Y-98221854D01*
X164227199Y-98221852D01*
X164381852Y-98067199D01*
X164381854Y-98067195D01*
X164381857Y-98067193D01*
X164474237Y-97940041D01*
X164510407Y-97890257D01*
X164609701Y-97695383D01*
X164677286Y-97487375D01*
X164694912Y-97376082D01*
X164711500Y-97271361D01*
X164711500Y-97052638D01*
X164688023Y-96904417D01*
X164677286Y-96836625D01*
X164609701Y-96628617D01*
X164609701Y-96628616D01*
X164539368Y-96490582D01*
X164510407Y-96433743D01*
X164482793Y-96395735D01*
X164381857Y-96256806D01*
X164227193Y-96102142D01*
X164050260Y-95973595D01*
X164050259Y-95973594D01*
X164050257Y-95973593D01*
X163983346Y-95939500D01*
X163855383Y-95874298D01*
X163855380Y-95874297D01*
X163647376Y-95806714D01*
X163431361Y-95772500D01*
X163431356Y-95772500D01*
X163212644Y-95772500D01*
X163212639Y-95772500D01*
X162996623Y-95806714D01*
X162788619Y-95874297D01*
X162788616Y-95874298D01*
X162593739Y-95973595D01*
X162416806Y-96102142D01*
X162262142Y-96256806D01*
X162133595Y-96433739D01*
X162034298Y-96628616D01*
X162034297Y-96628619D01*
X161966714Y-96836623D01*
X161932500Y-97052638D01*
X152778028Y-97052638D01*
X152694047Y-96940455D01*
X152694044Y-96940452D01*
X152578835Y-96854206D01*
X152578828Y-96854202D01*
X152443982Y-96803908D01*
X152443983Y-96803908D01*
X152384383Y-96797501D01*
X152384381Y-96797500D01*
X152384373Y-96797500D01*
X152384364Y-96797500D01*
X150383629Y-96797500D01*
X150383623Y-96797501D01*
X150324016Y-96803908D01*
X150189171Y-96854202D01*
X150189164Y-96854206D01*
X150073955Y-96940452D01*
X150073952Y-96940455D01*
X149987706Y-97055664D01*
X149987703Y-97055670D01*
X149977308Y-97083541D01*
X149935436Y-97139474D01*
X149869972Y-97163891D01*
X149801699Y-97149039D01*
X149788250Y-97140531D01*
X149605538Y-97007783D01*
X149401755Y-96903950D01*
X149184248Y-96833278D01*
X148997442Y-96803691D01*
X148958354Y-96797500D01*
X148729646Y-96797500D01*
X148690558Y-96803691D01*
X148503753Y-96833278D01*
X148503750Y-96833278D01*
X148286244Y-96903950D01*
X148082461Y-97007783D01*
X148016551Y-97055670D01*
X147897434Y-97142214D01*
X147897432Y-97142216D01*
X147897431Y-97142216D01*
X147735716Y-97303931D01*
X147735709Y-97303940D01*
X147674007Y-97388864D01*
X147618677Y-97431530D01*
X147549063Y-97437508D01*
X147487269Y-97404901D01*
X147473372Y-97388863D01*
X147411907Y-97304263D01*
X147411902Y-97304257D01*
X147250242Y-97142597D01*
X147065276Y-97008211D01*
X146861568Y-96904417D01*
X146812000Y-96888311D01*
X146812000Y-97977882D01*
X146784119Y-97929592D01*
X146672408Y-97817881D01*
X146535591Y-97738889D01*
X146382991Y-97698000D01*
X146225009Y-97698000D01*
X146072409Y-97738889D01*
X145935592Y-97817881D01*
X145823881Y-97929592D01*
X145744889Y-98066409D01*
X145704000Y-98219009D01*
X142220537Y-98219009D01*
X142390041Y-98095857D01*
X142545857Y-97940041D01*
X142654868Y-97790000D01*
X144926377Y-97790000D01*
X145796000Y-97790000D01*
X145796000Y-96888311D01*
X145795999Y-96888311D01*
X145746431Y-96904417D01*
X145542723Y-97008211D01*
X145357757Y-97142597D01*
X145196097Y-97304257D01*
X145061711Y-97489223D01*
X144957917Y-97692929D01*
X144926377Y-97790000D01*
X142654868Y-97790000D01*
X142675386Y-97761760D01*
X142678588Y-97755477D01*
X142678588Y-97755476D01*
X142678589Y-97755475D01*
X142775429Y-97565417D01*
X142784987Y-97536000D01*
X141986000Y-97536000D01*
X141986000Y-98334986D01*
X140970000Y-98334986D01*
X140970000Y-97536000D01*
X140171013Y-97536000D01*
X121002752Y-97536000D01*
X120435508Y-96968756D01*
X141028000Y-96968756D01*
X141028000Y-97087244D01*
X141058667Y-97201694D01*
X141117910Y-97304306D01*
X141201694Y-97388090D01*
X141304306Y-97447333D01*
X141418756Y-97478000D01*
X141537244Y-97478000D01*
X141651694Y-97447333D01*
X141754306Y-97388090D01*
X141838090Y-97304306D01*
X141897333Y-97201694D01*
X141928000Y-97087244D01*
X141928000Y-96968756D01*
X141897333Y-96854306D01*
X141838090Y-96751694D01*
X141754306Y-96667910D01*
X141651694Y-96608667D01*
X141537244Y-96578000D01*
X141418756Y-96578000D01*
X141304306Y-96608667D01*
X141201694Y-96667910D01*
X141117910Y-96751694D01*
X141058667Y-96854306D01*
X141028000Y-96968756D01*
X120435508Y-96968756D01*
X118101395Y-94634643D01*
X120301900Y-94634643D01*
X120301900Y-94849356D01*
X120335489Y-95061428D01*
X120401837Y-95265630D01*
X120401838Y-95265633D01*
X120486513Y-95431815D01*
X120499317Y-95456944D01*
X120625523Y-95630651D01*
X120777349Y-95782477D01*
X120951056Y-95908683D01*
X121011538Y-95939500D01*
X121142366Y-96006161D01*
X121142369Y-96006162D01*
X121227881Y-96033946D01*
X121346573Y-96072511D01*
X121558643Y-96106100D01*
X121558644Y-96106100D01*
X121773356Y-96106100D01*
X121773357Y-96106100D01*
X121985427Y-96072511D01*
X122189633Y-96006161D01*
X122380944Y-95908683D01*
X122554651Y-95782477D01*
X122706477Y-95630651D01*
X122832683Y-95456944D01*
X122930161Y-95265633D01*
X122996511Y-95061427D01*
X123030100Y-94849357D01*
X123030100Y-94634643D01*
X123014244Y-94534535D01*
X123847900Y-94534535D01*
X123847900Y-96357470D01*
X123847901Y-96357476D01*
X123854308Y-96417083D01*
X123904602Y-96551928D01*
X123904606Y-96551935D01*
X123990852Y-96667144D01*
X123990855Y-96667147D01*
X124106064Y-96753393D01*
X124106071Y-96753397D01*
X124240917Y-96803691D01*
X124240916Y-96803691D01*
X124247844Y-96804435D01*
X124300527Y-96810100D01*
X126123472Y-96810099D01*
X126183083Y-96803691D01*
X126317931Y-96753396D01*
X126433146Y-96667146D01*
X126519396Y-96551931D01*
X126563186Y-96434523D01*
X126605055Y-96378591D01*
X126670519Y-96354173D01*
X126738792Y-96369024D01*
X126767048Y-96390176D01*
X126863349Y-96486477D01*
X127037056Y-96612683D01*
X127130888Y-96660492D01*
X127228366Y-96710161D01*
X127228369Y-96710162D01*
X127330470Y-96743336D01*
X127432573Y-96776511D01*
X127644643Y-96810100D01*
X127644644Y-96810100D01*
X127859356Y-96810100D01*
X127859357Y-96810100D01*
X128071427Y-96776511D01*
X128275633Y-96710161D01*
X128466944Y-96612683D01*
X128640651Y-96486477D01*
X128792477Y-96334651D01*
X128918683Y-96160944D01*
X128918683Y-96160943D01*
X128921547Y-96157002D01*
X128923478Y-96158405D01*
X128967927Y-96118078D01*
X129036840Y-96106558D01*
X129101042Y-96134125D01*
X129121478Y-96157709D01*
X129122453Y-96157002D01*
X129125316Y-96160943D01*
X129125317Y-96160944D01*
X129251523Y-96334651D01*
X129403349Y-96486477D01*
X129577056Y-96612683D01*
X129670888Y-96660492D01*
X129768366Y-96710161D01*
X129768369Y-96710162D01*
X129870470Y-96743336D01*
X129972573Y-96776511D01*
X130184643Y-96810100D01*
X130184644Y-96810100D01*
X130399356Y-96810100D01*
X130399357Y-96810100D01*
X130611427Y-96776511D01*
X130815633Y-96710161D01*
X131006944Y-96612683D01*
X131134511Y-96520000D01*
X140171013Y-96520000D01*
X140970000Y-96520000D01*
X141986000Y-96520000D01*
X142784987Y-96520000D01*
X142775429Y-96490582D01*
X142675386Y-96294239D01*
X142545857Y-96115958D01*
X142390041Y-95960142D01*
X142211760Y-95830613D01*
X142015417Y-95730570D01*
X141986000Y-95721012D01*
X141986000Y-96520000D01*
X140970000Y-96520000D01*
X140970000Y-95721012D01*
X140940582Y-95730570D01*
X140744239Y-95830613D01*
X140565958Y-95960142D01*
X140410142Y-96115958D01*
X140280613Y-96294239D01*
X140180570Y-96490582D01*
X140171013Y-96520000D01*
X131134511Y-96520000D01*
X131180651Y-96486477D01*
X131332477Y-96334651D01*
X131458683Y-96160944D01*
X131556161Y-95969633D01*
X131622511Y-95765427D01*
X131656100Y-95553357D01*
X131656100Y-95338643D01*
X131622511Y-95126573D01*
X131556161Y-94922367D01*
X131556161Y-94922366D01*
X131479344Y-94771606D01*
X131458683Y-94731056D01*
X131332477Y-94557349D01*
X131180651Y-94405523D01*
X131006944Y-94279317D01*
X130900051Y-94224852D01*
X130815633Y-94181838D01*
X130815630Y-94181837D01*
X130636939Y-94123778D01*
X151507500Y-94123778D01*
X151507500Y-94344222D01*
X151519909Y-94422571D01*
X151541985Y-94561952D01*
X151610103Y-94771603D01*
X151610104Y-94771606D01*
X151678122Y-94905096D01*
X151686923Y-94922369D01*
X151710187Y-94968025D01*
X151839752Y-95146358D01*
X151839756Y-95146363D01*
X151995636Y-95302243D01*
X151995641Y-95302247D01*
X152151192Y-95415260D01*
X152173978Y-95431815D01*
X152302375Y-95497237D01*
X152370393Y-95531895D01*
X152370396Y-95531896D01*
X152436445Y-95553356D01*
X152580049Y-95600015D01*
X152797778Y-95634500D01*
X152797779Y-95634500D01*
X153018221Y-95634500D01*
X153018222Y-95634500D01*
X153235951Y-95600015D01*
X153445606Y-95531895D01*
X153642022Y-95431815D01*
X153820365Y-95302242D01*
X153976242Y-95146365D01*
X154105815Y-94968022D01*
X154205895Y-94771606D01*
X154274015Y-94561951D01*
X154308500Y-94344222D01*
X154308500Y-94123778D01*
X154274015Y-93906049D01*
X154207562Y-93701525D01*
X154205896Y-93696396D01*
X154205893Y-93696388D01*
X154129300Y-93546069D01*
X154129299Y-93546068D01*
X154105815Y-93499978D01*
X154101940Y-93494645D01*
X161170500Y-93494645D01*
X161170500Y-93717354D01*
X161205340Y-93937324D01*
X161205340Y-93937327D01*
X161274159Y-94149130D01*
X161312743Y-94224855D01*
X161375269Y-94347569D01*
X161506175Y-94527745D01*
X161663655Y-94685225D01*
X161843831Y-94816131D01*
X161909041Y-94849357D01*
X162042269Y-94917240D01*
X162254073Y-94986059D01*
X162254074Y-94986059D01*
X162254077Y-94986060D01*
X162474045Y-95020900D01*
X162474046Y-95020900D01*
X164169954Y-95020900D01*
X164169955Y-95020900D01*
X164389923Y-94986060D01*
X164389926Y-94986059D01*
X164389927Y-94986059D01*
X164601730Y-94917240D01*
X164601730Y-94917239D01*
X164601733Y-94917239D01*
X164800169Y-94816131D01*
X164980345Y-94685225D01*
X165137825Y-94527745D01*
X165268731Y-94347569D01*
X165369839Y-94149133D01*
X165409504Y-94027056D01*
X165438659Y-93937327D01*
X165438659Y-93937326D01*
X165438660Y-93937323D01*
X165473500Y-93717355D01*
X165473500Y-93494645D01*
X165438660Y-93274677D01*
X165438659Y-93274673D01*
X165438659Y-93274672D01*
X165369840Y-93062869D01*
X165356244Y-93036185D01*
X165268731Y-92864431D01*
X165137825Y-92684255D01*
X164980345Y-92526775D01*
X164800169Y-92395869D01*
X164769662Y-92380325D01*
X164601730Y-92294759D01*
X164389926Y-92225940D01*
X164224947Y-92199810D01*
X164169955Y-92191100D01*
X162474045Y-92191100D01*
X162400722Y-92202713D01*
X162254075Y-92225940D01*
X162254072Y-92225940D01*
X162042269Y-92294759D01*
X161843830Y-92395869D01*
X161741033Y-92470556D01*
X161663655Y-92526775D01*
X161663653Y-92526777D01*
X161663652Y-92526777D01*
X161506177Y-92684252D01*
X161506177Y-92684253D01*
X161506175Y-92684255D01*
X161491712Y-92704162D01*
X161375269Y-92864430D01*
X161274159Y-93062869D01*
X161205340Y-93274672D01*
X161205340Y-93274675D01*
X161170500Y-93494645D01*
X154101940Y-93494645D01*
X154056822Y-93432544D01*
X153976247Y-93321641D01*
X153976243Y-93321636D01*
X153820363Y-93165756D01*
X153820358Y-93165752D01*
X153642025Y-93036187D01*
X153642024Y-93036186D01*
X153642022Y-93036185D01*
X153579096Y-93004122D01*
X153445606Y-92936104D01*
X153445603Y-92936103D01*
X153235952Y-92867985D01*
X153127086Y-92850742D01*
X153018222Y-92833500D01*
X152797778Y-92833500D01*
X152725201Y-92844995D01*
X152580047Y-92867985D01*
X152370396Y-92936103D01*
X152370393Y-92936104D01*
X152173974Y-93036187D01*
X151995641Y-93165752D01*
X151995636Y-93165756D01*
X151839756Y-93321636D01*
X151839752Y-93321641D01*
X151710187Y-93499974D01*
X151610104Y-93696393D01*
X151610103Y-93696396D01*
X151541985Y-93906047D01*
X151537031Y-93937327D01*
X151507500Y-94123778D01*
X130636939Y-94123778D01*
X130611428Y-94115489D01*
X130439821Y-94088309D01*
X130399357Y-94081900D01*
X130184643Y-94081900D01*
X130144185Y-94088308D01*
X129972571Y-94115489D01*
X129768369Y-94181837D01*
X129768366Y-94181838D01*
X129577055Y-94279317D01*
X129477949Y-94351322D01*
X129403349Y-94405523D01*
X129403347Y-94405525D01*
X129403346Y-94405525D01*
X129251525Y-94557346D01*
X129251525Y-94557347D01*
X129251523Y-94557349D01*
X129158615Y-94685225D01*
X129122453Y-94734998D01*
X129120562Y-94733624D01*
X129075848Y-94774030D01*
X129006911Y-94785411D01*
X128942765Y-94757715D01*
X128922488Y-94734314D01*
X128921547Y-94734998D01*
X128918682Y-94731055D01*
X128792477Y-94557349D01*
X128640651Y-94405523D01*
X128466944Y-94279317D01*
X128275633Y-94181838D01*
X128275630Y-94181837D01*
X128071428Y-94115489D01*
X127899821Y-94088309D01*
X127859357Y-94081900D01*
X127644643Y-94081900D01*
X127604185Y-94088308D01*
X127432571Y-94115489D01*
X127228369Y-94181837D01*
X127228366Y-94181838D01*
X127037055Y-94279317D01*
X126863350Y-94405522D01*
X126767048Y-94501824D01*
X126705724Y-94535308D01*
X126636033Y-94530324D01*
X126580100Y-94488452D01*
X126563185Y-94457474D01*
X126519398Y-94340073D01*
X126519393Y-94340064D01*
X126433147Y-94224855D01*
X126433144Y-94224852D01*
X126317935Y-94138606D01*
X126317928Y-94138602D01*
X126183082Y-94088308D01*
X126183083Y-94088308D01*
X126123483Y-94081901D01*
X126123481Y-94081900D01*
X126123473Y-94081900D01*
X126123464Y-94081900D01*
X124300529Y-94081900D01*
X124300523Y-94081901D01*
X124240916Y-94088308D01*
X124106071Y-94138602D01*
X124106064Y-94138606D01*
X123990855Y-94224852D01*
X123990852Y-94224855D01*
X123904606Y-94340064D01*
X123904602Y-94340071D01*
X123854308Y-94474917D01*
X123847901Y-94534516D01*
X123847900Y-94534535D01*
X123014244Y-94534535D01*
X122996511Y-94422573D01*
X122930161Y-94218367D01*
X122930161Y-94218366D01*
X122863893Y-94088309D01*
X122832683Y-94027056D01*
X122706477Y-93853349D01*
X122554651Y-93701523D01*
X122380944Y-93575317D01*
X122323540Y-93546068D01*
X122189633Y-93477838D01*
X122189630Y-93477837D01*
X121985428Y-93411489D01*
X121879392Y-93394694D01*
X121773357Y-93377900D01*
X121558643Y-93377900D01*
X121487953Y-93389096D01*
X121346571Y-93411489D01*
X121142369Y-93477837D01*
X121142366Y-93477838D01*
X120951055Y-93575317D01*
X120851949Y-93647322D01*
X120777349Y-93701523D01*
X120777347Y-93701525D01*
X120777346Y-93701525D01*
X120625525Y-93853346D01*
X120625525Y-93853347D01*
X120625523Y-93853349D01*
X120587236Y-93906047D01*
X120499317Y-94027055D01*
X120401838Y-94218366D01*
X120401837Y-94218369D01*
X120335489Y-94422571D01*
X120301900Y-94634643D01*
X118101395Y-94634643D01*
X115243219Y-91776467D01*
X115209734Y-91715144D01*
X115206900Y-91688786D01*
X115206900Y-90996590D01*
X115226585Y-90929551D01*
X115243219Y-90908909D01*
X115340477Y-90811651D01*
X115466683Y-90637944D01*
X115564161Y-90446633D01*
X115630511Y-90242427D01*
X115664100Y-90030357D01*
X115664100Y-89002843D01*
X118730900Y-89002843D01*
X118730900Y-90030356D01*
X118764489Y-90242428D01*
X118830837Y-90446630D01*
X118830838Y-90446633D01*
X118915021Y-90611849D01*
X118928317Y-90637944D01*
X119054523Y-90811651D01*
X119206349Y-90963477D01*
X119380056Y-91089683D01*
X119440677Y-91120571D01*
X119571366Y-91187161D01*
X119571369Y-91187162D01*
X119673470Y-91220336D01*
X119775573Y-91253511D01*
X119987643Y-91287100D01*
X119987644Y-91287100D01*
X120202356Y-91287100D01*
X120202357Y-91287100D01*
X120414427Y-91253511D01*
X120618633Y-91187161D01*
X120809944Y-91089683D01*
X120983651Y-90963477D01*
X121135477Y-90811651D01*
X121244683Y-90661342D01*
X121300012Y-90618678D01*
X121369625Y-90612699D01*
X121431420Y-90645305D01*
X121445314Y-90661338D01*
X121554523Y-90811651D01*
X121706349Y-90963477D01*
X121880056Y-91089683D01*
X121940677Y-91120571D01*
X122071366Y-91187161D01*
X122071369Y-91187162D01*
X122173470Y-91220336D01*
X122275573Y-91253511D01*
X122487643Y-91287100D01*
X122487644Y-91287100D01*
X122702356Y-91287100D01*
X122702357Y-91287100D01*
X122914427Y-91253511D01*
X123118633Y-91187161D01*
X123309944Y-91089683D01*
X123483651Y-90963477D01*
X123635477Y-90811651D01*
X123761683Y-90637944D01*
X123859161Y-90446633D01*
X123925511Y-90242427D01*
X123959100Y-90030357D01*
X123959100Y-89432828D01*
X124244500Y-89432828D01*
X124244500Y-89600371D01*
X124277182Y-89764674D01*
X124277184Y-89764682D01*
X124341295Y-89919460D01*
X124434373Y-90058762D01*
X124552837Y-90177226D01*
X124583889Y-90197974D01*
X124692137Y-90270303D01*
X124846918Y-90334416D01*
X125011228Y-90367099D01*
X125011232Y-90367100D01*
X125011233Y-90367100D01*
X125178768Y-90367100D01*
X125178769Y-90367099D01*
X125343082Y-90334416D01*
X125497863Y-90270303D01*
X125637162Y-90177226D01*
X125755626Y-90058762D01*
X125848703Y-89919463D01*
X125912816Y-89764682D01*
X125945500Y-89600367D01*
X125945500Y-89432833D01*
X125912816Y-89268518D01*
X125848703Y-89113737D01*
X125774606Y-89002843D01*
X126230900Y-89002843D01*
X126230900Y-90030356D01*
X126264489Y-90242428D01*
X126330837Y-90446630D01*
X126330838Y-90446633D01*
X126415021Y-90611849D01*
X126428317Y-90637944D01*
X126554523Y-90811651D01*
X126706349Y-90963477D01*
X126880056Y-91089683D01*
X126940677Y-91120571D01*
X127071366Y-91187161D01*
X127071369Y-91187162D01*
X127173470Y-91220336D01*
X127275573Y-91253511D01*
X127487643Y-91287100D01*
X127487644Y-91287100D01*
X127702356Y-91287100D01*
X127702357Y-91287100D01*
X127914427Y-91253511D01*
X128118633Y-91187161D01*
X128309944Y-91089683D01*
X128483651Y-90963477D01*
X128635477Y-90811651D01*
X128744683Y-90661342D01*
X128800012Y-90618678D01*
X128869625Y-90612699D01*
X128931420Y-90645305D01*
X128945314Y-90661338D01*
X129054523Y-90811651D01*
X129206349Y-90963477D01*
X129380056Y-91089683D01*
X129440677Y-91120571D01*
X129571366Y-91187161D01*
X129571369Y-91187162D01*
X129673470Y-91220336D01*
X129775573Y-91253511D01*
X129987643Y-91287100D01*
X129987644Y-91287100D01*
X130202356Y-91287100D01*
X130202357Y-91287100D01*
X130414427Y-91253511D01*
X130618633Y-91187161D01*
X130809944Y-91089683D01*
X130983651Y-90963477D01*
X131125350Y-90821778D01*
X132664500Y-90821778D01*
X132664500Y-91042221D01*
X132698985Y-91259952D01*
X132767103Y-91469603D01*
X132767104Y-91469606D01*
X132867187Y-91666025D01*
X132996752Y-91844358D01*
X132996756Y-91844363D01*
X133152636Y-92000243D01*
X133152641Y-92000247D01*
X133188743Y-92026476D01*
X133330978Y-92129815D01*
X133451255Y-92191100D01*
X133527393Y-92229895D01*
X133527396Y-92229896D01*
X133632221Y-92263955D01*
X133737049Y-92298015D01*
X133954778Y-92332500D01*
X133954779Y-92332500D01*
X134175221Y-92332500D01*
X134175222Y-92332500D01*
X134392951Y-92298015D01*
X134602606Y-92229895D01*
X134799022Y-92129815D01*
X134977365Y-92000242D01*
X135133242Y-91844365D01*
X135262815Y-91666022D01*
X135362895Y-91469606D01*
X135431015Y-91259951D01*
X135465500Y-91042222D01*
X135465500Y-90821778D01*
X135431015Y-90604049D01*
X135364562Y-90399525D01*
X135362896Y-90394396D01*
X135362895Y-90394393D01*
X135315667Y-90301705D01*
X135262815Y-90197978D01*
X135244330Y-90172536D01*
X135133247Y-90019641D01*
X135133243Y-90019636D01*
X134977363Y-89863756D01*
X134977358Y-89863752D01*
X134799025Y-89734187D01*
X134799024Y-89734186D01*
X134799022Y-89734185D01*
X134736096Y-89702122D01*
X134602606Y-89634104D01*
X134602603Y-89634103D01*
X134392952Y-89565985D01*
X134284086Y-89548742D01*
X134175222Y-89531500D01*
X133954778Y-89531500D01*
X133882201Y-89542995D01*
X133737047Y-89565985D01*
X133527396Y-89634103D01*
X133527393Y-89634104D01*
X133330974Y-89734187D01*
X133152641Y-89863752D01*
X133152636Y-89863756D01*
X132996756Y-90019636D01*
X132996752Y-90019641D01*
X132867187Y-90197974D01*
X132767104Y-90394393D01*
X132767103Y-90394396D01*
X132698985Y-90604047D01*
X132664500Y-90821778D01*
X131125350Y-90821778D01*
X131135477Y-90811651D01*
X131261683Y-90637944D01*
X131359161Y-90446633D01*
X131425511Y-90242427D01*
X131459100Y-90030357D01*
X131459100Y-89002843D01*
X131425511Y-88790773D01*
X131359161Y-88586567D01*
X131359161Y-88586566D01*
X131309492Y-88489088D01*
X131261683Y-88395256D01*
X131135477Y-88221549D01*
X130983651Y-88069723D01*
X130828367Y-87956902D01*
X139749500Y-87956902D01*
X139749500Y-90393097D01*
X139786446Y-90626368D01*
X139859433Y-90850996D01*
X139966657Y-91061433D01*
X140105483Y-91252510D01*
X140272490Y-91419517D01*
X140463567Y-91558343D01*
X140562991Y-91609002D01*
X140674003Y-91665566D01*
X140674005Y-91665566D01*
X140674008Y-91665568D01*
X140794412Y-91704689D01*
X140898631Y-91738553D01*
X141131903Y-91775500D01*
X141131908Y-91775500D01*
X141368097Y-91775500D01*
X141601368Y-91738553D01*
X141673413Y-91715144D01*
X141825992Y-91665568D01*
X142036433Y-91558343D01*
X142227510Y-91419517D01*
X142394517Y-91252510D01*
X142533343Y-91061433D01*
X142550818Y-91027135D01*
X143249500Y-91027135D01*
X143249500Y-93122870D01*
X143249501Y-93122876D01*
X143255908Y-93182483D01*
X143306202Y-93317328D01*
X143306206Y-93317335D01*
X143392452Y-93432544D01*
X143392455Y-93432547D01*
X143507664Y-93518793D01*
X143507671Y-93518797D01*
X143642517Y-93569091D01*
X143642516Y-93569091D01*
X143649444Y-93569835D01*
X143702127Y-93575500D01*
X148397872Y-93575499D01*
X148457483Y-93569091D01*
X148592331Y-93518796D01*
X148707546Y-93432546D01*
X148793796Y-93317331D01*
X148844091Y-93182483D01*
X148850500Y-93122873D01*
X148850499Y-91027128D01*
X148844091Y-90967517D01*
X148842584Y-90963477D01*
X148793797Y-90832671D01*
X148793793Y-90832664D01*
X148707547Y-90717455D01*
X148707544Y-90717452D01*
X148592335Y-90631206D01*
X148592328Y-90631202D01*
X148457482Y-90580908D01*
X148457483Y-90580908D01*
X148397883Y-90574501D01*
X148397881Y-90574500D01*
X148397873Y-90574500D01*
X148397864Y-90574500D01*
X143702129Y-90574500D01*
X143702123Y-90574501D01*
X143642516Y-90580908D01*
X143507671Y-90631202D01*
X143507664Y-90631206D01*
X143392455Y-90717452D01*
X143392452Y-90717455D01*
X143306206Y-90832664D01*
X143306202Y-90832671D01*
X143255908Y-90967517D01*
X143252783Y-90996590D01*
X143249501Y-91027123D01*
X143249500Y-91027135D01*
X142550818Y-91027135D01*
X142568251Y-90992920D01*
X142581199Y-90967511D01*
X142640566Y-90850996D01*
X142640566Y-90850995D01*
X142640568Y-90850992D01*
X142713553Y-90626368D01*
X142725435Y-90551346D01*
X142750500Y-90393097D01*
X142750500Y-87956902D01*
X142713553Y-87723631D01*
X142640566Y-87499003D01*
X142533342Y-87288566D01*
X142523849Y-87275500D01*
X142394517Y-87097490D01*
X142227510Y-86930483D01*
X142036433Y-86791657D01*
X141959603Y-86752510D01*
X141825996Y-86684433D01*
X141601368Y-86611446D01*
X141368097Y-86574500D01*
X141368092Y-86574500D01*
X141131908Y-86574500D01*
X141131903Y-86574500D01*
X140898631Y-86611446D01*
X140674003Y-86684433D01*
X140463566Y-86791657D01*
X140354550Y-86870862D01*
X140272490Y-86930483D01*
X140272488Y-86930485D01*
X140272487Y-86930485D01*
X140105485Y-87097487D01*
X140105485Y-87097488D01*
X140105483Y-87097490D01*
X140056023Y-87165566D01*
X139966657Y-87288566D01*
X139859433Y-87499003D01*
X139786446Y-87723631D01*
X139749500Y-87956902D01*
X130828367Y-87956902D01*
X130809944Y-87943517D01*
X130618633Y-87846038D01*
X130618630Y-87846037D01*
X130414428Y-87779689D01*
X130253908Y-87754265D01*
X130202357Y-87746100D01*
X129987643Y-87746100D01*
X129936092Y-87754265D01*
X129775571Y-87779689D01*
X129571369Y-87846037D01*
X129571366Y-87846038D01*
X129380055Y-87943517D01*
X129360401Y-87957797D01*
X129206349Y-88069723D01*
X129206347Y-88069725D01*
X129206346Y-88069725D01*
X129054525Y-88221546D01*
X129054525Y-88221547D01*
X129054523Y-88221549D01*
X128969966Y-88337930D01*
X128945318Y-88371856D01*
X128889988Y-88414521D01*
X128820374Y-88420500D01*
X128758579Y-88387894D01*
X128744682Y-88371856D01*
X128734478Y-88357812D01*
X128635477Y-88221549D01*
X128483651Y-88069723D01*
X128309944Y-87943517D01*
X128118633Y-87846038D01*
X128118630Y-87846037D01*
X127914428Y-87779689D01*
X127753908Y-87754265D01*
X127702357Y-87746100D01*
X127487643Y-87746100D01*
X127436092Y-87754265D01*
X127275571Y-87779689D01*
X127071369Y-87846037D01*
X127071366Y-87846038D01*
X126880055Y-87943517D01*
X126860401Y-87957797D01*
X126706349Y-88069723D01*
X126706347Y-88069725D01*
X126706346Y-88069725D01*
X126554525Y-88221546D01*
X126554525Y-88221547D01*
X126554523Y-88221549D01*
X126500322Y-88296149D01*
X126428317Y-88395255D01*
X126330838Y-88586566D01*
X126330837Y-88586569D01*
X126264489Y-88790771D01*
X126230900Y-89002843D01*
X125774606Y-89002843D01*
X125755626Y-88974438D01*
X125755625Y-88974437D01*
X125755623Y-88974434D01*
X125637162Y-88855973D01*
X125497860Y-88762895D01*
X125343082Y-88698784D01*
X125343074Y-88698782D01*
X125178771Y-88666100D01*
X125178767Y-88666100D01*
X125011233Y-88666100D01*
X125011228Y-88666100D01*
X124846925Y-88698782D01*
X124846917Y-88698784D01*
X124692139Y-88762895D01*
X124552837Y-88855973D01*
X124434373Y-88974437D01*
X124341295Y-89113739D01*
X124277184Y-89268517D01*
X124277182Y-89268525D01*
X124244500Y-89432828D01*
X123959100Y-89432828D01*
X123959100Y-89002843D01*
X123925511Y-88790773D01*
X123859161Y-88586567D01*
X123859161Y-88586566D01*
X123809492Y-88489088D01*
X123761683Y-88395256D01*
X123635477Y-88221549D01*
X123483651Y-88069723D01*
X123309944Y-87943517D01*
X123118633Y-87846038D01*
X123118630Y-87846037D01*
X122914428Y-87779689D01*
X122753908Y-87754265D01*
X122702357Y-87746100D01*
X122487643Y-87746100D01*
X122436092Y-87754265D01*
X122275571Y-87779689D01*
X122071369Y-87846037D01*
X122071366Y-87846038D01*
X121880055Y-87943517D01*
X121860401Y-87957797D01*
X121706349Y-88069723D01*
X121706347Y-88069725D01*
X121706346Y-88069725D01*
X121554525Y-88221546D01*
X121554525Y-88221547D01*
X121554523Y-88221549D01*
X121469966Y-88337930D01*
X121445318Y-88371856D01*
X121389988Y-88414521D01*
X121320374Y-88420500D01*
X121258579Y-88387894D01*
X121244682Y-88371856D01*
X121234478Y-88357812D01*
X121135477Y-88221549D01*
X120983651Y-88069723D01*
X120809944Y-87943517D01*
X120618633Y-87846038D01*
X120618630Y-87846037D01*
X120414428Y-87779689D01*
X120253908Y-87754265D01*
X120202357Y-87746100D01*
X119987643Y-87746100D01*
X119936092Y-87754265D01*
X119775571Y-87779689D01*
X119571369Y-87846037D01*
X119571366Y-87846038D01*
X119380055Y-87943517D01*
X119360401Y-87957797D01*
X119206349Y-88069723D01*
X119206347Y-88069725D01*
X119206346Y-88069725D01*
X119054525Y-88221546D01*
X119054525Y-88221547D01*
X119054523Y-88221549D01*
X119000322Y-88296149D01*
X118928317Y-88395255D01*
X118830838Y-88586566D01*
X118830837Y-88586569D01*
X118764489Y-88790771D01*
X118730900Y-89002843D01*
X115664100Y-89002843D01*
X115630511Y-88790773D01*
X115564161Y-88586567D01*
X115564161Y-88586566D01*
X115514492Y-88489088D01*
X115466683Y-88395256D01*
X115340477Y-88221549D01*
X115188651Y-88069723D01*
X115014944Y-87943517D01*
X114823633Y-87846038D01*
X114823630Y-87846037D01*
X114619428Y-87779689D01*
X114458908Y-87754265D01*
X114407357Y-87746100D01*
X114192643Y-87746100D01*
X114141092Y-87754265D01*
X113980571Y-87779689D01*
X113776369Y-87846037D01*
X113776366Y-87846038D01*
X113585055Y-87943517D01*
X113565401Y-87957797D01*
X113411349Y-88069723D01*
X113411347Y-88069725D01*
X113411346Y-88069725D01*
X113259525Y-88221546D01*
X113259525Y-88221547D01*
X113259523Y-88221549D01*
X113174966Y-88337930D01*
X113150318Y-88371856D01*
X113094988Y-88414521D01*
X113025374Y-88420500D01*
X112963579Y-88387894D01*
X112949682Y-88371856D01*
X112939478Y-88357812D01*
X112840477Y-88221549D01*
X112688651Y-88069723D01*
X112514944Y-87943517D01*
X112323633Y-87846038D01*
X112323630Y-87846037D01*
X112119428Y-87779689D01*
X111958908Y-87754265D01*
X111907357Y-87746100D01*
X111692643Y-87746100D01*
X111641092Y-87754265D01*
X111480571Y-87779689D01*
X111276369Y-87846037D01*
X111276366Y-87846038D01*
X111085055Y-87943517D01*
X111065401Y-87957797D01*
X110911349Y-88069723D01*
X110911347Y-88069725D01*
X110911346Y-88069725D01*
X110759525Y-88221546D01*
X110759525Y-88221547D01*
X110759523Y-88221549D01*
X110705322Y-88296149D01*
X110633317Y-88395255D01*
X110535838Y-88586566D01*
X110535837Y-88586569D01*
X110469489Y-88790771D01*
X110435900Y-89002843D01*
X110435900Y-90030356D01*
X110469489Y-90242428D01*
X110535837Y-90446630D01*
X110535838Y-90446633D01*
X110620021Y-90611849D01*
X110633317Y-90637944D01*
X110759523Y-90811651D01*
X110911349Y-90963477D01*
X111085056Y-91089683D01*
X111145677Y-91120571D01*
X111276366Y-91187161D01*
X111276369Y-91187162D01*
X111378470Y-91220336D01*
X111480573Y-91253511D01*
X111692643Y-91287100D01*
X111692644Y-91287100D01*
X111907356Y-91287100D01*
X111907357Y-91287100D01*
X112119427Y-91253511D01*
X112323633Y-91187161D01*
X112514944Y-91089683D01*
X112688651Y-90963477D01*
X112840477Y-90811651D01*
X112949683Y-90661342D01*
X113005012Y-90618678D01*
X113074625Y-90612699D01*
X113136420Y-90645305D01*
X113150314Y-90661338D01*
X113259523Y-90811651D01*
X113259525Y-90811653D01*
X113356781Y-90908909D01*
X113390266Y-90970232D01*
X113393100Y-90996590D01*
X113393100Y-92026476D01*
X113393100Y-92205120D01*
X113393100Y-92205122D01*
X113393099Y-92205122D01*
X113427950Y-92380325D01*
X113427952Y-92380331D01*
X113496314Y-92545373D01*
X113496319Y-92545382D01*
X113595564Y-92693912D01*
X113595567Y-92693916D01*
X114067871Y-93166219D01*
X114101356Y-93227542D01*
X114096372Y-93297233D01*
X114054501Y-93353167D01*
X113989036Y-93377584D01*
X113980190Y-93377900D01*
X113938643Y-93377900D01*
X113867953Y-93389096D01*
X113726571Y-93411489D01*
X113522369Y-93477837D01*
X113522366Y-93477838D01*
X113331055Y-93575317D01*
X113231949Y-93647322D01*
X113157349Y-93701523D01*
X113157347Y-93701525D01*
X113157346Y-93701525D01*
X113005525Y-93853346D01*
X113005525Y-93853347D01*
X113005523Y-93853349D01*
X112967236Y-93906047D01*
X112879317Y-94027055D01*
X112781838Y-94218366D01*
X112781837Y-94218369D01*
X112715489Y-94422571D01*
X112681900Y-94634643D01*
X112681900Y-94849356D01*
X112715489Y-95061428D01*
X112781837Y-95265630D01*
X112781838Y-95265633D01*
X112866513Y-95431815D01*
X112879317Y-95456944D01*
X113005523Y-95630651D01*
X113157349Y-95782477D01*
X113331056Y-95908683D01*
X113391538Y-95939500D01*
X113522366Y-96006161D01*
X113522369Y-96006162D01*
X113607881Y-96033946D01*
X113726573Y-96072511D01*
X113938643Y-96106100D01*
X114076188Y-96106100D01*
X114143227Y-96125785D01*
X114163869Y-96142419D01*
X119960781Y-101939331D01*
X119994266Y-102000654D01*
X119997100Y-102027012D01*
X119997100Y-107189223D01*
X119977415Y-107256262D01*
X119945986Y-107289540D01*
X119916075Y-107311271D01*
X119916067Y-107311278D01*
X119747281Y-107480064D01*
X119747276Y-107480070D01*
X119734316Y-107497908D01*
X119678985Y-107540572D01*
X119609371Y-107546550D01*
X119547577Y-107513942D01*
X119533684Y-107497908D01*
X119523503Y-107483897D01*
X119520721Y-107480067D01*
X119351933Y-107311279D01*
X119158819Y-107170973D01*
X119008641Y-107094454D01*
X118946136Y-107062606D01*
X118946135Y-107062605D01*
X118946134Y-107062605D01*
X118719115Y-106988842D01*
X118719113Y-106988841D01*
X118719111Y-106988841D01*
X118523815Y-106957909D01*
X118483351Y-106951500D01*
X118244649Y-106951500D01*
X118204191Y-106957908D01*
X118008888Y-106988841D01*
X118008887Y-106988841D01*
X117781863Y-107062606D01*
X117569180Y-107170973D01*
X117506148Y-107216769D01*
X117376067Y-107311279D01*
X117376065Y-107311281D01*
X117376064Y-107311281D01*
X117207281Y-107480064D01*
X117207276Y-107480070D01*
X117194316Y-107497908D01*
X117138985Y-107540572D01*
X117069371Y-107546550D01*
X117007577Y-107513942D01*
X116993684Y-107497908D01*
X116983503Y-107483897D01*
X116980721Y-107480067D01*
X116811933Y-107311279D01*
X116618819Y-107170973D01*
X116468641Y-107094454D01*
X116406136Y-107062606D01*
X116406135Y-107062605D01*
X116406134Y-107062605D01*
X116179115Y-106988842D01*
X116179113Y-106988841D01*
X116179111Y-106988841D01*
X115983815Y-106957909D01*
X115943351Y-106951500D01*
X115704649Y-106951500D01*
X115664191Y-106957908D01*
X115468888Y-106988841D01*
X115468887Y-106988841D01*
X115241863Y-107062606D01*
X115029180Y-107170973D01*
X114966148Y-107216769D01*
X114836067Y-107311279D01*
X114836065Y-107311281D01*
X114836064Y-107311281D01*
X114667281Y-107480064D01*
X114667276Y-107480070D01*
X114654316Y-107497908D01*
X114598985Y-107540572D01*
X114529371Y-107546550D01*
X114467577Y-107513942D01*
X114453684Y-107497908D01*
X114443503Y-107483897D01*
X114440721Y-107480067D01*
X114271933Y-107311279D01*
X114078819Y-107170973D01*
X113928641Y-107094454D01*
X113866136Y-107062606D01*
X113866135Y-107062605D01*
X113866134Y-107062605D01*
X113639115Y-106988842D01*
X113639113Y-106988841D01*
X113639111Y-106988841D01*
X113443815Y-106957909D01*
X113403351Y-106951500D01*
X113164649Y-106951500D01*
X113124191Y-106957908D01*
X112928888Y-106988841D01*
X112928887Y-106988841D01*
X112701863Y-107062606D01*
X112489180Y-107170973D01*
X112426148Y-107216769D01*
X112296067Y-107311279D01*
X112296065Y-107311281D01*
X112296064Y-107311281D01*
X112127281Y-107480064D01*
X112127276Y-107480070D01*
X112114316Y-107497908D01*
X112058985Y-107540572D01*
X111989371Y-107546550D01*
X111927577Y-107513942D01*
X111913684Y-107497908D01*
X111903503Y-107483897D01*
X111900721Y-107480067D01*
X111731933Y-107311279D01*
X111538819Y-107170973D01*
X111388641Y-107094454D01*
X111326136Y-107062606D01*
X111326135Y-107062605D01*
X111326134Y-107062605D01*
X111099115Y-106988842D01*
X111099113Y-106988841D01*
X111099111Y-106988841D01*
X110903815Y-106957909D01*
X110863351Y-106951500D01*
X110624649Y-106951500D01*
X110584191Y-106957908D01*
X110388888Y-106988841D01*
X110388887Y-106988841D01*
X110161863Y-107062606D01*
X109949180Y-107170973D01*
X109886148Y-107216769D01*
X109756067Y-107311279D01*
X109756065Y-107311281D01*
X109756064Y-107311281D01*
X109587281Y-107480064D01*
X109587276Y-107480070D01*
X109574316Y-107497908D01*
X109518985Y-107540572D01*
X109449371Y-107546550D01*
X109387577Y-107513942D01*
X109373684Y-107497908D01*
X109363503Y-107483897D01*
X109360721Y-107480067D01*
X109191933Y-107311279D01*
X108998819Y-107170973D01*
X108848641Y-107094454D01*
X108786136Y-107062606D01*
X108786135Y-107062605D01*
X108786134Y-107062605D01*
X108559115Y-106988842D01*
X108559113Y-106988841D01*
X108559111Y-106988841D01*
X108363815Y-106957909D01*
X108323351Y-106951500D01*
X108084649Y-106951500D01*
X108044191Y-106957908D01*
X107848888Y-106988841D01*
X107848887Y-106988841D01*
X107621863Y-107062606D01*
X107409180Y-107170973D01*
X107346148Y-107216769D01*
X107216067Y-107311279D01*
X107216065Y-107311281D01*
X107216064Y-107311281D01*
X107047281Y-107480064D01*
X107047276Y-107480070D01*
X107034316Y-107497908D01*
X106978985Y-107540572D01*
X106909371Y-107546550D01*
X106847577Y-107513942D01*
X106833684Y-107497908D01*
X106823503Y-107483897D01*
X106820721Y-107480067D01*
X106651933Y-107311279D01*
X106458819Y-107170973D01*
X106308641Y-107094454D01*
X106246136Y-107062606D01*
X106246135Y-107062605D01*
X106246134Y-107062605D01*
X106019115Y-106988842D01*
X106019113Y-106988841D01*
X106019111Y-106988841D01*
X105823815Y-106957909D01*
X105783351Y-106951500D01*
X105544649Y-106951500D01*
X105504191Y-106957908D01*
X105308888Y-106988841D01*
X105308887Y-106988841D01*
X105081863Y-107062606D01*
X104869180Y-107170973D01*
X104806148Y-107216769D01*
X104676067Y-107311279D01*
X104676065Y-107311281D01*
X104676064Y-107311281D01*
X104507281Y-107480064D01*
X104507276Y-107480070D01*
X104494316Y-107497908D01*
X104438985Y-107540572D01*
X104369371Y-107546550D01*
X104307577Y-107513942D01*
X104293684Y-107497908D01*
X104283503Y-107483897D01*
X104280721Y-107480067D01*
X104111933Y-107311279D01*
X103918819Y-107170973D01*
X103768641Y-107094454D01*
X103706136Y-107062606D01*
X103706135Y-107062605D01*
X103706134Y-107062605D01*
X103479115Y-106988842D01*
X103479113Y-106988841D01*
X103479111Y-106988841D01*
X103283815Y-106957909D01*
X103243351Y-106951500D01*
X103004649Y-106951500D01*
X102964191Y-106957908D01*
X102768888Y-106988841D01*
X102768887Y-106988841D01*
X102541863Y-107062606D01*
X102329180Y-107170973D01*
X102266148Y-107216769D01*
X102136067Y-107311279D01*
X102136065Y-107311281D01*
X102136064Y-107311281D01*
X101967281Y-107480064D01*
X101967281Y-107480065D01*
X101967279Y-107480067D01*
X101918976Y-107546550D01*
X101826973Y-107673180D01*
X101718606Y-107885863D01*
X101644841Y-108112887D01*
X101644841Y-108112888D01*
X101607500Y-108348649D01*
X101607500Y-108587350D01*
X101644841Y-108823111D01*
X101644841Y-108823112D01*
X101644842Y-108823115D01*
X101718605Y-109050134D01*
X101826973Y-109262819D01*
X101967279Y-109455933D01*
X102136067Y-109624721D01*
X102329181Y-109765027D01*
X102541866Y-109873395D01*
X102768885Y-109947158D01*
X103004649Y-109984500D01*
X103004650Y-109984500D01*
X103243350Y-109984500D01*
X103243351Y-109984500D01*
X103479115Y-109947158D01*
X103706134Y-109873395D01*
X103918819Y-109765027D01*
X104111933Y-109624721D01*
X104280721Y-109455933D01*
X104293682Y-109438092D01*
X104349010Y-109395428D01*
X104418623Y-109389447D01*
X104480419Y-109422052D01*
X104494314Y-109438088D01*
X104507279Y-109455933D01*
X104676067Y-109624721D01*
X104869181Y-109765027D01*
X105081866Y-109873395D01*
X105308885Y-109947158D01*
X105544649Y-109984500D01*
X105544650Y-109984500D01*
X105783350Y-109984500D01*
X105783351Y-109984500D01*
X106019115Y-109947158D01*
X106246134Y-109873395D01*
X106458819Y-109765027D01*
X106651933Y-109624721D01*
X106820721Y-109455933D01*
X106833682Y-109438092D01*
X106889010Y-109395428D01*
X106958623Y-109389447D01*
X107020419Y-109422052D01*
X107034314Y-109438088D01*
X107047279Y-109455933D01*
X107216067Y-109624721D01*
X107245985Y-109646458D01*
X107288651Y-109701785D01*
X107297100Y-109746775D01*
X107297100Y-111078988D01*
X107277415Y-111146027D01*
X107260781Y-111166669D01*
X94671885Y-123755565D01*
X94608724Y-123818726D01*
X94545563Y-123881886D01*
X94446319Y-124030415D01*
X94446314Y-124030424D01*
X94377952Y-124195466D01*
X94377950Y-124195472D01*
X94343100Y-124370675D01*
X94343100Y-124370678D01*
X94343100Y-130085678D01*
X94343100Y-130264322D01*
X94343100Y-130264324D01*
X94343099Y-130264324D01*
X91440500Y-130264324D01*
X91440500Y-97668711D01*
X95939500Y-97668711D01*
X95939500Y-97911288D01*
X95969102Y-98136146D01*
X95971162Y-98151789D01*
X95989937Y-98221857D01*
X96033947Y-98386104D01*
X96102457Y-98551500D01*
X96126776Y-98610212D01*
X96248064Y-98820289D01*
X96248066Y-98820292D01*
X96248067Y-98820293D01*
X96395733Y-99012736D01*
X96395739Y-99012743D01*
X96567256Y-99184260D01*
X96567262Y-99184265D01*
X96759711Y-99331936D01*
X96969788Y-99453224D01*
X97193900Y-99546054D01*
X97428211Y-99608838D01*
X97608586Y-99632584D01*
X97668711Y-99640500D01*
X97668712Y-99640500D01*
X97911289Y-99640500D01*
X97959388Y-99634167D01*
X98151789Y-99608838D01*
X98386100Y-99546054D01*
X98610212Y-99453224D01*
X98820289Y-99331936D01*
X99012738Y-99184265D01*
X99184265Y-99012738D01*
X99331936Y-98820289D01*
X99453224Y-98610212D01*
X99546054Y-98386100D01*
X99608838Y-98151789D01*
X99640500Y-97911288D01*
X99640500Y-97668712D01*
X99608838Y-97428211D01*
X99546054Y-97193900D01*
X99453224Y-96969788D01*
X99331936Y-96759711D01*
X99231344Y-96628617D01*
X99184266Y-96567263D01*
X99184260Y-96567256D01*
X99012743Y-96395739D01*
X99012736Y-96395733D01*
X98820293Y-96248067D01*
X98820292Y-96248066D01*
X98820289Y-96248064D01*
X98638060Y-96142854D01*
X98610214Y-96126777D01*
X98610205Y-96126773D01*
X98386104Y-96033947D01*
X98160869Y-95973595D01*
X98151789Y-95971162D01*
X98151788Y-95971161D01*
X98151785Y-95971161D01*
X97911289Y-95939500D01*
X97911288Y-95939500D01*
X97668712Y-95939500D01*
X97668711Y-95939500D01*
X97428214Y-95971161D01*
X97193895Y-96033947D01*
X96969794Y-96126773D01*
X96969785Y-96126777D01*
X96759706Y-96248067D01*
X96567263Y-96395733D01*
X96567256Y-96395739D01*
X96395739Y-96567256D01*
X96395733Y-96567263D01*
X96248067Y-96759706D01*
X96126777Y-96969785D01*
X96126773Y-96969794D01*
X96033947Y-97193895D01*
X95971161Y-97428214D01*
X95939500Y-97668711D01*
X91440500Y-97668711D01*
X91440500Y-91332643D01*
X99727900Y-91332643D01*
X99727900Y-91547356D01*
X99761489Y-91759428D01*
X99827837Y-91963630D01*
X99827838Y-91963633D01*
X99912513Y-92129815D01*
X99925317Y-92154944D01*
X100051523Y-92328651D01*
X100203349Y-92480477D01*
X100377056Y-92606683D01*
X100470888Y-92654492D01*
X100568366Y-92704161D01*
X100568369Y-92704162D01*
X100670470Y-92737336D01*
X100772573Y-92770511D01*
X100984643Y-92804100D01*
X100984644Y-92804100D01*
X101199356Y-92804100D01*
X101199357Y-92804100D01*
X101411427Y-92770511D01*
X101615633Y-92704161D01*
X101806944Y-92606683D01*
X101980651Y-92480477D01*
X102132477Y-92328651D01*
X102258683Y-92154944D01*
X102356161Y-91963633D01*
X102422511Y-91759427D01*
X102456100Y-91547357D01*
X102456100Y-91332643D01*
X102422511Y-91120573D01*
X102371343Y-90963093D01*
X102356162Y-90916369D01*
X102356161Y-90916366D01*
X102302638Y-90811322D01*
X102258683Y-90725056D01*
X102132477Y-90551349D01*
X101980651Y-90399523D01*
X101806944Y-90273317D01*
X101801029Y-90270303D01*
X101615633Y-90175838D01*
X101615630Y-90175837D01*
X101411428Y-90109489D01*
X101324437Y-90095711D01*
X101199357Y-90075900D01*
X100984643Y-90075900D01*
X100913953Y-90087096D01*
X100772571Y-90109489D01*
X100568369Y-90175837D01*
X100568366Y-90175838D01*
X100377055Y-90273317D01*
X100292962Y-90334415D01*
X100203349Y-90399523D01*
X100203347Y-90399525D01*
X100203346Y-90399525D01*
X100051525Y-90551346D01*
X100051525Y-90551347D01*
X100051523Y-90551349D01*
X100003223Y-90617828D01*
X99925317Y-90725055D01*
X99827838Y-90916366D01*
X99827837Y-90916369D01*
X99761489Y-91120571D01*
X99727900Y-91332643D01*
X91440500Y-91332643D01*
X91440500Y-90030323D01*
X102936400Y-90030323D01*
X102969975Y-90242311D01*
X103036303Y-90446445D01*
X103133744Y-90637682D01*
X103259906Y-90811327D01*
X103259906Y-90811328D01*
X103411671Y-90963093D01*
X103585317Y-91089255D01*
X103776558Y-91186698D01*
X103776564Y-91186700D01*
X103791999Y-91191715D01*
X104808000Y-91191715D01*
X104823435Y-91186700D01*
X104823441Y-91186698D01*
X105014682Y-91089255D01*
X105188327Y-90963093D01*
X105188328Y-90963093D01*
X105340093Y-90811328D01*
X105340098Y-90811322D01*
X105449682Y-90660494D01*
X105505012Y-90617828D01*
X105574625Y-90611849D01*
X105636420Y-90644455D01*
X105650318Y-90660494D01*
X105759901Y-90811322D01*
X105759906Y-90811328D01*
X105911671Y-90963093D01*
X106085317Y-91089255D01*
X106276558Y-91186698D01*
X106276564Y-91186700D01*
X106291999Y-91191715D01*
X107308000Y-91191715D01*
X107323435Y-91186700D01*
X107323441Y-91186698D01*
X107514682Y-91089255D01*
X107688327Y-90963093D01*
X107688328Y-90963093D01*
X107840093Y-90811328D01*
X107840093Y-90811327D01*
X107966255Y-90637682D01*
X108063696Y-90446445D01*
X108130024Y-90242311D01*
X108163600Y-90030323D01*
X108163600Y-90024600D01*
X107308000Y-90024600D01*
X107308000Y-91191715D01*
X106291999Y-91191715D01*
X106292000Y-91191714D01*
X106292000Y-90024600D01*
X104808000Y-90024600D01*
X104808000Y-91191715D01*
X103791999Y-91191715D01*
X103792000Y-91191714D01*
X103792000Y-90024600D01*
X102936400Y-90024600D01*
X102936400Y-90030323D01*
X91440500Y-90030323D01*
X91440500Y-89056696D01*
X103893600Y-89056696D01*
X103893600Y-89976504D01*
X103921295Y-90079865D01*
X103974799Y-90172536D01*
X104050464Y-90248201D01*
X104143135Y-90301705D01*
X104246496Y-90329400D01*
X104353504Y-90329400D01*
X104456865Y-90301705D01*
X104549536Y-90248201D01*
X104625201Y-90172536D01*
X104678705Y-90079865D01*
X104706400Y-89976504D01*
X104706400Y-89056696D01*
X106393600Y-89056696D01*
X106393600Y-89976504D01*
X106421295Y-90079865D01*
X106474799Y-90172536D01*
X106550464Y-90248201D01*
X106643135Y-90301705D01*
X106746496Y-90329400D01*
X106853504Y-90329400D01*
X106956865Y-90301705D01*
X107049536Y-90248201D01*
X107125201Y-90172536D01*
X107178705Y-90079865D01*
X107206400Y-89976504D01*
X107206400Y-89432828D01*
X108449500Y-89432828D01*
X108449500Y-89600371D01*
X108482182Y-89764674D01*
X108482184Y-89764682D01*
X108546295Y-89919460D01*
X108639373Y-90058762D01*
X108757837Y-90177226D01*
X108788889Y-90197974D01*
X108897137Y-90270303D01*
X109051918Y-90334416D01*
X109216228Y-90367099D01*
X109216232Y-90367100D01*
X109216233Y-90367100D01*
X109383768Y-90367100D01*
X109383769Y-90367099D01*
X109548082Y-90334416D01*
X109702863Y-90270303D01*
X109842162Y-90177226D01*
X109960626Y-90058762D01*
X110053703Y-89919463D01*
X110117816Y-89764682D01*
X110150500Y-89600367D01*
X110150500Y-89432833D01*
X110117816Y-89268518D01*
X110053703Y-89113737D01*
X110015589Y-89056696D01*
X109960626Y-88974437D01*
X109842162Y-88855973D01*
X109702860Y-88762895D01*
X109548082Y-88698784D01*
X109548074Y-88698782D01*
X109383771Y-88666100D01*
X109383767Y-88666100D01*
X109216233Y-88666100D01*
X109216228Y-88666100D01*
X109051925Y-88698782D01*
X109051917Y-88698784D01*
X108897139Y-88762895D01*
X108757837Y-88855973D01*
X108639373Y-88974437D01*
X108546295Y-89113739D01*
X108482184Y-89268517D01*
X108482182Y-89268525D01*
X108449500Y-89432828D01*
X107206400Y-89432828D01*
X107206400Y-89056696D01*
X107193513Y-89008600D01*
X107308000Y-89008600D01*
X108163600Y-89008600D01*
X108163600Y-89002876D01*
X108130024Y-88790888D01*
X108063696Y-88586754D01*
X107966255Y-88395517D01*
X107840093Y-88221872D01*
X107840093Y-88221871D01*
X107688328Y-88070106D01*
X107514682Y-87943944D01*
X107323437Y-87846500D01*
X107308000Y-87841483D01*
X107308000Y-89008600D01*
X107193513Y-89008600D01*
X107178705Y-88953335D01*
X107125201Y-88860664D01*
X107049536Y-88784999D01*
X106956865Y-88731495D01*
X106853504Y-88703800D01*
X106746496Y-88703800D01*
X106643135Y-88731495D01*
X106550464Y-88784999D01*
X106474799Y-88860664D01*
X106421295Y-88953335D01*
X106393600Y-89056696D01*
X104706400Y-89056696D01*
X104678705Y-88953335D01*
X104625201Y-88860664D01*
X104549536Y-88784999D01*
X104456865Y-88731495D01*
X104353504Y-88703800D01*
X104246496Y-88703800D01*
X104143135Y-88731495D01*
X104050464Y-88784999D01*
X103974799Y-88860664D01*
X103921295Y-88953335D01*
X103893600Y-89056696D01*
X91440500Y-89056696D01*
X91440500Y-89002876D01*
X102936400Y-89002876D01*
X102936400Y-89008600D01*
X103792000Y-89008600D01*
X103792000Y-87841484D01*
X103791999Y-87841483D01*
X104808000Y-87841483D01*
X104808000Y-89008600D01*
X106292000Y-89008600D01*
X106292000Y-87841484D01*
X106291999Y-87841483D01*
X106276562Y-87846500D01*
X106085317Y-87943944D01*
X105911672Y-88070106D01*
X105911671Y-88070106D01*
X105759906Y-88221871D01*
X105759906Y-88221872D01*
X105650318Y-88372706D01*
X105594988Y-88415371D01*
X105525374Y-88421350D01*
X105463579Y-88388744D01*
X105449682Y-88372706D01*
X105340093Y-88221872D01*
X105340093Y-88221871D01*
X105188328Y-88070106D01*
X105014682Y-87943944D01*
X104823437Y-87846500D01*
X104808000Y-87841483D01*
X103791999Y-87841483D01*
X103776562Y-87846500D01*
X103585317Y-87943944D01*
X103411672Y-88070106D01*
X103411671Y-88070106D01*
X103259906Y-88221871D01*
X103259906Y-88221872D01*
X103133744Y-88395517D01*
X103036303Y-88586754D01*
X102969975Y-88790888D01*
X102936400Y-89002876D01*
X91440500Y-89002876D01*
X91440500Y-83712643D01*
X99727900Y-83712643D01*
X99727900Y-83927356D01*
X99761489Y-84139428D01*
X99827837Y-84343630D01*
X99827838Y-84343633D01*
X99925317Y-84534944D01*
X100051523Y-84708651D01*
X100203349Y-84860477D01*
X100377056Y-84986683D01*
X100380754Y-84988567D01*
X100568366Y-85084161D01*
X100568369Y-85084162D01*
X100670470Y-85117336D01*
X100772573Y-85150511D01*
X100984643Y-85184100D01*
X100984644Y-85184100D01*
X101199356Y-85184100D01*
X101199357Y-85184100D01*
X101411427Y-85150511D01*
X101615633Y-85084161D01*
X101806944Y-84986683D01*
X101980651Y-84860477D01*
X102132477Y-84708651D01*
X102258683Y-84534944D01*
X102310714Y-84432828D01*
X103449500Y-84432828D01*
X103449500Y-84600371D01*
X103482182Y-84764674D01*
X103482184Y-84764682D01*
X103546295Y-84919460D01*
X103639373Y-85058762D01*
X103757837Y-85177226D01*
X103812127Y-85213501D01*
X103897137Y-85270303D01*
X104051918Y-85334416D01*
X104162717Y-85356455D01*
X104216228Y-85367099D01*
X104216232Y-85367100D01*
X104216233Y-85367100D01*
X104383768Y-85367100D01*
X104383769Y-85367099D01*
X104548082Y-85334416D01*
X104702863Y-85270303D01*
X104842162Y-85177226D01*
X104960626Y-85058762D01*
X105053703Y-84919463D01*
X105117816Y-84764682D01*
X105150500Y-84600367D01*
X105150500Y-84432833D01*
X105145808Y-84409243D01*
X107529500Y-84409243D01*
X107529500Y-84623956D01*
X107563089Y-84836028D01*
X107629437Y-85040230D01*
X107629438Y-85040233D01*
X107710339Y-85199008D01*
X107726917Y-85231544D01*
X107853123Y-85405251D01*
X108004949Y-85557077D01*
X108178656Y-85683283D01*
X108272488Y-85731092D01*
X108369966Y-85780761D01*
X108369969Y-85780762D01*
X108472070Y-85813936D01*
X108574173Y-85847111D01*
X108786243Y-85880700D01*
X108786244Y-85880700D01*
X109813756Y-85880700D01*
X109813757Y-85880700D01*
X110025827Y-85847111D01*
X110230033Y-85780761D01*
X110421344Y-85683283D01*
X110595051Y-85557077D01*
X110746877Y-85405251D01*
X110873083Y-85231544D01*
X110970561Y-85040233D01*
X111036911Y-84836027D01*
X111070500Y-84623957D01*
X111070500Y-84432828D01*
X113449500Y-84432828D01*
X113449500Y-84600371D01*
X113482182Y-84764674D01*
X113482184Y-84764682D01*
X113546295Y-84919460D01*
X113639373Y-85058762D01*
X113757837Y-85177226D01*
X113812127Y-85213501D01*
X113897137Y-85270303D01*
X114051918Y-85334416D01*
X114162717Y-85356455D01*
X114216228Y-85367099D01*
X114216232Y-85367100D01*
X114216233Y-85367100D01*
X114383768Y-85367100D01*
X114383769Y-85367099D01*
X114548082Y-85334416D01*
X114702863Y-85270303D01*
X114842162Y-85177226D01*
X114960626Y-85058762D01*
X115053703Y-84919463D01*
X115117816Y-84764682D01*
X115150500Y-84600367D01*
X115150500Y-84432833D01*
X115150499Y-84432828D01*
X119244500Y-84432828D01*
X119244500Y-84600371D01*
X119277182Y-84764674D01*
X119277184Y-84764682D01*
X119341295Y-84919460D01*
X119434373Y-85058762D01*
X119552837Y-85177226D01*
X119607127Y-85213501D01*
X119692137Y-85270303D01*
X119846918Y-85334416D01*
X119957717Y-85356455D01*
X120011228Y-85367099D01*
X120011232Y-85367100D01*
X120011233Y-85367100D01*
X120178768Y-85367100D01*
X120178769Y-85367099D01*
X120343082Y-85334416D01*
X120497863Y-85270303D01*
X120637162Y-85177226D01*
X120755626Y-85058762D01*
X120778452Y-85024600D01*
X123419884Y-85024600D01*
X123424899Y-85040035D01*
X123424901Y-85040041D01*
X123522344Y-85231282D01*
X123648506Y-85404927D01*
X123648506Y-85404928D01*
X123800271Y-85556693D01*
X123973917Y-85682855D01*
X124165154Y-85780296D01*
X124369288Y-85846624D01*
X124581277Y-85880200D01*
X124587000Y-85880200D01*
X125603000Y-85880200D01*
X125608723Y-85880200D01*
X125820711Y-85846624D01*
X126024845Y-85780296D01*
X126216082Y-85682855D01*
X126251803Y-85656902D01*
X143449500Y-85656902D01*
X143449500Y-85893097D01*
X143486446Y-86126368D01*
X143559433Y-86350996D01*
X143625821Y-86481288D01*
X143666657Y-86561433D01*
X143805483Y-86752510D01*
X143972490Y-86919517D01*
X144163567Y-87058343D01*
X144262991Y-87109002D01*
X144374003Y-87165566D01*
X144374005Y-87165566D01*
X144374008Y-87165568D01*
X144419084Y-87180214D01*
X144598631Y-87238553D01*
X144831903Y-87275500D01*
X144831908Y-87275500D01*
X147268097Y-87275500D01*
X147501368Y-87238553D01*
X147725992Y-87165568D01*
X147936433Y-87058343D01*
X148127510Y-86919517D01*
X148294517Y-86752510D01*
X148433343Y-86561433D01*
X148540568Y-86350992D01*
X148613553Y-86126368D01*
X148650500Y-85893097D01*
X148650500Y-85666135D01*
X151507500Y-85666135D01*
X151507500Y-87561870D01*
X151507501Y-87561876D01*
X151513908Y-87621483D01*
X151564202Y-87756328D01*
X151564206Y-87756335D01*
X151650452Y-87871544D01*
X151650455Y-87871547D01*
X151765664Y-87957793D01*
X151765671Y-87957797D01*
X151900517Y-88008091D01*
X151900516Y-88008091D01*
X151907444Y-88008835D01*
X151960127Y-88014500D01*
X153855872Y-88014499D01*
X153915483Y-88008091D01*
X154050331Y-87957796D01*
X154165546Y-87871546D01*
X154251796Y-87756331D01*
X154302091Y-87621483D01*
X154308500Y-87561873D01*
X154308499Y-86238711D01*
X158804500Y-86238711D01*
X158804500Y-86481288D01*
X158836161Y-86721785D01*
X158898947Y-86956104D01*
X158985709Y-87165566D01*
X158991776Y-87180212D01*
X159113064Y-87390289D01*
X159113066Y-87390292D01*
X159113067Y-87390293D01*
X159260733Y-87582736D01*
X159260739Y-87582743D01*
X159432256Y-87754260D01*
X159432263Y-87754266D01*
X159465395Y-87779689D01*
X159624711Y-87901936D01*
X159834788Y-88023224D01*
X160058900Y-88116054D01*
X160293211Y-88178838D01*
X160473586Y-88202584D01*
X160533711Y-88210500D01*
X160533712Y-88210500D01*
X160776289Y-88210500D01*
X160824388Y-88204167D01*
X161016789Y-88178838D01*
X161251100Y-88116054D01*
X161475212Y-88023224D01*
X161685289Y-87901936D01*
X161877738Y-87754265D01*
X162049265Y-87582738D01*
X162196936Y-87390289D01*
X162318224Y-87180212D01*
X162411054Y-86956100D01*
X162473838Y-86721789D01*
X162505500Y-86481288D01*
X162505500Y-86238712D01*
X162473838Y-85998211D01*
X162411054Y-85763900D01*
X162318224Y-85539788D01*
X162196936Y-85329711D01*
X162096644Y-85199008D01*
X162049266Y-85137263D01*
X162049260Y-85137256D01*
X161877743Y-84965739D01*
X161877736Y-84965733D01*
X161685293Y-84818067D01*
X161685292Y-84818066D01*
X161685289Y-84818064D01*
X161475212Y-84696776D01*
X161475205Y-84696773D01*
X161251104Y-84603947D01*
X161016785Y-84541161D01*
X160776289Y-84509500D01*
X160776288Y-84509500D01*
X160533712Y-84509500D01*
X160533711Y-84509500D01*
X160293214Y-84541161D01*
X160058895Y-84603947D01*
X159834794Y-84696773D01*
X159834785Y-84696777D01*
X159624706Y-84818067D01*
X159432263Y-84965733D01*
X159432256Y-84965739D01*
X159260739Y-85137256D01*
X159260733Y-85137263D01*
X159113067Y-85329706D01*
X158991777Y-85539785D01*
X158991773Y-85539794D01*
X158898947Y-85763895D01*
X158836161Y-85998214D01*
X158804500Y-86238711D01*
X154308499Y-86238711D01*
X154308499Y-85666128D01*
X154302091Y-85606517D01*
X154251796Y-85471669D01*
X154251795Y-85471668D01*
X154251793Y-85471664D01*
X154165547Y-85356455D01*
X154165544Y-85356452D01*
X154050335Y-85270206D01*
X154050328Y-85270202D01*
X153915482Y-85219908D01*
X153915483Y-85219908D01*
X153855883Y-85213501D01*
X153855881Y-85213500D01*
X153855873Y-85213500D01*
X153855864Y-85213500D01*
X151960129Y-85213500D01*
X151960123Y-85213501D01*
X151900516Y-85219908D01*
X151765671Y-85270202D01*
X151765664Y-85270206D01*
X151650455Y-85356452D01*
X151650452Y-85356455D01*
X151564206Y-85471664D01*
X151564202Y-85471671D01*
X151513908Y-85606517D01*
X151508492Y-85656902D01*
X151507501Y-85666123D01*
X151507500Y-85666135D01*
X148650500Y-85666135D01*
X148650500Y-85656902D01*
X148613553Y-85423631D01*
X148579689Y-85319412D01*
X148540568Y-85199008D01*
X148540566Y-85199005D01*
X148540566Y-85199003D01*
X148469109Y-85058762D01*
X148433343Y-84988567D01*
X148294517Y-84797490D01*
X148127510Y-84630483D01*
X147936433Y-84491657D01*
X147880379Y-84463096D01*
X147725996Y-84384433D01*
X147501368Y-84311446D01*
X147268097Y-84274500D01*
X147268092Y-84274500D01*
X144831908Y-84274500D01*
X144831903Y-84274500D01*
X144598631Y-84311446D01*
X144374003Y-84384433D01*
X144163566Y-84491657D01*
X144095429Y-84541162D01*
X143972490Y-84630483D01*
X143972488Y-84630485D01*
X143972487Y-84630485D01*
X143805485Y-84797487D01*
X143805485Y-84797488D01*
X143805483Y-84797490D01*
X143773289Y-84841801D01*
X143666657Y-84988566D01*
X143559433Y-85199003D01*
X143486446Y-85423631D01*
X143449500Y-85656902D01*
X126251803Y-85656902D01*
X126389726Y-85556695D01*
X126541493Y-85404928D01*
X126541493Y-85404927D01*
X126667655Y-85231282D01*
X126765098Y-85040041D01*
X126765100Y-85040035D01*
X126770115Y-85024600D01*
X125603000Y-85024600D01*
X125603000Y-85880200D01*
X124587000Y-85880200D01*
X124587000Y-85024600D01*
X123419884Y-85024600D01*
X120778452Y-85024600D01*
X120848703Y-84919463D01*
X120912816Y-84764682D01*
X120945500Y-84600367D01*
X120945500Y-84463096D01*
X124282200Y-84463096D01*
X124282200Y-84570104D01*
X124309895Y-84673465D01*
X124363399Y-84766136D01*
X124439064Y-84841801D01*
X124531735Y-84895305D01*
X124635096Y-84923000D01*
X125554904Y-84923000D01*
X125658265Y-84895305D01*
X125750936Y-84841801D01*
X125826601Y-84766136D01*
X125880105Y-84673465D01*
X125907800Y-84570104D01*
X125907800Y-84463096D01*
X125899690Y-84432828D01*
X129244500Y-84432828D01*
X129244500Y-84600371D01*
X129277182Y-84764674D01*
X129277184Y-84764682D01*
X129341295Y-84919460D01*
X129434373Y-85058762D01*
X129552837Y-85177226D01*
X129607127Y-85213501D01*
X129692137Y-85270303D01*
X129846918Y-85334416D01*
X129957717Y-85356455D01*
X130011228Y-85367099D01*
X130011232Y-85367100D01*
X130011233Y-85367100D01*
X130178768Y-85367100D01*
X130178769Y-85367099D01*
X130343082Y-85334416D01*
X130497863Y-85270303D01*
X130637162Y-85177226D01*
X130755626Y-85058762D01*
X130848703Y-84919463D01*
X130912816Y-84764682D01*
X130945500Y-84600367D01*
X130945500Y-84432833D01*
X130912816Y-84268518D01*
X130909223Y-84259844D01*
X132665000Y-84259844D01*
X132671401Y-84319372D01*
X132671403Y-84319379D01*
X132721645Y-84454086D01*
X132721649Y-84454093D01*
X132807809Y-84569187D01*
X132807812Y-84569190D01*
X132922906Y-84655350D01*
X132922913Y-84655354D01*
X133057620Y-84705596D01*
X133057627Y-84705598D01*
X133117155Y-84711999D01*
X133117172Y-84712000D01*
X133557000Y-84712000D01*
X134573000Y-84712000D01*
X135012828Y-84712000D01*
X135012844Y-84711999D01*
X135072372Y-84705598D01*
X135072379Y-84705596D01*
X135207086Y-84655354D01*
X135207093Y-84655350D01*
X135322187Y-84569190D01*
X135322190Y-84569187D01*
X135408350Y-84454093D01*
X135408354Y-84454086D01*
X135458596Y-84319379D01*
X135458598Y-84319372D01*
X135464999Y-84259844D01*
X135465000Y-84259827D01*
X135465000Y-83820000D01*
X134573000Y-83820000D01*
X134573000Y-84712000D01*
X133557000Y-84712000D01*
X133557000Y-83820000D01*
X132665000Y-83820000D01*
X132665000Y-84259844D01*
X130909223Y-84259844D01*
X130848703Y-84113737D01*
X130817537Y-84067094D01*
X130755626Y-83974437D01*
X130637162Y-83855973D01*
X130497860Y-83762895D01*
X130343082Y-83698784D01*
X130343074Y-83698782D01*
X130178771Y-83666100D01*
X130178767Y-83666100D01*
X130011233Y-83666100D01*
X130011228Y-83666100D01*
X129846925Y-83698782D01*
X129846917Y-83698784D01*
X129692139Y-83762895D01*
X129552837Y-83855973D01*
X129434373Y-83974437D01*
X129341295Y-84113739D01*
X129277184Y-84268517D01*
X129277182Y-84268525D01*
X129244500Y-84432828D01*
X125899690Y-84432828D01*
X125880105Y-84359735D01*
X125826601Y-84267064D01*
X125750936Y-84191399D01*
X125658265Y-84137895D01*
X125554904Y-84110200D01*
X124635096Y-84110200D01*
X124531735Y-84137895D01*
X124439064Y-84191399D01*
X124363399Y-84267064D01*
X124309895Y-84359735D01*
X124282200Y-84463096D01*
X120945500Y-84463096D01*
X120945500Y-84432833D01*
X120912816Y-84268518D01*
X120848703Y-84113737D01*
X120778452Y-84008599D01*
X123419884Y-84008599D01*
X123419885Y-84008600D01*
X124587000Y-84008600D01*
X125603000Y-84008600D01*
X126770115Y-84008600D01*
X126770115Y-84008599D01*
X126765100Y-83993164D01*
X126765098Y-83993158D01*
X126667655Y-83801917D01*
X126541493Y-83628272D01*
X126541493Y-83628271D01*
X126389728Y-83476506D01*
X126216082Y-83350344D01*
X126024845Y-83252903D01*
X126024393Y-83252756D01*
X133615000Y-83252756D01*
X133615000Y-83371244D01*
X133645667Y-83485694D01*
X133704910Y-83588306D01*
X133788694Y-83672090D01*
X133891306Y-83731333D01*
X134005756Y-83762000D01*
X134124244Y-83762000D01*
X134238694Y-83731333D01*
X134341306Y-83672090D01*
X134425090Y-83588306D01*
X134484333Y-83485694D01*
X134515000Y-83371244D01*
X134515000Y-83252756D01*
X134484333Y-83138306D01*
X134425090Y-83035694D01*
X134341306Y-82951910D01*
X134238694Y-82892667D01*
X134124244Y-82862000D01*
X134005756Y-82862000D01*
X133891306Y-82892667D01*
X133788694Y-82951910D01*
X133704910Y-83035694D01*
X133645667Y-83138306D01*
X133615000Y-83252756D01*
X126024393Y-83252756D01*
X125820711Y-83186575D01*
X125608723Y-83153000D01*
X125603000Y-83153000D01*
X125603000Y-84008600D01*
X124587000Y-84008600D01*
X124587000Y-83153000D01*
X124581277Y-83153000D01*
X124369288Y-83186575D01*
X124165154Y-83252903D01*
X123973917Y-83350344D01*
X123800272Y-83476506D01*
X123800271Y-83476506D01*
X123648506Y-83628271D01*
X123648506Y-83628272D01*
X123522344Y-83801917D01*
X123424901Y-83993158D01*
X123424899Y-83993164D01*
X123419884Y-84008599D01*
X120778452Y-84008599D01*
X120755626Y-83974438D01*
X120755625Y-83974437D01*
X120755623Y-83974434D01*
X120637162Y-83855973D01*
X120497860Y-83762895D01*
X120343082Y-83698784D01*
X120343074Y-83698782D01*
X120178771Y-83666100D01*
X120178767Y-83666100D01*
X120011233Y-83666100D01*
X120011228Y-83666100D01*
X119846925Y-83698782D01*
X119846917Y-83698784D01*
X119692139Y-83762895D01*
X119552837Y-83855973D01*
X119434373Y-83974437D01*
X119341295Y-84113739D01*
X119277184Y-84268517D01*
X119277182Y-84268525D01*
X119244500Y-84432828D01*
X115150499Y-84432828D01*
X115117816Y-84268518D01*
X115053703Y-84113737D01*
X115022537Y-84067094D01*
X114960626Y-83974437D01*
X114842162Y-83855973D01*
X114702860Y-83762895D01*
X114548082Y-83698784D01*
X114548074Y-83698782D01*
X114383771Y-83666100D01*
X114383767Y-83666100D01*
X114216233Y-83666100D01*
X114216228Y-83666100D01*
X114051925Y-83698782D01*
X114051917Y-83698784D01*
X113897139Y-83762895D01*
X113757837Y-83855973D01*
X113639373Y-83974437D01*
X113546295Y-84113739D01*
X113482184Y-84268517D01*
X113482182Y-84268525D01*
X113449500Y-84432828D01*
X111070500Y-84432828D01*
X111070500Y-84409243D01*
X111036911Y-84197173D01*
X111003736Y-84095070D01*
X110970562Y-83992969D01*
X110970561Y-83992966D01*
X110900759Y-83855973D01*
X110873083Y-83801656D01*
X110746877Y-83627949D01*
X110595051Y-83476123D01*
X110421344Y-83349917D01*
X110230033Y-83252438D01*
X110230030Y-83252437D01*
X110025828Y-83186089D01*
X109919792Y-83169294D01*
X109813757Y-83152500D01*
X108786243Y-83152500D01*
X108715553Y-83163696D01*
X108574171Y-83186089D01*
X108369969Y-83252437D01*
X108369966Y-83252438D01*
X108178655Y-83349917D01*
X108079549Y-83421922D01*
X108004949Y-83476123D01*
X108004947Y-83476125D01*
X108004946Y-83476125D01*
X107853125Y-83627946D01*
X107853125Y-83627947D01*
X107853123Y-83627949D01*
X107825405Y-83666100D01*
X107726917Y-83801655D01*
X107629438Y-83992966D01*
X107629437Y-83992969D01*
X107563089Y-84197171D01*
X107529500Y-84409243D01*
X105145808Y-84409243D01*
X105117816Y-84268518D01*
X105053703Y-84113737D01*
X105022537Y-84067094D01*
X104960626Y-83974437D01*
X104842162Y-83855973D01*
X104702860Y-83762895D01*
X104548082Y-83698784D01*
X104548074Y-83698782D01*
X104383771Y-83666100D01*
X104383767Y-83666100D01*
X104216233Y-83666100D01*
X104216228Y-83666100D01*
X104051925Y-83698782D01*
X104051917Y-83698784D01*
X103897139Y-83762895D01*
X103757837Y-83855973D01*
X103639373Y-83974437D01*
X103546295Y-84113739D01*
X103482184Y-84268517D01*
X103482182Y-84268525D01*
X103449500Y-84432828D01*
X102310714Y-84432828D01*
X102347957Y-84359735D01*
X102356159Y-84343638D01*
X102356162Y-84343630D01*
X102358554Y-84336267D01*
X102422511Y-84139427D01*
X102456100Y-83927357D01*
X102456100Y-83712643D01*
X102422511Y-83500573D01*
X102356161Y-83296367D01*
X102356161Y-83296366D01*
X102299971Y-83186089D01*
X102258683Y-83105056D01*
X102132477Y-82931349D01*
X101980651Y-82779523D01*
X101806944Y-82653317D01*
X101615633Y-82555838D01*
X101615630Y-82555837D01*
X101411428Y-82489489D01*
X101305392Y-82472694D01*
X101199357Y-82455900D01*
X100984643Y-82455900D01*
X100913953Y-82467096D01*
X100772571Y-82489489D01*
X100568369Y-82555837D01*
X100568366Y-82555838D01*
X100377055Y-82653317D01*
X100344148Y-82677226D01*
X100203349Y-82779523D01*
X100203347Y-82779525D01*
X100203346Y-82779525D01*
X100051525Y-82931346D01*
X100051525Y-82931347D01*
X100051523Y-82931349D01*
X100036585Y-82951910D01*
X99925317Y-83105055D01*
X99827838Y-83296366D01*
X99827837Y-83296369D01*
X99761489Y-83500571D01*
X99727900Y-83712643D01*
X91440500Y-83712643D01*
X91440500Y-82601607D01*
X91460185Y-82534568D01*
X91476865Y-82513880D01*
X91571384Y-82419460D01*
X92058527Y-81932828D01*
X103449500Y-81932828D01*
X103449500Y-82100371D01*
X103482182Y-82264674D01*
X103482184Y-82264682D01*
X103546295Y-82419460D01*
X103639373Y-82558762D01*
X103757837Y-82677226D01*
X103850494Y-82739137D01*
X103897137Y-82770303D01*
X104051918Y-82834416D01*
X104216228Y-82867099D01*
X104216232Y-82867100D01*
X104216233Y-82867100D01*
X104383768Y-82867100D01*
X104383769Y-82867099D01*
X104548082Y-82834416D01*
X104702863Y-82770303D01*
X104842162Y-82677226D01*
X104960626Y-82558762D01*
X105053703Y-82419463D01*
X105117816Y-82264682D01*
X105150500Y-82100367D01*
X105150500Y-81932833D01*
X105150499Y-81932828D01*
X113449500Y-81932828D01*
X113449500Y-82100371D01*
X113482182Y-82264674D01*
X113482184Y-82264682D01*
X113546295Y-82419460D01*
X113639373Y-82558762D01*
X113757837Y-82677226D01*
X113850494Y-82739137D01*
X113897137Y-82770303D01*
X114051918Y-82834416D01*
X114216228Y-82867099D01*
X114216232Y-82867100D01*
X114216233Y-82867100D01*
X114383768Y-82867100D01*
X114383769Y-82867099D01*
X114548082Y-82834416D01*
X114702863Y-82770303D01*
X114842162Y-82677226D01*
X114960626Y-82558762D01*
X115053703Y-82419463D01*
X115117816Y-82264682D01*
X115150500Y-82100367D01*
X115150500Y-81932833D01*
X115150499Y-81932828D01*
X119244500Y-81932828D01*
X119244500Y-82100371D01*
X119277182Y-82264674D01*
X119277184Y-82264682D01*
X119341295Y-82419460D01*
X119434373Y-82558762D01*
X119552837Y-82677226D01*
X119645494Y-82739137D01*
X119692137Y-82770303D01*
X119846918Y-82834416D01*
X120011228Y-82867099D01*
X120011232Y-82867100D01*
X120011233Y-82867100D01*
X120178768Y-82867100D01*
X120178769Y-82867099D01*
X120343082Y-82834416D01*
X120497863Y-82770303D01*
X120637162Y-82677226D01*
X120755626Y-82558762D01*
X120848703Y-82419463D01*
X120912816Y-82264682D01*
X120945500Y-82100367D01*
X120945500Y-81932833D01*
X120945499Y-81932828D01*
X129244500Y-81932828D01*
X129244500Y-82100371D01*
X129277182Y-82264674D01*
X129277184Y-82264682D01*
X129341295Y-82419460D01*
X129434373Y-82558762D01*
X129552837Y-82677226D01*
X129645494Y-82739137D01*
X129692137Y-82770303D01*
X129846918Y-82834416D01*
X130011228Y-82867099D01*
X130011232Y-82867100D01*
X130011233Y-82867100D01*
X130178768Y-82867100D01*
X130178769Y-82867099D01*
X130343082Y-82834416D01*
X130497863Y-82770303D01*
X130637162Y-82677226D01*
X130755626Y-82558762D01*
X130848703Y-82419463D01*
X130871613Y-82364155D01*
X132665000Y-82364155D01*
X132665000Y-82804000D01*
X133557000Y-82804000D01*
X134573000Y-82804000D01*
X135465000Y-82804000D01*
X135465000Y-82364172D01*
X135464999Y-82364155D01*
X135458598Y-82304627D01*
X135458596Y-82304620D01*
X135408354Y-82169913D01*
X135408350Y-82169906D01*
X135322190Y-82054812D01*
X135322187Y-82054809D01*
X135207093Y-81968649D01*
X135207086Y-81968645D01*
X135072379Y-81918403D01*
X135072372Y-81918401D01*
X135012844Y-81912000D01*
X134573000Y-81912000D01*
X134573000Y-82804000D01*
X133557000Y-82804000D01*
X133557000Y-81912000D01*
X133117155Y-81912000D01*
X133057627Y-81918401D01*
X133057620Y-81918403D01*
X132922913Y-81968645D01*
X132922906Y-81968649D01*
X132807812Y-82054809D01*
X132807809Y-82054812D01*
X132721649Y-82169906D01*
X132721645Y-82169913D01*
X132671403Y-82304620D01*
X132671401Y-82304627D01*
X132665000Y-82364155D01*
X130871613Y-82364155D01*
X130912816Y-82264682D01*
X130945500Y-82100367D01*
X130945500Y-81932833D01*
X130912816Y-81768518D01*
X130848703Y-81613737D01*
X130817537Y-81567094D01*
X130755626Y-81474437D01*
X130637162Y-81355973D01*
X130497860Y-81262895D01*
X130343082Y-81198784D01*
X130343074Y-81198782D01*
X130178771Y-81166100D01*
X130178767Y-81166100D01*
X130011233Y-81166100D01*
X130011228Y-81166100D01*
X129846925Y-81198782D01*
X129846917Y-81198784D01*
X129692139Y-81262895D01*
X129552837Y-81355973D01*
X129434373Y-81474437D01*
X129341295Y-81613739D01*
X129277184Y-81768517D01*
X129277182Y-81768525D01*
X129244500Y-81932828D01*
X120945499Y-81932828D01*
X120912816Y-81768518D01*
X120848703Y-81613737D01*
X120817537Y-81567094D01*
X120755626Y-81474437D01*
X120637162Y-81355973D01*
X120497860Y-81262895D01*
X120343082Y-81198784D01*
X120343074Y-81198782D01*
X120178771Y-81166100D01*
X120178767Y-81166100D01*
X120011233Y-81166100D01*
X120011228Y-81166100D01*
X119846925Y-81198782D01*
X119846917Y-81198784D01*
X119692139Y-81262895D01*
X119552837Y-81355973D01*
X119434373Y-81474437D01*
X119341295Y-81613739D01*
X119277184Y-81768517D01*
X119277182Y-81768525D01*
X119244500Y-81932828D01*
X115150499Y-81932828D01*
X115117816Y-81768518D01*
X115053703Y-81613737D01*
X115022537Y-81567094D01*
X114960626Y-81474437D01*
X114842162Y-81355973D01*
X114702860Y-81262895D01*
X114548082Y-81198784D01*
X114548074Y-81198782D01*
X114383771Y-81166100D01*
X114383767Y-81166100D01*
X114216233Y-81166100D01*
X114216228Y-81166100D01*
X114051925Y-81198782D01*
X114051917Y-81198784D01*
X113897139Y-81262895D01*
X113757837Y-81355973D01*
X113639373Y-81474437D01*
X113546295Y-81613739D01*
X113482184Y-81768517D01*
X113482182Y-81768525D01*
X113449500Y-81932828D01*
X105150499Y-81932828D01*
X105117816Y-81768518D01*
X105053703Y-81613737D01*
X105022537Y-81567094D01*
X104960626Y-81474437D01*
X104842162Y-81355973D01*
X104702860Y-81262895D01*
X104548082Y-81198784D01*
X104548074Y-81198782D01*
X104383771Y-81166100D01*
X104383767Y-81166100D01*
X104216233Y-81166100D01*
X104216228Y-81166100D01*
X104051925Y-81198782D01*
X104051917Y-81198784D01*
X103897139Y-81262895D01*
X103757837Y-81355973D01*
X103639373Y-81474437D01*
X103546295Y-81613739D01*
X103482184Y-81768517D01*
X103482182Y-81768525D01*
X103449500Y-81932828D01*
X92058527Y-81932828D01*
X93943874Y-80049461D01*
X94005211Y-80016011D01*
X94031551Y-80013191D01*
X102775154Y-80017088D01*
X102775214Y-80017100D01*
X102799793Y-80017100D01*
X102800207Y-80017100D01*
X106975500Y-80017100D01*
X107042539Y-80036785D01*
X107088294Y-80089589D01*
X107099500Y-80141100D01*
X107099500Y-81069326D01*
X107126791Y-81171183D01*
X107126792Y-81171185D01*
X107126793Y-81171187D01*
X107132717Y-81181448D01*
X107132721Y-81181454D01*
X107132722Y-81181457D01*
X107139235Y-81192739D01*
X107141376Y-81199328D01*
X107149470Y-81210469D01*
X107152716Y-81216091D01*
X107152726Y-81216106D01*
X107169405Y-81244994D01*
X107179520Y-81262513D01*
X107179522Y-81262515D01*
X107207904Y-81290897D01*
X107215394Y-81301206D01*
X107225702Y-81308695D01*
X107254087Y-81337080D01*
X107306120Y-81367121D01*
X107317272Y-81375224D01*
X107323861Y-81377364D01*
X107330274Y-81381066D01*
X107335141Y-81383877D01*
X107335143Y-81383878D01*
X107345413Y-81389807D01*
X107447273Y-81417100D01*
X107447275Y-81417100D01*
X111152725Y-81417100D01*
X111152727Y-81417100D01*
X111254587Y-81389807D01*
X111276138Y-81377364D01*
X111282728Y-81375224D01*
X111293880Y-81367121D01*
X111345913Y-81337080D01*
X111374300Y-81308692D01*
X111384606Y-81301206D01*
X111392096Y-81290897D01*
X111420480Y-81262513D01*
X111450523Y-81210476D01*
X111458624Y-81199328D01*
X111460764Y-81192737D01*
X111473207Y-81171187D01*
X111500500Y-81069327D01*
X111500500Y-81016600D01*
X111500500Y-81016100D01*
X111500500Y-80141100D01*
X111520185Y-80074061D01*
X111572989Y-80028306D01*
X111624500Y-80017100D01*
X115799793Y-80017100D01*
X118594793Y-80017100D01*
X122770500Y-80017100D01*
X122837539Y-80036785D01*
X122883294Y-80089589D01*
X122894500Y-80141100D01*
X122894500Y-81069326D01*
X122921791Y-81171183D01*
X122921792Y-81171185D01*
X122921793Y-81171187D01*
X122927717Y-81181448D01*
X122927721Y-81181454D01*
X122927722Y-81181457D01*
X122934235Y-81192739D01*
X122936376Y-81199328D01*
X122944470Y-81210469D01*
X122947716Y-81216091D01*
X122947726Y-81216106D01*
X122964405Y-81244994D01*
X122974520Y-81262513D01*
X122974522Y-81262515D01*
X123002904Y-81290897D01*
X123010394Y-81301206D01*
X123020702Y-81308695D01*
X123049087Y-81337080D01*
X123101120Y-81367121D01*
X123112272Y-81375224D01*
X123118861Y-81377364D01*
X123125274Y-81381066D01*
X123130141Y-81383877D01*
X123130143Y-81383878D01*
X123140413Y-81389807D01*
X123242273Y-81417100D01*
X123242275Y-81417100D01*
X126947725Y-81417100D01*
X126947727Y-81417100D01*
X127049587Y-81389807D01*
X127071138Y-81377364D01*
X127077728Y-81375224D01*
X127088880Y-81367121D01*
X127140913Y-81337080D01*
X127169300Y-81308692D01*
X127179606Y-81301206D01*
X127187096Y-81290897D01*
X127215480Y-81262513D01*
X127245523Y-81210476D01*
X127253624Y-81199328D01*
X127255764Y-81192737D01*
X127268207Y-81171187D01*
X127295500Y-81069327D01*
X127295500Y-81016600D01*
X127295500Y-81016100D01*
X127295500Y-80141100D01*
X127315185Y-80074061D01*
X127367989Y-80028306D01*
X127419500Y-80017100D01*
X131646474Y-80017100D01*
X131646551Y-80017089D01*
X165048425Y-80011050D01*
X165115468Y-80030722D01*
G37*
%TD.AperFunction*%
%TD*%
M02*
