%TF.GenerationSoftware,KiCad,Pcbnew,9.0.6*%
%TF.CreationDate,2026-02-26T15:04:39-08:00*%
%TF.ProjectId,photogate v1,70686f74-6f67-4617-9465-2076312e6b69,rev?*%
%TF.SameCoordinates,Original*%
%TF.FileFunction,Drillmap*%
%TF.FilePolarity,Positive*%
%FSLAX45Y45*%
G04 Gerber Fmt 4.5, Leading zero omitted, Abs format (unit mm)*
G04 Created by KiCad (PCBNEW 9.0.6) date 2026-02-26 15:04:39*
%MOMM*%
%LPD*%
G01*
G04 APERTURE LIST*
%ADD10C,0.050000*%
%ADD11C,0.120000*%
%ADD12C,0.200000*%
%ADD13C,0.100000*%
%ADD14C,0.110000*%
G04 APERTURE END LIST*
D10*
X10280000Y-8001660D02*
X9398000Y-8001267D01*
X9144000Y-8255000D02*
X9144000Y-16256000D01*
X16764000Y-8255000D02*
X16764000Y-16256000D01*
X16764000Y-8255000D02*
X16510000Y-8001054D01*
X11580000Y-8001660D02*
X11859500Y-8001660D01*
X9398000Y-16510000D02*
X16510000Y-16510000D01*
X13159500Y-8001660D02*
X16510000Y-8001054D01*
X9398000Y-8001267D02*
X9144000Y-8255000D01*
X9398000Y-16510000D02*
X9144000Y-16256000D01*
X16764000Y-16256000D02*
X16510000Y-16510000D01*
D11*
X10710000Y-8001660D02*
X10280000Y-8001660D01*
X10710000Y-8101660D02*
X10710000Y-8001660D01*
X10750000Y-8141660D02*
X11110000Y-8141660D01*
X11150000Y-8001660D02*
X11580000Y-8001660D01*
X11150000Y-8101660D02*
X11150000Y-8001660D01*
X10750000Y-8141660D02*
G75*
G02*
X10710000Y-8101660I0J40000D01*
G01*
X11150000Y-8101660D02*
G75*
G02*
X11110000Y-8141660I-40000J0D01*
G01*
X12289500Y-8001660D02*
X11859500Y-8001660D01*
X12289500Y-8101660D02*
X12289500Y-8001660D01*
X12329500Y-8141660D02*
X12689500Y-8141660D01*
X12729500Y-8001660D02*
X13159500Y-8001660D01*
X12729500Y-8101660D02*
X12729500Y-8001660D01*
X12329500Y-8141660D02*
G75*
G02*
X12289500Y-8101660I0J40000D01*
G01*
X12729500Y-8101660D02*
G75*
G02*
X12689500Y-8141660I-40000J0D01*
G01*
D12*
D13*
X9738360Y-12786360D02*
X9819640Y-12867640D01*
X9819640Y-12786360D02*
X9738360Y-12867640D01*
X9738360Y-13548360D02*
X9819640Y-13629640D01*
X9819640Y-13548360D02*
X9738360Y-13629640D01*
X10043160Y-13738860D02*
X10124440Y-13820140D01*
X10124440Y-13738860D02*
X10043160Y-13820140D01*
X10124440Y-13802360D02*
X10124440Y-13756640D01*
X10043160Y-13756640D02*
G75*
G02*
X10124440Y-13756640I40640J0D01*
G01*
X10043160Y-13756640D02*
X10043160Y-13802360D01*
X10043160Y-13802360D02*
G75*
G03*
X10124440Y-13802360I40640J0D01*
G01*
X10055860Y-12976860D02*
X10137140Y-13058140D01*
X10137140Y-12976860D02*
X10055860Y-13058140D01*
X10068560Y-8341360D02*
X10149840Y-8422640D01*
X10149840Y-8341360D02*
X10068560Y-8422640D01*
X10068560Y-9103360D02*
X10149840Y-9184640D01*
X10149840Y-9103360D02*
X10068560Y-9184640D01*
X10259060Y-13738860D02*
X10340340Y-13820140D01*
X10340340Y-13738860D02*
X10259060Y-13820140D01*
X10340340Y-13802360D02*
X10340340Y-13756640D01*
X10259060Y-13756640D02*
G75*
G02*
X10340340Y-13756640I40640J0D01*
G01*
X10259060Y-13756640D02*
X10259060Y-13802360D01*
X10259060Y-13802360D02*
G75*
G03*
X10340340Y-13802360I40640J0D01*
G01*
X10389360Y-8911020D02*
X10470640Y-8992300D01*
X10470640Y-8911020D02*
X10389360Y-8992300D01*
X10470640Y-8992300D02*
X10470640Y-8911020D01*
X10389360Y-8911020D02*
G75*
G02*
X10470640Y-8911020I40640J0D01*
G01*
X10389360Y-8911020D02*
X10389360Y-8992300D01*
X10389360Y-8992300D02*
G75*
G03*
X10470640Y-8992300I40640J0D01*
G01*
X10474960Y-13738860D02*
X10556240Y-13820140D01*
X10556240Y-13738860D02*
X10474960Y-13820140D01*
X10556240Y-13802360D02*
X10556240Y-13756640D01*
X10474960Y-13756640D02*
G75*
G02*
X10556240Y-13756640I40640J0D01*
G01*
X10474960Y-13756640D02*
X10474960Y-13802360D01*
X10474960Y-13802360D02*
G75*
G03*
X10556240Y-13802360I40640J0D01*
G01*
X10639360Y-8911020D02*
X10720640Y-8992300D01*
X10720640Y-8911020D02*
X10639360Y-8992300D01*
X10720640Y-8992300D02*
X10720640Y-8911020D01*
X10639360Y-8911020D02*
G75*
G02*
X10720640Y-8911020I40640J0D01*
G01*
X10639360Y-8911020D02*
X10639360Y-8992300D01*
X10639360Y-8992300D02*
G75*
G03*
X10720640Y-8992300I40640J0D01*
G01*
X10690860Y-13738860D02*
X10772140Y-13820140D01*
X10772140Y-13738860D02*
X10690860Y-13820140D01*
X10772140Y-13802360D02*
X10772140Y-13756640D01*
X10690860Y-13756640D02*
G75*
G02*
X10772140Y-13756640I40640J0D01*
G01*
X10690860Y-13756640D02*
X10690860Y-13802360D01*
X10690860Y-13802360D02*
G75*
G03*
X10772140Y-13802360I40640J0D01*
G01*
X10817860Y-12976860D02*
X10899140Y-13058140D01*
X10899140Y-12976860D02*
X10817860Y-13058140D01*
X10889360Y-8411020D02*
X10970640Y-8492300D01*
X10970640Y-8411020D02*
X10889360Y-8492300D01*
X10970640Y-8411020D02*
X10889360Y-8411020D01*
X10889360Y-8492300D02*
G75*
G02*
X10889360Y-8411020I0J40640D01*
G01*
X10889360Y-8492300D02*
X10970640Y-8492300D01*
X10970640Y-8492300D02*
G75*
G03*
X10970640Y-8411020I0J40640D01*
G01*
X11139360Y-8911020D02*
X11220640Y-8992300D01*
X11220640Y-8911020D02*
X11139360Y-8992300D01*
X11220640Y-8992300D02*
X11220640Y-8911020D01*
X11139360Y-8911020D02*
G75*
G02*
X11220640Y-8911020I40640J0D01*
G01*
X11139360Y-8911020D02*
X11139360Y-8992300D01*
X11139360Y-8992300D02*
G75*
G03*
X11220640Y-8992300I40640J0D01*
G01*
X11198860Y-12976860D02*
X11280140Y-13058140D01*
X11280140Y-12976860D02*
X11198860Y-13058140D01*
X11363960Y-9433560D02*
X11445240Y-9514840D01*
X11445240Y-9433560D02*
X11363960Y-9514840D01*
X11389360Y-8911020D02*
X11470640Y-8992300D01*
X11470640Y-8911020D02*
X11389360Y-8992300D01*
X11470640Y-8992300D02*
X11470640Y-8911020D01*
X11389360Y-8911020D02*
G75*
G02*
X11470640Y-8911020I40640J0D01*
G01*
X11389360Y-8911020D02*
X11389360Y-8992300D01*
X11389360Y-8992300D02*
G75*
G03*
X11470640Y-8992300I40640J0D01*
G01*
X11960860Y-12976860D02*
X12042140Y-13058140D01*
X12042140Y-12976860D02*
X11960860Y-13058140D01*
X11968860Y-8911020D02*
X12050140Y-8992300D01*
X12050140Y-8911020D02*
X11968860Y-8992300D01*
X12050140Y-8992300D02*
X12050140Y-8911020D01*
X11968860Y-8911020D02*
G75*
G02*
X12050140Y-8911020I40640J0D01*
G01*
X11968860Y-8911020D02*
X11968860Y-8992300D01*
X11968860Y-8992300D02*
G75*
G03*
X12050140Y-8992300I40640J0D01*
G01*
X12125960Y-9433560D02*
X12207240Y-9514840D01*
X12207240Y-9433560D02*
X12125960Y-9514840D01*
X12218860Y-8911020D02*
X12300140Y-8992300D01*
X12300140Y-8911020D02*
X12218860Y-8992300D01*
X12300140Y-8992300D02*
X12300140Y-8911020D01*
X12218860Y-8911020D02*
G75*
G02*
X12300140Y-8911020I40640J0D01*
G01*
X12218860Y-8911020D02*
X12218860Y-8992300D01*
X12218860Y-8992300D02*
G75*
G03*
X12300140Y-8992300I40640J0D01*
G01*
X12468860Y-8411020D02*
X12550140Y-8492300D01*
X12550140Y-8411020D02*
X12468860Y-8492300D01*
X12550140Y-8411020D02*
X12468860Y-8411020D01*
X12468860Y-8492300D02*
G75*
G02*
X12468860Y-8411020I0J40640D01*
G01*
X12468860Y-8492300D02*
X12550140Y-8492300D01*
X12550140Y-8492300D02*
G75*
G03*
X12550140Y-8411020I0J40640D01*
G01*
X12480560Y-9503960D02*
X12561840Y-9585240D01*
X12561840Y-9503960D02*
X12480560Y-9585240D01*
X12718860Y-8911020D02*
X12800140Y-8992300D01*
X12800140Y-8911020D02*
X12718860Y-8992300D01*
X12800140Y-8992300D02*
X12800140Y-8911020D01*
X12718860Y-8911020D02*
G75*
G02*
X12800140Y-8911020I40640J0D01*
G01*
X12718860Y-8911020D02*
X12718860Y-8992300D01*
X12718860Y-8992300D02*
G75*
G03*
X12800140Y-8992300I40640J0D01*
G01*
X12734560Y-9503960D02*
X12815840Y-9585240D01*
X12815840Y-9503960D02*
X12734560Y-9585240D01*
X12968860Y-8911020D02*
X13050140Y-8992300D01*
X13050140Y-8911020D02*
X12968860Y-8992300D01*
X13050140Y-8992300D02*
X13050140Y-8911020D01*
X12968860Y-8911020D02*
G75*
G02*
X13050140Y-8911020I40640J0D01*
G01*
X12968860Y-8911020D02*
X12968860Y-8992300D01*
X12968860Y-8992300D02*
G75*
G03*
X13050140Y-8992300I40640J0D01*
G01*
X12988560Y-9503960D02*
X13069840Y-9585240D01*
X13069840Y-9503960D02*
X12988560Y-9585240D01*
X13167360Y-9996360D02*
X13248640Y-10077640D01*
X13248640Y-9996360D02*
X13167360Y-10077640D01*
X13167360Y-10246360D02*
X13248640Y-10327640D01*
X13248640Y-10246360D02*
X13167360Y-10327640D01*
X14488160Y-11846560D02*
X14569440Y-11927840D01*
X14569440Y-11846560D02*
X14488160Y-11927840D01*
X14488160Y-12608560D02*
X14569440Y-12689840D01*
X14569440Y-12608560D02*
X14488160Y-12689840D01*
X15046960Y-12659360D02*
X15128240Y-12740640D01*
X15128240Y-12659360D02*
X15046960Y-12740640D01*
X15046960Y-13421360D02*
X15128240Y-13502640D01*
X15128240Y-13421360D02*
X15046960Y-13502640D01*
X15389860Y-12053760D02*
X15471140Y-12135040D01*
X15471140Y-12053760D02*
X15389860Y-12135040D01*
X15639860Y-12053760D02*
X15721140Y-12135040D01*
X15721140Y-12053760D02*
X15639860Y-12135040D01*
X16092360Y-11198860D02*
X16173640Y-11280140D01*
X16173640Y-11198860D02*
X16092360Y-11280140D01*
X16291560Y-9319960D02*
X16372840Y-9401240D01*
X16372840Y-9319960D02*
X16291560Y-9401240D01*
X16405860Y-9319960D02*
X16258540Y-9319960D01*
X16258540Y-9401240D02*
G75*
G02*
X16258540Y-9319960I0J40640D01*
G01*
X16258540Y-9401240D02*
X16405860Y-9401240D01*
X16405860Y-9401240D02*
G75*
G03*
X16405860Y-9319960I0J40640D01*
G01*
X16291560Y-9675560D02*
X16372840Y-9756840D01*
X16372840Y-9675560D02*
X16291560Y-9756840D01*
X16291560Y-9967660D02*
X16372840Y-10048940D01*
X16372840Y-9967660D02*
X16291560Y-10048940D01*
X16291560Y-10259760D02*
X16372840Y-10341040D01*
X16372840Y-10259760D02*
X16291560Y-10341040D01*
X16291560Y-10615360D02*
X16372840Y-10696640D01*
X16372840Y-10615360D02*
X16291560Y-10696640D01*
X16405860Y-10615360D02*
X16258540Y-10615360D01*
X16258540Y-10696640D02*
G75*
G02*
X16258540Y-10615360I0J40640D01*
G01*
X16258540Y-10696640D02*
X16405860Y-10696640D01*
X16405860Y-10696640D02*
G75*
G03*
X16405860Y-10615360I0J40640D01*
G01*
X16342360Y-11198860D02*
X16423640Y-11280140D01*
X16423640Y-11198860D02*
X16342360Y-11280140D01*
X13451500Y-8331200D02*
G75*
G02*
X13361500Y-8331200I-45000J0D01*
G01*
X13361500Y-8331200D02*
G75*
G02*
X13451500Y-8331200I45000J0D01*
G01*
X13451500Y-9093200D02*
G75*
G02*
X13361500Y-9093200I-45000J0D01*
G01*
X13361500Y-9093200D02*
G75*
G02*
X13451500Y-9093200I45000J0D01*
G01*
X14192800Y-9702800D02*
G75*
G02*
X14102800Y-9702800I-45000J0D01*
G01*
X14102800Y-9702800D02*
G75*
G02*
X14192800Y-9702800I45000J0D01*
G01*
X14192800Y-10464800D02*
G75*
G02*
X14102800Y-10464800I-45000J0D01*
G01*
X14102800Y-10464800D02*
G75*
G02*
X14192800Y-10464800I45000J0D01*
G01*
X15335800Y-8661400D02*
G75*
G02*
X15245800Y-8661400I-45000J0D01*
G01*
X15245800Y-8661400D02*
G75*
G02*
X15335800Y-8661400I45000J0D01*
G01*
X15335800Y-9423400D02*
G75*
G02*
X15245800Y-9423400I-45000J0D01*
G01*
X15245800Y-9423400D02*
G75*
G02*
X15335800Y-9423400I45000J0D01*
G01*
X10312400Y-10796800D02*
X10312400Y-10896800D01*
X10262400Y-10846800D02*
X10362400Y-10846800D01*
X10312400Y-12320800D02*
X10312400Y-12420800D01*
X10262400Y-12370800D02*
X10362400Y-12370800D01*
X10566400Y-10796800D02*
X10566400Y-10896800D01*
X10516400Y-10846800D02*
X10616400Y-10846800D01*
X10566400Y-12320800D02*
X10566400Y-12420800D01*
X10516400Y-12370800D02*
X10616400Y-12370800D01*
X10820400Y-10796800D02*
X10820400Y-10896800D01*
X10770400Y-10846800D02*
X10870400Y-10846800D01*
X10820400Y-12320800D02*
X10820400Y-12420800D01*
X10770400Y-12370800D02*
X10870400Y-12370800D01*
X11074400Y-10796800D02*
X11074400Y-10896800D01*
X11024400Y-10846800D02*
X11124400Y-10846800D01*
X11074400Y-12320800D02*
X11074400Y-12420800D01*
X11024400Y-12370800D02*
X11124400Y-12370800D01*
X11328400Y-10796800D02*
X11328400Y-10896800D01*
X11278400Y-10846800D02*
X11378400Y-10846800D01*
X11328400Y-12320800D02*
X11328400Y-12420800D01*
X11278400Y-12370800D02*
X11378400Y-12370800D01*
X11582400Y-10796800D02*
X11582400Y-10896800D01*
X11532400Y-10846800D02*
X11632400Y-10846800D01*
X11582400Y-12320800D02*
X11582400Y-12420800D01*
X11532400Y-12370800D02*
X11632400Y-12370800D01*
X11836400Y-10796800D02*
X11836400Y-10896800D01*
X11786400Y-10846800D02*
X11886400Y-10846800D01*
X11836400Y-12320800D02*
X11836400Y-12420800D01*
X11786400Y-12370800D02*
X11886400Y-12370800D01*
X12090400Y-10796800D02*
X12090400Y-10896800D01*
X12040400Y-10846800D02*
X12140400Y-10846800D01*
X12090400Y-12320800D02*
X12090400Y-12420800D01*
X12040400Y-12370800D02*
X12140400Y-12370800D01*
X12344400Y-10796800D02*
X12344400Y-10896800D01*
X12294400Y-10846800D02*
X12394400Y-10846800D01*
X12344400Y-12320800D02*
X12344400Y-12420800D01*
X12294400Y-12370800D02*
X12394400Y-12370800D01*
X12598400Y-10796800D02*
X12598400Y-10896800D01*
X12548400Y-10846800D02*
X12648400Y-10846800D01*
X12598400Y-12320800D02*
X12598400Y-12420800D01*
X12548400Y-12370800D02*
X12648400Y-12370800D01*
X12852400Y-10796800D02*
X12852400Y-10896800D01*
X12802400Y-10846800D02*
X12902400Y-10846800D01*
X12852400Y-12320800D02*
X12852400Y-12420800D01*
X12802400Y-12370800D02*
X12902400Y-12370800D01*
X13106400Y-10796800D02*
X13106400Y-10896800D01*
X13056400Y-10846800D02*
X13156400Y-10846800D01*
X13106400Y-12320800D02*
X13106400Y-12420800D01*
X13056400Y-12370800D02*
X13156400Y-12370800D01*
X13360400Y-10796800D02*
X13360400Y-10896800D01*
X13310400Y-10846800D02*
X13410400Y-10846800D01*
X13360400Y-12320800D02*
X13360400Y-12420800D01*
X13310400Y-12370800D02*
X13410400Y-12370800D01*
X13614400Y-10796800D02*
X13614400Y-10896800D01*
X13564400Y-10846800D02*
X13664400Y-10846800D01*
X13614400Y-12320800D02*
X13614400Y-12420800D01*
X13564400Y-12370800D02*
X13664400Y-12370800D01*
X13868400Y-10796800D02*
X13868400Y-10896800D01*
X13818400Y-10846800D02*
X13918400Y-10846800D01*
X13868400Y-12320800D02*
X13868400Y-12420800D01*
X13818400Y-12370800D02*
X13918400Y-12370800D01*
X14125000Y-8867500D02*
X14125000Y-8967500D01*
X14075000Y-8917500D02*
X14175000Y-8917500D01*
X14175000Y-9027500D02*
X14175000Y-8807500D01*
X14075000Y-8807500D02*
G75*
G02*
X14175000Y-8807500I50000J0D01*
G01*
X14075000Y-8807500D02*
X14075000Y-9027500D01*
X14075000Y-9027500D02*
G75*
G03*
X14175000Y-9027500I50000J0D01*
G01*
X14605000Y-8527500D02*
X14605000Y-8627500D01*
X14555000Y-8577500D02*
X14655000Y-8577500D01*
X14715000Y-8527500D02*
X14495000Y-8527500D01*
X14495000Y-8627500D02*
G75*
G02*
X14495000Y-8527500I0J50000D01*
G01*
X14495000Y-8627500D02*
X14715000Y-8627500D01*
X14715000Y-8627500D02*
G75*
G03*
X14715000Y-8527500I0J50000D01*
G01*
X14605000Y-9157500D02*
X14605000Y-9257500D01*
X14555000Y-9207500D02*
X14655000Y-9207500D01*
X14735000Y-9157500D02*
X14475000Y-9157500D01*
X14475000Y-9257500D02*
G75*
G02*
X14475000Y-9157500I0J50000D01*
G01*
X14475000Y-9257500D02*
X14735000Y-9257500D01*
X14735000Y-9257500D02*
G75*
G03*
X14735000Y-9157500I0J50000D01*
G01*
X14643500Y-13348500D02*
X14643500Y-13448500D01*
X14593500Y-13398500D02*
X14693500Y-13398500D01*
X14643500Y-13602500D02*
X14643500Y-13702500D01*
X14593500Y-13652500D02*
X14693500Y-13652500D01*
X14643500Y-13856500D02*
X14643500Y-13956500D01*
X14593500Y-13906500D02*
X14693500Y-13906500D01*
X14643500Y-14110500D02*
X14643500Y-14210500D01*
X14593500Y-14160500D02*
X14693500Y-14160500D01*
D14*
X10160891Y-15590891D02*
X10160891Y-15513109D01*
X10083109Y-15513109D01*
X10083109Y-15590891D01*
X10160891Y-15590891D01*
X10160891Y-16040891D02*
X10160891Y-15963109D01*
X10083109Y-15963109D01*
X10083109Y-16040891D01*
X10160891Y-16040891D01*
X11318891Y-15590891D02*
X11318891Y-15513109D01*
X11241109Y-15513109D01*
X11241109Y-15590891D01*
X11318891Y-15590891D01*
X11318891Y-16040891D02*
X11318891Y-15963109D01*
X11241109Y-15963109D01*
X11241109Y-16040891D01*
X11318891Y-16040891D01*
X12408791Y-15590891D02*
X12408791Y-15513109D01*
X12331009Y-15513109D01*
X12331009Y-15590891D01*
X12408791Y-15590891D01*
X12408791Y-16040891D02*
X12408791Y-15963109D01*
X12331009Y-15963109D01*
X12331009Y-16040891D01*
X12408791Y-16040891D01*
X13566791Y-15590891D02*
X13566791Y-15513109D01*
X13489009Y-15513109D01*
X13489009Y-15590891D01*
X13566791Y-15590891D01*
X13566791Y-16040891D02*
X13566791Y-15963109D01*
X13489009Y-15963109D01*
X13489009Y-16040891D01*
X13566791Y-16040891D01*
X14656691Y-15590891D02*
X14656691Y-15513109D01*
X14578909Y-15513109D01*
X14578909Y-15590891D01*
X14656691Y-15590891D01*
X14656691Y-16040891D02*
X14656691Y-15963109D01*
X14578909Y-15963109D01*
X14578909Y-16040891D01*
X14656691Y-16040891D01*
X15814691Y-15590891D02*
X15814691Y-15513109D01*
X15736909Y-15513109D01*
X15736909Y-15590891D01*
X15814691Y-15590891D01*
X15814691Y-16040891D02*
X15814691Y-15963109D01*
X15736909Y-15963109D01*
X15736909Y-16040891D01*
X15814691Y-16040891D01*
D11*
X14630400Y-9889800D02*
X14690400Y-9829800D01*
X14630400Y-9769800D01*
X14570400Y-9829800D01*
X14630400Y-9889800D01*
X14884400Y-9889800D02*
X14944400Y-9829800D01*
X14884400Y-9769800D01*
X14824400Y-9829800D01*
X14884400Y-9889800D01*
X15138400Y-9889800D02*
X15198400Y-9829800D01*
X15138400Y-9769800D01*
X15078400Y-9829800D01*
X15138400Y-9889800D01*
D12*
X9402277Y-16823984D02*
X9402277Y-16623984D01*
X9402277Y-16623984D02*
X9449896Y-16623984D01*
X9449896Y-16623984D02*
X9478467Y-16633508D01*
X9478467Y-16633508D02*
X9497515Y-16652555D01*
X9497515Y-16652555D02*
X9507039Y-16671603D01*
X9507039Y-16671603D02*
X9516563Y-16709698D01*
X9516563Y-16709698D02*
X9516563Y-16738269D01*
X9516563Y-16738269D02*
X9507039Y-16776365D01*
X9507039Y-16776365D02*
X9497515Y-16795412D01*
X9497515Y-16795412D02*
X9478467Y-16814460D01*
X9478467Y-16814460D02*
X9449896Y-16823984D01*
X9449896Y-16823984D02*
X9402277Y-16823984D01*
X9602277Y-16823984D02*
X9602277Y-16690650D01*
X9602277Y-16728746D02*
X9611801Y-16709698D01*
X9611801Y-16709698D02*
X9621324Y-16700174D01*
X9621324Y-16700174D02*
X9640372Y-16690650D01*
X9640372Y-16690650D02*
X9659420Y-16690650D01*
X9726086Y-16823984D02*
X9726086Y-16690650D01*
X9726086Y-16623984D02*
X9716563Y-16633508D01*
X9716563Y-16633508D02*
X9726086Y-16643031D01*
X9726086Y-16643031D02*
X9735610Y-16633508D01*
X9735610Y-16633508D02*
X9726086Y-16623984D01*
X9726086Y-16623984D02*
X9726086Y-16643031D01*
X9849896Y-16823984D02*
X9830848Y-16814460D01*
X9830848Y-16814460D02*
X9821324Y-16795412D01*
X9821324Y-16795412D02*
X9821324Y-16623984D01*
X9954658Y-16823984D02*
X9935610Y-16814460D01*
X9935610Y-16814460D02*
X9926086Y-16795412D01*
X9926086Y-16795412D02*
X9926086Y-16623984D01*
X10183229Y-16823984D02*
X10183229Y-16623984D01*
X10183229Y-16623984D02*
X10249896Y-16766841D01*
X10249896Y-16766841D02*
X10316563Y-16623984D01*
X10316563Y-16623984D02*
X10316563Y-16823984D01*
X10497515Y-16823984D02*
X10497515Y-16719222D01*
X10497515Y-16719222D02*
X10487991Y-16700174D01*
X10487991Y-16700174D02*
X10468944Y-16690650D01*
X10468944Y-16690650D02*
X10430848Y-16690650D01*
X10430848Y-16690650D02*
X10411801Y-16700174D01*
X10497515Y-16814460D02*
X10478467Y-16823984D01*
X10478467Y-16823984D02*
X10430848Y-16823984D01*
X10430848Y-16823984D02*
X10411801Y-16814460D01*
X10411801Y-16814460D02*
X10402277Y-16795412D01*
X10402277Y-16795412D02*
X10402277Y-16776365D01*
X10402277Y-16776365D02*
X10411801Y-16757317D01*
X10411801Y-16757317D02*
X10430848Y-16747793D01*
X10430848Y-16747793D02*
X10478467Y-16747793D01*
X10478467Y-16747793D02*
X10497515Y-16738269D01*
X10592753Y-16690650D02*
X10592753Y-16890650D01*
X10592753Y-16700174D02*
X10611801Y-16690650D01*
X10611801Y-16690650D02*
X10649896Y-16690650D01*
X10649896Y-16690650D02*
X10668944Y-16700174D01*
X10668944Y-16700174D02*
X10678467Y-16709698D01*
X10678467Y-16709698D02*
X10687991Y-16728746D01*
X10687991Y-16728746D02*
X10687991Y-16785889D01*
X10687991Y-16785889D02*
X10678467Y-16804936D01*
X10678467Y-16804936D02*
X10668944Y-16814460D01*
X10668944Y-16814460D02*
X10649896Y-16823984D01*
X10649896Y-16823984D02*
X10611801Y-16823984D01*
X10611801Y-16823984D02*
X10592753Y-16814460D01*
X10773705Y-16804936D02*
X10783229Y-16814460D01*
X10783229Y-16814460D02*
X10773705Y-16823984D01*
X10773705Y-16823984D02*
X10764182Y-16814460D01*
X10764182Y-16814460D02*
X10773705Y-16804936D01*
X10773705Y-16804936D02*
X10773705Y-16823984D01*
X10773705Y-16700174D02*
X10783229Y-16709698D01*
X10783229Y-16709698D02*
X10773705Y-16719222D01*
X10773705Y-16719222D02*
X10764182Y-16709698D01*
X10764182Y-16709698D02*
X10773705Y-16700174D01*
X10773705Y-16700174D02*
X10773705Y-16719222D01*
D13*
X9060220Y-17111860D02*
X9141500Y-17193140D01*
X9141500Y-17111860D02*
X9060220Y-17193140D01*
D12*
X9440372Y-17043984D02*
X9459420Y-17043984D01*
X9459420Y-17043984D02*
X9478467Y-17053508D01*
X9478467Y-17053508D02*
X9487991Y-17063031D01*
X9487991Y-17063031D02*
X9497515Y-17082079D01*
X9497515Y-17082079D02*
X9507039Y-17120174D01*
X9507039Y-17120174D02*
X9507039Y-17167793D01*
X9507039Y-17167793D02*
X9497515Y-17205889D01*
X9497515Y-17205889D02*
X9487991Y-17224936D01*
X9487991Y-17224936D02*
X9478467Y-17234460D01*
X9478467Y-17234460D02*
X9459420Y-17243984D01*
X9459420Y-17243984D02*
X9440372Y-17243984D01*
X9440372Y-17243984D02*
X9421324Y-17234460D01*
X9421324Y-17234460D02*
X9411801Y-17224936D01*
X9411801Y-17224936D02*
X9402277Y-17205889D01*
X9402277Y-17205889D02*
X9392753Y-17167793D01*
X9392753Y-17167793D02*
X9392753Y-17120174D01*
X9392753Y-17120174D02*
X9402277Y-17082079D01*
X9402277Y-17082079D02*
X9411801Y-17063031D01*
X9411801Y-17063031D02*
X9421324Y-17053508D01*
X9421324Y-17053508D02*
X9440372Y-17043984D01*
X9592753Y-17224936D02*
X9602277Y-17234460D01*
X9602277Y-17234460D02*
X9592753Y-17243984D01*
X9592753Y-17243984D02*
X9583229Y-17234460D01*
X9583229Y-17234460D02*
X9592753Y-17224936D01*
X9592753Y-17224936D02*
X9592753Y-17243984D01*
X9716563Y-17129698D02*
X9697515Y-17120174D01*
X9697515Y-17120174D02*
X9687991Y-17110650D01*
X9687991Y-17110650D02*
X9678467Y-17091603D01*
X9678467Y-17091603D02*
X9678467Y-17082079D01*
X9678467Y-17082079D02*
X9687991Y-17063031D01*
X9687991Y-17063031D02*
X9697515Y-17053508D01*
X9697515Y-17053508D02*
X9716563Y-17043984D01*
X9716563Y-17043984D02*
X9754658Y-17043984D01*
X9754658Y-17043984D02*
X9773705Y-17053508D01*
X9773705Y-17053508D02*
X9783229Y-17063031D01*
X9783229Y-17063031D02*
X9792753Y-17082079D01*
X9792753Y-17082079D02*
X9792753Y-17091603D01*
X9792753Y-17091603D02*
X9783229Y-17110650D01*
X9783229Y-17110650D02*
X9773705Y-17120174D01*
X9773705Y-17120174D02*
X9754658Y-17129698D01*
X9754658Y-17129698D02*
X9716563Y-17129698D01*
X9716563Y-17129698D02*
X9697515Y-17139222D01*
X9697515Y-17139222D02*
X9687991Y-17148746D01*
X9687991Y-17148746D02*
X9678467Y-17167793D01*
X9678467Y-17167793D02*
X9678467Y-17205889D01*
X9678467Y-17205889D02*
X9687991Y-17224936D01*
X9687991Y-17224936D02*
X9697515Y-17234460D01*
X9697515Y-17234460D02*
X9716563Y-17243984D01*
X9716563Y-17243984D02*
X9754658Y-17243984D01*
X9754658Y-17243984D02*
X9773705Y-17234460D01*
X9773705Y-17234460D02*
X9783229Y-17224936D01*
X9783229Y-17224936D02*
X9792753Y-17205889D01*
X9792753Y-17205889D02*
X9792753Y-17167793D01*
X9792753Y-17167793D02*
X9783229Y-17148746D01*
X9783229Y-17148746D02*
X9773705Y-17139222D01*
X9773705Y-17139222D02*
X9754658Y-17129698D01*
X9983229Y-17243984D02*
X9868944Y-17243984D01*
X9926086Y-17243984D02*
X9926086Y-17043984D01*
X9926086Y-17043984D02*
X9907039Y-17072555D01*
X9907039Y-17072555D02*
X9887991Y-17091603D01*
X9887991Y-17091603D02*
X9868944Y-17101127D01*
X10049896Y-17043984D02*
X10173705Y-17043984D01*
X10173705Y-17043984D02*
X10107039Y-17120174D01*
X10107039Y-17120174D02*
X10135610Y-17120174D01*
X10135610Y-17120174D02*
X10154658Y-17129698D01*
X10154658Y-17129698D02*
X10164182Y-17139222D01*
X10164182Y-17139222D02*
X10173705Y-17158270D01*
X10173705Y-17158270D02*
X10173705Y-17205889D01*
X10173705Y-17205889D02*
X10164182Y-17224936D01*
X10164182Y-17224936D02*
X10154658Y-17234460D01*
X10154658Y-17234460D02*
X10135610Y-17243984D01*
X10135610Y-17243984D02*
X10078467Y-17243984D01*
X10078467Y-17243984D02*
X10059420Y-17234460D01*
X10059420Y-17234460D02*
X10049896Y-17224936D01*
X10259420Y-17243984D02*
X10259420Y-17110650D01*
X10259420Y-17129698D02*
X10268944Y-17120174D01*
X10268944Y-17120174D02*
X10287991Y-17110650D01*
X10287991Y-17110650D02*
X10316563Y-17110650D01*
X10316563Y-17110650D02*
X10335610Y-17120174D01*
X10335610Y-17120174D02*
X10345134Y-17139222D01*
X10345134Y-17139222D02*
X10345134Y-17243984D01*
X10345134Y-17139222D02*
X10354658Y-17120174D01*
X10354658Y-17120174D02*
X10373705Y-17110650D01*
X10373705Y-17110650D02*
X10402277Y-17110650D01*
X10402277Y-17110650D02*
X10421325Y-17120174D01*
X10421325Y-17120174D02*
X10430848Y-17139222D01*
X10430848Y-17139222D02*
X10430848Y-17243984D01*
X10526086Y-17243984D02*
X10526086Y-17110650D01*
X10526086Y-17129698D02*
X10535610Y-17120174D01*
X10535610Y-17120174D02*
X10554658Y-17110650D01*
X10554658Y-17110650D02*
X10583229Y-17110650D01*
X10583229Y-17110650D02*
X10602277Y-17120174D01*
X10602277Y-17120174D02*
X10611801Y-17139222D01*
X10611801Y-17139222D02*
X10611801Y-17243984D01*
X10611801Y-17139222D02*
X10621325Y-17120174D01*
X10621325Y-17120174D02*
X10640372Y-17110650D01*
X10640372Y-17110650D02*
X10668944Y-17110650D01*
X10668944Y-17110650D02*
X10687991Y-17120174D01*
X10687991Y-17120174D02*
X10697515Y-17139222D01*
X10697515Y-17139222D02*
X10697515Y-17243984D01*
X11087991Y-17034460D02*
X10916563Y-17291603D01*
X11345134Y-17043984D02*
X11364182Y-17043984D01*
X11364182Y-17043984D02*
X11383229Y-17053508D01*
X11383229Y-17053508D02*
X11392753Y-17063031D01*
X11392753Y-17063031D02*
X11402277Y-17082079D01*
X11402277Y-17082079D02*
X11411801Y-17120174D01*
X11411801Y-17120174D02*
X11411801Y-17167793D01*
X11411801Y-17167793D02*
X11402277Y-17205889D01*
X11402277Y-17205889D02*
X11392753Y-17224936D01*
X11392753Y-17224936D02*
X11383229Y-17234460D01*
X11383229Y-17234460D02*
X11364182Y-17243984D01*
X11364182Y-17243984D02*
X11345134Y-17243984D01*
X11345134Y-17243984D02*
X11326086Y-17234460D01*
X11326086Y-17234460D02*
X11316563Y-17224936D01*
X11316563Y-17224936D02*
X11307039Y-17205889D01*
X11307039Y-17205889D02*
X11297515Y-17167793D01*
X11297515Y-17167793D02*
X11297515Y-17120174D01*
X11297515Y-17120174D02*
X11307039Y-17082079D01*
X11307039Y-17082079D02*
X11316563Y-17063031D01*
X11316563Y-17063031D02*
X11326086Y-17053508D01*
X11326086Y-17053508D02*
X11345134Y-17043984D01*
X11497515Y-17224936D02*
X11507039Y-17234460D01*
X11507039Y-17234460D02*
X11497515Y-17243984D01*
X11497515Y-17243984D02*
X11487991Y-17234460D01*
X11487991Y-17234460D02*
X11497515Y-17224936D01*
X11497515Y-17224936D02*
X11497515Y-17243984D01*
X11630848Y-17043984D02*
X11649896Y-17043984D01*
X11649896Y-17043984D02*
X11668944Y-17053508D01*
X11668944Y-17053508D02*
X11678467Y-17063031D01*
X11678467Y-17063031D02*
X11687991Y-17082079D01*
X11687991Y-17082079D02*
X11697515Y-17120174D01*
X11697515Y-17120174D02*
X11697515Y-17167793D01*
X11697515Y-17167793D02*
X11687991Y-17205889D01*
X11687991Y-17205889D02*
X11678467Y-17224936D01*
X11678467Y-17224936D02*
X11668944Y-17234460D01*
X11668944Y-17234460D02*
X11649896Y-17243984D01*
X11649896Y-17243984D02*
X11630848Y-17243984D01*
X11630848Y-17243984D02*
X11611801Y-17234460D01*
X11611801Y-17234460D02*
X11602277Y-17224936D01*
X11602277Y-17224936D02*
X11592753Y-17205889D01*
X11592753Y-17205889D02*
X11583229Y-17167793D01*
X11583229Y-17167793D02*
X11583229Y-17120174D01*
X11583229Y-17120174D02*
X11592753Y-17082079D01*
X11592753Y-17082079D02*
X11602277Y-17063031D01*
X11602277Y-17063031D02*
X11611801Y-17053508D01*
X11611801Y-17053508D02*
X11630848Y-17043984D01*
X11764182Y-17043984D02*
X11887991Y-17043984D01*
X11887991Y-17043984D02*
X11821325Y-17120174D01*
X11821325Y-17120174D02*
X11849896Y-17120174D01*
X11849896Y-17120174D02*
X11868944Y-17129698D01*
X11868944Y-17129698D02*
X11878467Y-17139222D01*
X11878467Y-17139222D02*
X11887991Y-17158270D01*
X11887991Y-17158270D02*
X11887991Y-17205889D01*
X11887991Y-17205889D02*
X11878467Y-17224936D01*
X11878467Y-17224936D02*
X11868944Y-17234460D01*
X11868944Y-17234460D02*
X11849896Y-17243984D01*
X11849896Y-17243984D02*
X11792753Y-17243984D01*
X11792753Y-17243984D02*
X11773706Y-17234460D01*
X11773706Y-17234460D02*
X11764182Y-17224936D01*
X11964182Y-17063031D02*
X11973706Y-17053508D01*
X11973706Y-17053508D02*
X11992753Y-17043984D01*
X11992753Y-17043984D02*
X12040372Y-17043984D01*
X12040372Y-17043984D02*
X12059420Y-17053508D01*
X12059420Y-17053508D02*
X12068944Y-17063031D01*
X12068944Y-17063031D02*
X12078467Y-17082079D01*
X12078467Y-17082079D02*
X12078467Y-17101127D01*
X12078467Y-17101127D02*
X12068944Y-17129698D01*
X12068944Y-17129698D02*
X11954658Y-17243984D01*
X11954658Y-17243984D02*
X12078467Y-17243984D01*
X12202277Y-17043984D02*
X12221325Y-17043984D01*
X12221325Y-17043984D02*
X12240372Y-17053508D01*
X12240372Y-17053508D02*
X12249896Y-17063031D01*
X12249896Y-17063031D02*
X12259420Y-17082079D01*
X12259420Y-17082079D02*
X12268944Y-17120174D01*
X12268944Y-17120174D02*
X12268944Y-17167793D01*
X12268944Y-17167793D02*
X12259420Y-17205889D01*
X12259420Y-17205889D02*
X12249896Y-17224936D01*
X12249896Y-17224936D02*
X12240372Y-17234460D01*
X12240372Y-17234460D02*
X12221325Y-17243984D01*
X12221325Y-17243984D02*
X12202277Y-17243984D01*
X12202277Y-17243984D02*
X12183229Y-17234460D01*
X12183229Y-17234460D02*
X12173706Y-17224936D01*
X12173706Y-17224936D02*
X12164182Y-17205889D01*
X12164182Y-17205889D02*
X12154658Y-17167793D01*
X12154658Y-17167793D02*
X12154658Y-17120174D01*
X12154658Y-17120174D02*
X12164182Y-17082079D01*
X12164182Y-17082079D02*
X12173706Y-17063031D01*
X12173706Y-17063031D02*
X12183229Y-17053508D01*
X12183229Y-17053508D02*
X12202277Y-17043984D01*
X12345134Y-17043984D02*
X12345134Y-17082079D01*
X12421325Y-17043984D02*
X12421325Y-17082079D01*
X12716563Y-17320174D02*
X12707039Y-17310650D01*
X12707039Y-17310650D02*
X12687991Y-17282079D01*
X12687991Y-17282079D02*
X12678468Y-17263031D01*
X12678468Y-17263031D02*
X12668944Y-17234460D01*
X12668944Y-17234460D02*
X12659420Y-17186841D01*
X12659420Y-17186841D02*
X12659420Y-17148746D01*
X12659420Y-17148746D02*
X12668944Y-17101127D01*
X12668944Y-17101127D02*
X12678468Y-17072555D01*
X12678468Y-17072555D02*
X12687991Y-17053508D01*
X12687991Y-17053508D02*
X12707039Y-17024936D01*
X12707039Y-17024936D02*
X12716563Y-17015412D01*
X12783229Y-17063031D02*
X12792753Y-17053508D01*
X12792753Y-17053508D02*
X12811801Y-17043984D01*
X12811801Y-17043984D02*
X12859420Y-17043984D01*
X12859420Y-17043984D02*
X12878468Y-17053508D01*
X12878468Y-17053508D02*
X12887991Y-17063031D01*
X12887991Y-17063031D02*
X12897515Y-17082079D01*
X12897515Y-17082079D02*
X12897515Y-17101127D01*
X12897515Y-17101127D02*
X12887991Y-17129698D01*
X12887991Y-17129698D02*
X12773706Y-17243984D01*
X12773706Y-17243984D02*
X12897515Y-17243984D01*
X13068944Y-17043984D02*
X13030848Y-17043984D01*
X13030848Y-17043984D02*
X13011801Y-17053508D01*
X13011801Y-17053508D02*
X13002277Y-17063031D01*
X13002277Y-17063031D02*
X12983229Y-17091603D01*
X12983229Y-17091603D02*
X12973706Y-17129698D01*
X12973706Y-17129698D02*
X12973706Y-17205889D01*
X12973706Y-17205889D02*
X12983229Y-17224936D01*
X12983229Y-17224936D02*
X12992753Y-17234460D01*
X12992753Y-17234460D02*
X13011801Y-17243984D01*
X13011801Y-17243984D02*
X13049896Y-17243984D01*
X13049896Y-17243984D02*
X13068944Y-17234460D01*
X13068944Y-17234460D02*
X13078468Y-17224936D01*
X13078468Y-17224936D02*
X13087991Y-17205889D01*
X13087991Y-17205889D02*
X13087991Y-17158270D01*
X13087991Y-17158270D02*
X13078468Y-17139222D01*
X13078468Y-17139222D02*
X13068944Y-17129698D01*
X13068944Y-17129698D02*
X13049896Y-17120174D01*
X13049896Y-17120174D02*
X13011801Y-17120174D01*
X13011801Y-17120174D02*
X12992753Y-17129698D01*
X12992753Y-17129698D02*
X12983229Y-17139222D01*
X12983229Y-17139222D02*
X12973706Y-17158270D01*
X13326087Y-17243984D02*
X13326087Y-17043984D01*
X13411801Y-17243984D02*
X13411801Y-17139222D01*
X13411801Y-17139222D02*
X13402277Y-17120174D01*
X13402277Y-17120174D02*
X13383230Y-17110650D01*
X13383230Y-17110650D02*
X13354658Y-17110650D01*
X13354658Y-17110650D02*
X13335610Y-17120174D01*
X13335610Y-17120174D02*
X13326087Y-17129698D01*
X13535610Y-17243984D02*
X13516563Y-17234460D01*
X13516563Y-17234460D02*
X13507039Y-17224936D01*
X13507039Y-17224936D02*
X13497515Y-17205889D01*
X13497515Y-17205889D02*
X13497515Y-17148746D01*
X13497515Y-17148746D02*
X13507039Y-17129698D01*
X13507039Y-17129698D02*
X13516563Y-17120174D01*
X13516563Y-17120174D02*
X13535610Y-17110650D01*
X13535610Y-17110650D02*
X13564182Y-17110650D01*
X13564182Y-17110650D02*
X13583230Y-17120174D01*
X13583230Y-17120174D02*
X13592753Y-17129698D01*
X13592753Y-17129698D02*
X13602277Y-17148746D01*
X13602277Y-17148746D02*
X13602277Y-17205889D01*
X13602277Y-17205889D02*
X13592753Y-17224936D01*
X13592753Y-17224936D02*
X13583230Y-17234460D01*
X13583230Y-17234460D02*
X13564182Y-17243984D01*
X13564182Y-17243984D02*
X13535610Y-17243984D01*
X13716563Y-17243984D02*
X13697515Y-17234460D01*
X13697515Y-17234460D02*
X13687991Y-17215412D01*
X13687991Y-17215412D02*
X13687991Y-17043984D01*
X13868944Y-17234460D02*
X13849896Y-17243984D01*
X13849896Y-17243984D02*
X13811801Y-17243984D01*
X13811801Y-17243984D02*
X13792753Y-17234460D01*
X13792753Y-17234460D02*
X13783230Y-17215412D01*
X13783230Y-17215412D02*
X13783230Y-17139222D01*
X13783230Y-17139222D02*
X13792753Y-17120174D01*
X13792753Y-17120174D02*
X13811801Y-17110650D01*
X13811801Y-17110650D02*
X13849896Y-17110650D01*
X13849896Y-17110650D02*
X13868944Y-17120174D01*
X13868944Y-17120174D02*
X13878468Y-17139222D01*
X13878468Y-17139222D02*
X13878468Y-17158270D01*
X13878468Y-17158270D02*
X13783230Y-17177317D01*
X13954658Y-17234460D02*
X13973706Y-17243984D01*
X13973706Y-17243984D02*
X14011801Y-17243984D01*
X14011801Y-17243984D02*
X14030849Y-17234460D01*
X14030849Y-17234460D02*
X14040372Y-17215412D01*
X14040372Y-17215412D02*
X14040372Y-17205889D01*
X14040372Y-17205889D02*
X14030849Y-17186841D01*
X14030849Y-17186841D02*
X14011801Y-17177317D01*
X14011801Y-17177317D02*
X13983230Y-17177317D01*
X13983230Y-17177317D02*
X13964182Y-17167793D01*
X13964182Y-17167793D02*
X13954658Y-17148746D01*
X13954658Y-17148746D02*
X13954658Y-17139222D01*
X13954658Y-17139222D02*
X13964182Y-17120174D01*
X13964182Y-17120174D02*
X13983230Y-17110650D01*
X13983230Y-17110650D02*
X14011801Y-17110650D01*
X14011801Y-17110650D02*
X14030849Y-17120174D01*
X14278468Y-17167793D02*
X14430849Y-17167793D01*
X14354658Y-17243984D02*
X14354658Y-17091603D01*
X14783230Y-17243984D02*
X14668944Y-17243984D01*
X14726087Y-17243984D02*
X14726087Y-17043984D01*
X14726087Y-17043984D02*
X14707039Y-17072555D01*
X14707039Y-17072555D02*
X14687992Y-17091603D01*
X14687992Y-17091603D02*
X14668944Y-17101127D01*
X14954658Y-17043984D02*
X14916563Y-17043984D01*
X14916563Y-17043984D02*
X14897515Y-17053508D01*
X14897515Y-17053508D02*
X14887992Y-17063031D01*
X14887992Y-17063031D02*
X14868944Y-17091603D01*
X14868944Y-17091603D02*
X14859420Y-17129698D01*
X14859420Y-17129698D02*
X14859420Y-17205889D01*
X14859420Y-17205889D02*
X14868944Y-17224936D01*
X14868944Y-17224936D02*
X14878468Y-17234460D01*
X14878468Y-17234460D02*
X14897515Y-17243984D01*
X14897515Y-17243984D02*
X14935611Y-17243984D01*
X14935611Y-17243984D02*
X14954658Y-17234460D01*
X14954658Y-17234460D02*
X14964182Y-17224936D01*
X14964182Y-17224936D02*
X14973706Y-17205889D01*
X14973706Y-17205889D02*
X14973706Y-17158270D01*
X14973706Y-17158270D02*
X14964182Y-17139222D01*
X14964182Y-17139222D02*
X14954658Y-17129698D01*
X14954658Y-17129698D02*
X14935611Y-17120174D01*
X14935611Y-17120174D02*
X14897515Y-17120174D01*
X14897515Y-17120174D02*
X14878468Y-17129698D01*
X14878468Y-17129698D02*
X14868944Y-17139222D01*
X14868944Y-17139222D02*
X14859420Y-17158270D01*
X15202277Y-17234460D02*
X15221325Y-17243984D01*
X15221325Y-17243984D02*
X15259420Y-17243984D01*
X15259420Y-17243984D02*
X15278468Y-17234460D01*
X15278468Y-17234460D02*
X15287992Y-17215412D01*
X15287992Y-17215412D02*
X15287992Y-17205889D01*
X15287992Y-17205889D02*
X15278468Y-17186841D01*
X15278468Y-17186841D02*
X15259420Y-17177317D01*
X15259420Y-17177317D02*
X15230849Y-17177317D01*
X15230849Y-17177317D02*
X15211801Y-17167793D01*
X15211801Y-17167793D02*
X15202277Y-17148746D01*
X15202277Y-17148746D02*
X15202277Y-17139222D01*
X15202277Y-17139222D02*
X15211801Y-17120174D01*
X15211801Y-17120174D02*
X15230849Y-17110650D01*
X15230849Y-17110650D02*
X15259420Y-17110650D01*
X15259420Y-17110650D02*
X15278468Y-17120174D01*
X15402277Y-17243984D02*
X15383230Y-17234460D01*
X15383230Y-17234460D02*
X15373706Y-17215412D01*
X15373706Y-17215412D02*
X15373706Y-17043984D01*
X15507039Y-17243984D02*
X15487992Y-17234460D01*
X15487992Y-17234460D02*
X15478468Y-17224936D01*
X15478468Y-17224936D02*
X15468944Y-17205889D01*
X15468944Y-17205889D02*
X15468944Y-17148746D01*
X15468944Y-17148746D02*
X15478468Y-17129698D01*
X15478468Y-17129698D02*
X15487992Y-17120174D01*
X15487992Y-17120174D02*
X15507039Y-17110650D01*
X15507039Y-17110650D02*
X15535611Y-17110650D01*
X15535611Y-17110650D02*
X15554658Y-17120174D01*
X15554658Y-17120174D02*
X15564182Y-17129698D01*
X15564182Y-17129698D02*
X15573706Y-17148746D01*
X15573706Y-17148746D02*
X15573706Y-17205889D01*
X15573706Y-17205889D02*
X15564182Y-17224936D01*
X15564182Y-17224936D02*
X15554658Y-17234460D01*
X15554658Y-17234460D02*
X15535611Y-17243984D01*
X15535611Y-17243984D02*
X15507039Y-17243984D01*
X15630849Y-17110650D02*
X15707039Y-17110650D01*
X15659420Y-17043984D02*
X15659420Y-17215412D01*
X15659420Y-17215412D02*
X15668944Y-17234460D01*
X15668944Y-17234460D02*
X15687992Y-17243984D01*
X15687992Y-17243984D02*
X15707039Y-17243984D01*
X15764182Y-17234460D02*
X15783230Y-17243984D01*
X15783230Y-17243984D02*
X15821325Y-17243984D01*
X15821325Y-17243984D02*
X15840373Y-17234460D01*
X15840373Y-17234460D02*
X15849896Y-17215412D01*
X15849896Y-17215412D02*
X15849896Y-17205889D01*
X15849896Y-17205889D02*
X15840373Y-17186841D01*
X15840373Y-17186841D02*
X15821325Y-17177317D01*
X15821325Y-17177317D02*
X15792754Y-17177317D01*
X15792754Y-17177317D02*
X15773706Y-17167793D01*
X15773706Y-17167793D02*
X15764182Y-17148746D01*
X15764182Y-17148746D02*
X15764182Y-17139222D01*
X15764182Y-17139222D02*
X15773706Y-17120174D01*
X15773706Y-17120174D02*
X15792754Y-17110650D01*
X15792754Y-17110650D02*
X15821325Y-17110650D01*
X15821325Y-17110650D02*
X15840373Y-17120174D01*
X15916563Y-17320174D02*
X15926087Y-17310650D01*
X15926087Y-17310650D02*
X15945135Y-17282079D01*
X15945135Y-17282079D02*
X15954658Y-17263031D01*
X15954658Y-17263031D02*
X15964182Y-17234460D01*
X15964182Y-17234460D02*
X15973706Y-17186841D01*
X15973706Y-17186841D02*
X15973706Y-17148746D01*
X15973706Y-17148746D02*
X15964182Y-17101127D01*
X15964182Y-17101127D02*
X15954658Y-17072555D01*
X15954658Y-17072555D02*
X15945135Y-17053508D01*
X15945135Y-17053508D02*
X15926087Y-17024936D01*
X15926087Y-17024936D02*
X15916563Y-17015412D01*
D13*
X9141500Y-17416500D02*
G75*
G02*
X9051500Y-17416500I-45000J0D01*
G01*
X9051500Y-17416500D02*
G75*
G02*
X9141500Y-17416500I45000J0D01*
G01*
D12*
X9440372Y-17307984D02*
X9459420Y-17307984D01*
X9459420Y-17307984D02*
X9478467Y-17317508D01*
X9478467Y-17317508D02*
X9487991Y-17327031D01*
X9487991Y-17327031D02*
X9497515Y-17346079D01*
X9497515Y-17346079D02*
X9507039Y-17384174D01*
X9507039Y-17384174D02*
X9507039Y-17431793D01*
X9507039Y-17431793D02*
X9497515Y-17469889D01*
X9497515Y-17469889D02*
X9487991Y-17488936D01*
X9487991Y-17488936D02*
X9478467Y-17498460D01*
X9478467Y-17498460D02*
X9459420Y-17507984D01*
X9459420Y-17507984D02*
X9440372Y-17507984D01*
X9440372Y-17507984D02*
X9421324Y-17498460D01*
X9421324Y-17498460D02*
X9411801Y-17488936D01*
X9411801Y-17488936D02*
X9402277Y-17469889D01*
X9402277Y-17469889D02*
X9392753Y-17431793D01*
X9392753Y-17431793D02*
X9392753Y-17384174D01*
X9392753Y-17384174D02*
X9402277Y-17346079D01*
X9402277Y-17346079D02*
X9411801Y-17327031D01*
X9411801Y-17327031D02*
X9421324Y-17317508D01*
X9421324Y-17317508D02*
X9440372Y-17307984D01*
X9592753Y-17488936D02*
X9602277Y-17498460D01*
X9602277Y-17498460D02*
X9592753Y-17507984D01*
X9592753Y-17507984D02*
X9583229Y-17498460D01*
X9583229Y-17498460D02*
X9592753Y-17488936D01*
X9592753Y-17488936D02*
X9592753Y-17507984D01*
X9697515Y-17507984D02*
X9735610Y-17507984D01*
X9735610Y-17507984D02*
X9754658Y-17498460D01*
X9754658Y-17498460D02*
X9764182Y-17488936D01*
X9764182Y-17488936D02*
X9783229Y-17460365D01*
X9783229Y-17460365D02*
X9792753Y-17422270D01*
X9792753Y-17422270D02*
X9792753Y-17346079D01*
X9792753Y-17346079D02*
X9783229Y-17327031D01*
X9783229Y-17327031D02*
X9773705Y-17317508D01*
X9773705Y-17317508D02*
X9754658Y-17307984D01*
X9754658Y-17307984D02*
X9716563Y-17307984D01*
X9716563Y-17307984D02*
X9697515Y-17317508D01*
X9697515Y-17317508D02*
X9687991Y-17327031D01*
X9687991Y-17327031D02*
X9678467Y-17346079D01*
X9678467Y-17346079D02*
X9678467Y-17393698D01*
X9678467Y-17393698D02*
X9687991Y-17412746D01*
X9687991Y-17412746D02*
X9697515Y-17422270D01*
X9697515Y-17422270D02*
X9716563Y-17431793D01*
X9716563Y-17431793D02*
X9754658Y-17431793D01*
X9754658Y-17431793D02*
X9773705Y-17422270D01*
X9773705Y-17422270D02*
X9783229Y-17412746D01*
X9783229Y-17412746D02*
X9792753Y-17393698D01*
X9916563Y-17307984D02*
X9935610Y-17307984D01*
X9935610Y-17307984D02*
X9954658Y-17317508D01*
X9954658Y-17317508D02*
X9964182Y-17327031D01*
X9964182Y-17327031D02*
X9973705Y-17346079D01*
X9973705Y-17346079D02*
X9983229Y-17384174D01*
X9983229Y-17384174D02*
X9983229Y-17431793D01*
X9983229Y-17431793D02*
X9973705Y-17469889D01*
X9973705Y-17469889D02*
X9964182Y-17488936D01*
X9964182Y-17488936D02*
X9954658Y-17498460D01*
X9954658Y-17498460D02*
X9935610Y-17507984D01*
X9935610Y-17507984D02*
X9916563Y-17507984D01*
X9916563Y-17507984D02*
X9897515Y-17498460D01*
X9897515Y-17498460D02*
X9887991Y-17488936D01*
X9887991Y-17488936D02*
X9878467Y-17469889D01*
X9878467Y-17469889D02*
X9868944Y-17431793D01*
X9868944Y-17431793D02*
X9868944Y-17384174D01*
X9868944Y-17384174D02*
X9878467Y-17346079D01*
X9878467Y-17346079D02*
X9887991Y-17327031D01*
X9887991Y-17327031D02*
X9897515Y-17317508D01*
X9897515Y-17317508D02*
X9916563Y-17307984D01*
X10107039Y-17307984D02*
X10126086Y-17307984D01*
X10126086Y-17307984D02*
X10145134Y-17317508D01*
X10145134Y-17317508D02*
X10154658Y-17327031D01*
X10154658Y-17327031D02*
X10164182Y-17346079D01*
X10164182Y-17346079D02*
X10173705Y-17384174D01*
X10173705Y-17384174D02*
X10173705Y-17431793D01*
X10173705Y-17431793D02*
X10164182Y-17469889D01*
X10164182Y-17469889D02*
X10154658Y-17488936D01*
X10154658Y-17488936D02*
X10145134Y-17498460D01*
X10145134Y-17498460D02*
X10126086Y-17507984D01*
X10126086Y-17507984D02*
X10107039Y-17507984D01*
X10107039Y-17507984D02*
X10087991Y-17498460D01*
X10087991Y-17498460D02*
X10078467Y-17488936D01*
X10078467Y-17488936D02*
X10068944Y-17469889D01*
X10068944Y-17469889D02*
X10059420Y-17431793D01*
X10059420Y-17431793D02*
X10059420Y-17384174D01*
X10059420Y-17384174D02*
X10068944Y-17346079D01*
X10068944Y-17346079D02*
X10078467Y-17327031D01*
X10078467Y-17327031D02*
X10087991Y-17317508D01*
X10087991Y-17317508D02*
X10107039Y-17307984D01*
X10259420Y-17507984D02*
X10259420Y-17374650D01*
X10259420Y-17393698D02*
X10268944Y-17384174D01*
X10268944Y-17384174D02*
X10287991Y-17374650D01*
X10287991Y-17374650D02*
X10316563Y-17374650D01*
X10316563Y-17374650D02*
X10335610Y-17384174D01*
X10335610Y-17384174D02*
X10345134Y-17403222D01*
X10345134Y-17403222D02*
X10345134Y-17507984D01*
X10345134Y-17403222D02*
X10354658Y-17384174D01*
X10354658Y-17384174D02*
X10373705Y-17374650D01*
X10373705Y-17374650D02*
X10402277Y-17374650D01*
X10402277Y-17374650D02*
X10421325Y-17384174D01*
X10421325Y-17384174D02*
X10430848Y-17403222D01*
X10430848Y-17403222D02*
X10430848Y-17507984D01*
X10526086Y-17507984D02*
X10526086Y-17374650D01*
X10526086Y-17393698D02*
X10535610Y-17384174D01*
X10535610Y-17384174D02*
X10554658Y-17374650D01*
X10554658Y-17374650D02*
X10583229Y-17374650D01*
X10583229Y-17374650D02*
X10602277Y-17384174D01*
X10602277Y-17384174D02*
X10611801Y-17403222D01*
X10611801Y-17403222D02*
X10611801Y-17507984D01*
X10611801Y-17403222D02*
X10621325Y-17384174D01*
X10621325Y-17384174D02*
X10640372Y-17374650D01*
X10640372Y-17374650D02*
X10668944Y-17374650D01*
X10668944Y-17374650D02*
X10687991Y-17384174D01*
X10687991Y-17384174D02*
X10697515Y-17403222D01*
X10697515Y-17403222D02*
X10697515Y-17507984D01*
X11087991Y-17298460D02*
X10916563Y-17555603D01*
X11345134Y-17307984D02*
X11364182Y-17307984D01*
X11364182Y-17307984D02*
X11383229Y-17317508D01*
X11383229Y-17317508D02*
X11392753Y-17327031D01*
X11392753Y-17327031D02*
X11402277Y-17346079D01*
X11402277Y-17346079D02*
X11411801Y-17384174D01*
X11411801Y-17384174D02*
X11411801Y-17431793D01*
X11411801Y-17431793D02*
X11402277Y-17469889D01*
X11402277Y-17469889D02*
X11392753Y-17488936D01*
X11392753Y-17488936D02*
X11383229Y-17498460D01*
X11383229Y-17498460D02*
X11364182Y-17507984D01*
X11364182Y-17507984D02*
X11345134Y-17507984D01*
X11345134Y-17507984D02*
X11326086Y-17498460D01*
X11326086Y-17498460D02*
X11316563Y-17488936D01*
X11316563Y-17488936D02*
X11307039Y-17469889D01*
X11307039Y-17469889D02*
X11297515Y-17431793D01*
X11297515Y-17431793D02*
X11297515Y-17384174D01*
X11297515Y-17384174D02*
X11307039Y-17346079D01*
X11307039Y-17346079D02*
X11316563Y-17327031D01*
X11316563Y-17327031D02*
X11326086Y-17317508D01*
X11326086Y-17317508D02*
X11345134Y-17307984D01*
X11497515Y-17488936D02*
X11507039Y-17498460D01*
X11507039Y-17498460D02*
X11497515Y-17507984D01*
X11497515Y-17507984D02*
X11487991Y-17498460D01*
X11487991Y-17498460D02*
X11497515Y-17488936D01*
X11497515Y-17488936D02*
X11497515Y-17507984D01*
X11630848Y-17307984D02*
X11649896Y-17307984D01*
X11649896Y-17307984D02*
X11668944Y-17317508D01*
X11668944Y-17317508D02*
X11678467Y-17327031D01*
X11678467Y-17327031D02*
X11687991Y-17346079D01*
X11687991Y-17346079D02*
X11697515Y-17384174D01*
X11697515Y-17384174D02*
X11697515Y-17431793D01*
X11697515Y-17431793D02*
X11687991Y-17469889D01*
X11687991Y-17469889D02*
X11678467Y-17488936D01*
X11678467Y-17488936D02*
X11668944Y-17498460D01*
X11668944Y-17498460D02*
X11649896Y-17507984D01*
X11649896Y-17507984D02*
X11630848Y-17507984D01*
X11630848Y-17507984D02*
X11611801Y-17498460D01*
X11611801Y-17498460D02*
X11602277Y-17488936D01*
X11602277Y-17488936D02*
X11592753Y-17469889D01*
X11592753Y-17469889D02*
X11583229Y-17431793D01*
X11583229Y-17431793D02*
X11583229Y-17384174D01*
X11583229Y-17384174D02*
X11592753Y-17346079D01*
X11592753Y-17346079D02*
X11602277Y-17327031D01*
X11602277Y-17327031D02*
X11611801Y-17317508D01*
X11611801Y-17317508D02*
X11630848Y-17307984D01*
X11764182Y-17307984D02*
X11887991Y-17307984D01*
X11887991Y-17307984D02*
X11821325Y-17384174D01*
X11821325Y-17384174D02*
X11849896Y-17384174D01*
X11849896Y-17384174D02*
X11868944Y-17393698D01*
X11868944Y-17393698D02*
X11878467Y-17403222D01*
X11878467Y-17403222D02*
X11887991Y-17422270D01*
X11887991Y-17422270D02*
X11887991Y-17469889D01*
X11887991Y-17469889D02*
X11878467Y-17488936D01*
X11878467Y-17488936D02*
X11868944Y-17498460D01*
X11868944Y-17498460D02*
X11849896Y-17507984D01*
X11849896Y-17507984D02*
X11792753Y-17507984D01*
X11792753Y-17507984D02*
X11773706Y-17498460D01*
X11773706Y-17498460D02*
X11764182Y-17488936D01*
X12068944Y-17307984D02*
X11973706Y-17307984D01*
X11973706Y-17307984D02*
X11964182Y-17403222D01*
X11964182Y-17403222D02*
X11973706Y-17393698D01*
X11973706Y-17393698D02*
X11992753Y-17384174D01*
X11992753Y-17384174D02*
X12040372Y-17384174D01*
X12040372Y-17384174D02*
X12059420Y-17393698D01*
X12059420Y-17393698D02*
X12068944Y-17403222D01*
X12068944Y-17403222D02*
X12078467Y-17422270D01*
X12078467Y-17422270D02*
X12078467Y-17469889D01*
X12078467Y-17469889D02*
X12068944Y-17488936D01*
X12068944Y-17488936D02*
X12059420Y-17498460D01*
X12059420Y-17498460D02*
X12040372Y-17507984D01*
X12040372Y-17507984D02*
X11992753Y-17507984D01*
X11992753Y-17507984D02*
X11973706Y-17498460D01*
X11973706Y-17498460D02*
X11964182Y-17488936D01*
X12249896Y-17374650D02*
X12249896Y-17507984D01*
X12202277Y-17298460D02*
X12154658Y-17441317D01*
X12154658Y-17441317D02*
X12278467Y-17441317D01*
X12345134Y-17307984D02*
X12345134Y-17346079D01*
X12421325Y-17307984D02*
X12421325Y-17346079D01*
X12716563Y-17584174D02*
X12707039Y-17574650D01*
X12707039Y-17574650D02*
X12687991Y-17546079D01*
X12687991Y-17546079D02*
X12678468Y-17527031D01*
X12678468Y-17527031D02*
X12668944Y-17498460D01*
X12668944Y-17498460D02*
X12659420Y-17450841D01*
X12659420Y-17450841D02*
X12659420Y-17412746D01*
X12659420Y-17412746D02*
X12668944Y-17365127D01*
X12668944Y-17365127D02*
X12678468Y-17336555D01*
X12678468Y-17336555D02*
X12687991Y-17317508D01*
X12687991Y-17317508D02*
X12707039Y-17288936D01*
X12707039Y-17288936D02*
X12716563Y-17279412D01*
X12878468Y-17307984D02*
X12840372Y-17307984D01*
X12840372Y-17307984D02*
X12821325Y-17317508D01*
X12821325Y-17317508D02*
X12811801Y-17327031D01*
X12811801Y-17327031D02*
X12792753Y-17355603D01*
X12792753Y-17355603D02*
X12783229Y-17393698D01*
X12783229Y-17393698D02*
X12783229Y-17469889D01*
X12783229Y-17469889D02*
X12792753Y-17488936D01*
X12792753Y-17488936D02*
X12802277Y-17498460D01*
X12802277Y-17498460D02*
X12821325Y-17507984D01*
X12821325Y-17507984D02*
X12859420Y-17507984D01*
X12859420Y-17507984D02*
X12878468Y-17498460D01*
X12878468Y-17498460D02*
X12887991Y-17488936D01*
X12887991Y-17488936D02*
X12897515Y-17469889D01*
X12897515Y-17469889D02*
X12897515Y-17422270D01*
X12897515Y-17422270D02*
X12887991Y-17403222D01*
X12887991Y-17403222D02*
X12878468Y-17393698D01*
X12878468Y-17393698D02*
X12859420Y-17384174D01*
X12859420Y-17384174D02*
X12821325Y-17384174D01*
X12821325Y-17384174D02*
X12802277Y-17393698D01*
X12802277Y-17393698D02*
X12792753Y-17403222D01*
X12792753Y-17403222D02*
X12783229Y-17422270D01*
X13135610Y-17507984D02*
X13135610Y-17307984D01*
X13221325Y-17507984D02*
X13221325Y-17403222D01*
X13221325Y-17403222D02*
X13211801Y-17384174D01*
X13211801Y-17384174D02*
X13192753Y-17374650D01*
X13192753Y-17374650D02*
X13164182Y-17374650D01*
X13164182Y-17374650D02*
X13145134Y-17384174D01*
X13145134Y-17384174D02*
X13135610Y-17393698D01*
X13345134Y-17507984D02*
X13326087Y-17498460D01*
X13326087Y-17498460D02*
X13316563Y-17488936D01*
X13316563Y-17488936D02*
X13307039Y-17469889D01*
X13307039Y-17469889D02*
X13307039Y-17412746D01*
X13307039Y-17412746D02*
X13316563Y-17393698D01*
X13316563Y-17393698D02*
X13326087Y-17384174D01*
X13326087Y-17384174D02*
X13345134Y-17374650D01*
X13345134Y-17374650D02*
X13373706Y-17374650D01*
X13373706Y-17374650D02*
X13392753Y-17384174D01*
X13392753Y-17384174D02*
X13402277Y-17393698D01*
X13402277Y-17393698D02*
X13411801Y-17412746D01*
X13411801Y-17412746D02*
X13411801Y-17469889D01*
X13411801Y-17469889D02*
X13402277Y-17488936D01*
X13402277Y-17488936D02*
X13392753Y-17498460D01*
X13392753Y-17498460D02*
X13373706Y-17507984D01*
X13373706Y-17507984D02*
X13345134Y-17507984D01*
X13526087Y-17507984D02*
X13507039Y-17498460D01*
X13507039Y-17498460D02*
X13497515Y-17479412D01*
X13497515Y-17479412D02*
X13497515Y-17307984D01*
X13678468Y-17498460D02*
X13659420Y-17507984D01*
X13659420Y-17507984D02*
X13621325Y-17507984D01*
X13621325Y-17507984D02*
X13602277Y-17498460D01*
X13602277Y-17498460D02*
X13592753Y-17479412D01*
X13592753Y-17479412D02*
X13592753Y-17403222D01*
X13592753Y-17403222D02*
X13602277Y-17384174D01*
X13602277Y-17384174D02*
X13621325Y-17374650D01*
X13621325Y-17374650D02*
X13659420Y-17374650D01*
X13659420Y-17374650D02*
X13678468Y-17384174D01*
X13678468Y-17384174D02*
X13687991Y-17403222D01*
X13687991Y-17403222D02*
X13687991Y-17422270D01*
X13687991Y-17422270D02*
X13592753Y-17441317D01*
X13764182Y-17498460D02*
X13783230Y-17507984D01*
X13783230Y-17507984D02*
X13821325Y-17507984D01*
X13821325Y-17507984D02*
X13840372Y-17498460D01*
X13840372Y-17498460D02*
X13849896Y-17479412D01*
X13849896Y-17479412D02*
X13849896Y-17469889D01*
X13849896Y-17469889D02*
X13840372Y-17450841D01*
X13840372Y-17450841D02*
X13821325Y-17441317D01*
X13821325Y-17441317D02*
X13792753Y-17441317D01*
X13792753Y-17441317D02*
X13773706Y-17431793D01*
X13773706Y-17431793D02*
X13764182Y-17412746D01*
X13764182Y-17412746D02*
X13764182Y-17403222D01*
X13764182Y-17403222D02*
X13773706Y-17384174D01*
X13773706Y-17384174D02*
X13792753Y-17374650D01*
X13792753Y-17374650D02*
X13821325Y-17374650D01*
X13821325Y-17374650D02*
X13840372Y-17384174D01*
X13916563Y-17584174D02*
X13926087Y-17574650D01*
X13926087Y-17574650D02*
X13945134Y-17546079D01*
X13945134Y-17546079D02*
X13954658Y-17527031D01*
X13954658Y-17527031D02*
X13964182Y-17498460D01*
X13964182Y-17498460D02*
X13973706Y-17450841D01*
X13973706Y-17450841D02*
X13973706Y-17412746D01*
X13973706Y-17412746D02*
X13964182Y-17365127D01*
X13964182Y-17365127D02*
X13954658Y-17336555D01*
X13954658Y-17336555D02*
X13945134Y-17317508D01*
X13945134Y-17317508D02*
X13926087Y-17288936D01*
X13926087Y-17288936D02*
X13916563Y-17279412D01*
D13*
X9091500Y-17630500D02*
X9091500Y-17730500D01*
X9041500Y-17680500D02*
X9141500Y-17680500D01*
D12*
X9507039Y-17771984D02*
X9392753Y-17771984D01*
X9449896Y-17771984D02*
X9449896Y-17571984D01*
X9449896Y-17571984D02*
X9430848Y-17600555D01*
X9430848Y-17600555D02*
X9411801Y-17619603D01*
X9411801Y-17619603D02*
X9392753Y-17629127D01*
X9592753Y-17752936D02*
X9602277Y-17762460D01*
X9602277Y-17762460D02*
X9592753Y-17771984D01*
X9592753Y-17771984D02*
X9583229Y-17762460D01*
X9583229Y-17762460D02*
X9592753Y-17752936D01*
X9592753Y-17752936D02*
X9592753Y-17771984D01*
X9726086Y-17571984D02*
X9745134Y-17571984D01*
X9745134Y-17571984D02*
X9764182Y-17581508D01*
X9764182Y-17581508D02*
X9773705Y-17591031D01*
X9773705Y-17591031D02*
X9783229Y-17610079D01*
X9783229Y-17610079D02*
X9792753Y-17648174D01*
X9792753Y-17648174D02*
X9792753Y-17695793D01*
X9792753Y-17695793D02*
X9783229Y-17733889D01*
X9783229Y-17733889D02*
X9773705Y-17752936D01*
X9773705Y-17752936D02*
X9764182Y-17762460D01*
X9764182Y-17762460D02*
X9745134Y-17771984D01*
X9745134Y-17771984D02*
X9726086Y-17771984D01*
X9726086Y-17771984D02*
X9707039Y-17762460D01*
X9707039Y-17762460D02*
X9697515Y-17752936D01*
X9697515Y-17752936D02*
X9687991Y-17733889D01*
X9687991Y-17733889D02*
X9678467Y-17695793D01*
X9678467Y-17695793D02*
X9678467Y-17648174D01*
X9678467Y-17648174D02*
X9687991Y-17610079D01*
X9687991Y-17610079D02*
X9697515Y-17591031D01*
X9697515Y-17591031D02*
X9707039Y-17581508D01*
X9707039Y-17581508D02*
X9726086Y-17571984D01*
X9916563Y-17571984D02*
X9935610Y-17571984D01*
X9935610Y-17571984D02*
X9954658Y-17581508D01*
X9954658Y-17581508D02*
X9964182Y-17591031D01*
X9964182Y-17591031D02*
X9973705Y-17610079D01*
X9973705Y-17610079D02*
X9983229Y-17648174D01*
X9983229Y-17648174D02*
X9983229Y-17695793D01*
X9983229Y-17695793D02*
X9973705Y-17733889D01*
X9973705Y-17733889D02*
X9964182Y-17752936D01*
X9964182Y-17752936D02*
X9954658Y-17762460D01*
X9954658Y-17762460D02*
X9935610Y-17771984D01*
X9935610Y-17771984D02*
X9916563Y-17771984D01*
X9916563Y-17771984D02*
X9897515Y-17762460D01*
X9897515Y-17762460D02*
X9887991Y-17752936D01*
X9887991Y-17752936D02*
X9878467Y-17733889D01*
X9878467Y-17733889D02*
X9868944Y-17695793D01*
X9868944Y-17695793D02*
X9868944Y-17648174D01*
X9868944Y-17648174D02*
X9878467Y-17610079D01*
X9878467Y-17610079D02*
X9887991Y-17591031D01*
X9887991Y-17591031D02*
X9897515Y-17581508D01*
X9897515Y-17581508D02*
X9916563Y-17571984D01*
X10107039Y-17571984D02*
X10126086Y-17571984D01*
X10126086Y-17571984D02*
X10145134Y-17581508D01*
X10145134Y-17581508D02*
X10154658Y-17591031D01*
X10154658Y-17591031D02*
X10164182Y-17610079D01*
X10164182Y-17610079D02*
X10173705Y-17648174D01*
X10173705Y-17648174D02*
X10173705Y-17695793D01*
X10173705Y-17695793D02*
X10164182Y-17733889D01*
X10164182Y-17733889D02*
X10154658Y-17752936D01*
X10154658Y-17752936D02*
X10145134Y-17762460D01*
X10145134Y-17762460D02*
X10126086Y-17771984D01*
X10126086Y-17771984D02*
X10107039Y-17771984D01*
X10107039Y-17771984D02*
X10087991Y-17762460D01*
X10087991Y-17762460D02*
X10078467Y-17752936D01*
X10078467Y-17752936D02*
X10068944Y-17733889D01*
X10068944Y-17733889D02*
X10059420Y-17695793D01*
X10059420Y-17695793D02*
X10059420Y-17648174D01*
X10059420Y-17648174D02*
X10068944Y-17610079D01*
X10068944Y-17610079D02*
X10078467Y-17591031D01*
X10078467Y-17591031D02*
X10087991Y-17581508D01*
X10087991Y-17581508D02*
X10107039Y-17571984D01*
X10259420Y-17771984D02*
X10259420Y-17638650D01*
X10259420Y-17657698D02*
X10268944Y-17648174D01*
X10268944Y-17648174D02*
X10287991Y-17638650D01*
X10287991Y-17638650D02*
X10316563Y-17638650D01*
X10316563Y-17638650D02*
X10335610Y-17648174D01*
X10335610Y-17648174D02*
X10345134Y-17667222D01*
X10345134Y-17667222D02*
X10345134Y-17771984D01*
X10345134Y-17667222D02*
X10354658Y-17648174D01*
X10354658Y-17648174D02*
X10373705Y-17638650D01*
X10373705Y-17638650D02*
X10402277Y-17638650D01*
X10402277Y-17638650D02*
X10421325Y-17648174D01*
X10421325Y-17648174D02*
X10430848Y-17667222D01*
X10430848Y-17667222D02*
X10430848Y-17771984D01*
X10526086Y-17771984D02*
X10526086Y-17638650D01*
X10526086Y-17657698D02*
X10535610Y-17648174D01*
X10535610Y-17648174D02*
X10554658Y-17638650D01*
X10554658Y-17638650D02*
X10583229Y-17638650D01*
X10583229Y-17638650D02*
X10602277Y-17648174D01*
X10602277Y-17648174D02*
X10611801Y-17667222D01*
X10611801Y-17667222D02*
X10611801Y-17771984D01*
X10611801Y-17667222D02*
X10621325Y-17648174D01*
X10621325Y-17648174D02*
X10640372Y-17638650D01*
X10640372Y-17638650D02*
X10668944Y-17638650D01*
X10668944Y-17638650D02*
X10687991Y-17648174D01*
X10687991Y-17648174D02*
X10697515Y-17667222D01*
X10697515Y-17667222D02*
X10697515Y-17771984D01*
X11087991Y-17562460D02*
X10916563Y-17819603D01*
X11345134Y-17571984D02*
X11364182Y-17571984D01*
X11364182Y-17571984D02*
X11383229Y-17581508D01*
X11383229Y-17581508D02*
X11392753Y-17591031D01*
X11392753Y-17591031D02*
X11402277Y-17610079D01*
X11402277Y-17610079D02*
X11411801Y-17648174D01*
X11411801Y-17648174D02*
X11411801Y-17695793D01*
X11411801Y-17695793D02*
X11402277Y-17733889D01*
X11402277Y-17733889D02*
X11392753Y-17752936D01*
X11392753Y-17752936D02*
X11383229Y-17762460D01*
X11383229Y-17762460D02*
X11364182Y-17771984D01*
X11364182Y-17771984D02*
X11345134Y-17771984D01*
X11345134Y-17771984D02*
X11326086Y-17762460D01*
X11326086Y-17762460D02*
X11316563Y-17752936D01*
X11316563Y-17752936D02*
X11307039Y-17733889D01*
X11307039Y-17733889D02*
X11297515Y-17695793D01*
X11297515Y-17695793D02*
X11297515Y-17648174D01*
X11297515Y-17648174D02*
X11307039Y-17610079D01*
X11307039Y-17610079D02*
X11316563Y-17591031D01*
X11316563Y-17591031D02*
X11326086Y-17581508D01*
X11326086Y-17581508D02*
X11345134Y-17571984D01*
X11497515Y-17752936D02*
X11507039Y-17762460D01*
X11507039Y-17762460D02*
X11497515Y-17771984D01*
X11497515Y-17771984D02*
X11487991Y-17762460D01*
X11487991Y-17762460D02*
X11497515Y-17752936D01*
X11497515Y-17752936D02*
X11497515Y-17771984D01*
X11630848Y-17571984D02*
X11649896Y-17571984D01*
X11649896Y-17571984D02*
X11668944Y-17581508D01*
X11668944Y-17581508D02*
X11678467Y-17591031D01*
X11678467Y-17591031D02*
X11687991Y-17610079D01*
X11687991Y-17610079D02*
X11697515Y-17648174D01*
X11697515Y-17648174D02*
X11697515Y-17695793D01*
X11697515Y-17695793D02*
X11687991Y-17733889D01*
X11687991Y-17733889D02*
X11678467Y-17752936D01*
X11678467Y-17752936D02*
X11668944Y-17762460D01*
X11668944Y-17762460D02*
X11649896Y-17771984D01*
X11649896Y-17771984D02*
X11630848Y-17771984D01*
X11630848Y-17771984D02*
X11611801Y-17762460D01*
X11611801Y-17762460D02*
X11602277Y-17752936D01*
X11602277Y-17752936D02*
X11592753Y-17733889D01*
X11592753Y-17733889D02*
X11583229Y-17695793D01*
X11583229Y-17695793D02*
X11583229Y-17648174D01*
X11583229Y-17648174D02*
X11592753Y-17610079D01*
X11592753Y-17610079D02*
X11602277Y-17591031D01*
X11602277Y-17591031D02*
X11611801Y-17581508D01*
X11611801Y-17581508D02*
X11630848Y-17571984D01*
X11764182Y-17571984D02*
X11887991Y-17571984D01*
X11887991Y-17571984D02*
X11821325Y-17648174D01*
X11821325Y-17648174D02*
X11849896Y-17648174D01*
X11849896Y-17648174D02*
X11868944Y-17657698D01*
X11868944Y-17657698D02*
X11878467Y-17667222D01*
X11878467Y-17667222D02*
X11887991Y-17686270D01*
X11887991Y-17686270D02*
X11887991Y-17733889D01*
X11887991Y-17733889D02*
X11878467Y-17752936D01*
X11878467Y-17752936D02*
X11868944Y-17762460D01*
X11868944Y-17762460D02*
X11849896Y-17771984D01*
X11849896Y-17771984D02*
X11792753Y-17771984D01*
X11792753Y-17771984D02*
X11773706Y-17762460D01*
X11773706Y-17762460D02*
X11764182Y-17752936D01*
X11983229Y-17771984D02*
X12021325Y-17771984D01*
X12021325Y-17771984D02*
X12040372Y-17762460D01*
X12040372Y-17762460D02*
X12049896Y-17752936D01*
X12049896Y-17752936D02*
X12068944Y-17724365D01*
X12068944Y-17724365D02*
X12078467Y-17686270D01*
X12078467Y-17686270D02*
X12078467Y-17610079D01*
X12078467Y-17610079D02*
X12068944Y-17591031D01*
X12068944Y-17591031D02*
X12059420Y-17581508D01*
X12059420Y-17581508D02*
X12040372Y-17571984D01*
X12040372Y-17571984D02*
X12002277Y-17571984D01*
X12002277Y-17571984D02*
X11983229Y-17581508D01*
X11983229Y-17581508D02*
X11973706Y-17591031D01*
X11973706Y-17591031D02*
X11964182Y-17610079D01*
X11964182Y-17610079D02*
X11964182Y-17657698D01*
X11964182Y-17657698D02*
X11973706Y-17676746D01*
X11973706Y-17676746D02*
X11983229Y-17686270D01*
X11983229Y-17686270D02*
X12002277Y-17695793D01*
X12002277Y-17695793D02*
X12040372Y-17695793D01*
X12040372Y-17695793D02*
X12059420Y-17686270D01*
X12059420Y-17686270D02*
X12068944Y-17676746D01*
X12068944Y-17676746D02*
X12078467Y-17657698D01*
X12249896Y-17638650D02*
X12249896Y-17771984D01*
X12202277Y-17562460D02*
X12154658Y-17705317D01*
X12154658Y-17705317D02*
X12278467Y-17705317D01*
X12345134Y-17571984D02*
X12345134Y-17610079D01*
X12421325Y-17571984D02*
X12421325Y-17610079D01*
X12716563Y-17848174D02*
X12707039Y-17838650D01*
X12707039Y-17838650D02*
X12687991Y-17810079D01*
X12687991Y-17810079D02*
X12678468Y-17791031D01*
X12678468Y-17791031D02*
X12668944Y-17762460D01*
X12668944Y-17762460D02*
X12659420Y-17714841D01*
X12659420Y-17714841D02*
X12659420Y-17676746D01*
X12659420Y-17676746D02*
X12668944Y-17629127D01*
X12668944Y-17629127D02*
X12678468Y-17600555D01*
X12678468Y-17600555D02*
X12687991Y-17581508D01*
X12687991Y-17581508D02*
X12707039Y-17552936D01*
X12707039Y-17552936D02*
X12716563Y-17543412D01*
X12773706Y-17571984D02*
X12897515Y-17571984D01*
X12897515Y-17571984D02*
X12830848Y-17648174D01*
X12830848Y-17648174D02*
X12859420Y-17648174D01*
X12859420Y-17648174D02*
X12878468Y-17657698D01*
X12878468Y-17657698D02*
X12887991Y-17667222D01*
X12887991Y-17667222D02*
X12897515Y-17686270D01*
X12897515Y-17686270D02*
X12897515Y-17733889D01*
X12897515Y-17733889D02*
X12887991Y-17752936D01*
X12887991Y-17752936D02*
X12878468Y-17762460D01*
X12878468Y-17762460D02*
X12859420Y-17771984D01*
X12859420Y-17771984D02*
X12802277Y-17771984D01*
X12802277Y-17771984D02*
X12783229Y-17762460D01*
X12783229Y-17762460D02*
X12773706Y-17752936D01*
X13068944Y-17638650D02*
X13068944Y-17771984D01*
X13021325Y-17562460D02*
X12973706Y-17705317D01*
X12973706Y-17705317D02*
X13097515Y-17705317D01*
X13326087Y-17771984D02*
X13326087Y-17571984D01*
X13411801Y-17771984D02*
X13411801Y-17667222D01*
X13411801Y-17667222D02*
X13402277Y-17648174D01*
X13402277Y-17648174D02*
X13383230Y-17638650D01*
X13383230Y-17638650D02*
X13354658Y-17638650D01*
X13354658Y-17638650D02*
X13335610Y-17648174D01*
X13335610Y-17648174D02*
X13326087Y-17657698D01*
X13535610Y-17771984D02*
X13516563Y-17762460D01*
X13516563Y-17762460D02*
X13507039Y-17752936D01*
X13507039Y-17752936D02*
X13497515Y-17733889D01*
X13497515Y-17733889D02*
X13497515Y-17676746D01*
X13497515Y-17676746D02*
X13507039Y-17657698D01*
X13507039Y-17657698D02*
X13516563Y-17648174D01*
X13516563Y-17648174D02*
X13535610Y-17638650D01*
X13535610Y-17638650D02*
X13564182Y-17638650D01*
X13564182Y-17638650D02*
X13583230Y-17648174D01*
X13583230Y-17648174D02*
X13592753Y-17657698D01*
X13592753Y-17657698D02*
X13602277Y-17676746D01*
X13602277Y-17676746D02*
X13602277Y-17733889D01*
X13602277Y-17733889D02*
X13592753Y-17752936D01*
X13592753Y-17752936D02*
X13583230Y-17762460D01*
X13583230Y-17762460D02*
X13564182Y-17771984D01*
X13564182Y-17771984D02*
X13535610Y-17771984D01*
X13716563Y-17771984D02*
X13697515Y-17762460D01*
X13697515Y-17762460D02*
X13687991Y-17743412D01*
X13687991Y-17743412D02*
X13687991Y-17571984D01*
X13868944Y-17762460D02*
X13849896Y-17771984D01*
X13849896Y-17771984D02*
X13811801Y-17771984D01*
X13811801Y-17771984D02*
X13792753Y-17762460D01*
X13792753Y-17762460D02*
X13783230Y-17743412D01*
X13783230Y-17743412D02*
X13783230Y-17667222D01*
X13783230Y-17667222D02*
X13792753Y-17648174D01*
X13792753Y-17648174D02*
X13811801Y-17638650D01*
X13811801Y-17638650D02*
X13849896Y-17638650D01*
X13849896Y-17638650D02*
X13868944Y-17648174D01*
X13868944Y-17648174D02*
X13878468Y-17667222D01*
X13878468Y-17667222D02*
X13878468Y-17686270D01*
X13878468Y-17686270D02*
X13783230Y-17705317D01*
X13954658Y-17762460D02*
X13973706Y-17771984D01*
X13973706Y-17771984D02*
X14011801Y-17771984D01*
X14011801Y-17771984D02*
X14030849Y-17762460D01*
X14030849Y-17762460D02*
X14040372Y-17743412D01*
X14040372Y-17743412D02*
X14040372Y-17733889D01*
X14040372Y-17733889D02*
X14030849Y-17714841D01*
X14030849Y-17714841D02*
X14011801Y-17705317D01*
X14011801Y-17705317D02*
X13983230Y-17705317D01*
X13983230Y-17705317D02*
X13964182Y-17695793D01*
X13964182Y-17695793D02*
X13954658Y-17676746D01*
X13954658Y-17676746D02*
X13954658Y-17667222D01*
X13954658Y-17667222D02*
X13964182Y-17648174D01*
X13964182Y-17648174D02*
X13983230Y-17638650D01*
X13983230Y-17638650D02*
X14011801Y-17638650D01*
X14011801Y-17638650D02*
X14030849Y-17648174D01*
X14278468Y-17695793D02*
X14430849Y-17695793D01*
X14354658Y-17771984D02*
X14354658Y-17619603D01*
X14659420Y-17571984D02*
X14783230Y-17571984D01*
X14783230Y-17571984D02*
X14716563Y-17648174D01*
X14716563Y-17648174D02*
X14745134Y-17648174D01*
X14745134Y-17648174D02*
X14764182Y-17657698D01*
X14764182Y-17657698D02*
X14773706Y-17667222D01*
X14773706Y-17667222D02*
X14783230Y-17686270D01*
X14783230Y-17686270D02*
X14783230Y-17733889D01*
X14783230Y-17733889D02*
X14773706Y-17752936D01*
X14773706Y-17752936D02*
X14764182Y-17762460D01*
X14764182Y-17762460D02*
X14745134Y-17771984D01*
X14745134Y-17771984D02*
X14687992Y-17771984D01*
X14687992Y-17771984D02*
X14668944Y-17762460D01*
X14668944Y-17762460D02*
X14659420Y-17752936D01*
X15011801Y-17762460D02*
X15030849Y-17771984D01*
X15030849Y-17771984D02*
X15068944Y-17771984D01*
X15068944Y-17771984D02*
X15087992Y-17762460D01*
X15087992Y-17762460D02*
X15097515Y-17743412D01*
X15097515Y-17743412D02*
X15097515Y-17733889D01*
X15097515Y-17733889D02*
X15087992Y-17714841D01*
X15087992Y-17714841D02*
X15068944Y-17705317D01*
X15068944Y-17705317D02*
X15040373Y-17705317D01*
X15040373Y-17705317D02*
X15021325Y-17695793D01*
X15021325Y-17695793D02*
X15011801Y-17676746D01*
X15011801Y-17676746D02*
X15011801Y-17667222D01*
X15011801Y-17667222D02*
X15021325Y-17648174D01*
X15021325Y-17648174D02*
X15040373Y-17638650D01*
X15040373Y-17638650D02*
X15068944Y-17638650D01*
X15068944Y-17638650D02*
X15087992Y-17648174D01*
X15211801Y-17771984D02*
X15192754Y-17762460D01*
X15192754Y-17762460D02*
X15183230Y-17743412D01*
X15183230Y-17743412D02*
X15183230Y-17571984D01*
X15316563Y-17771984D02*
X15297515Y-17762460D01*
X15297515Y-17762460D02*
X15287992Y-17752936D01*
X15287992Y-17752936D02*
X15278468Y-17733889D01*
X15278468Y-17733889D02*
X15278468Y-17676746D01*
X15278468Y-17676746D02*
X15287992Y-17657698D01*
X15287992Y-17657698D02*
X15297515Y-17648174D01*
X15297515Y-17648174D02*
X15316563Y-17638650D01*
X15316563Y-17638650D02*
X15345135Y-17638650D01*
X15345135Y-17638650D02*
X15364182Y-17648174D01*
X15364182Y-17648174D02*
X15373706Y-17657698D01*
X15373706Y-17657698D02*
X15383230Y-17676746D01*
X15383230Y-17676746D02*
X15383230Y-17733889D01*
X15383230Y-17733889D02*
X15373706Y-17752936D01*
X15373706Y-17752936D02*
X15364182Y-17762460D01*
X15364182Y-17762460D02*
X15345135Y-17771984D01*
X15345135Y-17771984D02*
X15316563Y-17771984D01*
X15440373Y-17638650D02*
X15516563Y-17638650D01*
X15468944Y-17571984D02*
X15468944Y-17743412D01*
X15468944Y-17743412D02*
X15478468Y-17762460D01*
X15478468Y-17762460D02*
X15497515Y-17771984D01*
X15497515Y-17771984D02*
X15516563Y-17771984D01*
X15573706Y-17762460D02*
X15592754Y-17771984D01*
X15592754Y-17771984D02*
X15630849Y-17771984D01*
X15630849Y-17771984D02*
X15649896Y-17762460D01*
X15649896Y-17762460D02*
X15659420Y-17743412D01*
X15659420Y-17743412D02*
X15659420Y-17733889D01*
X15659420Y-17733889D02*
X15649896Y-17714841D01*
X15649896Y-17714841D02*
X15630849Y-17705317D01*
X15630849Y-17705317D02*
X15602277Y-17705317D01*
X15602277Y-17705317D02*
X15583230Y-17695793D01*
X15583230Y-17695793D02*
X15573706Y-17676746D01*
X15573706Y-17676746D02*
X15573706Y-17667222D01*
X15573706Y-17667222D02*
X15583230Y-17648174D01*
X15583230Y-17648174D02*
X15602277Y-17638650D01*
X15602277Y-17638650D02*
X15630849Y-17638650D01*
X15630849Y-17638650D02*
X15649896Y-17648174D01*
X15726087Y-17848174D02*
X15735611Y-17838650D01*
X15735611Y-17838650D02*
X15754658Y-17810079D01*
X15754658Y-17810079D02*
X15764182Y-17791031D01*
X15764182Y-17791031D02*
X15773706Y-17762460D01*
X15773706Y-17762460D02*
X15783230Y-17714841D01*
X15783230Y-17714841D02*
X15783230Y-17676746D01*
X15783230Y-17676746D02*
X15773706Y-17629127D01*
X15773706Y-17629127D02*
X15764182Y-17600555D01*
X15764182Y-17600555D02*
X15754658Y-17581508D01*
X15754658Y-17581508D02*
X15735611Y-17552936D01*
X15735611Y-17552936D02*
X15726087Y-17543412D01*
D14*
X9125391Y-17983391D02*
X9125391Y-17905609D01*
X9047609Y-17905609D01*
X9047609Y-17983391D01*
X9125391Y-17983391D01*
D12*
X9507039Y-18035984D02*
X9392753Y-18035984D01*
X9449896Y-18035984D02*
X9449896Y-17835984D01*
X9449896Y-17835984D02*
X9430848Y-17864555D01*
X9430848Y-17864555D02*
X9411801Y-17883603D01*
X9411801Y-17883603D02*
X9392753Y-17893127D01*
X9592753Y-18016936D02*
X9602277Y-18026460D01*
X9602277Y-18026460D02*
X9592753Y-18035984D01*
X9592753Y-18035984D02*
X9583229Y-18026460D01*
X9583229Y-18026460D02*
X9592753Y-18016936D01*
X9592753Y-18016936D02*
X9592753Y-18035984D01*
X9792753Y-18035984D02*
X9678467Y-18035984D01*
X9735610Y-18035984D02*
X9735610Y-17835984D01*
X9735610Y-17835984D02*
X9716563Y-17864555D01*
X9716563Y-17864555D02*
X9697515Y-17883603D01*
X9697515Y-17883603D02*
X9678467Y-17893127D01*
X9916563Y-17835984D02*
X9935610Y-17835984D01*
X9935610Y-17835984D02*
X9954658Y-17845508D01*
X9954658Y-17845508D02*
X9964182Y-17855031D01*
X9964182Y-17855031D02*
X9973705Y-17874079D01*
X9973705Y-17874079D02*
X9983229Y-17912174D01*
X9983229Y-17912174D02*
X9983229Y-17959793D01*
X9983229Y-17959793D02*
X9973705Y-17997889D01*
X9973705Y-17997889D02*
X9964182Y-18016936D01*
X9964182Y-18016936D02*
X9954658Y-18026460D01*
X9954658Y-18026460D02*
X9935610Y-18035984D01*
X9935610Y-18035984D02*
X9916563Y-18035984D01*
X9916563Y-18035984D02*
X9897515Y-18026460D01*
X9897515Y-18026460D02*
X9887991Y-18016936D01*
X9887991Y-18016936D02*
X9878467Y-17997889D01*
X9878467Y-17997889D02*
X9868944Y-17959793D01*
X9868944Y-17959793D02*
X9868944Y-17912174D01*
X9868944Y-17912174D02*
X9878467Y-17874079D01*
X9878467Y-17874079D02*
X9887991Y-17855031D01*
X9887991Y-17855031D02*
X9897515Y-17845508D01*
X9897515Y-17845508D02*
X9916563Y-17835984D01*
X10107039Y-17835984D02*
X10126086Y-17835984D01*
X10126086Y-17835984D02*
X10145134Y-17845508D01*
X10145134Y-17845508D02*
X10154658Y-17855031D01*
X10154658Y-17855031D02*
X10164182Y-17874079D01*
X10164182Y-17874079D02*
X10173705Y-17912174D01*
X10173705Y-17912174D02*
X10173705Y-17959793D01*
X10173705Y-17959793D02*
X10164182Y-17997889D01*
X10164182Y-17997889D02*
X10154658Y-18016936D01*
X10154658Y-18016936D02*
X10145134Y-18026460D01*
X10145134Y-18026460D02*
X10126086Y-18035984D01*
X10126086Y-18035984D02*
X10107039Y-18035984D01*
X10107039Y-18035984D02*
X10087991Y-18026460D01*
X10087991Y-18026460D02*
X10078467Y-18016936D01*
X10078467Y-18016936D02*
X10068944Y-17997889D01*
X10068944Y-17997889D02*
X10059420Y-17959793D01*
X10059420Y-17959793D02*
X10059420Y-17912174D01*
X10059420Y-17912174D02*
X10068944Y-17874079D01*
X10068944Y-17874079D02*
X10078467Y-17855031D01*
X10078467Y-17855031D02*
X10087991Y-17845508D01*
X10087991Y-17845508D02*
X10107039Y-17835984D01*
X10259420Y-18035984D02*
X10259420Y-17902650D01*
X10259420Y-17921698D02*
X10268944Y-17912174D01*
X10268944Y-17912174D02*
X10287991Y-17902650D01*
X10287991Y-17902650D02*
X10316563Y-17902650D01*
X10316563Y-17902650D02*
X10335610Y-17912174D01*
X10335610Y-17912174D02*
X10345134Y-17931222D01*
X10345134Y-17931222D02*
X10345134Y-18035984D01*
X10345134Y-17931222D02*
X10354658Y-17912174D01*
X10354658Y-17912174D02*
X10373705Y-17902650D01*
X10373705Y-17902650D02*
X10402277Y-17902650D01*
X10402277Y-17902650D02*
X10421325Y-17912174D01*
X10421325Y-17912174D02*
X10430848Y-17931222D01*
X10430848Y-17931222D02*
X10430848Y-18035984D01*
X10526086Y-18035984D02*
X10526086Y-17902650D01*
X10526086Y-17921698D02*
X10535610Y-17912174D01*
X10535610Y-17912174D02*
X10554658Y-17902650D01*
X10554658Y-17902650D02*
X10583229Y-17902650D01*
X10583229Y-17902650D02*
X10602277Y-17912174D01*
X10602277Y-17912174D02*
X10611801Y-17931222D01*
X10611801Y-17931222D02*
X10611801Y-18035984D01*
X10611801Y-17931222D02*
X10621325Y-17912174D01*
X10621325Y-17912174D02*
X10640372Y-17902650D01*
X10640372Y-17902650D02*
X10668944Y-17902650D01*
X10668944Y-17902650D02*
X10687991Y-17912174D01*
X10687991Y-17912174D02*
X10697515Y-17931222D01*
X10697515Y-17931222D02*
X10697515Y-18035984D01*
X11087991Y-17826460D02*
X10916563Y-18083603D01*
X11345134Y-17835984D02*
X11364182Y-17835984D01*
X11364182Y-17835984D02*
X11383229Y-17845508D01*
X11383229Y-17845508D02*
X11392753Y-17855031D01*
X11392753Y-17855031D02*
X11402277Y-17874079D01*
X11402277Y-17874079D02*
X11411801Y-17912174D01*
X11411801Y-17912174D02*
X11411801Y-17959793D01*
X11411801Y-17959793D02*
X11402277Y-17997889D01*
X11402277Y-17997889D02*
X11392753Y-18016936D01*
X11392753Y-18016936D02*
X11383229Y-18026460D01*
X11383229Y-18026460D02*
X11364182Y-18035984D01*
X11364182Y-18035984D02*
X11345134Y-18035984D01*
X11345134Y-18035984D02*
X11326086Y-18026460D01*
X11326086Y-18026460D02*
X11316563Y-18016936D01*
X11316563Y-18016936D02*
X11307039Y-17997889D01*
X11307039Y-17997889D02*
X11297515Y-17959793D01*
X11297515Y-17959793D02*
X11297515Y-17912174D01*
X11297515Y-17912174D02*
X11307039Y-17874079D01*
X11307039Y-17874079D02*
X11316563Y-17855031D01*
X11316563Y-17855031D02*
X11326086Y-17845508D01*
X11326086Y-17845508D02*
X11345134Y-17835984D01*
X11497515Y-18016936D02*
X11507039Y-18026460D01*
X11507039Y-18026460D02*
X11497515Y-18035984D01*
X11497515Y-18035984D02*
X11487991Y-18026460D01*
X11487991Y-18026460D02*
X11497515Y-18016936D01*
X11497515Y-18016936D02*
X11497515Y-18035984D01*
X11630848Y-17835984D02*
X11649896Y-17835984D01*
X11649896Y-17835984D02*
X11668944Y-17845508D01*
X11668944Y-17845508D02*
X11678467Y-17855031D01*
X11678467Y-17855031D02*
X11687991Y-17874079D01*
X11687991Y-17874079D02*
X11697515Y-17912174D01*
X11697515Y-17912174D02*
X11697515Y-17959793D01*
X11697515Y-17959793D02*
X11687991Y-17997889D01*
X11687991Y-17997889D02*
X11678467Y-18016936D01*
X11678467Y-18016936D02*
X11668944Y-18026460D01*
X11668944Y-18026460D02*
X11649896Y-18035984D01*
X11649896Y-18035984D02*
X11630848Y-18035984D01*
X11630848Y-18035984D02*
X11611801Y-18026460D01*
X11611801Y-18026460D02*
X11602277Y-18016936D01*
X11602277Y-18016936D02*
X11592753Y-17997889D01*
X11592753Y-17997889D02*
X11583229Y-17959793D01*
X11583229Y-17959793D02*
X11583229Y-17912174D01*
X11583229Y-17912174D02*
X11592753Y-17874079D01*
X11592753Y-17874079D02*
X11602277Y-17855031D01*
X11602277Y-17855031D02*
X11611801Y-17845508D01*
X11611801Y-17845508D02*
X11630848Y-17835984D01*
X11868944Y-17902650D02*
X11868944Y-18035984D01*
X11821325Y-17826460D02*
X11773706Y-17969317D01*
X11773706Y-17969317D02*
X11897515Y-17969317D01*
X11954658Y-17835984D02*
X12078467Y-17835984D01*
X12078467Y-17835984D02*
X12011801Y-17912174D01*
X12011801Y-17912174D02*
X12040372Y-17912174D01*
X12040372Y-17912174D02*
X12059420Y-17921698D01*
X12059420Y-17921698D02*
X12068944Y-17931222D01*
X12068944Y-17931222D02*
X12078467Y-17950270D01*
X12078467Y-17950270D02*
X12078467Y-17997889D01*
X12078467Y-17997889D02*
X12068944Y-18016936D01*
X12068944Y-18016936D02*
X12059420Y-18026460D01*
X12059420Y-18026460D02*
X12040372Y-18035984D01*
X12040372Y-18035984D02*
X11983229Y-18035984D01*
X11983229Y-18035984D02*
X11964182Y-18026460D01*
X11964182Y-18026460D02*
X11954658Y-18016936D01*
X12145134Y-17835984D02*
X12268944Y-17835984D01*
X12268944Y-17835984D02*
X12202277Y-17912174D01*
X12202277Y-17912174D02*
X12230848Y-17912174D01*
X12230848Y-17912174D02*
X12249896Y-17921698D01*
X12249896Y-17921698D02*
X12259420Y-17931222D01*
X12259420Y-17931222D02*
X12268944Y-17950270D01*
X12268944Y-17950270D02*
X12268944Y-17997889D01*
X12268944Y-17997889D02*
X12259420Y-18016936D01*
X12259420Y-18016936D02*
X12249896Y-18026460D01*
X12249896Y-18026460D02*
X12230848Y-18035984D01*
X12230848Y-18035984D02*
X12173706Y-18035984D01*
X12173706Y-18035984D02*
X12154658Y-18026460D01*
X12154658Y-18026460D02*
X12145134Y-18016936D01*
X12345134Y-17835984D02*
X12345134Y-17874079D01*
X12421325Y-17835984D02*
X12421325Y-17874079D01*
X12716563Y-18112174D02*
X12707039Y-18102650D01*
X12707039Y-18102650D02*
X12687991Y-18074079D01*
X12687991Y-18074079D02*
X12678468Y-18055031D01*
X12678468Y-18055031D02*
X12668944Y-18026460D01*
X12668944Y-18026460D02*
X12659420Y-17978841D01*
X12659420Y-17978841D02*
X12659420Y-17940746D01*
X12659420Y-17940746D02*
X12668944Y-17893127D01*
X12668944Y-17893127D02*
X12678468Y-17864555D01*
X12678468Y-17864555D02*
X12687991Y-17845508D01*
X12687991Y-17845508D02*
X12707039Y-17816936D01*
X12707039Y-17816936D02*
X12716563Y-17807412D01*
X12897515Y-18035984D02*
X12783229Y-18035984D01*
X12840372Y-18035984D02*
X12840372Y-17835984D01*
X12840372Y-17835984D02*
X12821325Y-17864555D01*
X12821325Y-17864555D02*
X12802277Y-17883603D01*
X12802277Y-17883603D02*
X12783229Y-17893127D01*
X12973706Y-17855031D02*
X12983229Y-17845508D01*
X12983229Y-17845508D02*
X13002277Y-17835984D01*
X13002277Y-17835984D02*
X13049896Y-17835984D01*
X13049896Y-17835984D02*
X13068944Y-17845508D01*
X13068944Y-17845508D02*
X13078468Y-17855031D01*
X13078468Y-17855031D02*
X13087991Y-17874079D01*
X13087991Y-17874079D02*
X13087991Y-17893127D01*
X13087991Y-17893127D02*
X13078468Y-17921698D01*
X13078468Y-17921698D02*
X12964182Y-18035984D01*
X12964182Y-18035984D02*
X13087991Y-18035984D01*
X13326087Y-18035984D02*
X13326087Y-17835984D01*
X13411801Y-18035984D02*
X13411801Y-17931222D01*
X13411801Y-17931222D02*
X13402277Y-17912174D01*
X13402277Y-17912174D02*
X13383230Y-17902650D01*
X13383230Y-17902650D02*
X13354658Y-17902650D01*
X13354658Y-17902650D02*
X13335610Y-17912174D01*
X13335610Y-17912174D02*
X13326087Y-17921698D01*
X13535610Y-18035984D02*
X13516563Y-18026460D01*
X13516563Y-18026460D02*
X13507039Y-18016936D01*
X13507039Y-18016936D02*
X13497515Y-17997889D01*
X13497515Y-17997889D02*
X13497515Y-17940746D01*
X13497515Y-17940746D02*
X13507039Y-17921698D01*
X13507039Y-17921698D02*
X13516563Y-17912174D01*
X13516563Y-17912174D02*
X13535610Y-17902650D01*
X13535610Y-17902650D02*
X13564182Y-17902650D01*
X13564182Y-17902650D02*
X13583230Y-17912174D01*
X13583230Y-17912174D02*
X13592753Y-17921698D01*
X13592753Y-17921698D02*
X13602277Y-17940746D01*
X13602277Y-17940746D02*
X13602277Y-17997889D01*
X13602277Y-17997889D02*
X13592753Y-18016936D01*
X13592753Y-18016936D02*
X13583230Y-18026460D01*
X13583230Y-18026460D02*
X13564182Y-18035984D01*
X13564182Y-18035984D02*
X13535610Y-18035984D01*
X13716563Y-18035984D02*
X13697515Y-18026460D01*
X13697515Y-18026460D02*
X13687991Y-18007412D01*
X13687991Y-18007412D02*
X13687991Y-17835984D01*
X13868944Y-18026460D02*
X13849896Y-18035984D01*
X13849896Y-18035984D02*
X13811801Y-18035984D01*
X13811801Y-18035984D02*
X13792753Y-18026460D01*
X13792753Y-18026460D02*
X13783230Y-18007412D01*
X13783230Y-18007412D02*
X13783230Y-17931222D01*
X13783230Y-17931222D02*
X13792753Y-17912174D01*
X13792753Y-17912174D02*
X13811801Y-17902650D01*
X13811801Y-17902650D02*
X13849896Y-17902650D01*
X13849896Y-17902650D02*
X13868944Y-17912174D01*
X13868944Y-17912174D02*
X13878468Y-17931222D01*
X13878468Y-17931222D02*
X13878468Y-17950270D01*
X13878468Y-17950270D02*
X13783230Y-17969317D01*
X13954658Y-18026460D02*
X13973706Y-18035984D01*
X13973706Y-18035984D02*
X14011801Y-18035984D01*
X14011801Y-18035984D02*
X14030849Y-18026460D01*
X14030849Y-18026460D02*
X14040372Y-18007412D01*
X14040372Y-18007412D02*
X14040372Y-17997889D01*
X14040372Y-17997889D02*
X14030849Y-17978841D01*
X14030849Y-17978841D02*
X14011801Y-17969317D01*
X14011801Y-17969317D02*
X13983230Y-17969317D01*
X13983230Y-17969317D02*
X13964182Y-17959793D01*
X13964182Y-17959793D02*
X13954658Y-17940746D01*
X13954658Y-17940746D02*
X13954658Y-17931222D01*
X13954658Y-17931222D02*
X13964182Y-17912174D01*
X13964182Y-17912174D02*
X13983230Y-17902650D01*
X13983230Y-17902650D02*
X14011801Y-17902650D01*
X14011801Y-17902650D02*
X14030849Y-17912174D01*
X14107039Y-18112174D02*
X14116563Y-18102650D01*
X14116563Y-18102650D02*
X14135611Y-18074079D01*
X14135611Y-18074079D02*
X14145134Y-18055031D01*
X14145134Y-18055031D02*
X14154658Y-18026460D01*
X14154658Y-18026460D02*
X14164182Y-17978841D01*
X14164182Y-17978841D02*
X14164182Y-17940746D01*
X14164182Y-17940746D02*
X14154658Y-17893127D01*
X14154658Y-17893127D02*
X14145134Y-17864555D01*
X14145134Y-17864555D02*
X14135611Y-17845508D01*
X14135611Y-17845508D02*
X14116563Y-17816936D01*
X14116563Y-17816936D02*
X14107039Y-17807412D01*
D11*
X9081500Y-18268500D02*
X9141500Y-18208500D01*
X9081500Y-18148500D01*
X9021500Y-18208500D01*
X9081500Y-18268500D01*
D12*
X9507039Y-18299984D02*
X9392753Y-18299984D01*
X9449896Y-18299984D02*
X9449896Y-18099984D01*
X9449896Y-18099984D02*
X9430848Y-18128555D01*
X9430848Y-18128555D02*
X9411801Y-18147603D01*
X9411801Y-18147603D02*
X9392753Y-18157127D01*
X9592753Y-18280936D02*
X9602277Y-18290460D01*
X9602277Y-18290460D02*
X9592753Y-18299984D01*
X9592753Y-18299984D02*
X9583229Y-18290460D01*
X9583229Y-18290460D02*
X9592753Y-18280936D01*
X9592753Y-18280936D02*
X9592753Y-18299984D01*
X9678467Y-18119031D02*
X9687991Y-18109508D01*
X9687991Y-18109508D02*
X9707039Y-18099984D01*
X9707039Y-18099984D02*
X9754658Y-18099984D01*
X9754658Y-18099984D02*
X9773705Y-18109508D01*
X9773705Y-18109508D02*
X9783229Y-18119031D01*
X9783229Y-18119031D02*
X9792753Y-18138079D01*
X9792753Y-18138079D02*
X9792753Y-18157127D01*
X9792753Y-18157127D02*
X9783229Y-18185698D01*
X9783229Y-18185698D02*
X9668944Y-18299984D01*
X9668944Y-18299984D02*
X9792753Y-18299984D01*
X9916563Y-18099984D02*
X9935610Y-18099984D01*
X9935610Y-18099984D02*
X9954658Y-18109508D01*
X9954658Y-18109508D02*
X9964182Y-18119031D01*
X9964182Y-18119031D02*
X9973705Y-18138079D01*
X9973705Y-18138079D02*
X9983229Y-18176174D01*
X9983229Y-18176174D02*
X9983229Y-18223793D01*
X9983229Y-18223793D02*
X9973705Y-18261889D01*
X9973705Y-18261889D02*
X9964182Y-18280936D01*
X9964182Y-18280936D02*
X9954658Y-18290460D01*
X9954658Y-18290460D02*
X9935610Y-18299984D01*
X9935610Y-18299984D02*
X9916563Y-18299984D01*
X9916563Y-18299984D02*
X9897515Y-18290460D01*
X9897515Y-18290460D02*
X9887991Y-18280936D01*
X9887991Y-18280936D02*
X9878467Y-18261889D01*
X9878467Y-18261889D02*
X9868944Y-18223793D01*
X9868944Y-18223793D02*
X9868944Y-18176174D01*
X9868944Y-18176174D02*
X9878467Y-18138079D01*
X9878467Y-18138079D02*
X9887991Y-18119031D01*
X9887991Y-18119031D02*
X9897515Y-18109508D01*
X9897515Y-18109508D02*
X9916563Y-18099984D01*
X10107039Y-18099984D02*
X10126086Y-18099984D01*
X10126086Y-18099984D02*
X10145134Y-18109508D01*
X10145134Y-18109508D02*
X10154658Y-18119031D01*
X10154658Y-18119031D02*
X10164182Y-18138079D01*
X10164182Y-18138079D02*
X10173705Y-18176174D01*
X10173705Y-18176174D02*
X10173705Y-18223793D01*
X10173705Y-18223793D02*
X10164182Y-18261889D01*
X10164182Y-18261889D02*
X10154658Y-18280936D01*
X10154658Y-18280936D02*
X10145134Y-18290460D01*
X10145134Y-18290460D02*
X10126086Y-18299984D01*
X10126086Y-18299984D02*
X10107039Y-18299984D01*
X10107039Y-18299984D02*
X10087991Y-18290460D01*
X10087991Y-18290460D02*
X10078467Y-18280936D01*
X10078467Y-18280936D02*
X10068944Y-18261889D01*
X10068944Y-18261889D02*
X10059420Y-18223793D01*
X10059420Y-18223793D02*
X10059420Y-18176174D01*
X10059420Y-18176174D02*
X10068944Y-18138079D01*
X10068944Y-18138079D02*
X10078467Y-18119031D01*
X10078467Y-18119031D02*
X10087991Y-18109508D01*
X10087991Y-18109508D02*
X10107039Y-18099984D01*
X10259420Y-18299984D02*
X10259420Y-18166650D01*
X10259420Y-18185698D02*
X10268944Y-18176174D01*
X10268944Y-18176174D02*
X10287991Y-18166650D01*
X10287991Y-18166650D02*
X10316563Y-18166650D01*
X10316563Y-18166650D02*
X10335610Y-18176174D01*
X10335610Y-18176174D02*
X10345134Y-18195222D01*
X10345134Y-18195222D02*
X10345134Y-18299984D01*
X10345134Y-18195222D02*
X10354658Y-18176174D01*
X10354658Y-18176174D02*
X10373705Y-18166650D01*
X10373705Y-18166650D02*
X10402277Y-18166650D01*
X10402277Y-18166650D02*
X10421325Y-18176174D01*
X10421325Y-18176174D02*
X10430848Y-18195222D01*
X10430848Y-18195222D02*
X10430848Y-18299984D01*
X10526086Y-18299984D02*
X10526086Y-18166650D01*
X10526086Y-18185698D02*
X10535610Y-18176174D01*
X10535610Y-18176174D02*
X10554658Y-18166650D01*
X10554658Y-18166650D02*
X10583229Y-18166650D01*
X10583229Y-18166650D02*
X10602277Y-18176174D01*
X10602277Y-18176174D02*
X10611801Y-18195222D01*
X10611801Y-18195222D02*
X10611801Y-18299984D01*
X10611801Y-18195222D02*
X10621325Y-18176174D01*
X10621325Y-18176174D02*
X10640372Y-18166650D01*
X10640372Y-18166650D02*
X10668944Y-18166650D01*
X10668944Y-18166650D02*
X10687991Y-18176174D01*
X10687991Y-18176174D02*
X10697515Y-18195222D01*
X10697515Y-18195222D02*
X10697515Y-18299984D01*
X11087991Y-18090460D02*
X10916563Y-18347603D01*
X11345134Y-18099984D02*
X11364182Y-18099984D01*
X11364182Y-18099984D02*
X11383229Y-18109508D01*
X11383229Y-18109508D02*
X11392753Y-18119031D01*
X11392753Y-18119031D02*
X11402277Y-18138079D01*
X11402277Y-18138079D02*
X11411801Y-18176174D01*
X11411801Y-18176174D02*
X11411801Y-18223793D01*
X11411801Y-18223793D02*
X11402277Y-18261889D01*
X11402277Y-18261889D02*
X11392753Y-18280936D01*
X11392753Y-18280936D02*
X11383229Y-18290460D01*
X11383229Y-18290460D02*
X11364182Y-18299984D01*
X11364182Y-18299984D02*
X11345134Y-18299984D01*
X11345134Y-18299984D02*
X11326086Y-18290460D01*
X11326086Y-18290460D02*
X11316563Y-18280936D01*
X11316563Y-18280936D02*
X11307039Y-18261889D01*
X11307039Y-18261889D02*
X11297515Y-18223793D01*
X11297515Y-18223793D02*
X11297515Y-18176174D01*
X11297515Y-18176174D02*
X11307039Y-18138079D01*
X11307039Y-18138079D02*
X11316563Y-18119031D01*
X11316563Y-18119031D02*
X11326086Y-18109508D01*
X11326086Y-18109508D02*
X11345134Y-18099984D01*
X11497515Y-18280936D02*
X11507039Y-18290460D01*
X11507039Y-18290460D02*
X11497515Y-18299984D01*
X11497515Y-18299984D02*
X11487991Y-18290460D01*
X11487991Y-18290460D02*
X11497515Y-18280936D01*
X11497515Y-18280936D02*
X11497515Y-18299984D01*
X11630848Y-18099984D02*
X11649896Y-18099984D01*
X11649896Y-18099984D02*
X11668944Y-18109508D01*
X11668944Y-18109508D02*
X11678467Y-18119031D01*
X11678467Y-18119031D02*
X11687991Y-18138079D01*
X11687991Y-18138079D02*
X11697515Y-18176174D01*
X11697515Y-18176174D02*
X11697515Y-18223793D01*
X11697515Y-18223793D02*
X11687991Y-18261889D01*
X11687991Y-18261889D02*
X11678467Y-18280936D01*
X11678467Y-18280936D02*
X11668944Y-18290460D01*
X11668944Y-18290460D02*
X11649896Y-18299984D01*
X11649896Y-18299984D02*
X11630848Y-18299984D01*
X11630848Y-18299984D02*
X11611801Y-18290460D01*
X11611801Y-18290460D02*
X11602277Y-18280936D01*
X11602277Y-18280936D02*
X11592753Y-18261889D01*
X11592753Y-18261889D02*
X11583229Y-18223793D01*
X11583229Y-18223793D02*
X11583229Y-18176174D01*
X11583229Y-18176174D02*
X11592753Y-18138079D01*
X11592753Y-18138079D02*
X11602277Y-18119031D01*
X11602277Y-18119031D02*
X11611801Y-18109508D01*
X11611801Y-18109508D02*
X11630848Y-18099984D01*
X11868944Y-18166650D02*
X11868944Y-18299984D01*
X11821325Y-18090460D02*
X11773706Y-18233317D01*
X11773706Y-18233317D02*
X11897515Y-18233317D01*
X11954658Y-18099984D02*
X12087991Y-18099984D01*
X12087991Y-18099984D02*
X12002277Y-18299984D01*
X12154658Y-18119031D02*
X12164182Y-18109508D01*
X12164182Y-18109508D02*
X12183229Y-18099984D01*
X12183229Y-18099984D02*
X12230848Y-18099984D01*
X12230848Y-18099984D02*
X12249896Y-18109508D01*
X12249896Y-18109508D02*
X12259420Y-18119031D01*
X12259420Y-18119031D02*
X12268944Y-18138079D01*
X12268944Y-18138079D02*
X12268944Y-18157127D01*
X12268944Y-18157127D02*
X12259420Y-18185698D01*
X12259420Y-18185698D02*
X12145134Y-18299984D01*
X12145134Y-18299984D02*
X12268944Y-18299984D01*
X12345134Y-18099984D02*
X12345134Y-18138079D01*
X12421325Y-18099984D02*
X12421325Y-18138079D01*
X12716563Y-18376174D02*
X12707039Y-18366650D01*
X12707039Y-18366650D02*
X12687991Y-18338079D01*
X12687991Y-18338079D02*
X12678468Y-18319031D01*
X12678468Y-18319031D02*
X12668944Y-18290460D01*
X12668944Y-18290460D02*
X12659420Y-18242841D01*
X12659420Y-18242841D02*
X12659420Y-18204746D01*
X12659420Y-18204746D02*
X12668944Y-18157127D01*
X12668944Y-18157127D02*
X12678468Y-18128555D01*
X12678468Y-18128555D02*
X12687991Y-18109508D01*
X12687991Y-18109508D02*
X12707039Y-18080936D01*
X12707039Y-18080936D02*
X12716563Y-18071412D01*
X12773706Y-18099984D02*
X12897515Y-18099984D01*
X12897515Y-18099984D02*
X12830848Y-18176174D01*
X12830848Y-18176174D02*
X12859420Y-18176174D01*
X12859420Y-18176174D02*
X12878468Y-18185698D01*
X12878468Y-18185698D02*
X12887991Y-18195222D01*
X12887991Y-18195222D02*
X12897515Y-18214270D01*
X12897515Y-18214270D02*
X12897515Y-18261889D01*
X12897515Y-18261889D02*
X12887991Y-18280936D01*
X12887991Y-18280936D02*
X12878468Y-18290460D01*
X12878468Y-18290460D02*
X12859420Y-18299984D01*
X12859420Y-18299984D02*
X12802277Y-18299984D01*
X12802277Y-18299984D02*
X12783229Y-18290460D01*
X12783229Y-18290460D02*
X12773706Y-18280936D01*
X13135610Y-18299984D02*
X13135610Y-18099984D01*
X13221325Y-18299984D02*
X13221325Y-18195222D01*
X13221325Y-18195222D02*
X13211801Y-18176174D01*
X13211801Y-18176174D02*
X13192753Y-18166650D01*
X13192753Y-18166650D02*
X13164182Y-18166650D01*
X13164182Y-18166650D02*
X13145134Y-18176174D01*
X13145134Y-18176174D02*
X13135610Y-18185698D01*
X13345134Y-18299984D02*
X13326087Y-18290460D01*
X13326087Y-18290460D02*
X13316563Y-18280936D01*
X13316563Y-18280936D02*
X13307039Y-18261889D01*
X13307039Y-18261889D02*
X13307039Y-18204746D01*
X13307039Y-18204746D02*
X13316563Y-18185698D01*
X13316563Y-18185698D02*
X13326087Y-18176174D01*
X13326087Y-18176174D02*
X13345134Y-18166650D01*
X13345134Y-18166650D02*
X13373706Y-18166650D01*
X13373706Y-18166650D02*
X13392753Y-18176174D01*
X13392753Y-18176174D02*
X13402277Y-18185698D01*
X13402277Y-18185698D02*
X13411801Y-18204746D01*
X13411801Y-18204746D02*
X13411801Y-18261889D01*
X13411801Y-18261889D02*
X13402277Y-18280936D01*
X13402277Y-18280936D02*
X13392753Y-18290460D01*
X13392753Y-18290460D02*
X13373706Y-18299984D01*
X13373706Y-18299984D02*
X13345134Y-18299984D01*
X13526087Y-18299984D02*
X13507039Y-18290460D01*
X13507039Y-18290460D02*
X13497515Y-18271412D01*
X13497515Y-18271412D02*
X13497515Y-18099984D01*
X13678468Y-18290460D02*
X13659420Y-18299984D01*
X13659420Y-18299984D02*
X13621325Y-18299984D01*
X13621325Y-18299984D02*
X13602277Y-18290460D01*
X13602277Y-18290460D02*
X13592753Y-18271412D01*
X13592753Y-18271412D02*
X13592753Y-18195222D01*
X13592753Y-18195222D02*
X13602277Y-18176174D01*
X13602277Y-18176174D02*
X13621325Y-18166650D01*
X13621325Y-18166650D02*
X13659420Y-18166650D01*
X13659420Y-18166650D02*
X13678468Y-18176174D01*
X13678468Y-18176174D02*
X13687991Y-18195222D01*
X13687991Y-18195222D02*
X13687991Y-18214270D01*
X13687991Y-18214270D02*
X13592753Y-18233317D01*
X13764182Y-18290460D02*
X13783230Y-18299984D01*
X13783230Y-18299984D02*
X13821325Y-18299984D01*
X13821325Y-18299984D02*
X13840372Y-18290460D01*
X13840372Y-18290460D02*
X13849896Y-18271412D01*
X13849896Y-18271412D02*
X13849896Y-18261889D01*
X13849896Y-18261889D02*
X13840372Y-18242841D01*
X13840372Y-18242841D02*
X13821325Y-18233317D01*
X13821325Y-18233317D02*
X13792753Y-18233317D01*
X13792753Y-18233317D02*
X13773706Y-18223793D01*
X13773706Y-18223793D02*
X13764182Y-18204746D01*
X13764182Y-18204746D02*
X13764182Y-18195222D01*
X13764182Y-18195222D02*
X13773706Y-18176174D01*
X13773706Y-18176174D02*
X13792753Y-18166650D01*
X13792753Y-18166650D02*
X13821325Y-18166650D01*
X13821325Y-18166650D02*
X13840372Y-18176174D01*
X13916563Y-18376174D02*
X13926087Y-18366650D01*
X13926087Y-18366650D02*
X13945134Y-18338079D01*
X13945134Y-18338079D02*
X13954658Y-18319031D01*
X13954658Y-18319031D02*
X13964182Y-18290460D01*
X13964182Y-18290460D02*
X13973706Y-18242841D01*
X13973706Y-18242841D02*
X13973706Y-18204746D01*
X13973706Y-18204746D02*
X13964182Y-18157127D01*
X13964182Y-18157127D02*
X13954658Y-18128555D01*
X13954658Y-18128555D02*
X13945134Y-18109508D01*
X13945134Y-18109508D02*
X13926087Y-18080936D01*
X13926087Y-18080936D02*
X13916563Y-18071412D01*
M02*
