M48
; DRILL file {KiCad 9.0.6} date 2026-02-26T15:04:39-0800
; FORMAT={-:-/ absolute / metric / decimal}
; #@! TF.CreationDate,2026-02-26T15:04:39-08:00
; #@! TF.GenerationSoftware,Kicad,Pcbnew,9.0.6
; #@! TF.FileFunction,Plated,1,2,PTH
FMAT,2
METRIC
; #@! TA.AperFunction,Plated,PTH,ComponentDrill
T1C0.813
; #@! TA.AperFunction,Plated,PTH,ComponentDrill
T2C0.900
; #@! TA.AperFunction,Plated,PTH,ComponentDrill
T3C1.000
; #@! TA.AperFunction,Plated,PTH,ComponentDrill
T4C1.100
; #@! TA.AperFunction,Plated,PTH,ComponentDrill
T5C1.200
%
G90
G05
T1
X97.79Y-128.27
X97.79Y-135.89
X100.965Y-130.175
X101.092Y-83.82
X101.092Y-91.44
X108.585Y-130.175
X112.395Y-130.175
X114.046Y-94.742
X120.015Y-130.175
X121.666Y-94.742
X125.212Y-95.446
X127.752Y-95.446
X130.292Y-95.446
X132.08Y-100.37
X132.08Y-102.87
X145.288Y-118.872
X145.288Y-126.492
X150.876Y-127.0
X150.876Y-134.62
X154.305Y-120.944
X156.805Y-120.944
X161.33Y-112.395
X163.322Y-97.162
X163.322Y-100.083
X163.322Y-103.004
X163.83Y-112.395
T2
X134.065Y-83.312
X134.065Y-90.932
X141.478Y-97.028
X141.478Y-104.648
X152.908Y-86.614
X152.908Y-94.234
T3
X103.124Y-108.468
X103.124Y-123.708
X105.664Y-108.468
X105.664Y-123.708
X108.204Y-108.468
X108.204Y-123.708
X110.744Y-108.468
X110.744Y-123.708
X113.284Y-108.468
X113.284Y-123.708
X115.824Y-108.468
X115.824Y-123.708
X118.364Y-108.468
X118.364Y-123.708
X120.904Y-108.468
X120.904Y-123.708
X123.444Y-108.468
X123.444Y-123.708
X125.984Y-108.468
X125.984Y-123.708
X128.524Y-108.468
X128.524Y-123.708
X131.064Y-108.468
X131.064Y-123.708
X133.604Y-108.468
X133.604Y-123.708
X136.144Y-108.468
X136.144Y-123.708
X138.684Y-108.468
X138.684Y-123.708
X146.435Y-133.985
X146.435Y-136.525
X146.435Y-139.065
X146.435Y-141.605
T4
X101.22Y-155.52
X101.22Y-160.02
X112.8Y-155.52
X112.8Y-160.02
X123.699Y-155.52
X123.699Y-160.02
X135.279Y-155.52
X135.279Y-160.02
X146.178Y-155.52
X146.178Y-160.02
X157.758Y-155.52
X157.758Y-160.02
T5
X146.304Y-98.298
X148.844Y-98.298
X151.384Y-98.298
T1
G00X100.838Y-138.024
M15
G01X100.838Y-137.566
M16
G05
G00X102.997Y-138.024
M15
G01X102.997Y-137.566
M16
G05
G00X104.3Y-89.923
M15
G01X104.3Y-89.11
M16
G05
G00X105.156Y-138.024
M15
G01X105.156Y-137.566
M16
G05
G00X106.8Y-89.923
M15
G01X106.8Y-89.11
M16
G05
G00X107.315Y-138.024
M15
G01X107.315Y-137.566
M16
G05
G00X109.706Y-84.517
M15
G01X108.894Y-84.517
M16
G05
G00X111.8Y-89.923
M15
G01X111.8Y-89.11
M16
G05
G00X114.3Y-89.923
M15
G01X114.3Y-89.11
M16
G05
G00X120.095Y-89.923
M15
G01X120.095Y-89.11
M16
G05
G00X122.595Y-89.923
M15
G01X122.595Y-89.11
M16
G05
G00X125.501Y-84.517
M15
G01X124.689Y-84.517
M16
G05
G00X127.595Y-89.923
M15
G01X127.595Y-89.11
M16
G05
G00X130.095Y-89.923
M15
G01X130.095Y-89.11
M16
G05
G00X164.059Y-93.606
M15
G01X162.585Y-93.606
M16
G05
G00X164.059Y-106.56
M15
G01X162.585Y-106.56
M16
G05
T3
G00X141.25Y-90.275
M15
G01X141.25Y-88.075
M16
G05
G00X147.15Y-85.775
M15
G01X144.95Y-85.775
M16
G05
G00X147.35Y-92.075
M15
G01X144.75Y-92.075
M16
G05
M30
