M48
; DRILL file {KiCad 9.0.6} date 2026-02-26T15:01:53-0800
; FORMAT={-:-/ absolute / metric / decimal}
; #@! TF.CreationDate,2026-02-26T15:01:53-08:00
; #@! TF.GenerationSoftware,Kicad,Pcbnew,9.0.6
; #@! TF.FileFunction,Plated,1,2,PTH
FMAT,2
METRIC
; #@! TA.AperFunction,Plated,PTH,ComponentDrill
T1C0.813
; #@! TA.AperFunction,Plated,PTH,ComponentDrill
T2C0.965
; #@! TA.AperFunction,Plated,PTH,ComponentDrill
T3C1.016
%
G90
G05
T1
X26.67Y-34.417
X26.67Y-42.651
X26.67Y-50.927
X29.21Y-42.651
X29.21Y-46.355
X29.21Y-50.927
X29.21Y-54.737
X29.25Y-37.846
X31.75Y-42.651
X31.75Y-50.927
X34.25Y-37.846
X34.885Y-26.675
X34.885Y-29.215
X36.83Y-34.417
X36.83Y-46.355
X36.83Y-54.737
X42.672Y-69.85
X42.672Y-80.01
X50.84Y-71.882
X51.054Y-76.962
X53.126Y-90.17
X53.396Y-84.328
X55.372Y-76.962
X55.84Y-71.882
X56.896Y-84.328
X57.912Y-76.962
X58.126Y-90.17
X78.74Y-69.85
X78.74Y-80.01
X99.314Y-74.422
X99.42Y-77.47
X99.42Y-80.01
X99.42Y-82.55
X102.616Y-77.724
X106.934Y-74.422
X110.236Y-77.724
X113.03Y-74.93
X113.03Y-82.55
X120.142Y-69.85
X120.142Y-80.01
X120.142Y-82.55
X120.142Y-90.17
X124.46Y-76.454
X124.46Y-84.074
X127.0Y-76.454
X127.0Y-84.074
X127.0Y-87.416
X127.0Y-92.416
X127.04Y-71.882
X129.54Y-76.454
X129.54Y-84.074
X130.048Y-89.154
X132.04Y-71.882
X132.08Y-76.454
X132.08Y-84.074
X135.382Y-76.454
X135.382Y-84.074
X137.668Y-89.154
X138.684Y-68.834
X138.684Y-76.454
X140.97Y-41.402
X140.97Y-49.784
X140.97Y-56.642
X140.97Y-65.278
X141.478Y-70.612
X143.51Y-34.671
X143.51Y-38.1
X143.51Y-75.946
X143.51Y-82.296
X143.59Y-53.213
X146.05Y-45.233
X146.05Y-60.579
X146.13Y-79.248
X148.51Y-38.1
X148.59Y-41.402
X148.59Y-45.233
X148.59Y-49.784
X148.59Y-53.213
X148.59Y-56.642
X148.59Y-60.579
X148.59Y-65.278
X149.098Y-70.612
X151.13Y-34.671
X151.13Y-45.233
X151.13Y-60.579
X151.13Y-75.946
X151.13Y-79.248
X151.13Y-82.296
T2
X142.915Y-26.665
X142.915Y-29.205
T3
X87.635Y-76.2
X90.175Y-76.2
T1
G00X38.18Y-84.103
M15
G01X38.18Y-84.713
M16
G05
G00X42.875Y-89.408
M15
G01X43.485Y-89.408
M16
G05
G00X48.18Y-84.713
M15
G01X48.18Y-84.103
M16
G05
M30
