%TF.GenerationSoftware,KiCad,Pcbnew,9.0.6*%
%TF.CreationDate,2026-02-26T15:01:50-08:00*%
%TF.ProjectId,photogateBallDropKiCAD,70686f74-6f67-4617-9465-42616c6c4472,rev?*%
%TF.SameCoordinates,Original*%
%TF.FileFunction,Legend,Top*%
%TF.FilePolarity,Positive*%
%FSLAX46Y46*%
G04 Gerber Fmt 4.6, Leading zero omitted, Abs format (unit mm)*
G04 Created by KiCad (PCBNEW 9.0.6) date 2026-02-26 15:01:50*
%MOMM*%
%LPD*%
G01*
G04 APERTURE LIST*
%ADD10C,0.150000*%
%ADD11C,0.120000*%
G04 APERTURE END LIST*
D10*
X43126819Y-75572857D02*
X42650628Y-75906190D01*
X43126819Y-76144285D02*
X42126819Y-76144285D01*
X42126819Y-76144285D02*
X42126819Y-75763333D01*
X42126819Y-75763333D02*
X42174438Y-75668095D01*
X42174438Y-75668095D02*
X42222057Y-75620476D01*
X42222057Y-75620476D02*
X42317295Y-75572857D01*
X42317295Y-75572857D02*
X42460152Y-75572857D01*
X42460152Y-75572857D02*
X42555390Y-75620476D01*
X42555390Y-75620476D02*
X42603009Y-75668095D01*
X42603009Y-75668095D02*
X42650628Y-75763333D01*
X42650628Y-75763333D02*
X42650628Y-76144285D01*
X42222057Y-75191904D02*
X42174438Y-75144285D01*
X42174438Y-75144285D02*
X42126819Y-75049047D01*
X42126819Y-75049047D02*
X42126819Y-74810952D01*
X42126819Y-74810952D02*
X42174438Y-74715714D01*
X42174438Y-74715714D02*
X42222057Y-74668095D01*
X42222057Y-74668095D02*
X42317295Y-74620476D01*
X42317295Y-74620476D02*
X42412533Y-74620476D01*
X42412533Y-74620476D02*
X42555390Y-74668095D01*
X42555390Y-74668095D02*
X43126819Y-75239523D01*
X43126819Y-75239523D02*
X43126819Y-74620476D01*
X42126819Y-74001428D02*
X42126819Y-73906190D01*
X42126819Y-73906190D02*
X42174438Y-73810952D01*
X42174438Y-73810952D02*
X42222057Y-73763333D01*
X42222057Y-73763333D02*
X42317295Y-73715714D01*
X42317295Y-73715714D02*
X42507771Y-73668095D01*
X42507771Y-73668095D02*
X42745866Y-73668095D01*
X42745866Y-73668095D02*
X42936342Y-73715714D01*
X42936342Y-73715714D02*
X43031580Y-73763333D01*
X43031580Y-73763333D02*
X43079200Y-73810952D01*
X43079200Y-73810952D02*
X43126819Y-73906190D01*
X43126819Y-73906190D02*
X43126819Y-74001428D01*
X43126819Y-74001428D02*
X43079200Y-74096666D01*
X43079200Y-74096666D02*
X43031580Y-74144285D01*
X43031580Y-74144285D02*
X42936342Y-74191904D01*
X42936342Y-74191904D02*
X42745866Y-74239523D01*
X42745866Y-74239523D02*
X42507771Y-74239523D01*
X42507771Y-74239523D02*
X42317295Y-74191904D01*
X42317295Y-74191904D02*
X42222057Y-74144285D01*
X42222057Y-74144285D02*
X42174438Y-74096666D01*
X42174438Y-74096666D02*
X42126819Y-74001428D01*
X55276761Y-79396057D02*
X55181523Y-79348438D01*
X55181523Y-79348438D02*
X55086285Y-79253200D01*
X55086285Y-79253200D02*
X54943428Y-79110342D01*
X54943428Y-79110342D02*
X54848190Y-79062723D01*
X54848190Y-79062723D02*
X54752952Y-79062723D01*
X54800571Y-79300819D02*
X54705333Y-79253200D01*
X54705333Y-79253200D02*
X54610095Y-79157961D01*
X54610095Y-79157961D02*
X54562476Y-78967485D01*
X54562476Y-78967485D02*
X54562476Y-78634152D01*
X54562476Y-78634152D02*
X54610095Y-78443676D01*
X54610095Y-78443676D02*
X54705333Y-78348438D01*
X54705333Y-78348438D02*
X54800571Y-78300819D01*
X54800571Y-78300819D02*
X54991047Y-78300819D01*
X54991047Y-78300819D02*
X55086285Y-78348438D01*
X55086285Y-78348438D02*
X55181523Y-78443676D01*
X55181523Y-78443676D02*
X55229142Y-78634152D01*
X55229142Y-78634152D02*
X55229142Y-78967485D01*
X55229142Y-78967485D02*
X55181523Y-79157961D01*
X55181523Y-79157961D02*
X55086285Y-79253200D01*
X55086285Y-79253200D02*
X54991047Y-79300819D01*
X54991047Y-79300819D02*
X54800571Y-79300819D01*
X55562476Y-78300819D02*
X56229142Y-78300819D01*
X56229142Y-78300819D02*
X55800571Y-79300819D01*
X139138819Y-73540857D02*
X138662628Y-73874190D01*
X139138819Y-74112285D02*
X138138819Y-74112285D01*
X138138819Y-74112285D02*
X138138819Y-73731333D01*
X138138819Y-73731333D02*
X138186438Y-73636095D01*
X138186438Y-73636095D02*
X138234057Y-73588476D01*
X138234057Y-73588476D02*
X138329295Y-73540857D01*
X138329295Y-73540857D02*
X138472152Y-73540857D01*
X138472152Y-73540857D02*
X138567390Y-73588476D01*
X138567390Y-73588476D02*
X138615009Y-73636095D01*
X138615009Y-73636095D02*
X138662628Y-73731333D01*
X138662628Y-73731333D02*
X138662628Y-74112285D01*
X139138819Y-72588476D02*
X139138819Y-73159904D01*
X139138819Y-72874190D02*
X138138819Y-72874190D01*
X138138819Y-72874190D02*
X138281676Y-72969428D01*
X138281676Y-72969428D02*
X138376914Y-73064666D01*
X138376914Y-73064666D02*
X138424533Y-73159904D01*
X138138819Y-71731333D02*
X138138819Y-71921809D01*
X138138819Y-71921809D02*
X138186438Y-72017047D01*
X138186438Y-72017047D02*
X138234057Y-72064666D01*
X138234057Y-72064666D02*
X138376914Y-72159904D01*
X138376914Y-72159904D02*
X138567390Y-72207523D01*
X138567390Y-72207523D02*
X138948342Y-72207523D01*
X138948342Y-72207523D02*
X139043580Y-72159904D01*
X139043580Y-72159904D02*
X139091200Y-72112285D01*
X139091200Y-72112285D02*
X139138819Y-72017047D01*
X139138819Y-72017047D02*
X139138819Y-71826571D01*
X139138819Y-71826571D02*
X139091200Y-71731333D01*
X139091200Y-71731333D02*
X139043580Y-71683714D01*
X139043580Y-71683714D02*
X138948342Y-71636095D01*
X138948342Y-71636095D02*
X138710247Y-71636095D01*
X138710247Y-71636095D02*
X138615009Y-71683714D01*
X138615009Y-71683714D02*
X138567390Y-71731333D01*
X138567390Y-71731333D02*
X138519771Y-71826571D01*
X138519771Y-71826571D02*
X138519771Y-72017047D01*
X138519771Y-72017047D02*
X138567390Y-72112285D01*
X138567390Y-72112285D02*
X138615009Y-72159904D01*
X138615009Y-72159904D02*
X138710247Y-72207523D01*
X129373333Y-72241580D02*
X129325714Y-72289200D01*
X129325714Y-72289200D02*
X129182857Y-72336819D01*
X129182857Y-72336819D02*
X129087619Y-72336819D01*
X129087619Y-72336819D02*
X128944762Y-72289200D01*
X128944762Y-72289200D02*
X128849524Y-72193961D01*
X128849524Y-72193961D02*
X128801905Y-72098723D01*
X128801905Y-72098723D02*
X128754286Y-71908247D01*
X128754286Y-71908247D02*
X128754286Y-71765390D01*
X128754286Y-71765390D02*
X128801905Y-71574914D01*
X128801905Y-71574914D02*
X128849524Y-71479676D01*
X128849524Y-71479676D02*
X128944762Y-71384438D01*
X128944762Y-71384438D02*
X129087619Y-71336819D01*
X129087619Y-71336819D02*
X129182857Y-71336819D01*
X129182857Y-71336819D02*
X129325714Y-71384438D01*
X129325714Y-71384438D02*
X129373333Y-71432057D01*
X129849524Y-72336819D02*
X130040000Y-72336819D01*
X130040000Y-72336819D02*
X130135238Y-72289200D01*
X130135238Y-72289200D02*
X130182857Y-72241580D01*
X130182857Y-72241580D02*
X130278095Y-72098723D01*
X130278095Y-72098723D02*
X130325714Y-71908247D01*
X130325714Y-71908247D02*
X130325714Y-71527295D01*
X130325714Y-71527295D02*
X130278095Y-71432057D01*
X130278095Y-71432057D02*
X130230476Y-71384438D01*
X130230476Y-71384438D02*
X130135238Y-71336819D01*
X130135238Y-71336819D02*
X129944762Y-71336819D01*
X129944762Y-71336819D02*
X129849524Y-71384438D01*
X129849524Y-71384438D02*
X129801905Y-71432057D01*
X129801905Y-71432057D02*
X129754286Y-71527295D01*
X129754286Y-71527295D02*
X129754286Y-71765390D01*
X129754286Y-71765390D02*
X129801905Y-71860628D01*
X129801905Y-71860628D02*
X129849524Y-71908247D01*
X129849524Y-71908247D02*
X129944762Y-71955866D01*
X129944762Y-71955866D02*
X130135238Y-71955866D01*
X130135238Y-71955866D02*
X130230476Y-71908247D01*
X130230476Y-71908247D02*
X130278095Y-71860628D01*
X130278095Y-71860628D02*
X130325714Y-71765390D01*
X105783142Y-78178819D02*
X105449809Y-77702628D01*
X105211714Y-78178819D02*
X105211714Y-77178819D01*
X105211714Y-77178819D02*
X105592666Y-77178819D01*
X105592666Y-77178819D02*
X105687904Y-77226438D01*
X105687904Y-77226438D02*
X105735523Y-77274057D01*
X105735523Y-77274057D02*
X105783142Y-77369295D01*
X105783142Y-77369295D02*
X105783142Y-77512152D01*
X105783142Y-77512152D02*
X105735523Y-77607390D01*
X105735523Y-77607390D02*
X105687904Y-77655009D01*
X105687904Y-77655009D02*
X105592666Y-77702628D01*
X105592666Y-77702628D02*
X105211714Y-77702628D01*
X106735523Y-78178819D02*
X106164095Y-78178819D01*
X106449809Y-78178819D02*
X106449809Y-77178819D01*
X106449809Y-77178819D02*
X106354571Y-77321676D01*
X106354571Y-77321676D02*
X106259333Y-77416914D01*
X106259333Y-77416914D02*
X106164095Y-77464533D01*
X107211714Y-78178819D02*
X107402190Y-78178819D01*
X107402190Y-78178819D02*
X107497428Y-78131200D01*
X107497428Y-78131200D02*
X107545047Y-78083580D01*
X107545047Y-78083580D02*
X107640285Y-77940723D01*
X107640285Y-77940723D02*
X107687904Y-77750247D01*
X107687904Y-77750247D02*
X107687904Y-77369295D01*
X107687904Y-77369295D02*
X107640285Y-77274057D01*
X107640285Y-77274057D02*
X107592666Y-77226438D01*
X107592666Y-77226438D02*
X107497428Y-77178819D01*
X107497428Y-77178819D02*
X107306952Y-77178819D01*
X107306952Y-77178819D02*
X107211714Y-77226438D01*
X107211714Y-77226438D02*
X107164095Y-77274057D01*
X107164095Y-77274057D02*
X107116476Y-77369295D01*
X107116476Y-77369295D02*
X107116476Y-77607390D01*
X107116476Y-77607390D02*
X107164095Y-77702628D01*
X107164095Y-77702628D02*
X107211714Y-77750247D01*
X107211714Y-77750247D02*
X107306952Y-77797866D01*
X107306952Y-77797866D02*
X107497428Y-77797866D01*
X107497428Y-77797866D02*
X107592666Y-77750247D01*
X107592666Y-77750247D02*
X107640285Y-77702628D01*
X107640285Y-77702628D02*
X107687904Y-77607390D01*
X103211333Y-74876819D02*
X102878000Y-74400628D01*
X102639905Y-74876819D02*
X102639905Y-73876819D01*
X102639905Y-73876819D02*
X103020857Y-73876819D01*
X103020857Y-73876819D02*
X103116095Y-73924438D01*
X103116095Y-73924438D02*
X103163714Y-73972057D01*
X103163714Y-73972057D02*
X103211333Y-74067295D01*
X103211333Y-74067295D02*
X103211333Y-74210152D01*
X103211333Y-74210152D02*
X103163714Y-74305390D01*
X103163714Y-74305390D02*
X103116095Y-74353009D01*
X103116095Y-74353009D02*
X103020857Y-74400628D01*
X103020857Y-74400628D02*
X102639905Y-74400628D01*
X104163714Y-74876819D02*
X103592286Y-74876819D01*
X103878000Y-74876819D02*
X103878000Y-73876819D01*
X103878000Y-73876819D02*
X103782762Y-74019676D01*
X103782762Y-74019676D02*
X103687524Y-74114914D01*
X103687524Y-74114914D02*
X103592286Y-74162533D01*
X42846666Y-86195819D02*
X42846666Y-86910104D01*
X42846666Y-86910104D02*
X42799047Y-87052961D01*
X42799047Y-87052961D02*
X42703809Y-87148200D01*
X42703809Y-87148200D02*
X42560952Y-87195819D01*
X42560952Y-87195819D02*
X42465714Y-87195819D01*
X43846666Y-87195819D02*
X43275238Y-87195819D01*
X43560952Y-87195819D02*
X43560952Y-86195819D01*
X43560952Y-86195819D02*
X43465714Y-86338676D01*
X43465714Y-86338676D02*
X43370476Y-86433914D01*
X43370476Y-86433914D02*
X43275238Y-86481533D01*
X120596819Y-86526666D02*
X120120628Y-86859999D01*
X120596819Y-87098094D02*
X119596819Y-87098094D01*
X119596819Y-87098094D02*
X119596819Y-86717142D01*
X119596819Y-86717142D02*
X119644438Y-86621904D01*
X119644438Y-86621904D02*
X119692057Y-86574285D01*
X119692057Y-86574285D02*
X119787295Y-86526666D01*
X119787295Y-86526666D02*
X119930152Y-86526666D01*
X119930152Y-86526666D02*
X120025390Y-86574285D01*
X120025390Y-86574285D02*
X120073009Y-86621904D01*
X120073009Y-86621904D02*
X120120628Y-86717142D01*
X120120628Y-86717142D02*
X120120628Y-87098094D01*
X119596819Y-85621904D02*
X119596819Y-86098094D01*
X119596819Y-86098094D02*
X120073009Y-86145713D01*
X120073009Y-86145713D02*
X120025390Y-86098094D01*
X120025390Y-86098094D02*
X119977771Y-86002856D01*
X119977771Y-86002856D02*
X119977771Y-85764761D01*
X119977771Y-85764761D02*
X120025390Y-85669523D01*
X120025390Y-85669523D02*
X120073009Y-85621904D01*
X120073009Y-85621904D02*
X120168247Y-85574285D01*
X120168247Y-85574285D02*
X120406342Y-85574285D01*
X120406342Y-85574285D02*
X120501580Y-85621904D01*
X120501580Y-85621904D02*
X120549200Y-85669523D01*
X120549200Y-85669523D02*
X120596819Y-85764761D01*
X120596819Y-85764761D02*
X120596819Y-86002856D01*
X120596819Y-86002856D02*
X120549200Y-86098094D01*
X120549200Y-86098094D02*
X120501580Y-86145713D01*
X113484819Y-79033666D02*
X113008628Y-79366999D01*
X113484819Y-79605094D02*
X112484819Y-79605094D01*
X112484819Y-79605094D02*
X112484819Y-79224142D01*
X112484819Y-79224142D02*
X112532438Y-79128904D01*
X112532438Y-79128904D02*
X112580057Y-79081285D01*
X112580057Y-79081285D02*
X112675295Y-79033666D01*
X112675295Y-79033666D02*
X112818152Y-79033666D01*
X112818152Y-79033666D02*
X112913390Y-79081285D01*
X112913390Y-79081285D02*
X112961009Y-79128904D01*
X112961009Y-79128904D02*
X113008628Y-79224142D01*
X113008628Y-79224142D02*
X113008628Y-79605094D01*
X112484819Y-78700332D02*
X112484819Y-78081285D01*
X112484819Y-78081285D02*
X112865771Y-78414618D01*
X112865771Y-78414618D02*
X112865771Y-78271761D01*
X112865771Y-78271761D02*
X112913390Y-78176523D01*
X112913390Y-78176523D02*
X112961009Y-78128904D01*
X112961009Y-78128904D02*
X113056247Y-78081285D01*
X113056247Y-78081285D02*
X113294342Y-78081285D01*
X113294342Y-78081285D02*
X113389580Y-78128904D01*
X113389580Y-78128904D02*
X113437200Y-78176523D01*
X113437200Y-78176523D02*
X113484819Y-78271761D01*
X113484819Y-78271761D02*
X113484819Y-78557475D01*
X113484819Y-78557475D02*
X113437200Y-78652713D01*
X113437200Y-78652713D02*
X113389580Y-78700332D01*
X120596819Y-75096666D02*
X120120628Y-75429999D01*
X120596819Y-75668094D02*
X119596819Y-75668094D01*
X119596819Y-75668094D02*
X119596819Y-75287142D01*
X119596819Y-75287142D02*
X119644438Y-75191904D01*
X119644438Y-75191904D02*
X119692057Y-75144285D01*
X119692057Y-75144285D02*
X119787295Y-75096666D01*
X119787295Y-75096666D02*
X119930152Y-75096666D01*
X119930152Y-75096666D02*
X120025390Y-75144285D01*
X120025390Y-75144285D02*
X120073009Y-75191904D01*
X120073009Y-75191904D02*
X120120628Y-75287142D01*
X120120628Y-75287142D02*
X120120628Y-75668094D01*
X119692057Y-74715713D02*
X119644438Y-74668094D01*
X119644438Y-74668094D02*
X119596819Y-74572856D01*
X119596819Y-74572856D02*
X119596819Y-74334761D01*
X119596819Y-74334761D02*
X119644438Y-74239523D01*
X119644438Y-74239523D02*
X119692057Y-74191904D01*
X119692057Y-74191904D02*
X119787295Y-74144285D01*
X119787295Y-74144285D02*
X119882533Y-74144285D01*
X119882533Y-74144285D02*
X120025390Y-74191904D01*
X120025390Y-74191904D02*
X120596819Y-74763332D01*
X120596819Y-74763332D02*
X120596819Y-74144285D01*
X146423142Y-82750819D02*
X146089809Y-82274628D01*
X145851714Y-82750819D02*
X145851714Y-81750819D01*
X145851714Y-81750819D02*
X146232666Y-81750819D01*
X146232666Y-81750819D02*
X146327904Y-81798438D01*
X146327904Y-81798438D02*
X146375523Y-81846057D01*
X146375523Y-81846057D02*
X146423142Y-81941295D01*
X146423142Y-81941295D02*
X146423142Y-82084152D01*
X146423142Y-82084152D02*
X146375523Y-82179390D01*
X146375523Y-82179390D02*
X146327904Y-82227009D01*
X146327904Y-82227009D02*
X146232666Y-82274628D01*
X146232666Y-82274628D02*
X145851714Y-82274628D01*
X147375523Y-82750819D02*
X146804095Y-82750819D01*
X147089809Y-82750819D02*
X147089809Y-81750819D01*
X147089809Y-81750819D02*
X146994571Y-81893676D01*
X146994571Y-81893676D02*
X146899333Y-81988914D01*
X146899333Y-81988914D02*
X146804095Y-82036533D01*
X147708857Y-81750819D02*
X148375523Y-81750819D01*
X148375523Y-81750819D02*
X147946952Y-82750819D01*
X133437333Y-89608819D02*
X133104000Y-89132628D01*
X132865905Y-89608819D02*
X132865905Y-88608819D01*
X132865905Y-88608819D02*
X133246857Y-88608819D01*
X133246857Y-88608819D02*
X133342095Y-88656438D01*
X133342095Y-88656438D02*
X133389714Y-88704057D01*
X133389714Y-88704057D02*
X133437333Y-88799295D01*
X133437333Y-88799295D02*
X133437333Y-88942152D01*
X133437333Y-88942152D02*
X133389714Y-89037390D01*
X133389714Y-89037390D02*
X133342095Y-89085009D01*
X133342095Y-89085009D02*
X133246857Y-89132628D01*
X133246857Y-89132628D02*
X132865905Y-89132628D01*
X134294476Y-88942152D02*
X134294476Y-89608819D01*
X134056381Y-88561200D02*
X133818286Y-89275485D01*
X133818286Y-89275485D02*
X134437333Y-89275485D01*
X135836819Y-80906857D02*
X135360628Y-81240190D01*
X135836819Y-81478285D02*
X134836819Y-81478285D01*
X134836819Y-81478285D02*
X134836819Y-81097333D01*
X134836819Y-81097333D02*
X134884438Y-81002095D01*
X134884438Y-81002095D02*
X134932057Y-80954476D01*
X134932057Y-80954476D02*
X135027295Y-80906857D01*
X135027295Y-80906857D02*
X135170152Y-80906857D01*
X135170152Y-80906857D02*
X135265390Y-80954476D01*
X135265390Y-80954476D02*
X135313009Y-81002095D01*
X135313009Y-81002095D02*
X135360628Y-81097333D01*
X135360628Y-81097333D02*
X135360628Y-81478285D01*
X135836819Y-79954476D02*
X135836819Y-80525904D01*
X135836819Y-80240190D02*
X134836819Y-80240190D01*
X134836819Y-80240190D02*
X134979676Y-80335428D01*
X134979676Y-80335428D02*
X135074914Y-80430666D01*
X135074914Y-80430666D02*
X135122533Y-80525904D01*
X135265390Y-79383047D02*
X135217771Y-79478285D01*
X135217771Y-79478285D02*
X135170152Y-79525904D01*
X135170152Y-79525904D02*
X135074914Y-79573523D01*
X135074914Y-79573523D02*
X135027295Y-79573523D01*
X135027295Y-79573523D02*
X134932057Y-79525904D01*
X134932057Y-79525904D02*
X134884438Y-79478285D01*
X134884438Y-79478285D02*
X134836819Y-79383047D01*
X134836819Y-79383047D02*
X134836819Y-79192571D01*
X134836819Y-79192571D02*
X134884438Y-79097333D01*
X134884438Y-79097333D02*
X134932057Y-79049714D01*
X134932057Y-79049714D02*
X135027295Y-79002095D01*
X135027295Y-79002095D02*
X135074914Y-79002095D01*
X135074914Y-79002095D02*
X135170152Y-79049714D01*
X135170152Y-79049714D02*
X135217771Y-79097333D01*
X135217771Y-79097333D02*
X135265390Y-79192571D01*
X135265390Y-79192571D02*
X135265390Y-79383047D01*
X135265390Y-79383047D02*
X135313009Y-79478285D01*
X135313009Y-79478285D02*
X135360628Y-79525904D01*
X135360628Y-79525904D02*
X135455866Y-79573523D01*
X135455866Y-79573523D02*
X135646342Y-79573523D01*
X135646342Y-79573523D02*
X135741580Y-79525904D01*
X135741580Y-79525904D02*
X135789200Y-79478285D01*
X135789200Y-79478285D02*
X135836819Y-79383047D01*
X135836819Y-79383047D02*
X135836819Y-79192571D01*
X135836819Y-79192571D02*
X135789200Y-79097333D01*
X135789200Y-79097333D02*
X135741580Y-79049714D01*
X135741580Y-79049714D02*
X135646342Y-79002095D01*
X135646342Y-79002095D02*
X135455866Y-79002095D01*
X135455866Y-79002095D02*
X135360628Y-79049714D01*
X135360628Y-79049714D02*
X135313009Y-79097333D01*
X135313009Y-79097333D02*
X135265390Y-79192571D01*
X146677142Y-76400819D02*
X146343809Y-75924628D01*
X146105714Y-76400819D02*
X146105714Y-75400819D01*
X146105714Y-75400819D02*
X146486666Y-75400819D01*
X146486666Y-75400819D02*
X146581904Y-75448438D01*
X146581904Y-75448438D02*
X146629523Y-75496057D01*
X146629523Y-75496057D02*
X146677142Y-75591295D01*
X146677142Y-75591295D02*
X146677142Y-75734152D01*
X146677142Y-75734152D02*
X146629523Y-75829390D01*
X146629523Y-75829390D02*
X146581904Y-75877009D01*
X146581904Y-75877009D02*
X146486666Y-75924628D01*
X146486666Y-75924628D02*
X146105714Y-75924628D01*
X147629523Y-76400819D02*
X147058095Y-76400819D01*
X147343809Y-76400819D02*
X147343809Y-75400819D01*
X147343809Y-75400819D02*
X147248571Y-75543676D01*
X147248571Y-75543676D02*
X147153333Y-75638914D01*
X147153333Y-75638914D02*
X147058095Y-75686533D01*
X148534285Y-75400819D02*
X148058095Y-75400819D01*
X148058095Y-75400819D02*
X148010476Y-75877009D01*
X148010476Y-75877009D02*
X148058095Y-75829390D01*
X148058095Y-75829390D02*
X148153333Y-75781771D01*
X148153333Y-75781771D02*
X148391428Y-75781771D01*
X148391428Y-75781771D02*
X148486666Y-75829390D01*
X148486666Y-75829390D02*
X148534285Y-75877009D01*
X148534285Y-75877009D02*
X148581904Y-75972247D01*
X148581904Y-75972247D02*
X148581904Y-76210342D01*
X148581904Y-76210342D02*
X148534285Y-76305580D01*
X148534285Y-76305580D02*
X148486666Y-76353200D01*
X148486666Y-76353200D02*
X148391428Y-76400819D01*
X148391428Y-76400819D02*
X148153333Y-76400819D01*
X148153333Y-76400819D02*
X148058095Y-76353200D01*
X148058095Y-76353200D02*
X148010476Y-76305580D01*
X127359580Y-90082666D02*
X127407200Y-90130285D01*
X127407200Y-90130285D02*
X127454819Y-90273142D01*
X127454819Y-90273142D02*
X127454819Y-90368380D01*
X127454819Y-90368380D02*
X127407200Y-90511237D01*
X127407200Y-90511237D02*
X127311961Y-90606475D01*
X127311961Y-90606475D02*
X127216723Y-90654094D01*
X127216723Y-90654094D02*
X127026247Y-90701713D01*
X127026247Y-90701713D02*
X126883390Y-90701713D01*
X126883390Y-90701713D02*
X126692914Y-90654094D01*
X126692914Y-90654094D02*
X126597676Y-90606475D01*
X126597676Y-90606475D02*
X126502438Y-90511237D01*
X126502438Y-90511237D02*
X126454819Y-90368380D01*
X126454819Y-90368380D02*
X126454819Y-90273142D01*
X126454819Y-90273142D02*
X126502438Y-90130285D01*
X126502438Y-90130285D02*
X126550057Y-90082666D01*
X126550057Y-89701713D02*
X126502438Y-89654094D01*
X126502438Y-89654094D02*
X126454819Y-89558856D01*
X126454819Y-89558856D02*
X126454819Y-89320761D01*
X126454819Y-89320761D02*
X126502438Y-89225523D01*
X126502438Y-89225523D02*
X126550057Y-89177904D01*
X126550057Y-89177904D02*
X126645295Y-89130285D01*
X126645295Y-89130285D02*
X126740533Y-89130285D01*
X126740533Y-89130285D02*
X126883390Y-89177904D01*
X126883390Y-89177904D02*
X127454819Y-89749332D01*
X127454819Y-89749332D02*
X127454819Y-89130285D01*
X32853333Y-55191819D02*
X32520000Y-54715628D01*
X32281905Y-55191819D02*
X32281905Y-54191819D01*
X32281905Y-54191819D02*
X32662857Y-54191819D01*
X32662857Y-54191819D02*
X32758095Y-54239438D01*
X32758095Y-54239438D02*
X32805714Y-54287057D01*
X32805714Y-54287057D02*
X32853333Y-54382295D01*
X32853333Y-54382295D02*
X32853333Y-54525152D01*
X32853333Y-54525152D02*
X32805714Y-54620390D01*
X32805714Y-54620390D02*
X32758095Y-54668009D01*
X32758095Y-54668009D02*
X32662857Y-54715628D01*
X32662857Y-54715628D02*
X32281905Y-54715628D01*
X33710476Y-54191819D02*
X33520000Y-54191819D01*
X33520000Y-54191819D02*
X33424762Y-54239438D01*
X33424762Y-54239438D02*
X33377143Y-54287057D01*
X33377143Y-54287057D02*
X33281905Y-54429914D01*
X33281905Y-54429914D02*
X33234286Y-54620390D01*
X33234286Y-54620390D02*
X33234286Y-55001342D01*
X33234286Y-55001342D02*
X33281905Y-55096580D01*
X33281905Y-55096580D02*
X33329524Y-55144200D01*
X33329524Y-55144200D02*
X33424762Y-55191819D01*
X33424762Y-55191819D02*
X33615238Y-55191819D01*
X33615238Y-55191819D02*
X33710476Y-55144200D01*
X33710476Y-55144200D02*
X33758095Y-55096580D01*
X33758095Y-55096580D02*
X33805714Y-55001342D01*
X33805714Y-55001342D02*
X33805714Y-54763247D01*
X33805714Y-54763247D02*
X33758095Y-54668009D01*
X33758095Y-54668009D02*
X33710476Y-54620390D01*
X33710476Y-54620390D02*
X33615238Y-54572771D01*
X33615238Y-54572771D02*
X33424762Y-54572771D01*
X33424762Y-54572771D02*
X33329524Y-54620390D01*
X33329524Y-54620390D02*
X33281905Y-54668009D01*
X33281905Y-54668009D02*
X33234286Y-54763247D01*
X144549905Y-71066819D02*
X144549905Y-70066819D01*
X144549905Y-70066819D02*
X144788000Y-70066819D01*
X144788000Y-70066819D02*
X144930857Y-70114438D01*
X144930857Y-70114438D02*
X145026095Y-70209676D01*
X145026095Y-70209676D02*
X145073714Y-70304914D01*
X145073714Y-70304914D02*
X145121333Y-70495390D01*
X145121333Y-70495390D02*
X145121333Y-70638247D01*
X145121333Y-70638247D02*
X145073714Y-70828723D01*
X145073714Y-70828723D02*
X145026095Y-70923961D01*
X145026095Y-70923961D02*
X144930857Y-71019200D01*
X144930857Y-71019200D02*
X144788000Y-71066819D01*
X144788000Y-71066819D02*
X144549905Y-71066819D01*
X145502286Y-70162057D02*
X145549905Y-70114438D01*
X145549905Y-70114438D02*
X145645143Y-70066819D01*
X145645143Y-70066819D02*
X145883238Y-70066819D01*
X145883238Y-70066819D02*
X145978476Y-70114438D01*
X145978476Y-70114438D02*
X146026095Y-70162057D01*
X146026095Y-70162057D02*
X146073714Y-70257295D01*
X146073714Y-70257295D02*
X146073714Y-70352533D01*
X146073714Y-70352533D02*
X146026095Y-70495390D01*
X146026095Y-70495390D02*
X145454667Y-71066819D01*
X145454667Y-71066819D02*
X146073714Y-71066819D01*
X29114761Y-49593057D02*
X29019523Y-49545438D01*
X29019523Y-49545438D02*
X28924285Y-49450200D01*
X28924285Y-49450200D02*
X28781428Y-49307342D01*
X28781428Y-49307342D02*
X28686190Y-49259723D01*
X28686190Y-49259723D02*
X28590952Y-49259723D01*
X28638571Y-49497819D02*
X28543333Y-49450200D01*
X28543333Y-49450200D02*
X28448095Y-49354961D01*
X28448095Y-49354961D02*
X28400476Y-49164485D01*
X28400476Y-49164485D02*
X28400476Y-48831152D01*
X28400476Y-48831152D02*
X28448095Y-48640676D01*
X28448095Y-48640676D02*
X28543333Y-48545438D01*
X28543333Y-48545438D02*
X28638571Y-48497819D01*
X28638571Y-48497819D02*
X28829047Y-48497819D01*
X28829047Y-48497819D02*
X28924285Y-48545438D01*
X28924285Y-48545438D02*
X29019523Y-48640676D01*
X29019523Y-48640676D02*
X29067142Y-48831152D01*
X29067142Y-48831152D02*
X29067142Y-49164485D01*
X29067142Y-49164485D02*
X29019523Y-49354961D01*
X29019523Y-49354961D02*
X28924285Y-49450200D01*
X28924285Y-49450200D02*
X28829047Y-49497819D01*
X28829047Y-49497819D02*
X28638571Y-49497819D01*
X29448095Y-48593057D02*
X29495714Y-48545438D01*
X29495714Y-48545438D02*
X29590952Y-48497819D01*
X29590952Y-48497819D02*
X29829047Y-48497819D01*
X29829047Y-48497819D02*
X29924285Y-48545438D01*
X29924285Y-48545438D02*
X29971904Y-48593057D01*
X29971904Y-48593057D02*
X30019523Y-48688295D01*
X30019523Y-48688295D02*
X30019523Y-48783533D01*
X30019523Y-48783533D02*
X29971904Y-48926390D01*
X29971904Y-48926390D02*
X29400476Y-49497819D01*
X29400476Y-49497819D02*
X30019523Y-49497819D01*
X88034905Y-78813819D02*
X88034905Y-77813819D01*
X88034905Y-77813819D02*
X88273000Y-77813819D01*
X88273000Y-77813819D02*
X88415857Y-77861438D01*
X88415857Y-77861438D02*
X88511095Y-77956676D01*
X88511095Y-77956676D02*
X88558714Y-78051914D01*
X88558714Y-78051914D02*
X88606333Y-78242390D01*
X88606333Y-78242390D02*
X88606333Y-78385247D01*
X88606333Y-78385247D02*
X88558714Y-78575723D01*
X88558714Y-78575723D02*
X88511095Y-78670961D01*
X88511095Y-78670961D02*
X88415857Y-78766200D01*
X88415857Y-78766200D02*
X88273000Y-78813819D01*
X88273000Y-78813819D02*
X88034905Y-78813819D01*
X88939667Y-77813819D02*
X89558714Y-77813819D01*
X89558714Y-77813819D02*
X89225381Y-78194771D01*
X89225381Y-78194771D02*
X89368238Y-78194771D01*
X89368238Y-78194771D02*
X89463476Y-78242390D01*
X89463476Y-78242390D02*
X89511095Y-78290009D01*
X89511095Y-78290009D02*
X89558714Y-78385247D01*
X89558714Y-78385247D02*
X89558714Y-78623342D01*
X89558714Y-78623342D02*
X89511095Y-78718580D01*
X89511095Y-78718580D02*
X89463476Y-78766200D01*
X89463476Y-78766200D02*
X89368238Y-78813819D01*
X89368238Y-78813819D02*
X89082524Y-78813819D01*
X89082524Y-78813819D02*
X88987286Y-78766200D01*
X88987286Y-78766200D02*
X88939667Y-78718580D01*
X29114761Y-41063057D02*
X29019523Y-41015438D01*
X29019523Y-41015438D02*
X28924285Y-40920200D01*
X28924285Y-40920200D02*
X28781428Y-40777342D01*
X28781428Y-40777342D02*
X28686190Y-40729723D01*
X28686190Y-40729723D02*
X28590952Y-40729723D01*
X28638571Y-40967819D02*
X28543333Y-40920200D01*
X28543333Y-40920200D02*
X28448095Y-40824961D01*
X28448095Y-40824961D02*
X28400476Y-40634485D01*
X28400476Y-40634485D02*
X28400476Y-40301152D01*
X28400476Y-40301152D02*
X28448095Y-40110676D01*
X28448095Y-40110676D02*
X28543333Y-40015438D01*
X28543333Y-40015438D02*
X28638571Y-39967819D01*
X28638571Y-39967819D02*
X28829047Y-39967819D01*
X28829047Y-39967819D02*
X28924285Y-40015438D01*
X28924285Y-40015438D02*
X29019523Y-40110676D01*
X29019523Y-40110676D02*
X29067142Y-40301152D01*
X29067142Y-40301152D02*
X29067142Y-40634485D01*
X29067142Y-40634485D02*
X29019523Y-40824961D01*
X29019523Y-40824961D02*
X28924285Y-40920200D01*
X28924285Y-40920200D02*
X28829047Y-40967819D01*
X28829047Y-40967819D02*
X28638571Y-40967819D01*
X29400476Y-39967819D02*
X30019523Y-39967819D01*
X30019523Y-39967819D02*
X29686190Y-40348771D01*
X29686190Y-40348771D02*
X29829047Y-40348771D01*
X29829047Y-40348771D02*
X29924285Y-40396390D01*
X29924285Y-40396390D02*
X29971904Y-40444009D01*
X29971904Y-40444009D02*
X30019523Y-40539247D01*
X30019523Y-40539247D02*
X30019523Y-40777342D01*
X30019523Y-40777342D02*
X29971904Y-40872580D01*
X29971904Y-40872580D02*
X29924285Y-40920200D01*
X29924285Y-40920200D02*
X29829047Y-40967819D01*
X29829047Y-40967819D02*
X29543333Y-40967819D01*
X29543333Y-40967819D02*
X29448095Y-40920200D01*
X29448095Y-40920200D02*
X29400476Y-40872580D01*
X41094819Y-28678094D02*
X40094819Y-28678094D01*
X40094819Y-28678094D02*
X40094819Y-28439999D01*
X40094819Y-28439999D02*
X40142438Y-28297142D01*
X40142438Y-28297142D02*
X40237676Y-28201904D01*
X40237676Y-28201904D02*
X40332914Y-28154285D01*
X40332914Y-28154285D02*
X40523390Y-28106666D01*
X40523390Y-28106666D02*
X40666247Y-28106666D01*
X40666247Y-28106666D02*
X40856723Y-28154285D01*
X40856723Y-28154285D02*
X40951961Y-28201904D01*
X40951961Y-28201904D02*
X41047200Y-28297142D01*
X41047200Y-28297142D02*
X41094819Y-28439999D01*
X41094819Y-28439999D02*
X41094819Y-28678094D01*
X41094819Y-27154285D02*
X41094819Y-27725713D01*
X41094819Y-27439999D02*
X40094819Y-27439999D01*
X40094819Y-27439999D02*
X40237676Y-27535237D01*
X40237676Y-27535237D02*
X40332914Y-27630475D01*
X40332914Y-27630475D02*
X40380533Y-27725713D01*
X53173333Y-72114580D02*
X53125714Y-72162200D01*
X53125714Y-72162200D02*
X52982857Y-72209819D01*
X52982857Y-72209819D02*
X52887619Y-72209819D01*
X52887619Y-72209819D02*
X52744762Y-72162200D01*
X52744762Y-72162200D02*
X52649524Y-72066961D01*
X52649524Y-72066961D02*
X52601905Y-71971723D01*
X52601905Y-71971723D02*
X52554286Y-71781247D01*
X52554286Y-71781247D02*
X52554286Y-71638390D01*
X52554286Y-71638390D02*
X52601905Y-71447914D01*
X52601905Y-71447914D02*
X52649524Y-71352676D01*
X52649524Y-71352676D02*
X52744762Y-71257438D01*
X52744762Y-71257438D02*
X52887619Y-71209819D01*
X52887619Y-71209819D02*
X52982857Y-71209819D01*
X52982857Y-71209819D02*
X53125714Y-71257438D01*
X53125714Y-71257438D02*
X53173333Y-71305057D01*
X53506667Y-71209819D02*
X54125714Y-71209819D01*
X54125714Y-71209819D02*
X53792381Y-71590771D01*
X53792381Y-71590771D02*
X53935238Y-71590771D01*
X53935238Y-71590771D02*
X54030476Y-71638390D01*
X54030476Y-71638390D02*
X54078095Y-71686009D01*
X54078095Y-71686009D02*
X54125714Y-71781247D01*
X54125714Y-71781247D02*
X54125714Y-72019342D01*
X54125714Y-72019342D02*
X54078095Y-72114580D01*
X54078095Y-72114580D02*
X54030476Y-72162200D01*
X54030476Y-72162200D02*
X53935238Y-72209819D01*
X53935238Y-72209819D02*
X53649524Y-72209819D01*
X53649524Y-72209819D02*
X53554286Y-72162200D01*
X53554286Y-72162200D02*
X53506667Y-72114580D01*
X54983142Y-90529580D02*
X54935523Y-90577200D01*
X54935523Y-90577200D02*
X54792666Y-90624819D01*
X54792666Y-90624819D02*
X54697428Y-90624819D01*
X54697428Y-90624819D02*
X54554571Y-90577200D01*
X54554571Y-90577200D02*
X54459333Y-90481961D01*
X54459333Y-90481961D02*
X54411714Y-90386723D01*
X54411714Y-90386723D02*
X54364095Y-90196247D01*
X54364095Y-90196247D02*
X54364095Y-90053390D01*
X54364095Y-90053390D02*
X54411714Y-89862914D01*
X54411714Y-89862914D02*
X54459333Y-89767676D01*
X54459333Y-89767676D02*
X54554571Y-89672438D01*
X54554571Y-89672438D02*
X54697428Y-89624819D01*
X54697428Y-89624819D02*
X54792666Y-89624819D01*
X54792666Y-89624819D02*
X54935523Y-89672438D01*
X54935523Y-89672438D02*
X54983142Y-89720057D01*
X55935523Y-90624819D02*
X55364095Y-90624819D01*
X55649809Y-90624819D02*
X55649809Y-89624819D01*
X55649809Y-89624819D02*
X55554571Y-89767676D01*
X55554571Y-89767676D02*
X55459333Y-89862914D01*
X55459333Y-89862914D02*
X55364095Y-89910533D01*
X56316476Y-89720057D02*
X56364095Y-89672438D01*
X56364095Y-89672438D02*
X56459333Y-89624819D01*
X56459333Y-89624819D02*
X56697428Y-89624819D01*
X56697428Y-89624819D02*
X56792666Y-89672438D01*
X56792666Y-89672438D02*
X56840285Y-89720057D01*
X56840285Y-89720057D02*
X56887904Y-89815295D01*
X56887904Y-89815295D02*
X56887904Y-89910533D01*
X56887904Y-89910533D02*
X56840285Y-90053390D01*
X56840285Y-90053390D02*
X56268857Y-90624819D01*
X56268857Y-90624819D02*
X56887904Y-90624819D01*
X125184819Y-81025904D02*
X125994342Y-81025904D01*
X125994342Y-81025904D02*
X126089580Y-80978285D01*
X126089580Y-80978285D02*
X126137200Y-80930666D01*
X126137200Y-80930666D02*
X126184819Y-80835428D01*
X126184819Y-80835428D02*
X126184819Y-80644952D01*
X126184819Y-80644952D02*
X126137200Y-80549714D01*
X126137200Y-80549714D02*
X126089580Y-80502095D01*
X126089580Y-80502095D02*
X125994342Y-80454476D01*
X125994342Y-80454476D02*
X125184819Y-80454476D01*
X125280057Y-80025904D02*
X125232438Y-79978285D01*
X125232438Y-79978285D02*
X125184819Y-79883047D01*
X125184819Y-79883047D02*
X125184819Y-79644952D01*
X125184819Y-79644952D02*
X125232438Y-79549714D01*
X125232438Y-79549714D02*
X125280057Y-79502095D01*
X125280057Y-79502095D02*
X125375295Y-79454476D01*
X125375295Y-79454476D02*
X125470533Y-79454476D01*
X125470533Y-79454476D02*
X125613390Y-79502095D01*
X125613390Y-79502095D02*
X126184819Y-80073523D01*
X126184819Y-80073523D02*
X126184819Y-79454476D01*
X145923333Y-53572580D02*
X145875714Y-53620200D01*
X145875714Y-53620200D02*
X145732857Y-53667819D01*
X145732857Y-53667819D02*
X145637619Y-53667819D01*
X145637619Y-53667819D02*
X145494762Y-53620200D01*
X145494762Y-53620200D02*
X145399524Y-53524961D01*
X145399524Y-53524961D02*
X145351905Y-53429723D01*
X145351905Y-53429723D02*
X145304286Y-53239247D01*
X145304286Y-53239247D02*
X145304286Y-53096390D01*
X145304286Y-53096390D02*
X145351905Y-52905914D01*
X145351905Y-52905914D02*
X145399524Y-52810676D01*
X145399524Y-52810676D02*
X145494762Y-52715438D01*
X145494762Y-52715438D02*
X145637619Y-52667819D01*
X145637619Y-52667819D02*
X145732857Y-52667819D01*
X145732857Y-52667819D02*
X145875714Y-52715438D01*
X145875714Y-52715438D02*
X145923333Y-52763057D01*
X146780476Y-52667819D02*
X146590000Y-52667819D01*
X146590000Y-52667819D02*
X146494762Y-52715438D01*
X146494762Y-52715438D02*
X146447143Y-52763057D01*
X146447143Y-52763057D02*
X146351905Y-52905914D01*
X146351905Y-52905914D02*
X146304286Y-53096390D01*
X146304286Y-53096390D02*
X146304286Y-53477342D01*
X146304286Y-53477342D02*
X146351905Y-53572580D01*
X146351905Y-53572580D02*
X146399524Y-53620200D01*
X146399524Y-53620200D02*
X146494762Y-53667819D01*
X146494762Y-53667819D02*
X146685238Y-53667819D01*
X146685238Y-53667819D02*
X146780476Y-53620200D01*
X146780476Y-53620200D02*
X146828095Y-53572580D01*
X146828095Y-53572580D02*
X146875714Y-53477342D01*
X146875714Y-53477342D02*
X146875714Y-53239247D01*
X146875714Y-53239247D02*
X146828095Y-53144009D01*
X146828095Y-53144009D02*
X146780476Y-53096390D01*
X146780476Y-53096390D02*
X146685238Y-53048771D01*
X146685238Y-53048771D02*
X146494762Y-53048771D01*
X146494762Y-53048771D02*
X146399524Y-53096390D01*
X146399524Y-53096390D02*
X146351905Y-53144009D01*
X146351905Y-53144009D02*
X146304286Y-53239247D01*
X138472057Y-28030238D02*
X138424438Y-28125476D01*
X138424438Y-28125476D02*
X138329200Y-28220714D01*
X138329200Y-28220714D02*
X138186342Y-28363571D01*
X138186342Y-28363571D02*
X138138723Y-28458809D01*
X138138723Y-28458809D02*
X138138723Y-28554047D01*
X138376819Y-28506428D02*
X138329200Y-28601666D01*
X138329200Y-28601666D02*
X138233961Y-28696904D01*
X138233961Y-28696904D02*
X138043485Y-28744523D01*
X138043485Y-28744523D02*
X137710152Y-28744523D01*
X137710152Y-28744523D02*
X137519676Y-28696904D01*
X137519676Y-28696904D02*
X137424438Y-28601666D01*
X137424438Y-28601666D02*
X137376819Y-28506428D01*
X137376819Y-28506428D02*
X137376819Y-28315952D01*
X137376819Y-28315952D02*
X137424438Y-28220714D01*
X137424438Y-28220714D02*
X137519676Y-28125476D01*
X137519676Y-28125476D02*
X137710152Y-28077857D01*
X137710152Y-28077857D02*
X138043485Y-28077857D01*
X138043485Y-28077857D02*
X138233961Y-28125476D01*
X138233961Y-28125476D02*
X138329200Y-28220714D01*
X138329200Y-28220714D02*
X138376819Y-28315952D01*
X138376819Y-28315952D02*
X138376819Y-28506428D01*
X137710152Y-27220714D02*
X138376819Y-27220714D01*
X137329200Y-27458809D02*
X138043485Y-27696904D01*
X138043485Y-27696904D02*
X138043485Y-27077857D01*
X31710333Y-38078580D02*
X31662714Y-38126200D01*
X31662714Y-38126200D02*
X31519857Y-38173819D01*
X31519857Y-38173819D02*
X31424619Y-38173819D01*
X31424619Y-38173819D02*
X31281762Y-38126200D01*
X31281762Y-38126200D02*
X31186524Y-38030961D01*
X31186524Y-38030961D02*
X31138905Y-37935723D01*
X31138905Y-37935723D02*
X31091286Y-37745247D01*
X31091286Y-37745247D02*
X31091286Y-37602390D01*
X31091286Y-37602390D02*
X31138905Y-37411914D01*
X31138905Y-37411914D02*
X31186524Y-37316676D01*
X31186524Y-37316676D02*
X31281762Y-37221438D01*
X31281762Y-37221438D02*
X31424619Y-37173819D01*
X31424619Y-37173819D02*
X31519857Y-37173819D01*
X31519857Y-37173819D02*
X31662714Y-37221438D01*
X31662714Y-37221438D02*
X31710333Y-37269057D01*
X32662714Y-38173819D02*
X32091286Y-38173819D01*
X32377000Y-38173819D02*
X32377000Y-37173819D01*
X32377000Y-37173819D02*
X32281762Y-37316676D01*
X32281762Y-37316676D02*
X32186524Y-37411914D01*
X32186524Y-37411914D02*
X32091286Y-37459533D01*
X54630142Y-87227580D02*
X54582523Y-87275200D01*
X54582523Y-87275200D02*
X54439666Y-87322819D01*
X54439666Y-87322819D02*
X54344428Y-87322819D01*
X54344428Y-87322819D02*
X54201571Y-87275200D01*
X54201571Y-87275200D02*
X54106333Y-87179961D01*
X54106333Y-87179961D02*
X54058714Y-87084723D01*
X54058714Y-87084723D02*
X54011095Y-86894247D01*
X54011095Y-86894247D02*
X54011095Y-86751390D01*
X54011095Y-86751390D02*
X54058714Y-86560914D01*
X54058714Y-86560914D02*
X54106333Y-86465676D01*
X54106333Y-86465676D02*
X54201571Y-86370438D01*
X54201571Y-86370438D02*
X54344428Y-86322819D01*
X54344428Y-86322819D02*
X54439666Y-86322819D01*
X54439666Y-86322819D02*
X54582523Y-86370438D01*
X54582523Y-86370438D02*
X54630142Y-86418057D01*
X55582523Y-87322819D02*
X55011095Y-87322819D01*
X55296809Y-87322819D02*
X55296809Y-86322819D01*
X55296809Y-86322819D02*
X55201571Y-86465676D01*
X55201571Y-86465676D02*
X55106333Y-86560914D01*
X55106333Y-86560914D02*
X55011095Y-86608533D01*
X56201571Y-86322819D02*
X56296809Y-86322819D01*
X56296809Y-86322819D02*
X56392047Y-86370438D01*
X56392047Y-86370438D02*
X56439666Y-86418057D01*
X56439666Y-86418057D02*
X56487285Y-86513295D01*
X56487285Y-86513295D02*
X56534904Y-86703771D01*
X56534904Y-86703771D02*
X56534904Y-86941866D01*
X56534904Y-86941866D02*
X56487285Y-87132342D01*
X56487285Y-87132342D02*
X56439666Y-87227580D01*
X56439666Y-87227580D02*
X56392047Y-87275200D01*
X56392047Y-87275200D02*
X56296809Y-87322819D01*
X56296809Y-87322819D02*
X56201571Y-87322819D01*
X56201571Y-87322819D02*
X56106333Y-87275200D01*
X56106333Y-87275200D02*
X56058714Y-87227580D01*
X56058714Y-87227580D02*
X56011095Y-87132342D01*
X56011095Y-87132342D02*
X55963476Y-86941866D01*
X55963476Y-86941866D02*
X55963476Y-86703771D01*
X55963476Y-86703771D02*
X56011095Y-86513295D01*
X56011095Y-86513295D02*
X56058714Y-86418057D01*
X56058714Y-86418057D02*
X56106333Y-86370438D01*
X56106333Y-86370438D02*
X56201571Y-86322819D01*
X31837333Y-34871819D02*
X31504000Y-34395628D01*
X31265905Y-34871819D02*
X31265905Y-33871819D01*
X31265905Y-33871819D02*
X31646857Y-33871819D01*
X31646857Y-33871819D02*
X31742095Y-33919438D01*
X31742095Y-33919438D02*
X31789714Y-33967057D01*
X31789714Y-33967057D02*
X31837333Y-34062295D01*
X31837333Y-34062295D02*
X31837333Y-34205152D01*
X31837333Y-34205152D02*
X31789714Y-34300390D01*
X31789714Y-34300390D02*
X31742095Y-34348009D01*
X31742095Y-34348009D02*
X31646857Y-34395628D01*
X31646857Y-34395628D02*
X31265905Y-34395628D01*
X32313524Y-34871819D02*
X32504000Y-34871819D01*
X32504000Y-34871819D02*
X32599238Y-34824200D01*
X32599238Y-34824200D02*
X32646857Y-34776580D01*
X32646857Y-34776580D02*
X32742095Y-34633723D01*
X32742095Y-34633723D02*
X32789714Y-34443247D01*
X32789714Y-34443247D02*
X32789714Y-34062295D01*
X32789714Y-34062295D02*
X32742095Y-33967057D01*
X32742095Y-33967057D02*
X32694476Y-33919438D01*
X32694476Y-33919438D02*
X32599238Y-33871819D01*
X32599238Y-33871819D02*
X32408762Y-33871819D01*
X32408762Y-33871819D02*
X32313524Y-33919438D01*
X32313524Y-33919438D02*
X32265905Y-33967057D01*
X32265905Y-33967057D02*
X32218286Y-34062295D01*
X32218286Y-34062295D02*
X32218286Y-34300390D01*
X32218286Y-34300390D02*
X32265905Y-34395628D01*
X32265905Y-34395628D02*
X32313524Y-34443247D01*
X32313524Y-34443247D02*
X32408762Y-34490866D01*
X32408762Y-34490866D02*
X32599238Y-34490866D01*
X32599238Y-34490866D02*
X32694476Y-34443247D01*
X32694476Y-34443247D02*
X32742095Y-34395628D01*
X32742095Y-34395628D02*
X32789714Y-34300390D01*
X144010142Y-65732819D02*
X143676809Y-65256628D01*
X143438714Y-65732819D02*
X143438714Y-64732819D01*
X143438714Y-64732819D02*
X143819666Y-64732819D01*
X143819666Y-64732819D02*
X143914904Y-64780438D01*
X143914904Y-64780438D02*
X143962523Y-64828057D01*
X143962523Y-64828057D02*
X144010142Y-64923295D01*
X144010142Y-64923295D02*
X144010142Y-65066152D01*
X144010142Y-65066152D02*
X143962523Y-65161390D01*
X143962523Y-65161390D02*
X143914904Y-65209009D01*
X143914904Y-65209009D02*
X143819666Y-65256628D01*
X143819666Y-65256628D02*
X143438714Y-65256628D01*
X144391095Y-64828057D02*
X144438714Y-64780438D01*
X144438714Y-64780438D02*
X144533952Y-64732819D01*
X144533952Y-64732819D02*
X144772047Y-64732819D01*
X144772047Y-64732819D02*
X144867285Y-64780438D01*
X144867285Y-64780438D02*
X144914904Y-64828057D01*
X144914904Y-64828057D02*
X144962523Y-64923295D01*
X144962523Y-64923295D02*
X144962523Y-65018533D01*
X144962523Y-65018533D02*
X144914904Y-65161390D01*
X144914904Y-65161390D02*
X144343476Y-65732819D01*
X144343476Y-65732819D02*
X144962523Y-65732819D01*
X145819666Y-64732819D02*
X145629190Y-64732819D01*
X145629190Y-64732819D02*
X145533952Y-64780438D01*
X145533952Y-64780438D02*
X145486333Y-64828057D01*
X145486333Y-64828057D02*
X145391095Y-64970914D01*
X145391095Y-64970914D02*
X145343476Y-65161390D01*
X145343476Y-65161390D02*
X145343476Y-65542342D01*
X145343476Y-65542342D02*
X145391095Y-65637580D01*
X145391095Y-65637580D02*
X145438714Y-65685200D01*
X145438714Y-65685200D02*
X145533952Y-65732819D01*
X145533952Y-65732819D02*
X145724428Y-65732819D01*
X145724428Y-65732819D02*
X145819666Y-65685200D01*
X145819666Y-65685200D02*
X145867285Y-65637580D01*
X145867285Y-65637580D02*
X145914904Y-65542342D01*
X145914904Y-65542342D02*
X145914904Y-65304247D01*
X145914904Y-65304247D02*
X145867285Y-65209009D01*
X145867285Y-65209009D02*
X145819666Y-65161390D01*
X145819666Y-65161390D02*
X145724428Y-65113771D01*
X145724428Y-65113771D02*
X145533952Y-65113771D01*
X145533952Y-65113771D02*
X145438714Y-65161390D01*
X145438714Y-65161390D02*
X145391095Y-65209009D01*
X145391095Y-65209009D02*
X145343476Y-65304247D01*
X145629333Y-38459580D02*
X145581714Y-38507200D01*
X145581714Y-38507200D02*
X145438857Y-38554819D01*
X145438857Y-38554819D02*
X145343619Y-38554819D01*
X145343619Y-38554819D02*
X145200762Y-38507200D01*
X145200762Y-38507200D02*
X145105524Y-38411961D01*
X145105524Y-38411961D02*
X145057905Y-38316723D01*
X145057905Y-38316723D02*
X145010286Y-38126247D01*
X145010286Y-38126247D02*
X145010286Y-37983390D01*
X145010286Y-37983390D02*
X145057905Y-37792914D01*
X145057905Y-37792914D02*
X145105524Y-37697676D01*
X145105524Y-37697676D02*
X145200762Y-37602438D01*
X145200762Y-37602438D02*
X145343619Y-37554819D01*
X145343619Y-37554819D02*
X145438857Y-37554819D01*
X145438857Y-37554819D02*
X145581714Y-37602438D01*
X145581714Y-37602438D02*
X145629333Y-37650057D01*
X146486476Y-37888152D02*
X146486476Y-38554819D01*
X146248381Y-37507200D02*
X146010286Y-38221485D01*
X146010286Y-38221485D02*
X146629333Y-38221485D01*
X148423333Y-79734580D02*
X148375714Y-79782200D01*
X148375714Y-79782200D02*
X148232857Y-79829819D01*
X148232857Y-79829819D02*
X148137619Y-79829819D01*
X148137619Y-79829819D02*
X147994762Y-79782200D01*
X147994762Y-79782200D02*
X147899524Y-79686961D01*
X147899524Y-79686961D02*
X147851905Y-79591723D01*
X147851905Y-79591723D02*
X147804286Y-79401247D01*
X147804286Y-79401247D02*
X147804286Y-79258390D01*
X147804286Y-79258390D02*
X147851905Y-79067914D01*
X147851905Y-79067914D02*
X147899524Y-78972676D01*
X147899524Y-78972676D02*
X147994762Y-78877438D01*
X147994762Y-78877438D02*
X148137619Y-78829819D01*
X148137619Y-78829819D02*
X148232857Y-78829819D01*
X148232857Y-78829819D02*
X148375714Y-78877438D01*
X148375714Y-78877438D02*
X148423333Y-78925057D01*
X149328095Y-78829819D02*
X148851905Y-78829819D01*
X148851905Y-78829819D02*
X148804286Y-79306009D01*
X148804286Y-79306009D02*
X148851905Y-79258390D01*
X148851905Y-79258390D02*
X148947143Y-79210771D01*
X148947143Y-79210771D02*
X149185238Y-79210771D01*
X149185238Y-79210771D02*
X149280476Y-79258390D01*
X149280476Y-79258390D02*
X149328095Y-79306009D01*
X149328095Y-79306009D02*
X149375714Y-79401247D01*
X149375714Y-79401247D02*
X149375714Y-79639342D01*
X149375714Y-79639342D02*
X149328095Y-79734580D01*
X149328095Y-79734580D02*
X149280476Y-79782200D01*
X149280476Y-79782200D02*
X149185238Y-79829819D01*
X149185238Y-79829819D02*
X148947143Y-79829819D01*
X148947143Y-79829819D02*
X148851905Y-79782200D01*
X148851905Y-79782200D02*
X148804286Y-79734580D01*
X146423142Y-35125819D02*
X146089809Y-34649628D01*
X145851714Y-35125819D02*
X145851714Y-34125819D01*
X145851714Y-34125819D02*
X146232666Y-34125819D01*
X146232666Y-34125819D02*
X146327904Y-34173438D01*
X146327904Y-34173438D02*
X146375523Y-34221057D01*
X146375523Y-34221057D02*
X146423142Y-34316295D01*
X146423142Y-34316295D02*
X146423142Y-34459152D01*
X146423142Y-34459152D02*
X146375523Y-34554390D01*
X146375523Y-34554390D02*
X146327904Y-34602009D01*
X146327904Y-34602009D02*
X146232666Y-34649628D01*
X146232666Y-34649628D02*
X145851714Y-34649628D01*
X147375523Y-35125819D02*
X146804095Y-35125819D01*
X147089809Y-35125819D02*
X147089809Y-34125819D01*
X147089809Y-34125819D02*
X146994571Y-34268676D01*
X146994571Y-34268676D02*
X146899333Y-34363914D01*
X146899333Y-34363914D02*
X146804095Y-34411533D01*
X147994571Y-34125819D02*
X148089809Y-34125819D01*
X148089809Y-34125819D02*
X148185047Y-34173438D01*
X148185047Y-34173438D02*
X148232666Y-34221057D01*
X148232666Y-34221057D02*
X148280285Y-34316295D01*
X148280285Y-34316295D02*
X148327904Y-34506771D01*
X148327904Y-34506771D02*
X148327904Y-34744866D01*
X148327904Y-34744866D02*
X148280285Y-34935342D01*
X148280285Y-34935342D02*
X148232666Y-35030580D01*
X148232666Y-35030580D02*
X148185047Y-35078200D01*
X148185047Y-35078200D02*
X148089809Y-35125819D01*
X148089809Y-35125819D02*
X147994571Y-35125819D01*
X147994571Y-35125819D02*
X147899333Y-35078200D01*
X147899333Y-35078200D02*
X147851714Y-35030580D01*
X147851714Y-35030580D02*
X147804095Y-34935342D01*
X147804095Y-34935342D02*
X147756476Y-34744866D01*
X147756476Y-34744866D02*
X147756476Y-34506771D01*
X147756476Y-34506771D02*
X147804095Y-34316295D01*
X147804095Y-34316295D02*
X147851714Y-34221057D01*
X147851714Y-34221057D02*
X147899333Y-34173438D01*
X147899333Y-34173438D02*
X147994571Y-34125819D01*
X148494761Y-63013057D02*
X148399523Y-62965438D01*
X148399523Y-62965438D02*
X148304285Y-62870200D01*
X148304285Y-62870200D02*
X148161428Y-62727342D01*
X148161428Y-62727342D02*
X148066190Y-62679723D01*
X148066190Y-62679723D02*
X147970952Y-62679723D01*
X148018571Y-62917819D02*
X147923333Y-62870200D01*
X147923333Y-62870200D02*
X147828095Y-62774961D01*
X147828095Y-62774961D02*
X147780476Y-62584485D01*
X147780476Y-62584485D02*
X147780476Y-62251152D01*
X147780476Y-62251152D02*
X147828095Y-62060676D01*
X147828095Y-62060676D02*
X147923333Y-61965438D01*
X147923333Y-61965438D02*
X148018571Y-61917819D01*
X148018571Y-61917819D02*
X148209047Y-61917819D01*
X148209047Y-61917819D02*
X148304285Y-61965438D01*
X148304285Y-61965438D02*
X148399523Y-62060676D01*
X148399523Y-62060676D02*
X148447142Y-62251152D01*
X148447142Y-62251152D02*
X148447142Y-62584485D01*
X148447142Y-62584485D02*
X148399523Y-62774961D01*
X148399523Y-62774961D02*
X148304285Y-62870200D01*
X148304285Y-62870200D02*
X148209047Y-62917819D01*
X148209047Y-62917819D02*
X148018571Y-62917819D01*
X149018571Y-62346390D02*
X148923333Y-62298771D01*
X148923333Y-62298771D02*
X148875714Y-62251152D01*
X148875714Y-62251152D02*
X148828095Y-62155914D01*
X148828095Y-62155914D02*
X148828095Y-62108295D01*
X148828095Y-62108295D02*
X148875714Y-62013057D01*
X148875714Y-62013057D02*
X148923333Y-61965438D01*
X148923333Y-61965438D02*
X149018571Y-61917819D01*
X149018571Y-61917819D02*
X149209047Y-61917819D01*
X149209047Y-61917819D02*
X149304285Y-61965438D01*
X149304285Y-61965438D02*
X149351904Y-62013057D01*
X149351904Y-62013057D02*
X149399523Y-62108295D01*
X149399523Y-62108295D02*
X149399523Y-62155914D01*
X149399523Y-62155914D02*
X149351904Y-62251152D01*
X149351904Y-62251152D02*
X149304285Y-62298771D01*
X149304285Y-62298771D02*
X149209047Y-62346390D01*
X149209047Y-62346390D02*
X149018571Y-62346390D01*
X149018571Y-62346390D02*
X148923333Y-62394009D01*
X148923333Y-62394009D02*
X148875714Y-62441628D01*
X148875714Y-62441628D02*
X148828095Y-62536866D01*
X148828095Y-62536866D02*
X148828095Y-62727342D01*
X148828095Y-62727342D02*
X148875714Y-62822580D01*
X148875714Y-62822580D02*
X148923333Y-62870200D01*
X148923333Y-62870200D02*
X149018571Y-62917819D01*
X149018571Y-62917819D02*
X149209047Y-62917819D01*
X149209047Y-62917819D02*
X149304285Y-62870200D01*
X149304285Y-62870200D02*
X149351904Y-62822580D01*
X149351904Y-62822580D02*
X149399523Y-62727342D01*
X149399523Y-62727342D02*
X149399523Y-62536866D01*
X149399523Y-62536866D02*
X149351904Y-62441628D01*
X149351904Y-62441628D02*
X149304285Y-62394009D01*
X149304285Y-62394009D02*
X149209047Y-62346390D01*
X144010142Y-50238819D02*
X143676809Y-49762628D01*
X143438714Y-50238819D02*
X143438714Y-49238819D01*
X143438714Y-49238819D02*
X143819666Y-49238819D01*
X143819666Y-49238819D02*
X143914904Y-49286438D01*
X143914904Y-49286438D02*
X143962523Y-49334057D01*
X143962523Y-49334057D02*
X144010142Y-49429295D01*
X144010142Y-49429295D02*
X144010142Y-49572152D01*
X144010142Y-49572152D02*
X143962523Y-49667390D01*
X143962523Y-49667390D02*
X143914904Y-49715009D01*
X143914904Y-49715009D02*
X143819666Y-49762628D01*
X143819666Y-49762628D02*
X143438714Y-49762628D01*
X144962523Y-50238819D02*
X144391095Y-50238819D01*
X144676809Y-50238819D02*
X144676809Y-49238819D01*
X144676809Y-49238819D02*
X144581571Y-49381676D01*
X144581571Y-49381676D02*
X144486333Y-49476914D01*
X144486333Y-49476914D02*
X144391095Y-49524533D01*
X145295857Y-49238819D02*
X145914904Y-49238819D01*
X145914904Y-49238819D02*
X145581571Y-49619771D01*
X145581571Y-49619771D02*
X145724428Y-49619771D01*
X145724428Y-49619771D02*
X145819666Y-49667390D01*
X145819666Y-49667390D02*
X145867285Y-49715009D01*
X145867285Y-49715009D02*
X145914904Y-49810247D01*
X145914904Y-49810247D02*
X145914904Y-50048342D01*
X145914904Y-50048342D02*
X145867285Y-50143580D01*
X145867285Y-50143580D02*
X145819666Y-50191200D01*
X145819666Y-50191200D02*
X145724428Y-50238819D01*
X145724428Y-50238819D02*
X145438714Y-50238819D01*
X145438714Y-50238819D02*
X145343476Y-50191200D01*
X145343476Y-50191200D02*
X145295857Y-50143580D01*
X32726333Y-46809819D02*
X32393000Y-46333628D01*
X32154905Y-46809819D02*
X32154905Y-45809819D01*
X32154905Y-45809819D02*
X32535857Y-45809819D01*
X32535857Y-45809819D02*
X32631095Y-45857438D01*
X32631095Y-45857438D02*
X32678714Y-45905057D01*
X32678714Y-45905057D02*
X32726333Y-46000295D01*
X32726333Y-46000295D02*
X32726333Y-46143152D01*
X32726333Y-46143152D02*
X32678714Y-46238390D01*
X32678714Y-46238390D02*
X32631095Y-46286009D01*
X32631095Y-46286009D02*
X32535857Y-46333628D01*
X32535857Y-46333628D02*
X32154905Y-46333628D01*
X33297762Y-46238390D02*
X33202524Y-46190771D01*
X33202524Y-46190771D02*
X33154905Y-46143152D01*
X33154905Y-46143152D02*
X33107286Y-46047914D01*
X33107286Y-46047914D02*
X33107286Y-46000295D01*
X33107286Y-46000295D02*
X33154905Y-45905057D01*
X33154905Y-45905057D02*
X33202524Y-45857438D01*
X33202524Y-45857438D02*
X33297762Y-45809819D01*
X33297762Y-45809819D02*
X33488238Y-45809819D01*
X33488238Y-45809819D02*
X33583476Y-45857438D01*
X33583476Y-45857438D02*
X33631095Y-45905057D01*
X33631095Y-45905057D02*
X33678714Y-46000295D01*
X33678714Y-46000295D02*
X33678714Y-46047914D01*
X33678714Y-46047914D02*
X33631095Y-46143152D01*
X33631095Y-46143152D02*
X33583476Y-46190771D01*
X33583476Y-46190771D02*
X33488238Y-46238390D01*
X33488238Y-46238390D02*
X33297762Y-46238390D01*
X33297762Y-46238390D02*
X33202524Y-46286009D01*
X33202524Y-46286009D02*
X33154905Y-46333628D01*
X33154905Y-46333628D02*
X33107286Y-46428866D01*
X33107286Y-46428866D02*
X33107286Y-46619342D01*
X33107286Y-46619342D02*
X33154905Y-46714580D01*
X33154905Y-46714580D02*
X33202524Y-46762200D01*
X33202524Y-46762200D02*
X33297762Y-46809819D01*
X33297762Y-46809819D02*
X33488238Y-46809819D01*
X33488238Y-46809819D02*
X33583476Y-46762200D01*
X33583476Y-46762200D02*
X33631095Y-46714580D01*
X33631095Y-46714580D02*
X33678714Y-46619342D01*
X33678714Y-46619342D02*
X33678714Y-46428866D01*
X33678714Y-46428866D02*
X33631095Y-46333628D01*
X33631095Y-46333628D02*
X33583476Y-46286009D01*
X33583476Y-46286009D02*
X33488238Y-46238390D01*
X98065057Y-80105238D02*
X98017438Y-80200476D01*
X98017438Y-80200476D02*
X97922200Y-80295714D01*
X97922200Y-80295714D02*
X97779342Y-80438571D01*
X97779342Y-80438571D02*
X97731723Y-80533809D01*
X97731723Y-80533809D02*
X97731723Y-80629047D01*
X97969819Y-80581428D02*
X97922200Y-80676666D01*
X97922200Y-80676666D02*
X97826961Y-80771904D01*
X97826961Y-80771904D02*
X97636485Y-80819523D01*
X97636485Y-80819523D02*
X97303152Y-80819523D01*
X97303152Y-80819523D02*
X97112676Y-80771904D01*
X97112676Y-80771904D02*
X97017438Y-80676666D01*
X97017438Y-80676666D02*
X96969819Y-80581428D01*
X96969819Y-80581428D02*
X96969819Y-80390952D01*
X96969819Y-80390952D02*
X97017438Y-80295714D01*
X97017438Y-80295714D02*
X97112676Y-80200476D01*
X97112676Y-80200476D02*
X97303152Y-80152857D01*
X97303152Y-80152857D02*
X97636485Y-80152857D01*
X97636485Y-80152857D02*
X97826961Y-80200476D01*
X97826961Y-80200476D02*
X97922200Y-80295714D01*
X97922200Y-80295714D02*
X97969819Y-80390952D01*
X97969819Y-80390952D02*
X97969819Y-80581428D01*
X97969819Y-79200476D02*
X97969819Y-79771904D01*
X97969819Y-79486190D02*
X96969819Y-79486190D01*
X96969819Y-79486190D02*
X97112676Y-79581428D01*
X97112676Y-79581428D02*
X97207914Y-79676666D01*
X97207914Y-79676666D02*
X97255533Y-79771904D01*
X148367761Y-47794057D02*
X148272523Y-47746438D01*
X148272523Y-47746438D02*
X148177285Y-47651200D01*
X148177285Y-47651200D02*
X148034428Y-47508342D01*
X148034428Y-47508342D02*
X147939190Y-47460723D01*
X147939190Y-47460723D02*
X147843952Y-47460723D01*
X147891571Y-47698819D02*
X147796333Y-47651200D01*
X147796333Y-47651200D02*
X147701095Y-47555961D01*
X147701095Y-47555961D02*
X147653476Y-47365485D01*
X147653476Y-47365485D02*
X147653476Y-47032152D01*
X147653476Y-47032152D02*
X147701095Y-46841676D01*
X147701095Y-46841676D02*
X147796333Y-46746438D01*
X147796333Y-46746438D02*
X147891571Y-46698819D01*
X147891571Y-46698819D02*
X148082047Y-46698819D01*
X148082047Y-46698819D02*
X148177285Y-46746438D01*
X148177285Y-46746438D02*
X148272523Y-46841676D01*
X148272523Y-46841676D02*
X148320142Y-47032152D01*
X148320142Y-47032152D02*
X148320142Y-47365485D01*
X148320142Y-47365485D02*
X148272523Y-47555961D01*
X148272523Y-47555961D02*
X148177285Y-47651200D01*
X148177285Y-47651200D02*
X148082047Y-47698819D01*
X148082047Y-47698819D02*
X147891571Y-47698819D01*
X149224904Y-46698819D02*
X148748714Y-46698819D01*
X148748714Y-46698819D02*
X148701095Y-47175009D01*
X148701095Y-47175009D02*
X148748714Y-47127390D01*
X148748714Y-47127390D02*
X148843952Y-47079771D01*
X148843952Y-47079771D02*
X149082047Y-47079771D01*
X149082047Y-47079771D02*
X149177285Y-47127390D01*
X149177285Y-47127390D02*
X149224904Y-47175009D01*
X149224904Y-47175009D02*
X149272523Y-47270247D01*
X149272523Y-47270247D02*
X149272523Y-47508342D01*
X149272523Y-47508342D02*
X149224904Y-47603580D01*
X149224904Y-47603580D02*
X149177285Y-47651200D01*
X149177285Y-47651200D02*
X149082047Y-47698819D01*
X149082047Y-47698819D02*
X148843952Y-47698819D01*
X148843952Y-47698819D02*
X148748714Y-47651200D01*
X148748714Y-47651200D02*
X148701095Y-47603580D01*
X144010142Y-57096819D02*
X143676809Y-56620628D01*
X143438714Y-57096819D02*
X143438714Y-56096819D01*
X143438714Y-56096819D02*
X143819666Y-56096819D01*
X143819666Y-56096819D02*
X143914904Y-56144438D01*
X143914904Y-56144438D02*
X143962523Y-56192057D01*
X143962523Y-56192057D02*
X144010142Y-56287295D01*
X144010142Y-56287295D02*
X144010142Y-56430152D01*
X144010142Y-56430152D02*
X143962523Y-56525390D01*
X143962523Y-56525390D02*
X143914904Y-56573009D01*
X143914904Y-56573009D02*
X143819666Y-56620628D01*
X143819666Y-56620628D02*
X143438714Y-56620628D01*
X144391095Y-56192057D02*
X144438714Y-56144438D01*
X144438714Y-56144438D02*
X144533952Y-56096819D01*
X144533952Y-56096819D02*
X144772047Y-56096819D01*
X144772047Y-56096819D02*
X144867285Y-56144438D01*
X144867285Y-56144438D02*
X144914904Y-56192057D01*
X144914904Y-56192057D02*
X144962523Y-56287295D01*
X144962523Y-56287295D02*
X144962523Y-56382533D01*
X144962523Y-56382533D02*
X144914904Y-56525390D01*
X144914904Y-56525390D02*
X144343476Y-57096819D01*
X144343476Y-57096819D02*
X144962523Y-57096819D01*
X145819666Y-56430152D02*
X145819666Y-57096819D01*
X145581571Y-56049200D02*
X145343476Y-56763485D01*
X145343476Y-56763485D02*
X145962523Y-56763485D01*
X143883142Y-41856819D02*
X143549809Y-41380628D01*
X143311714Y-41856819D02*
X143311714Y-40856819D01*
X143311714Y-40856819D02*
X143692666Y-40856819D01*
X143692666Y-40856819D02*
X143787904Y-40904438D01*
X143787904Y-40904438D02*
X143835523Y-40952057D01*
X143835523Y-40952057D02*
X143883142Y-41047295D01*
X143883142Y-41047295D02*
X143883142Y-41190152D01*
X143883142Y-41190152D02*
X143835523Y-41285390D01*
X143835523Y-41285390D02*
X143787904Y-41333009D01*
X143787904Y-41333009D02*
X143692666Y-41380628D01*
X143692666Y-41380628D02*
X143311714Y-41380628D01*
X144835523Y-41856819D02*
X144264095Y-41856819D01*
X144549809Y-41856819D02*
X144549809Y-40856819D01*
X144549809Y-40856819D02*
X144454571Y-40999676D01*
X144454571Y-40999676D02*
X144359333Y-41094914D01*
X144359333Y-41094914D02*
X144264095Y-41142533D01*
X145787904Y-41856819D02*
X145216476Y-41856819D01*
X145502190Y-41856819D02*
X145502190Y-40856819D01*
X145502190Y-40856819D02*
X145406952Y-40999676D01*
X145406952Y-40999676D02*
X145311714Y-41094914D01*
X145311714Y-41094914D02*
X145216476Y-41142533D01*
X79194819Y-75096666D02*
X78718628Y-75429999D01*
X79194819Y-75668094D02*
X78194819Y-75668094D01*
X78194819Y-75668094D02*
X78194819Y-75287142D01*
X78194819Y-75287142D02*
X78242438Y-75191904D01*
X78242438Y-75191904D02*
X78290057Y-75144285D01*
X78290057Y-75144285D02*
X78385295Y-75096666D01*
X78385295Y-75096666D02*
X78528152Y-75096666D01*
X78528152Y-75096666D02*
X78623390Y-75144285D01*
X78623390Y-75144285D02*
X78671009Y-75191904D01*
X78671009Y-75191904D02*
X78718628Y-75287142D01*
X78718628Y-75287142D02*
X78718628Y-75668094D01*
X78194819Y-74763332D02*
X78194819Y-74096666D01*
X78194819Y-74096666D02*
X79194819Y-74525237D01*
D11*
%TO.C,R20*%
X42672000Y-70890000D02*
X42672000Y-71660000D01*
X42672000Y-78970000D02*
X42672000Y-78200000D01*
X44042000Y-71660000D02*
X41302000Y-71660000D01*
X41302000Y-78200000D01*
X44042000Y-78200000D01*
X44042000Y-71660000D01*
%TO.C,Q7*%
X57172000Y-75112000D02*
X53572000Y-75112000D01*
X55372000Y-79562000D02*
G75*
G02*
X53015600Y-78060807I0J2600000D01*
G01*
X57728400Y-78060807D02*
G75*
G02*
X55372000Y-79562000I-2356400J1098807D01*
G01*
X53047816Y-75839205D02*
G75*
G02*
X53572000Y-75112000I2324184J-1122795D01*
G01*
X57172000Y-75112000D02*
G75*
G02*
X57696184Y-75839205I-1800000J-1850000D01*
G01*
%TO.C,R16*%
X137314000Y-75914000D02*
X137314000Y-69374000D01*
X137644000Y-75914000D02*
X137314000Y-75914000D01*
X139724000Y-75914000D02*
X140054000Y-75914000D01*
X140054000Y-75914000D02*
X140054000Y-69374000D01*
X137314000Y-69374000D02*
X137644000Y-69374000D01*
X140054000Y-69374000D02*
X139724000Y-69374000D01*
%TO.C,C9*%
X125820000Y-70512000D02*
X133260000Y-70512000D01*
X125820000Y-73252000D02*
X125820000Y-70512000D01*
X133260000Y-70512000D02*
X133260000Y-73252000D01*
X133260000Y-73252000D02*
X125820000Y-73252000D01*
%TO.C,R19*%
X109696000Y-79094000D02*
X103156000Y-79094000D01*
X109696000Y-78764000D02*
X109696000Y-79094000D01*
X109696000Y-76684000D02*
X109696000Y-76354000D01*
X109696000Y-76354000D02*
X103156000Y-76354000D01*
X103156000Y-79094000D02*
X103156000Y-78764000D01*
X103156000Y-76354000D02*
X103156000Y-76684000D01*
%TO.C,R1*%
X106394000Y-75792000D02*
X99854000Y-75792000D01*
X106394000Y-75462000D02*
X106394000Y-75792000D01*
X106394000Y-73382000D02*
X106394000Y-73052000D01*
X106394000Y-73052000D02*
X99854000Y-73052000D01*
X99854000Y-75792000D02*
X99854000Y-75462000D01*
X99854000Y-73052000D02*
X99854000Y-73382000D01*
%TO.C,J1*%
X37180000Y-81708000D02*
X49180000Y-81708000D01*
X37180000Y-92708000D02*
X37180000Y-81708000D01*
X38680000Y-92708000D02*
X37180000Y-92708000D01*
X38680000Y-93908000D02*
X38680000Y-92708000D01*
X40180000Y-93908000D02*
X38680000Y-93908000D01*
X40180000Y-95708000D02*
X40180000Y-93908000D01*
X41180000Y-92708000D02*
X41180000Y-95708000D01*
X45180000Y-92708000D02*
X41180000Y-92708000D01*
X45180000Y-95708000D02*
X45180000Y-92708000D01*
X46180000Y-93908000D02*
X46180000Y-95708000D01*
X46180000Y-95708000D02*
X40180000Y-95708000D01*
X47680000Y-92708000D02*
X47680000Y-93908000D01*
X47680000Y-93908000D02*
X46180000Y-93908000D01*
X49180000Y-81708000D02*
X49180000Y-92708000D01*
X49180000Y-92708000D02*
X47680000Y-92708000D01*
%TO.C,R5*%
X121512000Y-89630000D02*
X121182000Y-89630000D01*
X121512000Y-83090000D02*
X121512000Y-89630000D01*
X121182000Y-83090000D02*
X121512000Y-83090000D01*
X119102000Y-83090000D02*
X118772000Y-83090000D01*
X118772000Y-89630000D02*
X119102000Y-89630000D01*
X118772000Y-83090000D02*
X118772000Y-89630000D01*
%TO.C,R3*%
X114400000Y-82010000D02*
X114070000Y-82010000D01*
X114400000Y-75470000D02*
X114400000Y-82010000D01*
X114070000Y-75470000D02*
X114400000Y-75470000D01*
X111990000Y-75470000D02*
X111660000Y-75470000D01*
X111660000Y-82010000D02*
X111990000Y-82010000D01*
X111660000Y-75470000D02*
X111660000Y-82010000D01*
%TO.C,R2*%
X121512000Y-71660000D02*
X118772000Y-71660000D01*
X118772000Y-78200000D01*
X121512000Y-78200000D01*
X121512000Y-71660000D01*
X120142000Y-78970000D02*
X120142000Y-78200000D01*
X120142000Y-70890000D02*
X120142000Y-71660000D01*
%TO.C,R17*%
X150590000Y-83666000D02*
X150590000Y-83336000D01*
X150590000Y-80926000D02*
X150590000Y-81256000D01*
X144050000Y-83666000D02*
X150590000Y-83666000D01*
X144050000Y-83336000D02*
X144050000Y-83666000D01*
X144050000Y-81256000D02*
X144050000Y-80926000D01*
X144050000Y-80926000D02*
X150590000Y-80926000D01*
%TO.C,R4*%
X137128000Y-90524000D02*
X130588000Y-90524000D01*
X137128000Y-90194000D02*
X137128000Y-90524000D01*
X137128000Y-88114000D02*
X137128000Y-87784000D01*
X137128000Y-87784000D02*
X130588000Y-87784000D01*
X130588000Y-90524000D02*
X130588000Y-90194000D01*
X130588000Y-87784000D02*
X130588000Y-88114000D01*
%TO.C,R18*%
X136752000Y-76994000D02*
X136752000Y-83534000D01*
X136422000Y-76994000D02*
X136752000Y-76994000D01*
X134342000Y-76994000D02*
X134012000Y-76994000D01*
X134012000Y-76994000D02*
X134012000Y-83534000D01*
X136752000Y-83534000D02*
X136422000Y-83534000D01*
X134012000Y-83534000D02*
X134342000Y-83534000D01*
%TO.C,R15*%
X144050000Y-74576000D02*
X150590000Y-74576000D01*
X144050000Y-74906000D02*
X144050000Y-74576000D01*
X144050000Y-76986000D02*
X144050000Y-77316000D01*
X144050000Y-77316000D02*
X150590000Y-77316000D01*
X150590000Y-74576000D02*
X150590000Y-74906000D01*
X150590000Y-77316000D02*
X150590000Y-76986000D01*
%TO.C,C2*%
X128370000Y-93636000D02*
X125630000Y-93636000D01*
X128370000Y-86196000D02*
X128370000Y-93636000D01*
X125630000Y-93636000D02*
X125630000Y-86196000D01*
X125630000Y-86196000D02*
X128370000Y-86196000D01*
%TO.C,R6*%
X29750000Y-53367000D02*
X29750000Y-53697000D01*
X29750000Y-56107000D02*
X29750000Y-55777000D01*
X36290000Y-53367000D02*
X29750000Y-53367000D01*
X36290000Y-53697000D02*
X36290000Y-53367000D01*
X36290000Y-55777000D02*
X36290000Y-56107000D01*
X36290000Y-56107000D02*
X29750000Y-56107000D01*
%TO.C,D2*%
X142518000Y-70612000D02*
X143168000Y-70612000D01*
X146568000Y-71732000D02*
X146568000Y-69492000D01*
X146688000Y-71732000D02*
X146688000Y-69492000D01*
X146808000Y-71732000D02*
X146808000Y-69492000D01*
X148058000Y-70612000D02*
X147408000Y-70612000D01*
X147408000Y-71732000D02*
X143168000Y-71732000D01*
X143168000Y-69492000D01*
X147408000Y-69492000D01*
X147408000Y-71732000D01*
%TO.C,Q2*%
X27410000Y-52777000D02*
X31010000Y-52777000D01*
X26853600Y-49828193D02*
G75*
G02*
X29210000Y-48327000I2356400J-1098807D01*
G01*
X27410000Y-52777000D02*
G75*
G02*
X26885816Y-52049795I1800000J1850000D01*
G01*
X29210000Y-48327000D02*
G75*
G02*
X31566400Y-49828193I0J-2600000D01*
G01*
X31534184Y-52049795D02*
G75*
G02*
X31010000Y-52777000I-2324184J1122795D01*
G01*
%TO.C,D3*%
X91465000Y-77745000D02*
X91465000Y-74655000D01*
X91465000Y-77744830D02*
G75*
G02*
X85915000Y-76200000I-2560000J1544830D01*
G01*
X85915000Y-76200000D02*
G75*
G02*
X91465000Y-74655170I2990000J0D01*
G01*
X91405000Y-76200000D02*
G75*
G02*
X86405000Y-76200000I-2500000J0D01*
G01*
X86405000Y-76200000D02*
G75*
G02*
X91405000Y-76200000I2500000J0D01*
G01*
%TO.C,Q3*%
X27410000Y-44501000D02*
X31010000Y-44501000D01*
X26853600Y-41552193D02*
G75*
G02*
X29210000Y-40051000I2356400J-1098807D01*
G01*
X27410000Y-44501000D02*
G75*
G02*
X26885816Y-43773795I1800000J1850000D01*
G01*
X29210000Y-40051000D02*
G75*
G02*
X31566400Y-41552193I0J-2600000D01*
G01*
X31534184Y-43773795D02*
G75*
G02*
X31010000Y-44501000I-2324184J1122795D01*
G01*
%TO.C,D1*%
X35965000Y-26675000D02*
X38635000Y-26675000D01*
X35965000Y-29215000D02*
X38635000Y-29215000D01*
X38635000Y-24985000D02*
X39755000Y-24985000D01*
X38635000Y-25385000D02*
X38635000Y-24985000D01*
X38635000Y-25385000D02*
X44795000Y-25385000D01*
X38635000Y-26675000D02*
X35965000Y-26675000D01*
X38635000Y-29215000D02*
X35965000Y-29215000D01*
X38635000Y-30505000D02*
X38635000Y-25385000D01*
X38635000Y-30505000D02*
X44795000Y-30505000D01*
X39755000Y-24985000D02*
X39755000Y-25385000D01*
X39755000Y-25385000D02*
X38635000Y-25385000D01*
X44795000Y-25385000D02*
G75*
G02*
X44795000Y-30505000I0J-2560000D01*
G01*
%TO.C,C3*%
X49620000Y-70512000D02*
X57060000Y-70512000D01*
X49620000Y-73252000D02*
X49620000Y-70512000D01*
X57060000Y-70512000D02*
X57060000Y-73252000D01*
X57060000Y-73252000D02*
X49620000Y-73252000D01*
%TO.C,C12*%
X51906000Y-91540000D02*
X51906000Y-88800000D01*
X59346000Y-91540000D02*
X51906000Y-91540000D01*
X51906000Y-88800000D02*
X59346000Y-88800000D01*
X59346000Y-88800000D02*
X59346000Y-91540000D01*
%TO.C,U2*%
X123130000Y-82514000D02*
X133410000Y-82514000D01*
X133410000Y-82514000D02*
X133410000Y-78014000D01*
X123130000Y-81264000D02*
X123130000Y-82514000D01*
X123130000Y-78014000D02*
X123130000Y-79264000D01*
X133410000Y-78014000D02*
X123130000Y-78014000D01*
X123070000Y-85514000D02*
X133470000Y-85514000D01*
X133470000Y-75014000D01*
X123070000Y-75014000D01*
X123070000Y-85514000D01*
X123130000Y-79264000D02*
G75*
G02*
X123130000Y-81264000I0J-1000000D01*
G01*
%TO.C,C6*%
X142370000Y-51843000D02*
X149810000Y-51843000D01*
X142370000Y-54583000D02*
X142370000Y-51843000D01*
X149810000Y-51843000D02*
X149810000Y-54583000D01*
X149810000Y-54583000D02*
X142370000Y-54583000D01*
%TO.C,Q4*%
X138045000Y-29495000D02*
X139165000Y-29495000D01*
X138045000Y-29895000D02*
X138045000Y-29495000D01*
X139165000Y-26375000D02*
X135305000Y-26375000D01*
X139165000Y-26375000D02*
X139165000Y-29495000D01*
X139165000Y-26665000D02*
X141835000Y-26665000D01*
X139165000Y-29205000D02*
X141835000Y-29205000D01*
X139165000Y-29495000D02*
X135305000Y-29495000D01*
X139165000Y-29495000D02*
X139165000Y-29895000D01*
X139165000Y-29895000D02*
X138045000Y-29895000D01*
X141835000Y-26665000D02*
X139165000Y-26665000D01*
X141835000Y-29205000D02*
X139165000Y-29205000D01*
X135305000Y-29495000D02*
G75*
G02*
X135305000Y-26375000I0J1560000D01*
G01*
%TO.C,C1*%
X28030000Y-36476000D02*
X35470000Y-36476000D01*
X28030000Y-39216000D02*
X28030000Y-36476000D01*
X35470000Y-36476000D02*
X35470000Y-39216000D01*
X35470000Y-39216000D02*
X28030000Y-39216000D01*
%TO.C,C10*%
X59266000Y-84328000D02*
G75*
G02*
X51026000Y-84328000I-4120000J0D01*
G01*
X51026000Y-84328000D02*
G75*
G02*
X59266000Y-84328000I4120000J0D01*
G01*
%TO.C,R9*%
X27710000Y-34417000D02*
X28480000Y-34417000D01*
X35790000Y-34417000D02*
X35020000Y-34417000D01*
X35020000Y-35787000D02*
X28480000Y-35787000D01*
X28480000Y-33047000D01*
X35020000Y-33047000D01*
X35020000Y-35787000D01*
%TO.C,R26*%
X141510000Y-63908000D02*
X148050000Y-63908000D01*
X141510000Y-64238000D02*
X141510000Y-63908000D01*
X141510000Y-66318000D02*
X141510000Y-66648000D01*
X141510000Y-66648000D02*
X148050000Y-66648000D01*
X148050000Y-63908000D02*
X148050000Y-64238000D01*
X148050000Y-66648000D02*
X148050000Y-66318000D01*
%TO.C,C4*%
X142290000Y-36730000D02*
X149730000Y-36730000D01*
X142290000Y-39470000D02*
X142290000Y-36730000D01*
X149730000Y-36730000D02*
X149730000Y-39470000D01*
X149730000Y-39470000D02*
X142290000Y-39470000D01*
%TO.C,C5*%
X144910000Y-77878000D02*
X152350000Y-77878000D01*
X144910000Y-80618000D02*
X144910000Y-77878000D01*
X152350000Y-77878000D02*
X152350000Y-80618000D01*
X152350000Y-80618000D02*
X144910000Y-80618000D01*
%TO.C,R10*%
X144050000Y-33301000D02*
X150590000Y-33301000D01*
X144050000Y-33631000D02*
X144050000Y-33301000D01*
X144050000Y-35711000D02*
X144050000Y-36041000D01*
X144050000Y-36041000D02*
X150590000Y-36041000D01*
X150590000Y-33301000D02*
X150590000Y-33631000D01*
X150590000Y-36041000D02*
X150590000Y-35711000D01*
%TO.C,Q8*%
X150390000Y-58729000D02*
X146790000Y-58729000D01*
X146265816Y-59456205D02*
G75*
G02*
X146790000Y-58729000I2324184J-1122795D01*
G01*
X148590000Y-63179000D02*
G75*
G02*
X146233600Y-61677807I0J2600000D01*
G01*
X150390000Y-58729000D02*
G75*
G02*
X150914184Y-59456205I-1800000J-1850000D01*
G01*
X150946400Y-61677807D02*
G75*
G02*
X148590000Y-63179000I-2356400J1098807D01*
G01*
%TO.C,R13*%
X141510000Y-48414000D02*
X148050000Y-48414000D01*
X141510000Y-48744000D02*
X141510000Y-48414000D01*
X141510000Y-50824000D02*
X141510000Y-51154000D01*
X141510000Y-51154000D02*
X148050000Y-51154000D01*
X148050000Y-48414000D02*
X148050000Y-48744000D01*
X148050000Y-51154000D02*
X148050000Y-50824000D01*
%TO.C,R8*%
X29750000Y-44985000D02*
X29750000Y-45315000D01*
X29750000Y-47725000D02*
X29750000Y-47395000D01*
X36290000Y-44985000D02*
X29750000Y-44985000D01*
X36290000Y-45315000D02*
X36290000Y-44985000D01*
X36290000Y-47395000D02*
X36290000Y-47725000D01*
X36290000Y-47725000D02*
X29750000Y-47725000D01*
%TO.C,Q1*%
X101270000Y-81810000D02*
X101270000Y-78210000D01*
X96820000Y-80010000D02*
G75*
G02*
X98321193Y-77653600I2600000J0D01*
G01*
X98321193Y-82366400D02*
G75*
G02*
X96820000Y-80010000I1098807J2356400D01*
G01*
X100542795Y-77685816D02*
G75*
G02*
X101270000Y-78210000I-1122795J-2324184D01*
G01*
X101270000Y-81810000D02*
G75*
G02*
X100542795Y-82334184I-1850000J1800000D01*
G01*
%TO.C,Q5*%
X150390000Y-43383000D02*
X146790000Y-43383000D01*
X146265816Y-44110205D02*
G75*
G02*
X146790000Y-43383000I2324184J-1122795D01*
G01*
X148590000Y-47833000D02*
G75*
G02*
X146233600Y-46331807I0J2600000D01*
G01*
X150390000Y-43383000D02*
G75*
G02*
X150914184Y-44110205I-1800000J-1850000D01*
G01*
X150946400Y-46331807D02*
G75*
G02*
X148590000Y-47833000I-2356400J1098807D01*
G01*
%TO.C,R24*%
X141510000Y-55272000D02*
X148050000Y-55272000D01*
X141510000Y-55602000D02*
X141510000Y-55272000D01*
X141510000Y-57682000D02*
X141510000Y-58012000D01*
X141510000Y-58012000D02*
X148050000Y-58012000D01*
X148050000Y-55272000D02*
X148050000Y-55602000D01*
X148050000Y-58012000D02*
X148050000Y-57682000D01*
%TO.C,R11*%
X141510000Y-40032000D02*
X148050000Y-40032000D01*
X141510000Y-40362000D02*
X141510000Y-40032000D01*
X141510000Y-42442000D02*
X141510000Y-42772000D01*
X141510000Y-42772000D02*
X148050000Y-42772000D01*
X148050000Y-40032000D02*
X148050000Y-40362000D01*
X148050000Y-42772000D02*
X148050000Y-42442000D01*
%TO.C,R7*%
X78740000Y-70890000D02*
X78740000Y-71660000D01*
X78740000Y-78970000D02*
X78740000Y-78200000D01*
X77370000Y-78200000D02*
X80110000Y-78200000D01*
X80110000Y-71660000D01*
X77370000Y-71660000D01*
X77370000Y-78200000D01*
%TD*%
M02*
