%TF.GenerationSoftware,KiCad,Pcbnew,9.0.6*%
%TF.CreationDate,2026-02-26T15:01:50-08:00*%
%TF.ProjectId,photogateBallDropKiCAD,70686f74-6f67-4617-9465-42616c6c4472,rev?*%
%TF.SameCoordinates,Original*%
%TF.FileFunction,Profile,NP*%
%FSLAX46Y46*%
G04 Gerber Fmt 4.6, Leading zero omitted, Abs format (unit mm)*
G04 Created by KiCad (PCBNEW 9.0.6) date 2026-02-26 15:01:50*
%MOMM*%
%LPD*%
G01*
G04 APERTURE LIST*
%TA.AperFunction,Profile*%
%ADD10C,0.050000*%
%TD*%
G04 APERTURE END LIST*
D10*
X115570000Y-93980000D02*
G75*
G02*
X114300000Y-92710000I0J1270000D01*
G01*
X113030000Y-83820000D02*
G75*
G02*
X114300000Y-85090000I0J-1270000D01*
G01*
X63500000Y-85090000D02*
G75*
G02*
X64770000Y-83820000I1270000J0D01*
G01*
X63500000Y-92710000D02*
G75*
G02*
X62230000Y-93980000I-1270000J0D01*
G01*
X40894000Y-92964000D02*
G75*
G02*
X41402000Y-92456000I508000J0D01*
G01*
X40894000Y-93980000D02*
X33020000Y-93980000D01*
X114300000Y-85090000D02*
X114300000Y-92710000D01*
X139700000Y-64770000D02*
G75*
G02*
X135890000Y-68580000I-3810000J0D01*
G01*
X152400000Y-86360000D02*
G75*
G02*
X144780000Y-93980000I-7620000J0D01*
G01*
X149860000Y-25400000D02*
X139700000Y-25400000D01*
X38100000Y-25400000D02*
X27940000Y-25400000D01*
X115570000Y-93980000D02*
X144780000Y-93980000D01*
X135890000Y-68580000D02*
X41910000Y-68580000D01*
X45466000Y-92964000D02*
X45466000Y-93980000D01*
X38100000Y-64770000D02*
X38100000Y-25400000D01*
X64770000Y-83820000D02*
X113030000Y-83820000D01*
X44958000Y-92456000D02*
G75*
G02*
X45466000Y-92964000I0J-508000D01*
G01*
X139700000Y-25400000D02*
X139700000Y-64770000D01*
X41402000Y-92456000D02*
X44958000Y-92456000D01*
X25400000Y-62230000D02*
X25400000Y-27940000D01*
X149860000Y-25400000D02*
G75*
G02*
X152400000Y-27940000I0J-2540000D01*
G01*
X40894000Y-93980000D02*
X40894000Y-92964000D01*
X152400000Y-86360000D02*
X152400000Y-27940000D01*
X45466000Y-93980000D02*
X62230000Y-93980000D01*
X25400000Y-27940000D02*
G75*
G02*
X27940000Y-25400000I2540000J0D01*
G01*
X41910000Y-68580000D02*
G75*
G02*
X38100000Y-64770000I0J3810000D01*
G01*
X33020000Y-93980000D02*
G75*
G02*
X25400000Y-86360000I0J7620000D01*
G01*
X25400000Y-86360000D02*
X25400000Y-62230000D01*
X63500000Y-92710000D02*
X63500000Y-85090000D01*
M02*
