%TF.GenerationSoftware,KiCad,Pcbnew,9.0.6*%
%TF.CreationDate,2026-02-26T15:01:53-08:00*%
%TF.ProjectId,photogateBallDropKiCAD,70686f74-6f67-4617-9465-42616c6c4472,rev?*%
%TF.SameCoordinates,Original*%
%TF.FileFunction,Drillmap*%
%TF.FilePolarity,Positive*%
%FSLAX45Y45*%
G04 Gerber Fmt 4.5, Leading zero omitted, Abs format (unit mm)*
G04 Created by KiCad (PCBNEW 9.0.6) date 2026-02-26 15:01:53*
%MOMM*%
%LPD*%
G01*
G04 APERTURE LIST*
%ADD10C,0.050000*%
%ADD11C,0.200000*%
%ADD12C,0.100000*%
%ADD13C,0.101600*%
G04 APERTURE END LIST*
D10*
X11557000Y-9398000D02*
G75*
G02*
X11430000Y-9271000I0J127000D01*
G01*
X11303000Y-8382000D02*
G75*
G02*
X11430000Y-8509000I0J-127000D01*
G01*
X6350000Y-8509000D02*
G75*
G02*
X6477000Y-8382000I127000J0D01*
G01*
X6350000Y-9271000D02*
G75*
G02*
X6223000Y-9398000I-127000J0D01*
G01*
X4089400Y-9296400D02*
G75*
G02*
X4140200Y-9245600I50800J0D01*
G01*
X4089400Y-9398000D02*
X3302000Y-9398000D01*
X11430000Y-8509000D02*
X11430000Y-9271000D01*
X13970000Y-6477000D02*
G75*
G02*
X13589000Y-6858000I-381000J0D01*
G01*
X15240000Y-8636000D02*
G75*
G02*
X14478000Y-9398000I-762000J0D01*
G01*
X14986000Y-2540000D02*
X13970000Y-2540000D01*
X3810000Y-2540000D02*
X2794000Y-2540000D01*
X11557000Y-9398000D02*
X14478000Y-9398000D01*
X13589000Y-6858000D02*
X4191000Y-6858000D01*
X4546600Y-9296400D02*
X4546600Y-9398000D01*
X3810000Y-6477000D02*
X3810000Y-2540000D01*
X6477000Y-8382000D02*
X11303000Y-8382000D01*
X4495800Y-9245600D02*
G75*
G02*
X4546600Y-9296400I0J-50800D01*
G01*
X13970000Y-2540000D02*
X13970000Y-6477000D01*
X4140200Y-9245600D02*
X4495800Y-9245600D01*
X2540000Y-6223000D02*
X2540000Y-2794000D01*
X14986000Y-2540000D02*
G75*
G02*
X15240000Y-2794000I0J-254000D01*
G01*
X4089400Y-9398000D02*
X4089400Y-9296400D01*
X15240000Y-8636000D02*
X15240000Y-2794000D01*
X4546600Y-9398000D02*
X6223000Y-9398000D01*
X2540000Y-2794000D02*
G75*
G02*
X2794000Y-2540000I254000J0D01*
G01*
X4191000Y-6858000D02*
G75*
G02*
X3810000Y-6477000I0J381000D01*
G01*
X3302000Y-9398000D02*
G75*
G02*
X2540000Y-8636000I0J762000D01*
G01*
X2540000Y-8636000D02*
X2540000Y-6223000D01*
X6350000Y-9271000D02*
X6350000Y-8509000D01*
D11*
D12*
X2626360Y-3401060D02*
X2707640Y-3482340D01*
X2707640Y-3401060D02*
X2626360Y-3482340D01*
X2626360Y-4224460D02*
X2707640Y-4305740D01*
X2707640Y-4224460D02*
X2626360Y-4305740D01*
X2626360Y-5052060D02*
X2707640Y-5133340D01*
X2707640Y-5052060D02*
X2626360Y-5133340D01*
X2880360Y-4224460D02*
X2961640Y-4305740D01*
X2961640Y-4224460D02*
X2880360Y-4305740D01*
X2880360Y-4594860D02*
X2961640Y-4676140D01*
X2961640Y-4594860D02*
X2880360Y-4676140D01*
X2880360Y-5052060D02*
X2961640Y-5133340D01*
X2961640Y-5052060D02*
X2880360Y-5133340D01*
X2880360Y-5433060D02*
X2961640Y-5514340D01*
X2961640Y-5433060D02*
X2880360Y-5514340D01*
X2884360Y-3743960D02*
X2965640Y-3825240D01*
X2965640Y-3743960D02*
X2884360Y-3825240D01*
X3134360Y-4224460D02*
X3215640Y-4305740D01*
X3215640Y-4224460D02*
X3134360Y-4305740D01*
X3134360Y-5052060D02*
X3215640Y-5133340D01*
X3215640Y-5052060D02*
X3134360Y-5133340D01*
X3384360Y-3743960D02*
X3465640Y-3825240D01*
X3465640Y-3743960D02*
X3384360Y-3825240D01*
X3447860Y-2626860D02*
X3529140Y-2708140D01*
X3529140Y-2626860D02*
X3447860Y-2708140D01*
X3447860Y-2880860D02*
X3529140Y-2962140D01*
X3529140Y-2880860D02*
X3447860Y-2962140D01*
X3642360Y-3401060D02*
X3723640Y-3482340D01*
X3723640Y-3401060D02*
X3642360Y-3482340D01*
X3642360Y-4594860D02*
X3723640Y-4676140D01*
X3723640Y-4594860D02*
X3642360Y-4676140D01*
X3642360Y-5433060D02*
X3723640Y-5514340D01*
X3723640Y-5433060D02*
X3642360Y-5514340D01*
X3777360Y-8400160D02*
X3858640Y-8481440D01*
X3858640Y-8400160D02*
X3777360Y-8481440D01*
X3777360Y-8410320D02*
X3777360Y-8471280D01*
X3858640Y-8471280D02*
G75*
G02*
X3777360Y-8471280I-40640J0D01*
G01*
X3858640Y-8471280D02*
X3858640Y-8410320D01*
X3858640Y-8410320D02*
G75*
G03*
X3777360Y-8410320I-40640J0D01*
G01*
X4226560Y-6944360D02*
X4307840Y-7025640D01*
X4307840Y-6944360D02*
X4226560Y-7025640D01*
X4226560Y-7960360D02*
X4307840Y-8041640D01*
X4307840Y-7960360D02*
X4226560Y-8041640D01*
X4277360Y-8900160D02*
X4358640Y-8981440D01*
X4358640Y-8900160D02*
X4277360Y-8981440D01*
X4287520Y-8981440D02*
X4348480Y-8981440D01*
X4348480Y-8900160D02*
G75*
G02*
X4348480Y-8981440I0J-40640D01*
G01*
X4348480Y-8900160D02*
X4287520Y-8900160D01*
X4287520Y-8900160D02*
G75*
G03*
X4287520Y-8981440I0J-40640D01*
G01*
X4777360Y-8400160D02*
X4858640Y-8481440D01*
X4858640Y-8400160D02*
X4777360Y-8481440D01*
X4858640Y-8471280D02*
X4858640Y-8410320D01*
X4777360Y-8410320D02*
G75*
G02*
X4858640Y-8410320I40640J0D01*
G01*
X4777360Y-8410320D02*
X4777360Y-8471280D01*
X4777360Y-8471280D02*
G75*
G03*
X4858640Y-8471280I40640J0D01*
G01*
X5043360Y-7147560D02*
X5124640Y-7228840D01*
X5124640Y-7147560D02*
X5043360Y-7228840D01*
X5064760Y-7655560D02*
X5146040Y-7736840D01*
X5146040Y-7655560D02*
X5064760Y-7736840D01*
X5271960Y-8976360D02*
X5353240Y-9057640D01*
X5353240Y-8976360D02*
X5271960Y-9057640D01*
X5298960Y-8392160D02*
X5380240Y-8473440D01*
X5380240Y-8392160D02*
X5298960Y-8473440D01*
X5496560Y-7655560D02*
X5577840Y-7736840D01*
X5577840Y-7655560D02*
X5496560Y-7736840D01*
X5543360Y-7147560D02*
X5624640Y-7228840D01*
X5624640Y-7147560D02*
X5543360Y-7228840D01*
X5648960Y-8392160D02*
X5730240Y-8473440D01*
X5730240Y-8392160D02*
X5648960Y-8473440D01*
X5750560Y-7655560D02*
X5831840Y-7736840D01*
X5831840Y-7655560D02*
X5750560Y-7736840D01*
X5771960Y-8976360D02*
X5853240Y-9057640D01*
X5853240Y-8976360D02*
X5771960Y-9057640D01*
X7833360Y-6944360D02*
X7914640Y-7025640D01*
X7914640Y-6944360D02*
X7833360Y-7025640D01*
X7833360Y-7960360D02*
X7914640Y-8041640D01*
X7914640Y-7960360D02*
X7833360Y-8041640D01*
X9890760Y-7401560D02*
X9972040Y-7482840D01*
X9972040Y-7401560D02*
X9890760Y-7482840D01*
X9901360Y-7706360D02*
X9982640Y-7787640D01*
X9982640Y-7706360D02*
X9901360Y-7787640D01*
X9901360Y-7960360D02*
X9982640Y-8041640D01*
X9982640Y-7960360D02*
X9901360Y-8041640D01*
X9901360Y-8214360D02*
X9982640Y-8295640D01*
X9982640Y-8214360D02*
X9901360Y-8295640D01*
X10220960Y-7731760D02*
X10302240Y-7813040D01*
X10302240Y-7731760D02*
X10220960Y-7813040D01*
X10652760Y-7401560D02*
X10734040Y-7482840D01*
X10734040Y-7401560D02*
X10652760Y-7482840D01*
X10982960Y-7731760D02*
X11064240Y-7813040D01*
X11064240Y-7731760D02*
X10982960Y-7813040D01*
X11262360Y-7452360D02*
X11343640Y-7533640D01*
X11343640Y-7452360D02*
X11262360Y-7533640D01*
X11262360Y-8214360D02*
X11343640Y-8295640D01*
X11343640Y-8214360D02*
X11262360Y-8295640D01*
X11973560Y-6944360D02*
X12054840Y-7025640D01*
X12054840Y-6944360D02*
X11973560Y-7025640D01*
X11973560Y-7960360D02*
X12054840Y-8041640D01*
X12054840Y-7960360D02*
X11973560Y-8041640D01*
X11973560Y-8214360D02*
X12054840Y-8295640D01*
X12054840Y-8214360D02*
X11973560Y-8295640D01*
X11973560Y-8976360D02*
X12054840Y-9057640D01*
X12054840Y-8976360D02*
X11973560Y-9057640D01*
X12405360Y-7604760D02*
X12486640Y-7686040D01*
X12486640Y-7604760D02*
X12405360Y-7686040D01*
X12405360Y-8366760D02*
X12486640Y-8448040D01*
X12486640Y-8366760D02*
X12405360Y-8448040D01*
X12659360Y-7604760D02*
X12740640Y-7686040D01*
X12740640Y-7604760D02*
X12659360Y-7686040D01*
X12659360Y-8366760D02*
X12740640Y-8448040D01*
X12740640Y-8366760D02*
X12659360Y-8448040D01*
X12659360Y-8700960D02*
X12740640Y-8782240D01*
X12740640Y-8700960D02*
X12659360Y-8782240D01*
X12659360Y-9200960D02*
X12740640Y-9282240D01*
X12740640Y-9200960D02*
X12659360Y-9282240D01*
X12663360Y-7147560D02*
X12744640Y-7228840D01*
X12744640Y-7147560D02*
X12663360Y-7228840D01*
X12913360Y-7604760D02*
X12994640Y-7686040D01*
X12994640Y-7604760D02*
X12913360Y-7686040D01*
X12913360Y-8366760D02*
X12994640Y-8448040D01*
X12994640Y-8366760D02*
X12913360Y-8448040D01*
X12964160Y-8874760D02*
X13045440Y-8956040D01*
X13045440Y-8874760D02*
X12964160Y-8956040D01*
X13163360Y-7147560D02*
X13244640Y-7228840D01*
X13244640Y-7147560D02*
X13163360Y-7228840D01*
X13167360Y-7604760D02*
X13248640Y-7686040D01*
X13248640Y-7604760D02*
X13167360Y-7686040D01*
X13167360Y-8366760D02*
X13248640Y-8448040D01*
X13248640Y-8366760D02*
X13167360Y-8448040D01*
X13497560Y-7604760D02*
X13578840Y-7686040D01*
X13578840Y-7604760D02*
X13497560Y-7686040D01*
X13497560Y-8366760D02*
X13578840Y-8448040D01*
X13578840Y-8366760D02*
X13497560Y-8448040D01*
X13726160Y-8874760D02*
X13807440Y-8956040D01*
X13807440Y-8874760D02*
X13726160Y-8956040D01*
X13827760Y-6842760D02*
X13909040Y-6924040D01*
X13909040Y-6842760D02*
X13827760Y-6924040D01*
X13827760Y-7604760D02*
X13909040Y-7686040D01*
X13909040Y-7604760D02*
X13827760Y-7686040D01*
X14056360Y-4099560D02*
X14137640Y-4180840D01*
X14137640Y-4099560D02*
X14056360Y-4180840D01*
X14056360Y-4937760D02*
X14137640Y-5019040D01*
X14137640Y-4937760D02*
X14056360Y-5019040D01*
X14056360Y-5623560D02*
X14137640Y-5704840D01*
X14137640Y-5623560D02*
X14056360Y-5704840D01*
X14056360Y-6487160D02*
X14137640Y-6568440D01*
X14137640Y-6487160D02*
X14056360Y-6568440D01*
X14107160Y-7020560D02*
X14188440Y-7101840D01*
X14188440Y-7020560D02*
X14107160Y-7101840D01*
X14310360Y-3426460D02*
X14391640Y-3507740D01*
X14391640Y-3426460D02*
X14310360Y-3507740D01*
X14310360Y-3769360D02*
X14391640Y-3850640D01*
X14391640Y-3769360D02*
X14310360Y-3850640D01*
X14310360Y-7553960D02*
X14391640Y-7635240D01*
X14391640Y-7553960D02*
X14310360Y-7635240D01*
X14310360Y-8188960D02*
X14391640Y-8270240D01*
X14391640Y-8188960D02*
X14310360Y-8270240D01*
X14318360Y-5280660D02*
X14399640Y-5361940D01*
X14399640Y-5280660D02*
X14318360Y-5361940D01*
X14564360Y-4482660D02*
X14645640Y-4563940D01*
X14645640Y-4482660D02*
X14564360Y-4563940D01*
X14564360Y-6017260D02*
X14645640Y-6098540D01*
X14645640Y-6017260D02*
X14564360Y-6098540D01*
X14572360Y-7884160D02*
X14653640Y-7965440D01*
X14653640Y-7884160D02*
X14572360Y-7965440D01*
X14810360Y-3769360D02*
X14891640Y-3850640D01*
X14891640Y-3769360D02*
X14810360Y-3850640D01*
X14818360Y-4099560D02*
X14899640Y-4180840D01*
X14899640Y-4099560D02*
X14818360Y-4180840D01*
X14818360Y-4482660D02*
X14899640Y-4563940D01*
X14899640Y-4482660D02*
X14818360Y-4563940D01*
X14818360Y-4937760D02*
X14899640Y-5019040D01*
X14899640Y-4937760D02*
X14818360Y-5019040D01*
X14818360Y-5280660D02*
X14899640Y-5361940D01*
X14899640Y-5280660D02*
X14818360Y-5361940D01*
X14818360Y-5623560D02*
X14899640Y-5704840D01*
X14899640Y-5623560D02*
X14818360Y-5704840D01*
X14818360Y-6017260D02*
X14899640Y-6098540D01*
X14899640Y-6017260D02*
X14818360Y-6098540D01*
X14818360Y-6487160D02*
X14899640Y-6568440D01*
X14899640Y-6487160D02*
X14818360Y-6568440D01*
X14869160Y-7020560D02*
X14950440Y-7101840D01*
X14950440Y-7020560D02*
X14869160Y-7101840D01*
X15072360Y-3426460D02*
X15153640Y-3507740D01*
X15153640Y-3426460D02*
X15072360Y-3507740D01*
X15072360Y-4482660D02*
X15153640Y-4563940D01*
X15153640Y-4482660D02*
X15072360Y-4563940D01*
X15072360Y-6017260D02*
X15153640Y-6098540D01*
X15153640Y-6017260D02*
X15072360Y-6098540D01*
X15072360Y-7553960D02*
X15153640Y-7635240D01*
X15153640Y-7553960D02*
X15072360Y-7635240D01*
X15072360Y-7884160D02*
X15153640Y-7965440D01*
X15153640Y-7884160D02*
X15072360Y-7965440D01*
X15072360Y-8188960D02*
X15153640Y-8270240D01*
X15153640Y-8188960D02*
X15072360Y-8270240D01*
X14339760Y-2666500D02*
G75*
G02*
X14243240Y-2666500I-48260J0D01*
G01*
X14243240Y-2666500D02*
G75*
G02*
X14339760Y-2666500I48260J0D01*
G01*
X14339760Y-2920500D02*
G75*
G02*
X14243240Y-2920500I-48260J0D01*
G01*
X14243240Y-2920500D02*
G75*
G02*
X14339760Y-2920500I48260J0D01*
G01*
D13*
X8763500Y-7569200D02*
X8763500Y-7670800D01*
X8712700Y-7620000D02*
X8814300Y-7620000D01*
X9017500Y-7569200D02*
X9017500Y-7670800D01*
X8966700Y-7620000D02*
X9068300Y-7620000D01*
D11*
X2798277Y-9711984D02*
X2798277Y-9511984D01*
X2798277Y-9511984D02*
X2845896Y-9511984D01*
X2845896Y-9511984D02*
X2874467Y-9521508D01*
X2874467Y-9521508D02*
X2893515Y-9540555D01*
X2893515Y-9540555D02*
X2903039Y-9559603D01*
X2903039Y-9559603D02*
X2912562Y-9597698D01*
X2912562Y-9597698D02*
X2912562Y-9626270D01*
X2912562Y-9626270D02*
X2903039Y-9664365D01*
X2903039Y-9664365D02*
X2893515Y-9683412D01*
X2893515Y-9683412D02*
X2874467Y-9702460D01*
X2874467Y-9702460D02*
X2845896Y-9711984D01*
X2845896Y-9711984D02*
X2798277Y-9711984D01*
X2998277Y-9711984D02*
X2998277Y-9578650D01*
X2998277Y-9616746D02*
X3007801Y-9597698D01*
X3007801Y-9597698D02*
X3017324Y-9588174D01*
X3017324Y-9588174D02*
X3036372Y-9578650D01*
X3036372Y-9578650D02*
X3055420Y-9578650D01*
X3122086Y-9711984D02*
X3122086Y-9578650D01*
X3122086Y-9511984D02*
X3112562Y-9521508D01*
X3112562Y-9521508D02*
X3122086Y-9531031D01*
X3122086Y-9531031D02*
X3131610Y-9521508D01*
X3131610Y-9521508D02*
X3122086Y-9511984D01*
X3122086Y-9511984D02*
X3122086Y-9531031D01*
X3245896Y-9711984D02*
X3226848Y-9702460D01*
X3226848Y-9702460D02*
X3217324Y-9683412D01*
X3217324Y-9683412D02*
X3217324Y-9511984D01*
X3350658Y-9711984D02*
X3331610Y-9702460D01*
X3331610Y-9702460D02*
X3322086Y-9683412D01*
X3322086Y-9683412D02*
X3322086Y-9511984D01*
X3579229Y-9711984D02*
X3579229Y-9511984D01*
X3579229Y-9511984D02*
X3645896Y-9654841D01*
X3645896Y-9654841D02*
X3712562Y-9511984D01*
X3712562Y-9511984D02*
X3712562Y-9711984D01*
X3893515Y-9711984D02*
X3893515Y-9607222D01*
X3893515Y-9607222D02*
X3883991Y-9588174D01*
X3883991Y-9588174D02*
X3864943Y-9578650D01*
X3864943Y-9578650D02*
X3826848Y-9578650D01*
X3826848Y-9578650D02*
X3807801Y-9588174D01*
X3893515Y-9702460D02*
X3874467Y-9711984D01*
X3874467Y-9711984D02*
X3826848Y-9711984D01*
X3826848Y-9711984D02*
X3807801Y-9702460D01*
X3807801Y-9702460D02*
X3798277Y-9683412D01*
X3798277Y-9683412D02*
X3798277Y-9664365D01*
X3798277Y-9664365D02*
X3807801Y-9645317D01*
X3807801Y-9645317D02*
X3826848Y-9635793D01*
X3826848Y-9635793D02*
X3874467Y-9635793D01*
X3874467Y-9635793D02*
X3893515Y-9626270D01*
X3988753Y-9578650D02*
X3988753Y-9778650D01*
X3988753Y-9588174D02*
X4007801Y-9578650D01*
X4007801Y-9578650D02*
X4045896Y-9578650D01*
X4045896Y-9578650D02*
X4064943Y-9588174D01*
X4064943Y-9588174D02*
X4074467Y-9597698D01*
X4074467Y-9597698D02*
X4083991Y-9616746D01*
X4083991Y-9616746D02*
X4083991Y-9673889D01*
X4083991Y-9673889D02*
X4074467Y-9692936D01*
X4074467Y-9692936D02*
X4064943Y-9702460D01*
X4064943Y-9702460D02*
X4045896Y-9711984D01*
X4045896Y-9711984D02*
X4007801Y-9711984D01*
X4007801Y-9711984D02*
X3988753Y-9702460D01*
X4169705Y-9692936D02*
X4179229Y-9702460D01*
X4179229Y-9702460D02*
X4169705Y-9711984D01*
X4169705Y-9711984D02*
X4160182Y-9702460D01*
X4160182Y-9702460D02*
X4169705Y-9692936D01*
X4169705Y-9692936D02*
X4169705Y-9711984D01*
X4169705Y-9588174D02*
X4179229Y-9597698D01*
X4179229Y-9597698D02*
X4169705Y-9607222D01*
X4169705Y-9607222D02*
X4160182Y-9597698D01*
X4160182Y-9597698D02*
X4169705Y-9588174D01*
X4169705Y-9588174D02*
X4169705Y-9607222D01*
D12*
X2456220Y-9999860D02*
X2537500Y-10081140D01*
X2537500Y-9999860D02*
X2456220Y-10081140D01*
D11*
X2836372Y-9931984D02*
X2855420Y-9931984D01*
X2855420Y-9931984D02*
X2874467Y-9941508D01*
X2874467Y-9941508D02*
X2883991Y-9951031D01*
X2883991Y-9951031D02*
X2893515Y-9970079D01*
X2893515Y-9970079D02*
X2903039Y-10008174D01*
X2903039Y-10008174D02*
X2903039Y-10055793D01*
X2903039Y-10055793D02*
X2893515Y-10093889D01*
X2893515Y-10093889D02*
X2883991Y-10112936D01*
X2883991Y-10112936D02*
X2874467Y-10122460D01*
X2874467Y-10122460D02*
X2855420Y-10131984D01*
X2855420Y-10131984D02*
X2836372Y-10131984D01*
X2836372Y-10131984D02*
X2817324Y-10122460D01*
X2817324Y-10122460D02*
X2807801Y-10112936D01*
X2807801Y-10112936D02*
X2798277Y-10093889D01*
X2798277Y-10093889D02*
X2788753Y-10055793D01*
X2788753Y-10055793D02*
X2788753Y-10008174D01*
X2788753Y-10008174D02*
X2798277Y-9970079D01*
X2798277Y-9970079D02*
X2807801Y-9951031D01*
X2807801Y-9951031D02*
X2817324Y-9941508D01*
X2817324Y-9941508D02*
X2836372Y-9931984D01*
X2988753Y-10112936D02*
X2998277Y-10122460D01*
X2998277Y-10122460D02*
X2988753Y-10131984D01*
X2988753Y-10131984D02*
X2979229Y-10122460D01*
X2979229Y-10122460D02*
X2988753Y-10112936D01*
X2988753Y-10112936D02*
X2988753Y-10131984D01*
X3112562Y-10017698D02*
X3093515Y-10008174D01*
X3093515Y-10008174D02*
X3083991Y-9998650D01*
X3083991Y-9998650D02*
X3074467Y-9979603D01*
X3074467Y-9979603D02*
X3074467Y-9970079D01*
X3074467Y-9970079D02*
X3083991Y-9951031D01*
X3083991Y-9951031D02*
X3093515Y-9941508D01*
X3093515Y-9941508D02*
X3112562Y-9931984D01*
X3112562Y-9931984D02*
X3150658Y-9931984D01*
X3150658Y-9931984D02*
X3169705Y-9941508D01*
X3169705Y-9941508D02*
X3179229Y-9951031D01*
X3179229Y-9951031D02*
X3188753Y-9970079D01*
X3188753Y-9970079D02*
X3188753Y-9979603D01*
X3188753Y-9979603D02*
X3179229Y-9998650D01*
X3179229Y-9998650D02*
X3169705Y-10008174D01*
X3169705Y-10008174D02*
X3150658Y-10017698D01*
X3150658Y-10017698D02*
X3112562Y-10017698D01*
X3112562Y-10017698D02*
X3093515Y-10027222D01*
X3093515Y-10027222D02*
X3083991Y-10036746D01*
X3083991Y-10036746D02*
X3074467Y-10055793D01*
X3074467Y-10055793D02*
X3074467Y-10093889D01*
X3074467Y-10093889D02*
X3083991Y-10112936D01*
X3083991Y-10112936D02*
X3093515Y-10122460D01*
X3093515Y-10122460D02*
X3112562Y-10131984D01*
X3112562Y-10131984D02*
X3150658Y-10131984D01*
X3150658Y-10131984D02*
X3169705Y-10122460D01*
X3169705Y-10122460D02*
X3179229Y-10112936D01*
X3179229Y-10112936D02*
X3188753Y-10093889D01*
X3188753Y-10093889D02*
X3188753Y-10055793D01*
X3188753Y-10055793D02*
X3179229Y-10036746D01*
X3179229Y-10036746D02*
X3169705Y-10027222D01*
X3169705Y-10027222D02*
X3150658Y-10017698D01*
X3379229Y-10131984D02*
X3264943Y-10131984D01*
X3322086Y-10131984D02*
X3322086Y-9931984D01*
X3322086Y-9931984D02*
X3303039Y-9960555D01*
X3303039Y-9960555D02*
X3283991Y-9979603D01*
X3283991Y-9979603D02*
X3264943Y-9989127D01*
X3445896Y-9931984D02*
X3569705Y-9931984D01*
X3569705Y-9931984D02*
X3503039Y-10008174D01*
X3503039Y-10008174D02*
X3531610Y-10008174D01*
X3531610Y-10008174D02*
X3550658Y-10017698D01*
X3550658Y-10017698D02*
X3560182Y-10027222D01*
X3560182Y-10027222D02*
X3569705Y-10046270D01*
X3569705Y-10046270D02*
X3569705Y-10093889D01*
X3569705Y-10093889D02*
X3560182Y-10112936D01*
X3560182Y-10112936D02*
X3550658Y-10122460D01*
X3550658Y-10122460D02*
X3531610Y-10131984D01*
X3531610Y-10131984D02*
X3474467Y-10131984D01*
X3474467Y-10131984D02*
X3455420Y-10122460D01*
X3455420Y-10122460D02*
X3445896Y-10112936D01*
X3655420Y-10131984D02*
X3655420Y-9998650D01*
X3655420Y-10017698D02*
X3664943Y-10008174D01*
X3664943Y-10008174D02*
X3683991Y-9998650D01*
X3683991Y-9998650D02*
X3712563Y-9998650D01*
X3712563Y-9998650D02*
X3731610Y-10008174D01*
X3731610Y-10008174D02*
X3741134Y-10027222D01*
X3741134Y-10027222D02*
X3741134Y-10131984D01*
X3741134Y-10027222D02*
X3750658Y-10008174D01*
X3750658Y-10008174D02*
X3769705Y-9998650D01*
X3769705Y-9998650D02*
X3798277Y-9998650D01*
X3798277Y-9998650D02*
X3817324Y-10008174D01*
X3817324Y-10008174D02*
X3826848Y-10027222D01*
X3826848Y-10027222D02*
X3826848Y-10131984D01*
X3922086Y-10131984D02*
X3922086Y-9998650D01*
X3922086Y-10017698D02*
X3931610Y-10008174D01*
X3931610Y-10008174D02*
X3950658Y-9998650D01*
X3950658Y-9998650D02*
X3979229Y-9998650D01*
X3979229Y-9998650D02*
X3998277Y-10008174D01*
X3998277Y-10008174D02*
X4007801Y-10027222D01*
X4007801Y-10027222D02*
X4007801Y-10131984D01*
X4007801Y-10027222D02*
X4017324Y-10008174D01*
X4017324Y-10008174D02*
X4036372Y-9998650D01*
X4036372Y-9998650D02*
X4064943Y-9998650D01*
X4064943Y-9998650D02*
X4083991Y-10008174D01*
X4083991Y-10008174D02*
X4093515Y-10027222D01*
X4093515Y-10027222D02*
X4093515Y-10131984D01*
X4483991Y-9922460D02*
X4312563Y-10179603D01*
X4741134Y-9931984D02*
X4760182Y-9931984D01*
X4760182Y-9931984D02*
X4779229Y-9941508D01*
X4779229Y-9941508D02*
X4788753Y-9951031D01*
X4788753Y-9951031D02*
X4798277Y-9970079D01*
X4798277Y-9970079D02*
X4807801Y-10008174D01*
X4807801Y-10008174D02*
X4807801Y-10055793D01*
X4807801Y-10055793D02*
X4798277Y-10093889D01*
X4798277Y-10093889D02*
X4788753Y-10112936D01*
X4788753Y-10112936D02*
X4779229Y-10122460D01*
X4779229Y-10122460D02*
X4760182Y-10131984D01*
X4760182Y-10131984D02*
X4741134Y-10131984D01*
X4741134Y-10131984D02*
X4722087Y-10122460D01*
X4722087Y-10122460D02*
X4712563Y-10112936D01*
X4712563Y-10112936D02*
X4703039Y-10093889D01*
X4703039Y-10093889D02*
X4693515Y-10055793D01*
X4693515Y-10055793D02*
X4693515Y-10008174D01*
X4693515Y-10008174D02*
X4703039Y-9970079D01*
X4703039Y-9970079D02*
X4712563Y-9951031D01*
X4712563Y-9951031D02*
X4722087Y-9941508D01*
X4722087Y-9941508D02*
X4741134Y-9931984D01*
X4893515Y-10112936D02*
X4903039Y-10122460D01*
X4903039Y-10122460D02*
X4893515Y-10131984D01*
X4893515Y-10131984D02*
X4883991Y-10122460D01*
X4883991Y-10122460D02*
X4893515Y-10112936D01*
X4893515Y-10112936D02*
X4893515Y-10131984D01*
X5026848Y-9931984D02*
X5045896Y-9931984D01*
X5045896Y-9931984D02*
X5064944Y-9941508D01*
X5064944Y-9941508D02*
X5074468Y-9951031D01*
X5074468Y-9951031D02*
X5083991Y-9970079D01*
X5083991Y-9970079D02*
X5093515Y-10008174D01*
X5093515Y-10008174D02*
X5093515Y-10055793D01*
X5093515Y-10055793D02*
X5083991Y-10093889D01*
X5083991Y-10093889D02*
X5074468Y-10112936D01*
X5074468Y-10112936D02*
X5064944Y-10122460D01*
X5064944Y-10122460D02*
X5045896Y-10131984D01*
X5045896Y-10131984D02*
X5026848Y-10131984D01*
X5026848Y-10131984D02*
X5007801Y-10122460D01*
X5007801Y-10122460D02*
X4998277Y-10112936D01*
X4998277Y-10112936D02*
X4988753Y-10093889D01*
X4988753Y-10093889D02*
X4979229Y-10055793D01*
X4979229Y-10055793D02*
X4979229Y-10008174D01*
X4979229Y-10008174D02*
X4988753Y-9970079D01*
X4988753Y-9970079D02*
X4998277Y-9951031D01*
X4998277Y-9951031D02*
X5007801Y-9941508D01*
X5007801Y-9941508D02*
X5026848Y-9931984D01*
X5160182Y-9931984D02*
X5283991Y-9931984D01*
X5283991Y-9931984D02*
X5217325Y-10008174D01*
X5217325Y-10008174D02*
X5245896Y-10008174D01*
X5245896Y-10008174D02*
X5264944Y-10017698D01*
X5264944Y-10017698D02*
X5274468Y-10027222D01*
X5274468Y-10027222D02*
X5283991Y-10046270D01*
X5283991Y-10046270D02*
X5283991Y-10093889D01*
X5283991Y-10093889D02*
X5274468Y-10112936D01*
X5274468Y-10112936D02*
X5264944Y-10122460D01*
X5264944Y-10122460D02*
X5245896Y-10131984D01*
X5245896Y-10131984D02*
X5188753Y-10131984D01*
X5188753Y-10131984D02*
X5169706Y-10122460D01*
X5169706Y-10122460D02*
X5160182Y-10112936D01*
X5360182Y-9951031D02*
X5369706Y-9941508D01*
X5369706Y-9941508D02*
X5388753Y-9931984D01*
X5388753Y-9931984D02*
X5436372Y-9931984D01*
X5436372Y-9931984D02*
X5455420Y-9941508D01*
X5455420Y-9941508D02*
X5464944Y-9951031D01*
X5464944Y-9951031D02*
X5474468Y-9970079D01*
X5474468Y-9970079D02*
X5474468Y-9989127D01*
X5474468Y-9989127D02*
X5464944Y-10017698D01*
X5464944Y-10017698D02*
X5350658Y-10131984D01*
X5350658Y-10131984D02*
X5474468Y-10131984D01*
X5598277Y-9931984D02*
X5617325Y-9931984D01*
X5617325Y-9931984D02*
X5636372Y-9941508D01*
X5636372Y-9941508D02*
X5645896Y-9951031D01*
X5645896Y-9951031D02*
X5655420Y-9970079D01*
X5655420Y-9970079D02*
X5664944Y-10008174D01*
X5664944Y-10008174D02*
X5664944Y-10055793D01*
X5664944Y-10055793D02*
X5655420Y-10093889D01*
X5655420Y-10093889D02*
X5645896Y-10112936D01*
X5645896Y-10112936D02*
X5636372Y-10122460D01*
X5636372Y-10122460D02*
X5617325Y-10131984D01*
X5617325Y-10131984D02*
X5598277Y-10131984D01*
X5598277Y-10131984D02*
X5579229Y-10122460D01*
X5579229Y-10122460D02*
X5569706Y-10112936D01*
X5569706Y-10112936D02*
X5560182Y-10093889D01*
X5560182Y-10093889D02*
X5550658Y-10055793D01*
X5550658Y-10055793D02*
X5550658Y-10008174D01*
X5550658Y-10008174D02*
X5560182Y-9970079D01*
X5560182Y-9970079D02*
X5569706Y-9951031D01*
X5569706Y-9951031D02*
X5579229Y-9941508D01*
X5579229Y-9941508D02*
X5598277Y-9931984D01*
X5741134Y-9931984D02*
X5741134Y-9970079D01*
X5817325Y-9931984D02*
X5817325Y-9970079D01*
X6112563Y-10208174D02*
X6103039Y-10198650D01*
X6103039Y-10198650D02*
X6083991Y-10170079D01*
X6083991Y-10170079D02*
X6074468Y-10151031D01*
X6074468Y-10151031D02*
X6064944Y-10122460D01*
X6064944Y-10122460D02*
X6055420Y-10074841D01*
X6055420Y-10074841D02*
X6055420Y-10036746D01*
X6055420Y-10036746D02*
X6064944Y-9989127D01*
X6064944Y-9989127D02*
X6074468Y-9960555D01*
X6074468Y-9960555D02*
X6083991Y-9941508D01*
X6083991Y-9941508D02*
X6103039Y-9912936D01*
X6103039Y-9912936D02*
X6112563Y-9903412D01*
X6217325Y-10017698D02*
X6198277Y-10008174D01*
X6198277Y-10008174D02*
X6188753Y-9998650D01*
X6188753Y-9998650D02*
X6179229Y-9979603D01*
X6179229Y-9979603D02*
X6179229Y-9970079D01*
X6179229Y-9970079D02*
X6188753Y-9951031D01*
X6188753Y-9951031D02*
X6198277Y-9941508D01*
X6198277Y-9941508D02*
X6217325Y-9931984D01*
X6217325Y-9931984D02*
X6255420Y-9931984D01*
X6255420Y-9931984D02*
X6274468Y-9941508D01*
X6274468Y-9941508D02*
X6283991Y-9951031D01*
X6283991Y-9951031D02*
X6293515Y-9970079D01*
X6293515Y-9970079D02*
X6293515Y-9979603D01*
X6293515Y-9979603D02*
X6283991Y-9998650D01*
X6283991Y-9998650D02*
X6274468Y-10008174D01*
X6274468Y-10008174D02*
X6255420Y-10017698D01*
X6255420Y-10017698D02*
X6217325Y-10017698D01*
X6217325Y-10017698D02*
X6198277Y-10027222D01*
X6198277Y-10027222D02*
X6188753Y-10036746D01*
X6188753Y-10036746D02*
X6179229Y-10055793D01*
X6179229Y-10055793D02*
X6179229Y-10093889D01*
X6179229Y-10093889D02*
X6188753Y-10112936D01*
X6188753Y-10112936D02*
X6198277Y-10122460D01*
X6198277Y-10122460D02*
X6217325Y-10131984D01*
X6217325Y-10131984D02*
X6255420Y-10131984D01*
X6255420Y-10131984D02*
X6274468Y-10122460D01*
X6274468Y-10122460D02*
X6283991Y-10112936D01*
X6283991Y-10112936D02*
X6293515Y-10093889D01*
X6293515Y-10093889D02*
X6293515Y-10055793D01*
X6293515Y-10055793D02*
X6283991Y-10036746D01*
X6283991Y-10036746D02*
X6274468Y-10027222D01*
X6274468Y-10027222D02*
X6255420Y-10017698D01*
X6407801Y-10017698D02*
X6388753Y-10008174D01*
X6388753Y-10008174D02*
X6379229Y-9998650D01*
X6379229Y-9998650D02*
X6369706Y-9979603D01*
X6369706Y-9979603D02*
X6369706Y-9970079D01*
X6369706Y-9970079D02*
X6379229Y-9951031D01*
X6379229Y-9951031D02*
X6388753Y-9941508D01*
X6388753Y-9941508D02*
X6407801Y-9931984D01*
X6407801Y-9931984D02*
X6445896Y-9931984D01*
X6445896Y-9931984D02*
X6464944Y-9941508D01*
X6464944Y-9941508D02*
X6474468Y-9951031D01*
X6474468Y-9951031D02*
X6483991Y-9970079D01*
X6483991Y-9970079D02*
X6483991Y-9979603D01*
X6483991Y-9979603D02*
X6474468Y-9998650D01*
X6474468Y-9998650D02*
X6464944Y-10008174D01*
X6464944Y-10008174D02*
X6445896Y-10017698D01*
X6445896Y-10017698D02*
X6407801Y-10017698D01*
X6407801Y-10017698D02*
X6388753Y-10027222D01*
X6388753Y-10027222D02*
X6379229Y-10036746D01*
X6379229Y-10036746D02*
X6369706Y-10055793D01*
X6369706Y-10055793D02*
X6369706Y-10093889D01*
X6369706Y-10093889D02*
X6379229Y-10112936D01*
X6379229Y-10112936D02*
X6388753Y-10122460D01*
X6388753Y-10122460D02*
X6407801Y-10131984D01*
X6407801Y-10131984D02*
X6445896Y-10131984D01*
X6445896Y-10131984D02*
X6464944Y-10122460D01*
X6464944Y-10122460D02*
X6474468Y-10112936D01*
X6474468Y-10112936D02*
X6483991Y-10093889D01*
X6483991Y-10093889D02*
X6483991Y-10055793D01*
X6483991Y-10055793D02*
X6474468Y-10036746D01*
X6474468Y-10036746D02*
X6464944Y-10027222D01*
X6464944Y-10027222D02*
X6445896Y-10017698D01*
X6722087Y-10131984D02*
X6722087Y-9931984D01*
X6807801Y-10131984D02*
X6807801Y-10027222D01*
X6807801Y-10027222D02*
X6798277Y-10008174D01*
X6798277Y-10008174D02*
X6779230Y-9998650D01*
X6779230Y-9998650D02*
X6750658Y-9998650D01*
X6750658Y-9998650D02*
X6731610Y-10008174D01*
X6731610Y-10008174D02*
X6722087Y-10017698D01*
X6931610Y-10131984D02*
X6912563Y-10122460D01*
X6912563Y-10122460D02*
X6903039Y-10112936D01*
X6903039Y-10112936D02*
X6893515Y-10093889D01*
X6893515Y-10093889D02*
X6893515Y-10036746D01*
X6893515Y-10036746D02*
X6903039Y-10017698D01*
X6903039Y-10017698D02*
X6912563Y-10008174D01*
X6912563Y-10008174D02*
X6931610Y-9998650D01*
X6931610Y-9998650D02*
X6960182Y-9998650D01*
X6960182Y-9998650D02*
X6979230Y-10008174D01*
X6979230Y-10008174D02*
X6988753Y-10017698D01*
X6988753Y-10017698D02*
X6998277Y-10036746D01*
X6998277Y-10036746D02*
X6998277Y-10093889D01*
X6998277Y-10093889D02*
X6988753Y-10112936D01*
X6988753Y-10112936D02*
X6979230Y-10122460D01*
X6979230Y-10122460D02*
X6960182Y-10131984D01*
X6960182Y-10131984D02*
X6931610Y-10131984D01*
X7112563Y-10131984D02*
X7093515Y-10122460D01*
X7093515Y-10122460D02*
X7083991Y-10103412D01*
X7083991Y-10103412D02*
X7083991Y-9931984D01*
X7264944Y-10122460D02*
X7245896Y-10131984D01*
X7245896Y-10131984D02*
X7207801Y-10131984D01*
X7207801Y-10131984D02*
X7188753Y-10122460D01*
X7188753Y-10122460D02*
X7179230Y-10103412D01*
X7179230Y-10103412D02*
X7179230Y-10027222D01*
X7179230Y-10027222D02*
X7188753Y-10008174D01*
X7188753Y-10008174D02*
X7207801Y-9998650D01*
X7207801Y-9998650D02*
X7245896Y-9998650D01*
X7245896Y-9998650D02*
X7264944Y-10008174D01*
X7264944Y-10008174D02*
X7274468Y-10027222D01*
X7274468Y-10027222D02*
X7274468Y-10046270D01*
X7274468Y-10046270D02*
X7179230Y-10065317D01*
X7350658Y-10122460D02*
X7369706Y-10131984D01*
X7369706Y-10131984D02*
X7407801Y-10131984D01*
X7407801Y-10131984D02*
X7426849Y-10122460D01*
X7426849Y-10122460D02*
X7436372Y-10103412D01*
X7436372Y-10103412D02*
X7436372Y-10093889D01*
X7436372Y-10093889D02*
X7426849Y-10074841D01*
X7426849Y-10074841D02*
X7407801Y-10065317D01*
X7407801Y-10065317D02*
X7379230Y-10065317D01*
X7379230Y-10065317D02*
X7360182Y-10055793D01*
X7360182Y-10055793D02*
X7350658Y-10036746D01*
X7350658Y-10036746D02*
X7350658Y-10027222D01*
X7350658Y-10027222D02*
X7360182Y-10008174D01*
X7360182Y-10008174D02*
X7379230Y-9998650D01*
X7379230Y-9998650D02*
X7407801Y-9998650D01*
X7407801Y-9998650D02*
X7426849Y-10008174D01*
X7674468Y-10055793D02*
X7826849Y-10055793D01*
X7750658Y-10131984D02*
X7750658Y-9979603D01*
X8055420Y-9931984D02*
X8179230Y-9931984D01*
X8179230Y-9931984D02*
X8112563Y-10008174D01*
X8112563Y-10008174D02*
X8141134Y-10008174D01*
X8141134Y-10008174D02*
X8160182Y-10017698D01*
X8160182Y-10017698D02*
X8169706Y-10027222D01*
X8169706Y-10027222D02*
X8179230Y-10046270D01*
X8179230Y-10046270D02*
X8179230Y-10093889D01*
X8179230Y-10093889D02*
X8169706Y-10112936D01*
X8169706Y-10112936D02*
X8160182Y-10122460D01*
X8160182Y-10122460D02*
X8141134Y-10131984D01*
X8141134Y-10131984D02*
X8083992Y-10131984D01*
X8083992Y-10131984D02*
X8064944Y-10122460D01*
X8064944Y-10122460D02*
X8055420Y-10112936D01*
X8407801Y-10122460D02*
X8426849Y-10131984D01*
X8426849Y-10131984D02*
X8464944Y-10131984D01*
X8464944Y-10131984D02*
X8483992Y-10122460D01*
X8483992Y-10122460D02*
X8493516Y-10103412D01*
X8493516Y-10103412D02*
X8493516Y-10093889D01*
X8493516Y-10093889D02*
X8483992Y-10074841D01*
X8483992Y-10074841D02*
X8464944Y-10065317D01*
X8464944Y-10065317D02*
X8436373Y-10065317D01*
X8436373Y-10065317D02*
X8417325Y-10055793D01*
X8417325Y-10055793D02*
X8407801Y-10036746D01*
X8407801Y-10036746D02*
X8407801Y-10027222D01*
X8407801Y-10027222D02*
X8417325Y-10008174D01*
X8417325Y-10008174D02*
X8436373Y-9998650D01*
X8436373Y-9998650D02*
X8464944Y-9998650D01*
X8464944Y-9998650D02*
X8483992Y-10008174D01*
X8607801Y-10131984D02*
X8588754Y-10122460D01*
X8588754Y-10122460D02*
X8579230Y-10103412D01*
X8579230Y-10103412D02*
X8579230Y-9931984D01*
X8712563Y-10131984D02*
X8693516Y-10122460D01*
X8693516Y-10122460D02*
X8683992Y-10112936D01*
X8683992Y-10112936D02*
X8674468Y-10093889D01*
X8674468Y-10093889D02*
X8674468Y-10036746D01*
X8674468Y-10036746D02*
X8683992Y-10017698D01*
X8683992Y-10017698D02*
X8693516Y-10008174D01*
X8693516Y-10008174D02*
X8712563Y-9998650D01*
X8712563Y-9998650D02*
X8741135Y-9998650D01*
X8741135Y-9998650D02*
X8760182Y-10008174D01*
X8760182Y-10008174D02*
X8769706Y-10017698D01*
X8769706Y-10017698D02*
X8779230Y-10036746D01*
X8779230Y-10036746D02*
X8779230Y-10093889D01*
X8779230Y-10093889D02*
X8769706Y-10112936D01*
X8769706Y-10112936D02*
X8760182Y-10122460D01*
X8760182Y-10122460D02*
X8741135Y-10131984D01*
X8741135Y-10131984D02*
X8712563Y-10131984D01*
X8836373Y-9998650D02*
X8912563Y-9998650D01*
X8864944Y-9931984D02*
X8864944Y-10103412D01*
X8864944Y-10103412D02*
X8874468Y-10122460D01*
X8874468Y-10122460D02*
X8893516Y-10131984D01*
X8893516Y-10131984D02*
X8912563Y-10131984D01*
X8969706Y-10122460D02*
X8988754Y-10131984D01*
X8988754Y-10131984D02*
X9026849Y-10131984D01*
X9026849Y-10131984D02*
X9045897Y-10122460D01*
X9045897Y-10122460D02*
X9055420Y-10103412D01*
X9055420Y-10103412D02*
X9055420Y-10093889D01*
X9055420Y-10093889D02*
X9045897Y-10074841D01*
X9045897Y-10074841D02*
X9026849Y-10065317D01*
X9026849Y-10065317D02*
X8998277Y-10065317D01*
X8998277Y-10065317D02*
X8979230Y-10055793D01*
X8979230Y-10055793D02*
X8969706Y-10036746D01*
X8969706Y-10036746D02*
X8969706Y-10027222D01*
X8969706Y-10027222D02*
X8979230Y-10008174D01*
X8979230Y-10008174D02*
X8998277Y-9998650D01*
X8998277Y-9998650D02*
X9026849Y-9998650D01*
X9026849Y-9998650D02*
X9045897Y-10008174D01*
X9122087Y-10208174D02*
X9131611Y-10198650D01*
X9131611Y-10198650D02*
X9150658Y-10170079D01*
X9150658Y-10170079D02*
X9160182Y-10151031D01*
X9160182Y-10151031D02*
X9169706Y-10122460D01*
X9169706Y-10122460D02*
X9179230Y-10074841D01*
X9179230Y-10074841D02*
X9179230Y-10036746D01*
X9179230Y-10036746D02*
X9169706Y-9989127D01*
X9169706Y-9989127D02*
X9160182Y-9960555D01*
X9160182Y-9960555D02*
X9150658Y-9941508D01*
X9150658Y-9941508D02*
X9131611Y-9912936D01*
X9131611Y-9912936D02*
X9122087Y-9903412D01*
D12*
X2537500Y-10304500D02*
G75*
G02*
X2440980Y-10304500I-48260J0D01*
G01*
X2440980Y-10304500D02*
G75*
G02*
X2537500Y-10304500I48260J0D01*
G01*
D11*
X2836372Y-10195984D02*
X2855420Y-10195984D01*
X2855420Y-10195984D02*
X2874467Y-10205508D01*
X2874467Y-10205508D02*
X2883991Y-10215031D01*
X2883991Y-10215031D02*
X2893515Y-10234079D01*
X2893515Y-10234079D02*
X2903039Y-10272174D01*
X2903039Y-10272174D02*
X2903039Y-10319793D01*
X2903039Y-10319793D02*
X2893515Y-10357889D01*
X2893515Y-10357889D02*
X2883991Y-10376936D01*
X2883991Y-10376936D02*
X2874467Y-10386460D01*
X2874467Y-10386460D02*
X2855420Y-10395984D01*
X2855420Y-10395984D02*
X2836372Y-10395984D01*
X2836372Y-10395984D02*
X2817324Y-10386460D01*
X2817324Y-10386460D02*
X2807801Y-10376936D01*
X2807801Y-10376936D02*
X2798277Y-10357889D01*
X2798277Y-10357889D02*
X2788753Y-10319793D01*
X2788753Y-10319793D02*
X2788753Y-10272174D01*
X2788753Y-10272174D02*
X2798277Y-10234079D01*
X2798277Y-10234079D02*
X2807801Y-10215031D01*
X2807801Y-10215031D02*
X2817324Y-10205508D01*
X2817324Y-10205508D02*
X2836372Y-10195984D01*
X2988753Y-10376936D02*
X2998277Y-10386460D01*
X2998277Y-10386460D02*
X2988753Y-10395984D01*
X2988753Y-10395984D02*
X2979229Y-10386460D01*
X2979229Y-10386460D02*
X2988753Y-10376936D01*
X2988753Y-10376936D02*
X2988753Y-10395984D01*
X3093515Y-10395984D02*
X3131610Y-10395984D01*
X3131610Y-10395984D02*
X3150658Y-10386460D01*
X3150658Y-10386460D02*
X3160182Y-10376936D01*
X3160182Y-10376936D02*
X3179229Y-10348365D01*
X3179229Y-10348365D02*
X3188753Y-10310270D01*
X3188753Y-10310270D02*
X3188753Y-10234079D01*
X3188753Y-10234079D02*
X3179229Y-10215031D01*
X3179229Y-10215031D02*
X3169705Y-10205508D01*
X3169705Y-10205508D02*
X3150658Y-10195984D01*
X3150658Y-10195984D02*
X3112562Y-10195984D01*
X3112562Y-10195984D02*
X3093515Y-10205508D01*
X3093515Y-10205508D02*
X3083991Y-10215031D01*
X3083991Y-10215031D02*
X3074467Y-10234079D01*
X3074467Y-10234079D02*
X3074467Y-10281698D01*
X3074467Y-10281698D02*
X3083991Y-10300746D01*
X3083991Y-10300746D02*
X3093515Y-10310270D01*
X3093515Y-10310270D02*
X3112562Y-10319793D01*
X3112562Y-10319793D02*
X3150658Y-10319793D01*
X3150658Y-10319793D02*
X3169705Y-10310270D01*
X3169705Y-10310270D02*
X3179229Y-10300746D01*
X3179229Y-10300746D02*
X3188753Y-10281698D01*
X3360182Y-10195984D02*
X3322086Y-10195984D01*
X3322086Y-10195984D02*
X3303039Y-10205508D01*
X3303039Y-10205508D02*
X3293515Y-10215031D01*
X3293515Y-10215031D02*
X3274467Y-10243603D01*
X3274467Y-10243603D02*
X3264943Y-10281698D01*
X3264943Y-10281698D02*
X3264943Y-10357889D01*
X3264943Y-10357889D02*
X3274467Y-10376936D01*
X3274467Y-10376936D02*
X3283991Y-10386460D01*
X3283991Y-10386460D02*
X3303039Y-10395984D01*
X3303039Y-10395984D02*
X3341134Y-10395984D01*
X3341134Y-10395984D02*
X3360182Y-10386460D01*
X3360182Y-10386460D02*
X3369705Y-10376936D01*
X3369705Y-10376936D02*
X3379229Y-10357889D01*
X3379229Y-10357889D02*
X3379229Y-10310270D01*
X3379229Y-10310270D02*
X3369705Y-10291222D01*
X3369705Y-10291222D02*
X3360182Y-10281698D01*
X3360182Y-10281698D02*
X3341134Y-10272174D01*
X3341134Y-10272174D02*
X3303039Y-10272174D01*
X3303039Y-10272174D02*
X3283991Y-10281698D01*
X3283991Y-10281698D02*
X3274467Y-10291222D01*
X3274467Y-10291222D02*
X3264943Y-10310270D01*
X3560182Y-10195984D02*
X3464943Y-10195984D01*
X3464943Y-10195984D02*
X3455420Y-10291222D01*
X3455420Y-10291222D02*
X3464943Y-10281698D01*
X3464943Y-10281698D02*
X3483991Y-10272174D01*
X3483991Y-10272174D02*
X3531610Y-10272174D01*
X3531610Y-10272174D02*
X3550658Y-10281698D01*
X3550658Y-10281698D02*
X3560182Y-10291222D01*
X3560182Y-10291222D02*
X3569705Y-10310270D01*
X3569705Y-10310270D02*
X3569705Y-10357889D01*
X3569705Y-10357889D02*
X3560182Y-10376936D01*
X3560182Y-10376936D02*
X3550658Y-10386460D01*
X3550658Y-10386460D02*
X3531610Y-10395984D01*
X3531610Y-10395984D02*
X3483991Y-10395984D01*
X3483991Y-10395984D02*
X3464943Y-10386460D01*
X3464943Y-10386460D02*
X3455420Y-10376936D01*
X3655420Y-10395984D02*
X3655420Y-10262650D01*
X3655420Y-10281698D02*
X3664943Y-10272174D01*
X3664943Y-10272174D02*
X3683991Y-10262650D01*
X3683991Y-10262650D02*
X3712563Y-10262650D01*
X3712563Y-10262650D02*
X3731610Y-10272174D01*
X3731610Y-10272174D02*
X3741134Y-10291222D01*
X3741134Y-10291222D02*
X3741134Y-10395984D01*
X3741134Y-10291222D02*
X3750658Y-10272174D01*
X3750658Y-10272174D02*
X3769705Y-10262650D01*
X3769705Y-10262650D02*
X3798277Y-10262650D01*
X3798277Y-10262650D02*
X3817324Y-10272174D01*
X3817324Y-10272174D02*
X3826848Y-10291222D01*
X3826848Y-10291222D02*
X3826848Y-10395984D01*
X3922086Y-10395984D02*
X3922086Y-10262650D01*
X3922086Y-10281698D02*
X3931610Y-10272174D01*
X3931610Y-10272174D02*
X3950658Y-10262650D01*
X3950658Y-10262650D02*
X3979229Y-10262650D01*
X3979229Y-10262650D02*
X3998277Y-10272174D01*
X3998277Y-10272174D02*
X4007801Y-10291222D01*
X4007801Y-10291222D02*
X4007801Y-10395984D01*
X4007801Y-10291222D02*
X4017324Y-10272174D01*
X4017324Y-10272174D02*
X4036372Y-10262650D01*
X4036372Y-10262650D02*
X4064943Y-10262650D01*
X4064943Y-10262650D02*
X4083991Y-10272174D01*
X4083991Y-10272174D02*
X4093515Y-10291222D01*
X4093515Y-10291222D02*
X4093515Y-10395984D01*
X4483991Y-10186460D02*
X4312563Y-10443603D01*
X4741134Y-10195984D02*
X4760182Y-10195984D01*
X4760182Y-10195984D02*
X4779229Y-10205508D01*
X4779229Y-10205508D02*
X4788753Y-10215031D01*
X4788753Y-10215031D02*
X4798277Y-10234079D01*
X4798277Y-10234079D02*
X4807801Y-10272174D01*
X4807801Y-10272174D02*
X4807801Y-10319793D01*
X4807801Y-10319793D02*
X4798277Y-10357889D01*
X4798277Y-10357889D02*
X4788753Y-10376936D01*
X4788753Y-10376936D02*
X4779229Y-10386460D01*
X4779229Y-10386460D02*
X4760182Y-10395984D01*
X4760182Y-10395984D02*
X4741134Y-10395984D01*
X4741134Y-10395984D02*
X4722087Y-10386460D01*
X4722087Y-10386460D02*
X4712563Y-10376936D01*
X4712563Y-10376936D02*
X4703039Y-10357889D01*
X4703039Y-10357889D02*
X4693515Y-10319793D01*
X4693515Y-10319793D02*
X4693515Y-10272174D01*
X4693515Y-10272174D02*
X4703039Y-10234079D01*
X4703039Y-10234079D02*
X4712563Y-10215031D01*
X4712563Y-10215031D02*
X4722087Y-10205508D01*
X4722087Y-10205508D02*
X4741134Y-10195984D01*
X4893515Y-10376936D02*
X4903039Y-10386460D01*
X4903039Y-10386460D02*
X4893515Y-10395984D01*
X4893515Y-10395984D02*
X4883991Y-10386460D01*
X4883991Y-10386460D02*
X4893515Y-10376936D01*
X4893515Y-10376936D02*
X4893515Y-10395984D01*
X5026848Y-10195984D02*
X5045896Y-10195984D01*
X5045896Y-10195984D02*
X5064944Y-10205508D01*
X5064944Y-10205508D02*
X5074468Y-10215031D01*
X5074468Y-10215031D02*
X5083991Y-10234079D01*
X5083991Y-10234079D02*
X5093515Y-10272174D01*
X5093515Y-10272174D02*
X5093515Y-10319793D01*
X5093515Y-10319793D02*
X5083991Y-10357889D01*
X5083991Y-10357889D02*
X5074468Y-10376936D01*
X5074468Y-10376936D02*
X5064944Y-10386460D01*
X5064944Y-10386460D02*
X5045896Y-10395984D01*
X5045896Y-10395984D02*
X5026848Y-10395984D01*
X5026848Y-10395984D02*
X5007801Y-10386460D01*
X5007801Y-10386460D02*
X4998277Y-10376936D01*
X4998277Y-10376936D02*
X4988753Y-10357889D01*
X4988753Y-10357889D02*
X4979229Y-10319793D01*
X4979229Y-10319793D02*
X4979229Y-10272174D01*
X4979229Y-10272174D02*
X4988753Y-10234079D01*
X4988753Y-10234079D02*
X4998277Y-10215031D01*
X4998277Y-10215031D02*
X5007801Y-10205508D01*
X5007801Y-10205508D02*
X5026848Y-10195984D01*
X5160182Y-10195984D02*
X5283991Y-10195984D01*
X5283991Y-10195984D02*
X5217325Y-10272174D01*
X5217325Y-10272174D02*
X5245896Y-10272174D01*
X5245896Y-10272174D02*
X5264944Y-10281698D01*
X5264944Y-10281698D02*
X5274468Y-10291222D01*
X5274468Y-10291222D02*
X5283991Y-10310270D01*
X5283991Y-10310270D02*
X5283991Y-10357889D01*
X5283991Y-10357889D02*
X5274468Y-10376936D01*
X5274468Y-10376936D02*
X5264944Y-10386460D01*
X5264944Y-10386460D02*
X5245896Y-10395984D01*
X5245896Y-10395984D02*
X5188753Y-10395984D01*
X5188753Y-10395984D02*
X5169706Y-10386460D01*
X5169706Y-10386460D02*
X5160182Y-10376936D01*
X5398277Y-10281698D02*
X5379229Y-10272174D01*
X5379229Y-10272174D02*
X5369706Y-10262650D01*
X5369706Y-10262650D02*
X5360182Y-10243603D01*
X5360182Y-10243603D02*
X5360182Y-10234079D01*
X5360182Y-10234079D02*
X5369706Y-10215031D01*
X5369706Y-10215031D02*
X5379229Y-10205508D01*
X5379229Y-10205508D02*
X5398277Y-10195984D01*
X5398277Y-10195984D02*
X5436372Y-10195984D01*
X5436372Y-10195984D02*
X5455420Y-10205508D01*
X5455420Y-10205508D02*
X5464944Y-10215031D01*
X5464944Y-10215031D02*
X5474468Y-10234079D01*
X5474468Y-10234079D02*
X5474468Y-10243603D01*
X5474468Y-10243603D02*
X5464944Y-10262650D01*
X5464944Y-10262650D02*
X5455420Y-10272174D01*
X5455420Y-10272174D02*
X5436372Y-10281698D01*
X5436372Y-10281698D02*
X5398277Y-10281698D01*
X5398277Y-10281698D02*
X5379229Y-10291222D01*
X5379229Y-10291222D02*
X5369706Y-10300746D01*
X5369706Y-10300746D02*
X5360182Y-10319793D01*
X5360182Y-10319793D02*
X5360182Y-10357889D01*
X5360182Y-10357889D02*
X5369706Y-10376936D01*
X5369706Y-10376936D02*
X5379229Y-10386460D01*
X5379229Y-10386460D02*
X5398277Y-10395984D01*
X5398277Y-10395984D02*
X5436372Y-10395984D01*
X5436372Y-10395984D02*
X5455420Y-10386460D01*
X5455420Y-10386460D02*
X5464944Y-10376936D01*
X5464944Y-10376936D02*
X5474468Y-10357889D01*
X5474468Y-10357889D02*
X5474468Y-10319793D01*
X5474468Y-10319793D02*
X5464944Y-10300746D01*
X5464944Y-10300746D02*
X5455420Y-10291222D01*
X5455420Y-10291222D02*
X5436372Y-10281698D01*
X5598277Y-10195984D02*
X5617325Y-10195984D01*
X5617325Y-10195984D02*
X5636372Y-10205508D01*
X5636372Y-10205508D02*
X5645896Y-10215031D01*
X5645896Y-10215031D02*
X5655420Y-10234079D01*
X5655420Y-10234079D02*
X5664944Y-10272174D01*
X5664944Y-10272174D02*
X5664944Y-10319793D01*
X5664944Y-10319793D02*
X5655420Y-10357889D01*
X5655420Y-10357889D02*
X5645896Y-10376936D01*
X5645896Y-10376936D02*
X5636372Y-10386460D01*
X5636372Y-10386460D02*
X5617325Y-10395984D01*
X5617325Y-10395984D02*
X5598277Y-10395984D01*
X5598277Y-10395984D02*
X5579229Y-10386460D01*
X5579229Y-10386460D02*
X5569706Y-10376936D01*
X5569706Y-10376936D02*
X5560182Y-10357889D01*
X5560182Y-10357889D02*
X5550658Y-10319793D01*
X5550658Y-10319793D02*
X5550658Y-10272174D01*
X5550658Y-10272174D02*
X5560182Y-10234079D01*
X5560182Y-10234079D02*
X5569706Y-10215031D01*
X5569706Y-10215031D02*
X5579229Y-10205508D01*
X5579229Y-10205508D02*
X5598277Y-10195984D01*
X5741134Y-10195984D02*
X5741134Y-10234079D01*
X5817325Y-10195984D02*
X5817325Y-10234079D01*
X6112563Y-10472174D02*
X6103039Y-10462650D01*
X6103039Y-10462650D02*
X6083991Y-10434079D01*
X6083991Y-10434079D02*
X6074468Y-10415031D01*
X6074468Y-10415031D02*
X6064944Y-10386460D01*
X6064944Y-10386460D02*
X6055420Y-10338841D01*
X6055420Y-10338841D02*
X6055420Y-10300746D01*
X6055420Y-10300746D02*
X6064944Y-10253127D01*
X6064944Y-10253127D02*
X6074468Y-10224555D01*
X6074468Y-10224555D02*
X6083991Y-10205508D01*
X6083991Y-10205508D02*
X6103039Y-10176936D01*
X6103039Y-10176936D02*
X6112563Y-10167412D01*
X6179229Y-10215031D02*
X6188753Y-10205508D01*
X6188753Y-10205508D02*
X6207801Y-10195984D01*
X6207801Y-10195984D02*
X6255420Y-10195984D01*
X6255420Y-10195984D02*
X6274468Y-10205508D01*
X6274468Y-10205508D02*
X6283991Y-10215031D01*
X6283991Y-10215031D02*
X6293515Y-10234079D01*
X6293515Y-10234079D02*
X6293515Y-10253127D01*
X6293515Y-10253127D02*
X6283991Y-10281698D01*
X6283991Y-10281698D02*
X6169706Y-10395984D01*
X6169706Y-10395984D02*
X6293515Y-10395984D01*
X6531610Y-10395984D02*
X6531610Y-10195984D01*
X6617325Y-10395984D02*
X6617325Y-10291222D01*
X6617325Y-10291222D02*
X6607801Y-10272174D01*
X6607801Y-10272174D02*
X6588753Y-10262650D01*
X6588753Y-10262650D02*
X6560182Y-10262650D01*
X6560182Y-10262650D02*
X6541134Y-10272174D01*
X6541134Y-10272174D02*
X6531610Y-10281698D01*
X6741134Y-10395984D02*
X6722087Y-10386460D01*
X6722087Y-10386460D02*
X6712563Y-10376936D01*
X6712563Y-10376936D02*
X6703039Y-10357889D01*
X6703039Y-10357889D02*
X6703039Y-10300746D01*
X6703039Y-10300746D02*
X6712563Y-10281698D01*
X6712563Y-10281698D02*
X6722087Y-10272174D01*
X6722087Y-10272174D02*
X6741134Y-10262650D01*
X6741134Y-10262650D02*
X6769706Y-10262650D01*
X6769706Y-10262650D02*
X6788753Y-10272174D01*
X6788753Y-10272174D02*
X6798277Y-10281698D01*
X6798277Y-10281698D02*
X6807801Y-10300746D01*
X6807801Y-10300746D02*
X6807801Y-10357889D01*
X6807801Y-10357889D02*
X6798277Y-10376936D01*
X6798277Y-10376936D02*
X6788753Y-10386460D01*
X6788753Y-10386460D02*
X6769706Y-10395984D01*
X6769706Y-10395984D02*
X6741134Y-10395984D01*
X6922087Y-10395984D02*
X6903039Y-10386460D01*
X6903039Y-10386460D02*
X6893515Y-10367412D01*
X6893515Y-10367412D02*
X6893515Y-10195984D01*
X7074468Y-10386460D02*
X7055420Y-10395984D01*
X7055420Y-10395984D02*
X7017325Y-10395984D01*
X7017325Y-10395984D02*
X6998277Y-10386460D01*
X6998277Y-10386460D02*
X6988753Y-10367412D01*
X6988753Y-10367412D02*
X6988753Y-10291222D01*
X6988753Y-10291222D02*
X6998277Y-10272174D01*
X6998277Y-10272174D02*
X7017325Y-10262650D01*
X7017325Y-10262650D02*
X7055420Y-10262650D01*
X7055420Y-10262650D02*
X7074468Y-10272174D01*
X7074468Y-10272174D02*
X7083991Y-10291222D01*
X7083991Y-10291222D02*
X7083991Y-10310270D01*
X7083991Y-10310270D02*
X6988753Y-10329317D01*
X7160182Y-10386460D02*
X7179230Y-10395984D01*
X7179230Y-10395984D02*
X7217325Y-10395984D01*
X7217325Y-10395984D02*
X7236372Y-10386460D01*
X7236372Y-10386460D02*
X7245896Y-10367412D01*
X7245896Y-10367412D02*
X7245896Y-10357889D01*
X7245896Y-10357889D02*
X7236372Y-10338841D01*
X7236372Y-10338841D02*
X7217325Y-10329317D01*
X7217325Y-10329317D02*
X7188753Y-10329317D01*
X7188753Y-10329317D02*
X7169706Y-10319793D01*
X7169706Y-10319793D02*
X7160182Y-10300746D01*
X7160182Y-10300746D02*
X7160182Y-10291222D01*
X7160182Y-10291222D02*
X7169706Y-10272174D01*
X7169706Y-10272174D02*
X7188753Y-10262650D01*
X7188753Y-10262650D02*
X7217325Y-10262650D01*
X7217325Y-10262650D02*
X7236372Y-10272174D01*
X7312563Y-10472174D02*
X7322087Y-10462650D01*
X7322087Y-10462650D02*
X7341134Y-10434079D01*
X7341134Y-10434079D02*
X7350658Y-10415031D01*
X7350658Y-10415031D02*
X7360182Y-10386460D01*
X7360182Y-10386460D02*
X7369706Y-10338841D01*
X7369706Y-10338841D02*
X7369706Y-10300746D01*
X7369706Y-10300746D02*
X7360182Y-10253127D01*
X7360182Y-10253127D02*
X7350658Y-10224555D01*
X7350658Y-10224555D02*
X7341134Y-10205508D01*
X7341134Y-10205508D02*
X7322087Y-10176936D01*
X7322087Y-10176936D02*
X7312563Y-10167412D01*
D13*
X2486700Y-10517700D02*
X2486700Y-10619300D01*
X2435900Y-10568500D02*
X2537500Y-10568500D01*
D11*
X2903039Y-10659984D02*
X2788753Y-10659984D01*
X2845896Y-10659984D02*
X2845896Y-10459984D01*
X2845896Y-10459984D02*
X2826848Y-10488555D01*
X2826848Y-10488555D02*
X2807801Y-10507603D01*
X2807801Y-10507603D02*
X2788753Y-10517127D01*
X2988753Y-10640936D02*
X2998277Y-10650460D01*
X2998277Y-10650460D02*
X2988753Y-10659984D01*
X2988753Y-10659984D02*
X2979229Y-10650460D01*
X2979229Y-10650460D02*
X2988753Y-10640936D01*
X2988753Y-10640936D02*
X2988753Y-10659984D01*
X3122086Y-10459984D02*
X3141134Y-10459984D01*
X3141134Y-10459984D02*
X3160182Y-10469508D01*
X3160182Y-10469508D02*
X3169705Y-10479031D01*
X3169705Y-10479031D02*
X3179229Y-10498079D01*
X3179229Y-10498079D02*
X3188753Y-10536174D01*
X3188753Y-10536174D02*
X3188753Y-10583793D01*
X3188753Y-10583793D02*
X3179229Y-10621889D01*
X3179229Y-10621889D02*
X3169705Y-10640936D01*
X3169705Y-10640936D02*
X3160182Y-10650460D01*
X3160182Y-10650460D02*
X3141134Y-10659984D01*
X3141134Y-10659984D02*
X3122086Y-10659984D01*
X3122086Y-10659984D02*
X3103039Y-10650460D01*
X3103039Y-10650460D02*
X3093515Y-10640936D01*
X3093515Y-10640936D02*
X3083991Y-10621889D01*
X3083991Y-10621889D02*
X3074467Y-10583793D01*
X3074467Y-10583793D02*
X3074467Y-10536174D01*
X3074467Y-10536174D02*
X3083991Y-10498079D01*
X3083991Y-10498079D02*
X3093515Y-10479031D01*
X3093515Y-10479031D02*
X3103039Y-10469508D01*
X3103039Y-10469508D02*
X3122086Y-10459984D01*
X3379229Y-10659984D02*
X3264943Y-10659984D01*
X3322086Y-10659984D02*
X3322086Y-10459984D01*
X3322086Y-10459984D02*
X3303039Y-10488555D01*
X3303039Y-10488555D02*
X3283991Y-10507603D01*
X3283991Y-10507603D02*
X3264943Y-10517127D01*
X3550658Y-10459984D02*
X3512562Y-10459984D01*
X3512562Y-10459984D02*
X3493515Y-10469508D01*
X3493515Y-10469508D02*
X3483991Y-10479031D01*
X3483991Y-10479031D02*
X3464943Y-10507603D01*
X3464943Y-10507603D02*
X3455420Y-10545698D01*
X3455420Y-10545698D02*
X3455420Y-10621889D01*
X3455420Y-10621889D02*
X3464943Y-10640936D01*
X3464943Y-10640936D02*
X3474467Y-10650460D01*
X3474467Y-10650460D02*
X3493515Y-10659984D01*
X3493515Y-10659984D02*
X3531610Y-10659984D01*
X3531610Y-10659984D02*
X3550658Y-10650460D01*
X3550658Y-10650460D02*
X3560182Y-10640936D01*
X3560182Y-10640936D02*
X3569705Y-10621889D01*
X3569705Y-10621889D02*
X3569705Y-10574270D01*
X3569705Y-10574270D02*
X3560182Y-10555222D01*
X3560182Y-10555222D02*
X3550658Y-10545698D01*
X3550658Y-10545698D02*
X3531610Y-10536174D01*
X3531610Y-10536174D02*
X3493515Y-10536174D01*
X3493515Y-10536174D02*
X3474467Y-10545698D01*
X3474467Y-10545698D02*
X3464943Y-10555222D01*
X3464943Y-10555222D02*
X3455420Y-10574270D01*
X3655420Y-10659984D02*
X3655420Y-10526650D01*
X3655420Y-10545698D02*
X3664943Y-10536174D01*
X3664943Y-10536174D02*
X3683991Y-10526650D01*
X3683991Y-10526650D02*
X3712563Y-10526650D01*
X3712563Y-10526650D02*
X3731610Y-10536174D01*
X3731610Y-10536174D02*
X3741134Y-10555222D01*
X3741134Y-10555222D02*
X3741134Y-10659984D01*
X3741134Y-10555222D02*
X3750658Y-10536174D01*
X3750658Y-10536174D02*
X3769705Y-10526650D01*
X3769705Y-10526650D02*
X3798277Y-10526650D01*
X3798277Y-10526650D02*
X3817324Y-10536174D01*
X3817324Y-10536174D02*
X3826848Y-10555222D01*
X3826848Y-10555222D02*
X3826848Y-10659984D01*
X3922086Y-10659984D02*
X3922086Y-10526650D01*
X3922086Y-10545698D02*
X3931610Y-10536174D01*
X3931610Y-10536174D02*
X3950658Y-10526650D01*
X3950658Y-10526650D02*
X3979229Y-10526650D01*
X3979229Y-10526650D02*
X3998277Y-10536174D01*
X3998277Y-10536174D02*
X4007801Y-10555222D01*
X4007801Y-10555222D02*
X4007801Y-10659984D01*
X4007801Y-10555222D02*
X4017324Y-10536174D01*
X4017324Y-10536174D02*
X4036372Y-10526650D01*
X4036372Y-10526650D02*
X4064943Y-10526650D01*
X4064943Y-10526650D02*
X4083991Y-10536174D01*
X4083991Y-10536174D02*
X4093515Y-10555222D01*
X4093515Y-10555222D02*
X4093515Y-10659984D01*
X4483991Y-10450460D02*
X4312563Y-10707603D01*
X4741134Y-10459984D02*
X4760182Y-10459984D01*
X4760182Y-10459984D02*
X4779229Y-10469508D01*
X4779229Y-10469508D02*
X4788753Y-10479031D01*
X4788753Y-10479031D02*
X4798277Y-10498079D01*
X4798277Y-10498079D02*
X4807801Y-10536174D01*
X4807801Y-10536174D02*
X4807801Y-10583793D01*
X4807801Y-10583793D02*
X4798277Y-10621889D01*
X4798277Y-10621889D02*
X4788753Y-10640936D01*
X4788753Y-10640936D02*
X4779229Y-10650460D01*
X4779229Y-10650460D02*
X4760182Y-10659984D01*
X4760182Y-10659984D02*
X4741134Y-10659984D01*
X4741134Y-10659984D02*
X4722087Y-10650460D01*
X4722087Y-10650460D02*
X4712563Y-10640936D01*
X4712563Y-10640936D02*
X4703039Y-10621889D01*
X4703039Y-10621889D02*
X4693515Y-10583793D01*
X4693515Y-10583793D02*
X4693515Y-10536174D01*
X4693515Y-10536174D02*
X4703039Y-10498079D01*
X4703039Y-10498079D02*
X4712563Y-10479031D01*
X4712563Y-10479031D02*
X4722087Y-10469508D01*
X4722087Y-10469508D02*
X4741134Y-10459984D01*
X4893515Y-10640936D02*
X4903039Y-10650460D01*
X4903039Y-10650460D02*
X4893515Y-10659984D01*
X4893515Y-10659984D02*
X4883991Y-10650460D01*
X4883991Y-10650460D02*
X4893515Y-10640936D01*
X4893515Y-10640936D02*
X4893515Y-10659984D01*
X5026848Y-10459984D02*
X5045896Y-10459984D01*
X5045896Y-10459984D02*
X5064944Y-10469508D01*
X5064944Y-10469508D02*
X5074468Y-10479031D01*
X5074468Y-10479031D02*
X5083991Y-10498079D01*
X5083991Y-10498079D02*
X5093515Y-10536174D01*
X5093515Y-10536174D02*
X5093515Y-10583793D01*
X5093515Y-10583793D02*
X5083991Y-10621889D01*
X5083991Y-10621889D02*
X5074468Y-10640936D01*
X5074468Y-10640936D02*
X5064944Y-10650460D01*
X5064944Y-10650460D02*
X5045896Y-10659984D01*
X5045896Y-10659984D02*
X5026848Y-10659984D01*
X5026848Y-10659984D02*
X5007801Y-10650460D01*
X5007801Y-10650460D02*
X4998277Y-10640936D01*
X4998277Y-10640936D02*
X4988753Y-10621889D01*
X4988753Y-10621889D02*
X4979229Y-10583793D01*
X4979229Y-10583793D02*
X4979229Y-10536174D01*
X4979229Y-10536174D02*
X4988753Y-10498079D01*
X4988753Y-10498079D02*
X4998277Y-10479031D01*
X4998277Y-10479031D02*
X5007801Y-10469508D01*
X5007801Y-10469508D02*
X5026848Y-10459984D01*
X5264944Y-10526650D02*
X5264944Y-10659984D01*
X5217325Y-10450460D02*
X5169706Y-10593317D01*
X5169706Y-10593317D02*
X5293515Y-10593317D01*
X5407801Y-10459984D02*
X5426849Y-10459984D01*
X5426849Y-10459984D02*
X5445896Y-10469508D01*
X5445896Y-10469508D02*
X5455420Y-10479031D01*
X5455420Y-10479031D02*
X5464944Y-10498079D01*
X5464944Y-10498079D02*
X5474468Y-10536174D01*
X5474468Y-10536174D02*
X5474468Y-10583793D01*
X5474468Y-10583793D02*
X5464944Y-10621889D01*
X5464944Y-10621889D02*
X5455420Y-10640936D01*
X5455420Y-10640936D02*
X5445896Y-10650460D01*
X5445896Y-10650460D02*
X5426849Y-10659984D01*
X5426849Y-10659984D02*
X5407801Y-10659984D01*
X5407801Y-10659984D02*
X5388753Y-10650460D01*
X5388753Y-10650460D02*
X5379229Y-10640936D01*
X5379229Y-10640936D02*
X5369706Y-10621889D01*
X5369706Y-10621889D02*
X5360182Y-10583793D01*
X5360182Y-10583793D02*
X5360182Y-10536174D01*
X5360182Y-10536174D02*
X5369706Y-10498079D01*
X5369706Y-10498079D02*
X5379229Y-10479031D01*
X5379229Y-10479031D02*
X5388753Y-10469508D01*
X5388753Y-10469508D02*
X5407801Y-10459984D01*
X5598277Y-10459984D02*
X5617325Y-10459984D01*
X5617325Y-10459984D02*
X5636372Y-10469508D01*
X5636372Y-10469508D02*
X5645896Y-10479031D01*
X5645896Y-10479031D02*
X5655420Y-10498079D01*
X5655420Y-10498079D02*
X5664944Y-10536174D01*
X5664944Y-10536174D02*
X5664944Y-10583793D01*
X5664944Y-10583793D02*
X5655420Y-10621889D01*
X5655420Y-10621889D02*
X5645896Y-10640936D01*
X5645896Y-10640936D02*
X5636372Y-10650460D01*
X5636372Y-10650460D02*
X5617325Y-10659984D01*
X5617325Y-10659984D02*
X5598277Y-10659984D01*
X5598277Y-10659984D02*
X5579229Y-10650460D01*
X5579229Y-10650460D02*
X5569706Y-10640936D01*
X5569706Y-10640936D02*
X5560182Y-10621889D01*
X5560182Y-10621889D02*
X5550658Y-10583793D01*
X5550658Y-10583793D02*
X5550658Y-10536174D01*
X5550658Y-10536174D02*
X5560182Y-10498079D01*
X5560182Y-10498079D02*
X5569706Y-10479031D01*
X5569706Y-10479031D02*
X5579229Y-10469508D01*
X5579229Y-10469508D02*
X5598277Y-10459984D01*
X5741134Y-10459984D02*
X5741134Y-10498079D01*
X5817325Y-10459984D02*
X5817325Y-10498079D01*
X6112563Y-10736174D02*
X6103039Y-10726650D01*
X6103039Y-10726650D02*
X6083991Y-10698079D01*
X6083991Y-10698079D02*
X6074468Y-10679031D01*
X6074468Y-10679031D02*
X6064944Y-10650460D01*
X6064944Y-10650460D02*
X6055420Y-10602841D01*
X6055420Y-10602841D02*
X6055420Y-10564746D01*
X6055420Y-10564746D02*
X6064944Y-10517127D01*
X6064944Y-10517127D02*
X6074468Y-10488555D01*
X6074468Y-10488555D02*
X6083991Y-10469508D01*
X6083991Y-10469508D02*
X6103039Y-10440936D01*
X6103039Y-10440936D02*
X6112563Y-10431412D01*
X6179229Y-10479031D02*
X6188753Y-10469508D01*
X6188753Y-10469508D02*
X6207801Y-10459984D01*
X6207801Y-10459984D02*
X6255420Y-10459984D01*
X6255420Y-10459984D02*
X6274468Y-10469508D01*
X6274468Y-10469508D02*
X6283991Y-10479031D01*
X6283991Y-10479031D02*
X6293515Y-10498079D01*
X6293515Y-10498079D02*
X6293515Y-10517127D01*
X6293515Y-10517127D02*
X6283991Y-10545698D01*
X6283991Y-10545698D02*
X6169706Y-10659984D01*
X6169706Y-10659984D02*
X6293515Y-10659984D01*
X6531610Y-10659984D02*
X6531610Y-10459984D01*
X6617325Y-10659984D02*
X6617325Y-10555222D01*
X6617325Y-10555222D02*
X6607801Y-10536174D01*
X6607801Y-10536174D02*
X6588753Y-10526650D01*
X6588753Y-10526650D02*
X6560182Y-10526650D01*
X6560182Y-10526650D02*
X6541134Y-10536174D01*
X6541134Y-10536174D02*
X6531610Y-10545698D01*
X6741134Y-10659984D02*
X6722087Y-10650460D01*
X6722087Y-10650460D02*
X6712563Y-10640936D01*
X6712563Y-10640936D02*
X6703039Y-10621889D01*
X6703039Y-10621889D02*
X6703039Y-10564746D01*
X6703039Y-10564746D02*
X6712563Y-10545698D01*
X6712563Y-10545698D02*
X6722087Y-10536174D01*
X6722087Y-10536174D02*
X6741134Y-10526650D01*
X6741134Y-10526650D02*
X6769706Y-10526650D01*
X6769706Y-10526650D02*
X6788753Y-10536174D01*
X6788753Y-10536174D02*
X6798277Y-10545698D01*
X6798277Y-10545698D02*
X6807801Y-10564746D01*
X6807801Y-10564746D02*
X6807801Y-10621889D01*
X6807801Y-10621889D02*
X6798277Y-10640936D01*
X6798277Y-10640936D02*
X6788753Y-10650460D01*
X6788753Y-10650460D02*
X6769706Y-10659984D01*
X6769706Y-10659984D02*
X6741134Y-10659984D01*
X6922087Y-10659984D02*
X6903039Y-10650460D01*
X6903039Y-10650460D02*
X6893515Y-10631412D01*
X6893515Y-10631412D02*
X6893515Y-10459984D01*
X7074468Y-10650460D02*
X7055420Y-10659984D01*
X7055420Y-10659984D02*
X7017325Y-10659984D01*
X7017325Y-10659984D02*
X6998277Y-10650460D01*
X6998277Y-10650460D02*
X6988753Y-10631412D01*
X6988753Y-10631412D02*
X6988753Y-10555222D01*
X6988753Y-10555222D02*
X6998277Y-10536174D01*
X6998277Y-10536174D02*
X7017325Y-10526650D01*
X7017325Y-10526650D02*
X7055420Y-10526650D01*
X7055420Y-10526650D02*
X7074468Y-10536174D01*
X7074468Y-10536174D02*
X7083991Y-10555222D01*
X7083991Y-10555222D02*
X7083991Y-10574270D01*
X7083991Y-10574270D02*
X6988753Y-10593317D01*
X7160182Y-10650460D02*
X7179230Y-10659984D01*
X7179230Y-10659984D02*
X7217325Y-10659984D01*
X7217325Y-10659984D02*
X7236372Y-10650460D01*
X7236372Y-10650460D02*
X7245896Y-10631412D01*
X7245896Y-10631412D02*
X7245896Y-10621889D01*
X7245896Y-10621889D02*
X7236372Y-10602841D01*
X7236372Y-10602841D02*
X7217325Y-10593317D01*
X7217325Y-10593317D02*
X7188753Y-10593317D01*
X7188753Y-10593317D02*
X7169706Y-10583793D01*
X7169706Y-10583793D02*
X7160182Y-10564746D01*
X7160182Y-10564746D02*
X7160182Y-10555222D01*
X7160182Y-10555222D02*
X7169706Y-10536174D01*
X7169706Y-10536174D02*
X7188753Y-10526650D01*
X7188753Y-10526650D02*
X7217325Y-10526650D01*
X7217325Y-10526650D02*
X7236372Y-10536174D01*
X7312563Y-10736174D02*
X7322087Y-10726650D01*
X7322087Y-10726650D02*
X7341134Y-10698079D01*
X7341134Y-10698079D02*
X7350658Y-10679031D01*
X7350658Y-10679031D02*
X7360182Y-10650460D01*
X7360182Y-10650460D02*
X7369706Y-10602841D01*
X7369706Y-10602841D02*
X7369706Y-10564746D01*
X7369706Y-10564746D02*
X7360182Y-10517127D01*
X7360182Y-10517127D02*
X7350658Y-10488555D01*
X7350658Y-10488555D02*
X7341134Y-10469508D01*
X7341134Y-10469508D02*
X7322087Y-10440936D01*
X7322087Y-10440936D02*
X7312563Y-10431412D01*
M02*
