%TF.GenerationSoftware,KiCad,Pcbnew,9.0.6*%
%TF.CreationDate,2026-02-26T15:01:50-08:00*%
%TF.ProjectId,photogateBallDropKiCAD,70686f74-6f67-4617-9465-42616c6c4472,rev?*%
%TF.SameCoordinates,Original*%
%TF.FileFunction,Copper,L1,Top*%
%TF.FilePolarity,Positive*%
%FSLAX46Y46*%
G04 Gerber Fmt 4.6, Leading zero omitted, Abs format (unit mm)*
G04 Created by KiCad (PCBNEW 9.0.6) date 2026-02-26 15:01:50*
%MOMM*%
%LPD*%
G01*
G04 APERTURE LIST*
G04 Aperture macros list*
%AMRoundRect*
0 Rectangle with rounded corners*
0 $1 Rounding radius*
0 $2 $3 $4 $5 $6 $7 $8 $9 X,Y pos of 4 corners*
0 Add a 4 corners polygon primitive as box body*
4,1,4,$2,$3,$4,$5,$6,$7,$8,$9,$2,$3,0*
0 Add four circle primitives for the rounded corners*
1,1,$1+$1,$2,$3*
1,1,$1+$1,$4,$5*
1,1,$1+$1,$6,$7*
1,1,$1+$1,$8,$9*
0 Add four rect primitives between the rounded corners*
20,1,$1+$1,$2,$3,$4,$5,0*
20,1,$1+$1,$4,$5,$6,$7,0*
20,1,$1+$1,$6,$7,$8,$9,0*
20,1,$1+$1,$8,$9,$2,$3,0*%
G04 Aperture macros list end*
%TA.AperFunction,ComponentPad*%
%ADD10C,1.727200*%
%TD*%
%TA.AperFunction,ComponentPad*%
%ADD11RoundRect,0.250000X0.613600X1.020000X-0.613600X1.020000X-0.613600X-1.020000X0.613600X-1.020000X0*%
%TD*%
%TA.AperFunction,ComponentPad*%
%ADD12O,1.727200X2.540000*%
%TD*%
%TA.AperFunction,ComponentPad*%
%ADD13O,1.727200X2.336800*%
%TD*%
%TA.AperFunction,ComponentPad*%
%ADD14O,2.336800X1.727200*%
%TD*%
%TA.AperFunction,ComponentPad*%
%ADD15RoundRect,0.250000X0.613600X0.613600X-0.613600X0.613600X-0.613600X-0.613600X0.613600X-0.613600X0*%
%TD*%
%TA.AperFunction,ComponentPad*%
%ADD16RoundRect,0.250000X-0.613600X-1.020000X0.613600X-1.020000X0.613600X1.020000X-0.613600X1.020000X0*%
%TD*%
%TA.AperFunction,ComponentPad*%
%ADD17RoundRect,0.239889X0.623711X1.030111X-0.623711X1.030111X-0.623711X-1.030111X0.623711X-1.030111X0*%
%TD*%
%TA.AperFunction,ComponentPad*%
%ADD18RoundRect,0.250000X1.020000X-0.613600X1.020000X0.613600X-1.020000X0.613600X-1.020000X-0.613600X0*%
%TD*%
%TA.AperFunction,ComponentPad*%
%ADD19O,2.540000X1.727200*%
%TD*%
%TA.AperFunction,ComponentPad*%
%ADD20RoundRect,0.250000X0.613600X-1.020000X0.613600X1.020000X-0.613600X1.020000X-0.613600X-1.020000X0*%
%TD*%
%TA.AperFunction,ComponentPad*%
%ADD21R,1.727200X1.727200*%
%TD*%
G04 APERTURE END LIST*
D10*
%TO.P,R20,1*%
%TO.N,VCC*%
X42672000Y-69850000D03*
%TO.P,R20,2*%
%TO.N,INT*%
X42672000Y-80010000D03*
%TD*%
D11*
%TO.P,Q7,1,E*%
%TO.N,GND*%
X57912000Y-76962000D03*
D12*
%TO.P,Q7,2,B*%
%TO.N,Net-(Q7-B)*%
X55372000Y-76962000D03*
%TO.P,Q7,3,C*%
%TO.N,INT*%
X51054000Y-76962000D03*
%TD*%
D10*
%TO.P,R16,1*%
%TO.N,Net-(U2B-+)*%
X138684000Y-76454000D03*
%TO.P,R16,2*%
%TO.N,VCC*%
X138684000Y-68834000D03*
%TD*%
%TO.P,C9,2*%
%TO.N,GND*%
X132040000Y-71882000D03*
%TO.P,C9,1*%
%TO.N,VCC*%
X127040000Y-71882000D03*
%TD*%
%TO.P,R19,1*%
%TO.N,Net-(R1-Pad1)*%
X110236000Y-77724000D03*
%TO.P,R19,2*%
%TO.N,Net-(Q1-B)*%
X102616000Y-77724000D03*
%TD*%
%TO.P,R1,1*%
%TO.N,Net-(R1-Pad1)*%
X106934000Y-74422000D03*
%TO.P,R1,2*%
%TO.N,Net-(Q7-B)*%
X99314000Y-74422000D03*
%TD*%
D13*
%TO.P,J1,R*%
%TO.N,INT*%
X38180000Y-84408000D03*
D14*
%TO.P,J1,S*%
%TO.N,GND*%
X43180000Y-89408000D03*
D13*
%TO.P,J1,T*%
%TO.N,VCC*%
X48180000Y-84408000D03*
%TD*%
D10*
%TO.P,R5,1*%
%TO.N,Net-(U2A--)*%
X120142000Y-82550000D03*
%TO.P,R5,2*%
%TO.N,Net-(C3-Pad1)*%
X120142000Y-90170000D03*
%TD*%
%TO.P,R3,2*%
%TO.N,GND*%
X113030000Y-82550000D03*
%TO.P,R3,1*%
%TO.N,Net-(U2A-+)*%
X113030000Y-74930000D03*
%TD*%
%TO.P,R2,2*%
%TO.N,Net-(U2A-+)*%
X120142000Y-80010000D03*
%TO.P,R2,1*%
%TO.N,VCC*%
X120142000Y-69850000D03*
%TD*%
%TO.P,R17,2*%
%TO.N,GND*%
X151130000Y-82296000D03*
%TO.P,R17,1*%
%TO.N,Net-(U2B-+)*%
X143510000Y-82296000D03*
%TD*%
%TO.P,R4,1*%
%TO.N,Net-(U2A-+)*%
X137668000Y-89154000D03*
%TO.P,R4,2*%
%TO.N,Net-(C3-Pad1)*%
X130048000Y-89154000D03*
%TD*%
%TO.P,R18,1*%
%TO.N,Net-(U2B-+)*%
X135382000Y-76454000D03*
%TO.P,R18,2*%
%TO.N,Net-(R1-Pad1)*%
X135382000Y-84074000D03*
%TD*%
%TO.P,R15,1*%
%TO.N,Net-(D2-K)*%
X143510000Y-75946000D03*
%TO.P,R15,2*%
%TO.N,GND*%
X151130000Y-75946000D03*
%TD*%
%TO.P,C2,2*%
%TO.N,GND*%
X127000000Y-92416000D03*
%TO.P,C2,1*%
%TO.N,Net-(U2A--)*%
X127000000Y-87416000D03*
%TD*%
%TO.P,R6,1*%
%TO.N,VCC*%
X36830000Y-54737000D03*
%TO.P,R6,2*%
%TO.N,Net-(Q2-B)*%
X29210000Y-54737000D03*
%TD*%
D15*
%TO.P,D2,1,K*%
%TO.N,Net-(D2-K)*%
X149098000Y-70612000D03*
D10*
%TO.P,D2,2,A*%
%TO.N,Net-(D2-A)*%
X141478000Y-70612000D03*
%TD*%
D16*
%TO.P,Q2,1,E*%
%TO.N,GND*%
X26670000Y-50927000D03*
D12*
%TO.P,Q2,2,B*%
%TO.N,Net-(Q2-B)*%
X29210000Y-50927000D03*
%TO.P,Q2,3,C*%
%TO.N,Net-(Q2-C)*%
X31750000Y-50927000D03*
%TD*%
D17*
%TO.P,D3,1,K*%
%TO.N,Net-(D3-K)*%
X90175000Y-76200000D03*
D12*
%TO.P,D3,2,A*%
%TO.N,Net-(D3-A)*%
X87635000Y-76200000D03*
%TD*%
D16*
%TO.P,Q3,1,E*%
%TO.N,GND*%
X26670000Y-42651000D03*
D12*
%TO.P,Q3,2,B*%
%TO.N,Net-(Q2-C)*%
X29210000Y-42651000D03*
%TO.P,Q3,3,C*%
%TO.N,Net-(D1-K)*%
X31750000Y-42651000D03*
%TD*%
D18*
%TO.P,D1,1,K*%
%TO.N,Net-(D1-K)*%
X34885000Y-29215000D03*
D19*
%TO.P,D1,2,A*%
%TO.N,Net-(D1-A)*%
X34885000Y-26675000D03*
%TD*%
D10*
%TO.P,C3,1*%
%TO.N,Net-(C3-Pad1)*%
X55840000Y-71882000D03*
%TO.P,C3,2*%
%TO.N,Net-(Q2-B)*%
X50840000Y-71882000D03*
%TD*%
%TO.P,C12,1*%
%TO.N,GND*%
X58126000Y-90170000D03*
%TO.P,C12,2*%
%TO.N,VCC*%
X53126000Y-90170000D03*
%TD*%
D20*
%TO.P,U2,1*%
%TO.N,Net-(C3-Pad1)*%
X124460000Y-84074000D03*
D12*
%TO.P,U2,2,-*%
%TO.N,Net-(U2A--)*%
X127000000Y-84074000D03*
%TO.P,U2,3,+*%
%TO.N,Net-(U2A-+)*%
X129540000Y-84074000D03*
%TO.P,U2,4,V-*%
%TO.N,GND*%
X132080000Y-84074000D03*
%TO.P,U2,5,+*%
%TO.N,Net-(U2B-+)*%
X132080000Y-76454000D03*
%TO.P,U2,6,-*%
%TO.N,Net-(D2-K)*%
X129540000Y-76454000D03*
%TO.P,U2,7*%
%TO.N,Net-(R1-Pad1)*%
X127000000Y-76454000D03*
%TO.P,U2,8,V+*%
%TO.N,VCC*%
X124460000Y-76454000D03*
%TD*%
D10*
%TO.P,C6,1*%
%TO.N,Net-(Q5-C)*%
X143590000Y-53213000D03*
%TO.P,C6,2*%
%TO.N,Net-(Q8-B)*%
X148590000Y-53213000D03*
%TD*%
D21*
%TO.P,Q4,1,C*%
%TO.N,VCC*%
X142915000Y-26665000D03*
D10*
%TO.P,Q4,2,E*%
%TO.N,Net-(Q4-E)*%
X142915000Y-29205000D03*
%TD*%
%TO.P,C1,1*%
%TO.N,GND*%
X29250000Y-37846000D03*
%TO.P,C1,2*%
%TO.N,VCC*%
X34250000Y-37846000D03*
%TD*%
%TO.P,C10,1*%
%TO.N,GND*%
X56896000Y-84328000D03*
%TO.P,C10,2*%
%TO.N,VCC*%
X53396000Y-84328000D03*
%TD*%
%TO.P,R9,1*%
%TO.N,VCC*%
X36830000Y-34417000D03*
%TO.P,R9,2*%
%TO.N,Net-(D1-A)*%
X26670000Y-34417000D03*
%TD*%
%TO.P,R26,1*%
%TO.N,VCC*%
X140970000Y-65278000D03*
%TO.P,R26,2*%
%TO.N,Net-(D2-A)*%
X148590000Y-65278000D03*
%TD*%
%TO.P,C4,1*%
%TO.N,Net-(Q4-E)*%
X143510000Y-38100000D03*
%TO.P,C4,2*%
%TO.N,Net-(Q5-B)*%
X148510000Y-38100000D03*
%TD*%
%TO.P,C5,1*%
%TO.N,GND*%
X151130000Y-79248000D03*
%TO.P,C5,2*%
%TO.N,Net-(D2-K)*%
X146130000Y-79248000D03*
%TD*%
%TO.P,R10,1*%
%TO.N,Net-(Q4-E)*%
X143510000Y-34671000D03*
%TO.P,R10,2*%
%TO.N,GND*%
X151130000Y-34671000D03*
%TD*%
D11*
%TO.P,Q8,1,E*%
%TO.N,GND*%
X151130000Y-60579000D03*
D12*
%TO.P,Q8,2,B*%
%TO.N,Net-(Q8-B)*%
X148590000Y-60579000D03*
%TO.P,Q8,3,C*%
%TO.N,Net-(D2-A)*%
X146050000Y-60579000D03*
%TD*%
D10*
%TO.P,R13,1*%
%TO.N,VCC*%
X140970000Y-49784000D03*
%TO.P,R13,2*%
%TO.N,Net-(Q5-C)*%
X148590000Y-49784000D03*
%TD*%
%TO.P,R8,1*%
%TO.N,VCC*%
X36830000Y-46355000D03*
%TO.P,R8,2*%
%TO.N,Net-(Q2-C)*%
X29210000Y-46355000D03*
%TD*%
D18*
%TO.P,Q1,1,E*%
%TO.N,GND*%
X99420000Y-82550000D03*
D19*
%TO.P,Q1,2,B*%
%TO.N,Net-(Q1-B)*%
X99420000Y-80010000D03*
%TO.P,Q1,3,C*%
%TO.N,Net-(D3-K)*%
X99420000Y-77470000D03*
%TD*%
D11*
%TO.P,Q5,1,E*%
%TO.N,GND*%
X151130000Y-45233000D03*
D12*
%TO.P,Q5,2,B*%
%TO.N,Net-(Q5-B)*%
X148590000Y-45233000D03*
%TO.P,Q5,3,C*%
%TO.N,Net-(Q5-C)*%
X146050000Y-45233000D03*
%TD*%
D10*
%TO.P,R24,1*%
%TO.N,VCC*%
X140970000Y-56642000D03*
%TO.P,R24,2*%
%TO.N,Net-(Q8-B)*%
X148590000Y-56642000D03*
%TD*%
%TO.P,R11,1*%
%TO.N,VCC*%
X140970000Y-41402000D03*
%TO.P,R11,2*%
%TO.N,Net-(Q5-B)*%
X148590000Y-41402000D03*
%TD*%
%TO.P,R7,1*%
%TO.N,Net-(D3-A)*%
X78740000Y-80010000D03*
%TO.P,R7,2*%
%TO.N,VCC*%
X78740000Y-69850000D03*
%TD*%
M02*
